<svg width="24" height="24" viewBox="0 0 24 24" fill="none" xmlns="http://www.w3.org/2000/svg">
<path d="M15 15C18.3137 15 21 17.6863 21 21H18.5C18.5 19.067 16.933 17.5 15 17.5H9C7.067 17.5 5.5 19.067 5.5 21H3C3 17.6863 5.68629 15 9 15H15ZM12 2C14.7614 2 17 4.23858 17 7C17 9.76142 14.7614 12 12 12C9.23858 12 7 9.76142 7 7C7 4.23858 9.23858 2 12 2ZM12 4.5C10.6193 4.5 9.5 5.61929 9.5 7C9.5 8.38071 10.6193 9.5 12 9.5C13.3807 9.5 14.5 8.38071 14.5 7C14.5 5.61929 13.3807 4.5 12 4.5Z" fill="#333333"/>
</svg>
