<svg width="24" height="24" viewBox="0 0 24 24" fill="none" xmlns="http://www.w3.org/2000/svg">
<path d="M12 12.5C17.4263 12.5 22.5 15.9766 22.5 21C22.5 21.8284 21.8284 22.5 21 22.5H3C2.17157 22.5 1.5 21.8284 1.5 21C1.5 15.9766 6.57367 12.5 12 12.5ZM12 15.5C8.32428 15.5 5.66323 17.3506 4.80078 19.5H19.1992C18.3368 17.3506 15.6757 15.5 12 15.5ZM12 1.5C14.4853 1.5 16.5 3.51472 16.5 6C16.5 8.48528 14.4853 10.5 12 10.5C9.51472 10.5 7.5 8.48528 7.5 6C7.5 3.51472 9.51472 1.5 12 1.5ZM12 4.5C11.1716 4.5 10.5 5.17157 10.5 6C10.5 6.82843 11.1716 7.5 12 7.5C12.8284 7.5 13.5 6.82843 13.5 6C13.5 5.17157 12.8284 4.5 12 4.5Z" fill="#333333"/>
</svg>
