<svg width="24" height="24" viewBox="0 0 24 24" fill="none" xmlns="http://www.w3.org/2000/svg">
<path d="M12 0.5C12.8284 0.5 13.5 1.17157 13.5 2V3.5H14.5C17.2614 3.5 19.5 5.73858 19.5 8.5C19.5 9.73947 19.0476 10.8724 18.3008 11.7461C19.342 12.6624 20 14.004 20 15.5C20 18.2614 17.7614 20.5 15 20.5H13.5V22C13.5 22.8284 12.8284 23.5 12 23.5C11.1716 23.5 10.5 22.8284 10.5 22V20.5H8C6.61931 20.5 5.50003 19.3807 5.5 18V6C5.5 4.61929 6.61929 3.5 8 3.5H10.5V2C10.5 1.17157 11.1716 0.5 12 0.5ZM8.5 17.5H15C16.1045 17.5 17 16.6045 17 15.5C17 14.3954 16.1046 13.5 15 13.5H8.5V17.5ZM8.5 10.5H14.5C15.6046 10.5 16.5 9.60457 16.5 8.5C16.5 7.39543 15.6046 6.5 14.5 6.5H8.5V10.5Z" fill="#333333"/>
</svg>
