<svg width="24" height="24" viewBox="0 0 24 24" fill="none" xmlns="http://www.w3.org/2000/svg">
<path d="M12.5801 2C12.7181 2.00004 12.8301 2.11195 12.8301 2.25V4.16992C14.2948 4.17249 15.4801 4.49297 16.3066 5.11621C17.1469 5.74987 17.5879 6.67547 17.5879 7.81055C17.5879 9.1429 16.9968 10.1515 16.0986 10.8076C17.4671 11.5518 18.1552 12.8409 18.1553 14.3838C18.1553 15.5619 17.7557 16.6466 16.9219 17.4355C16.0885 18.2239 14.8499 18.6904 13.2227 18.6904H12.8301V20.25C12.8301 20.388 12.7181 20.5 12.5801 20.5H11.0801C10.942 20.5 10.8301 20.3881 10.8301 20.25V18.6904H7V4.16992H10.8301V2.25C10.8301 2.11193 10.942 2 11.0801 2H12.5801ZM9.3125 16.5146H13.1641C14.0409 16.5146 14.6871 16.2952 15.1104 15.9248C15.5282 15.5591 15.7646 15.0153 15.7646 14.2861C15.7646 13.6363 15.5716 13.102 15.2002 12.7305C14.8293 12.3596 14.2463 12.1163 13.3994 12.1162H9.3125V16.5146ZM9.3125 10H12.9688C13.7867 10 14.3529 9.79547 14.7119 9.47363C15.0665 9.15565 15.2558 8.68999 15.2559 8.08496C15.2559 7.44717 15.0522 7.03755 14.6816 6.77344C14.2917 6.49559 13.6723 6.34476 12.7734 6.34473H9.3125V10Z" fill="#333333"/>
</svg>
