<svg width="24" height="24" viewBox="0 0 24 24" fill="none" xmlns="http://www.w3.org/2000/svg">
<path d="M19 2.5C21.4853 2.5 23.5 4.51472 23.5 7V17C23.5 19.4853 21.4853 21.5 19 21.5H5C2.51472 21.5 0.5 19.4853 0.5 17V7C0.5 4.51472 2.51472 2.5 5 2.5H19ZM5 5.5C4.17157 5.5 3.5 6.17157 3.5 7V17C3.5 17.8284 4.17157 18.5 5 18.5H19C19.8284 18.5 20.5 17.8284 20.5 17V7C20.5 6.17157 19.8284 5.5 19 5.5H5ZM10 8.5C10.8284 8.5 11.5 9.17157 11.5 10C11.5 10.8284 10.8284 11.5 10 11.5H8C7.17157 11.5 6.5 10.8284 6.5 10C6.5 9.17157 7.17157 8.5 8 8.5H10Z" fill="#333333"/>
</svg>
