<svg width="24" height="24" viewBox="0 0 24 24" fill="none" xmlns="http://www.w3.org/2000/svg">
<path d="M3 14.5C3.82843 14.5 4.5 15.1716 4.5 16V19C4.5 19.2761 4.72386 19.5 5 19.5H8C8.82843 19.5 9.5 20.1716 9.5 21C9.5 21.8284 8.82843 22.5 8 22.5H5C3.06701 22.5 1.5 20.933 1.5 19V16C1.5 15.1716 2.17158 14.5 3 14.5ZM21 14.5C21.8284 14.5 22.5 15.1716 22.5 16V19C22.5 20.933 20.933 22.5 19 22.5H16C15.1716 22.5 14.5 21.8284 14.5 21C14.5 20.1716 15.1716 19.5 16 19.5H19C19.2761 19.5 19.5 19.2761 19.5 19V16C19.5 15.1716 20.1716 14.5 21 14.5ZM13.9697 6C14.1906 6 14.3555 6.21239 14.3105 6.43848L14.1025 7.47656C14.8387 7.72897 15.4372 8.12357 15.8828 8.52441C16.0339 8.66042 16.0385 8.90406 15.8984 9.05273L15.2344 9.75781C15.1019 9.89796 14.8911 9.89847 14.75 9.76758C14.1919 9.24924 13.3374 8.87122 12.4463 8.87109C11.7488 8.87109 11.05 9.13266 11.0498 9.79297C11.0498 10.4709 11.7981 10.6967 12.6621 11.0273C14.1741 11.5663 15.4199 12.2274 15.4199 13.792C15.4199 15.4925 14.1696 16.6542 12.127 16.7861L11.9414 17.7109C11.9076 17.8804 11.764 18.0013 11.5986 18L10.3135 17.9902C10.0929 17.9884 9.9299 17.7752 9.97559 17.5498L10.1709 16.5889C9.36696 16.3597 8.66284 15.9499 8.10645 15.3848C7.96583 15.2422 7.96396 15.0053 8.10352 14.8613L8.81738 14.125C8.95266 13.9853 9.16941 13.9863 9.30469 14.126C9.99435 14.8375 10.883 15.1309 11.7314 15.1309C12.662 15.1309 13.2929 14.7308 13.293 14.0527C13.293 13.3923 12.662 13.2182 11.4658 12.749C10.2031 12.2797 9.00684 11.6008 9.00684 10.0186C9.00705 8.19111 10.4533 7.30014 12.1592 7.21094L12.3467 6.28809C12.3809 6.12018 12.5225 6 12.6865 6H13.9697ZM8 1.5C8.82843 1.5 9.5 2.17157 9.5 3C9.5 3.82843 8.82843 4.5 8 4.5H5C4.72386 4.5 4.5 4.72386 4.5 5V8C4.5 8.82843 3.82843 9.5 3 9.5C2.17157 9.5 1.5 8.82843 1.5 8V5C1.5 3.067 3.067 1.5 5 1.5H8ZM19 1.5C20.933 1.5 22.5 3.067 22.5 5V8C22.5 8.82843 21.8284 9.5 21 9.5C20.1716 9.5 19.5 8.82843 19.5 8V5C19.5 4.72386 19.2761 4.5 19 4.5H16C15.1716 4.5 14.5 3.82843 14.5 3C14.5 2.17157 15.1716 1.5 16 1.5H19Z" fill="#333333"/>
</svg>
