<svg width="24" height="24" viewBox="0 0 24 24" fill="none" xmlns="http://www.w3.org/2000/svg">
<path d="M4.5 15.9844C4.5 16.8447 4.50042 17.4151 4.53613 17.8525C4.57068 18.2753 4.63171 18.4638 4.69043 18.5791C4.85817 18.9082 5.12601 19.176 5.45508 19.3438C5.57035 19.4025 5.75881 19.4625 6.18164 19.4971C6.61911 19.5328 7.18946 19.5342 8.04981 19.5342H9.8252V22.0342H8.04981C7.23045 22.0342 6.54046 22.0353 5.97754 21.9893C5.40011 21.9421 4.84666 21.8395 4.32031 21.5713C3.52073 21.1638 2.87033 20.5135 2.46289 19.7139C2.19474 19.1875 2.09212 18.6341 2.04492 18.0566C1.99894 17.4937 2 16.8037 2 15.9844V14.209H4.5V15.9844ZM22.0342 15.9844C22.0342 16.8038 22.0353 17.4937 21.9893 18.0566C21.9421 18.6341 21.8395 19.1875 21.5713 19.7139C21.1638 20.5135 20.5135 21.1638 19.7139 21.5713C19.1875 21.8395 18.6341 21.9421 18.0566 21.9893C17.4937 22.0352 16.8037 22.0342 15.9844 22.0342H14.209V19.5342H15.9844C16.8447 19.5342 17.4151 19.5338 17.8525 19.498C18.2754 19.4635 18.4638 19.4025 18.5791 19.3438C18.9082 19.176 19.176 18.9082 19.3438 18.5791C19.4025 18.4638 19.4625 18.2754 19.4971 17.8525C19.5328 17.4151 19.5342 16.8448 19.5342 15.9844V14.209H22.0342V15.9844ZM13.6357 7.30469C13.8174 7.30469 13.9531 7.47175 13.916 7.64942L13.7451 8.46485C14.3501 8.66305 14.8418 8.97234 15.208 9.28711C15.3323 9.39382 15.3366 9.58528 15.2217 9.70215L14.6758 10.2559C14.5669 10.3662 14.3934 10.3667 14.2773 10.2637C13.8186 9.85654 13.1163 9.56061 12.3838 9.56055C11.8104 9.56055 11.2363 9.76538 11.2363 10.2842C11.2363 10.8166 11.8514 10.9942 12.5615 11.2539C13.8041 11.6772 14.8281 12.1961 14.8281 13.4248C14.8281 14.7605 13.8 15.6727 12.1211 15.7764L11.9688 16.5029C11.941 16.636 11.8233 16.7314 11.6875 16.7305L10.6309 16.7217C10.4497 16.7202 10.3162 16.5539 10.3535 16.377L10.5137 15.6211C9.85298 15.4411 9.27367 15.1196 8.81641 14.6758C8.70113 14.5637 8.69981 14.3776 8.81446 14.2647L9.40137 13.6865C9.51256 13.5768 9.69057 13.5778 9.80176 13.6875C10.3685 14.2462 11.0988 14.4765 11.7959 14.4766C12.5607 14.4766 13.0799 14.1624 13.0801 13.6299C13.0801 13.1111 12.5613 12.974 11.5781 12.6055C10.5404 12.2369 9.55689 11.7044 9.55664 10.4619C9.55664 9.02637 10.7453 8.32595 12.1475 8.25586L12.3018 7.53125C12.3298 7.3994 12.4463 7.30484 12.5811 7.30469H13.6357ZM9.8252 4.5H8.04981C7.1894 4.5 6.61912 4.50041 6.18164 4.53613C5.75876 4.57069 5.57037 4.6317 5.45508 4.69043C5.126 4.85818 4.85817 5.12599 4.69043 5.45508C4.6317 5.57035 4.57167 5.75879 4.53711 6.18164C4.50139 6.61911 4.5 7.18945 4.5 8.04981V9.8252H2V8.04981C2 7.23044 1.99893 6.54046 2.04492 5.97754C2.09212 5.40011 2.19472 4.84666 2.46289 4.32031C2.87034 3.52072 3.52071 2.87034 4.32031 2.46289C4.84666 2.19472 5.40011 2.09212 5.97754 2.04492C6.54046 1.99893 7.23045 2 8.04981 2H9.8252V4.5ZM15.9844 2C16.8038 2 17.4937 1.99893 18.0566 2.04492C18.6341 2.09212 19.1875 2.19471 19.7139 2.46289C20.5135 2.87034 21.1638 3.5207 21.5713 4.32031C21.8395 4.84667 21.9421 5.4001 21.9893 5.97754C22.0353 6.54046 22.0342 7.23044 22.0342 8.04981V9.8252H19.5342V8.04981C19.5342 7.1894 19.5338 6.61912 19.498 6.18164C19.4635 5.75874 19.4025 5.57037 19.3438 5.45508C19.176 5.12599 18.9082 4.85817 18.5791 4.69043C18.4638 4.6317 18.2754 4.57167 17.8525 4.53711C17.4151 4.50139 16.8448 4.5 15.9844 4.5H14.209V2H15.9844Z" fill="#333333"/>
</svg>
