<svg width="24" height="24" viewBox="0 0 24 24" fill="none" xmlns="http://www.w3.org/2000/svg">
<path d="M18 6.5C19.933 6.5 21.5 8.06701 21.5 10V19C21.5 20.933 19.933 22.5 18 22.5H11C9.067 22.5 7.5 20.933 7.5 19V10C7.50001 8.06701 9.06701 6.5 11 6.5H18ZM11 9.5C10.7239 9.5 10.5 9.72387 10.5 10V19C10.5 19.2761 10.7239 19.5 11 19.5H18C18.2417 19.5 18.4437 19.3286 18.4902 19.1006L18.5 19V10C18.5 9.72387 18.2761 9.5 18 9.5H11ZM15 1.5C15.8284 1.5 16.5 2.17157 16.5 3C16.5 3.82843 15.8284 4.5 15 4.5H6C5.72386 4.5 5.5 4.72386 5.5 5V16C5.5 16.8284 4.82842 17.5 4 17.5C3.17158 17.5 2.5 16.8284 2.5 16V5C2.5 3.067 4.067 1.5 6 1.5H15Z" fill="#333333"/>
</svg>
