<svg width="24" height="24" viewBox="0 0 24 24" fill="none" xmlns="http://www.w3.org/2000/svg">
<path d="M20 14.5C20.8284 14.5 21.5 15.1716 21.5 16V19C21.5 20.933 19.933 22.5 18 22.5H6C4.067 22.5 2.5 20.933 2.5 19V16C2.5 15.1716 3.17157 14.5 4 14.5C4.82843 14.5 5.5 15.1716 5.5 16V19C5.5 19.2761 5.72386 19.5 6 19.5H18C18.2761 19.5 18.5 19.2761 18.5 19V16C18.5 15.1716 19.1716 14.5 20 14.5ZM12 1.5C12.8284 1.5 13.5 2.17157 13.5 3V10.3789L14.9395 8.93945C15.5252 8.35367 16.4748 8.35367 17.0605 8.93945C17.6463 9.52524 17.6463 10.4748 17.0605 11.0605L13.0605 15.0605C12.4748 15.6463 11.5252 15.6463 10.9395 15.0605L6.93945 11.0605C6.35367 10.4748 6.35367 9.52524 6.93945 8.93945C7.52524 8.35367 8.47476 8.35367 9.06055 8.93945L10.5 10.3789V3C10.5 2.17157 11.1716 1.5 12 1.5Z" fill="#333333"/>
</svg>
