<svg width="24" height="24" viewBox="0 0 24 24" fill="none" xmlns="http://www.w3.org/2000/svg">
<path d="M20 14.5C20.8284 14.5 21.5 15.1716 21.5 16V17.5C21.5 20.5376 19.0376 23 16 23H8C4.96243 23 2.5 20.5376 2.5 17.5V16C2.5 15.1716 3.17157 14.5 4 14.5C4.82843 14.5 5.5 15.1716 5.5 16V17.5C5.5 18.8807 6.61929 20 8 20H16C17.3807 20 18.5 18.8807 18.5 17.5V16C18.5 15.1716 19.1716 14.5 20 14.5ZM12 1C12.8284 1.00003 13.5 1.6716 13.5 2.5V10.8789L15.9395 8.43945C16.5252 7.85368 17.4748 7.85367 18.0605 8.43945C18.6463 9.02524 18.6463 9.97476 18.0605 10.5605L13.0605 15.5605C12.7793 15.8418 12.3978 16 12 16C11.6022 16 11.2208 15.8418 10.9395 15.5605L5.93945 10.5605C5.35368 9.97476 5.35368 9.02523 5.93945 8.43945C6.52524 7.85368 7.47477 7.85367 8.06055 8.43945L10.5 10.8789V2.5C10.5 1.67158 11.1716 1 12 1Z" fill="#333333"/>
</svg>
