<svg width="24" height="24" viewBox="0 0 24 24" fill="none" xmlns="http://www.w3.org/2000/svg">
<path d="M13.3616 4.23268C14.6643 2.93351 16.7727 2.93351 18.0754 4.23268L19.762 5.91432C21.0646 7.21376 21.0691 9.32343 19.7717 10.6282L11.3626 19.0842C10.7639 19.6862 10.0208 20.125 9.20435 20.3577L5.5149 21.4085C3.73899 21.9143 2.08055 20.2767 2.59303 18.4866L3.64869 14.8001C3.88062 13.9905 4.31509 13.2532 4.91139 12.6585L13.3616 4.23268ZM7.03053 14.7835C6.79527 15.0181 6.62364 15.308 6.53248 15.6262L5.79224 18.2092L8.38209 17.4719C8.70543 17.3797 8.99942 17.2065 9.2356 16.969L16.5881 9.57447L14.4202 7.41236L7.03053 14.7835Z" fill="#333333"/>
</svg>
