<svg width="24" height="24" viewBox="0 0 24 24" fill="none" xmlns="http://www.w3.org/2000/svg">
<path d="M3.86827 3.86827C8.3593 -0.622757 15.6409 -0.622757 20.1319 3.86827C24.623 8.3593 24.623 15.6409 20.1319 20.1319C15.6409 24.623 8.3593 24.623 3.86827 20.1319C-0.622758 15.6409 -0.622757 8.3593 3.86827 3.86827ZM18.0109 5.98937C14.6914 2.66991 9.30882 2.66991 5.98937 5.98937C2.66991 9.30882 2.66991 14.6914 5.98937 18.0109C9.30882 21.3303 14.6914 21.3303 18.0109 18.0109C21.3303 14.6914 21.3303 9.30882 18.0109 5.98937ZM12.0001 14.0001C12.8285 14.0001 13.5001 14.6717 13.5001 15.5001C13.5001 16.3285 12.8285 17.0001 12.0001 17.0001C11.1717 17.0001 10.5001 16.3285 10.5001 15.5001C10.5001 14.6717 11.1717 14.0001 12.0001 14.0001ZM12.0001 6.50011C12.8285 6.50011 13.5001 7.17168 13.5001 8.00011V11.0001C13.5001 11.8285 12.8285 12.5001 12.0001 12.5001C11.1717 12.5001 10.5001 11.8285 10.5001 11.0001V8.00011C10.5001 7.17168 11.1717 6.50011 12.0001 6.50011Z" fill="#333333"/>
</svg>
