<svg width="24" height="24" viewBox="0 0 24 24" fill="none" xmlns="http://www.w3.org/2000/svg">
<path d="M12.5303 9.34861C13.1161 8.76282 14.0656 8.76282 14.6514 9.34861L14.8643 9.57224C16.9924 11.9276 16.9214 15.564 14.6514 17.834L12.3536 20.1318C10.0104 22.4749 6.21135 22.4749 3.86823 20.1318C1.5251 17.7887 1.52515 13.9896 3.86823 11.6465L6.02448 9.49021C5.89271 10.7152 6.07975 11.9866 6.58112 13.1758L5.98932 13.7676C4.81782 14.9391 4.81777 16.8392 5.98932 18.0107C7.16087 19.1822 9.06092 19.1822 10.2325 18.0107L12.5303 15.7119C13.7017 14.5403 13.7018 12.6412 12.5303 11.4697C11.9446 10.884 11.9447 9.93441 12.5303 9.34861ZM11.6465 3.86814C13.9897 1.52511 17.7888 1.52503 20.1319 3.86814C22.4749 6.21125 22.4749 10.0104 20.1319 12.3535L17.9756 14.5097C18.1074 13.2848 17.9203 12.0133 17.419 10.8242L18.0108 10.2324C19.1822 9.06084 19.1823 7.16077 18.0108 5.98923C16.8393 4.8177 14.9392 4.81778 13.7676 5.98923L11.4698 8.28806C10.2983 9.45964 10.2983 11.3587 11.4698 12.5302C12.0554 13.116 12.0553 14.0656 11.4698 14.6513C10.884 15.2371 9.93449 15.237 9.34869 14.6513L9.1358 14.4277C7.00764 12.0724 7.07873 8.43595 9.34869 6.16599L11.6465 3.86814Z" fill="#333333"/>
</svg>
