<svg width="24" height="24" viewBox="0 0 24 24" fill="none" xmlns="http://www.w3.org/2000/svg">
<path d="M14.0004 20C14.8286 20.0002 15.5004 20.6717 15.5004 21.5C15.5004 22.3283 14.8286 22.9998 14.0004 23H10.0004C9.17193 23 8.50036 22.3284 8.50036 21.5C8.50036 20.6716 9.17193 20 10.0004 20H14.0004ZM12.0004 1C15.6232 1.00017 18.7478 3.54502 19.4818 7.09277L21.1342 15.0771C21.4995 16.8434 20.1506 18.4998 18.347 18.5H5.65368C3.84992 18.5 2.50112 16.8435 2.86657 15.0771L4.51892 7.09277C5.25299 3.54494 8.37737 1 12.0004 1ZM12.0004 4C9.79997 4 7.90228 5.54546 7.45642 7.7002L5.84216 15.5H18.1586L16.5443 7.7002C16.0985 5.54554 14.2006 4.00017 12.0004 4Z" fill="#333333"/>
</svg>
