<svg width="24" height="24" viewBox="0 0 24 24" fill="none" xmlns="http://www.w3.org/2000/svg">
<path d="M20.5 7.5C22.433 7.5 24 9.06701 24 11V18C24 19.933 22.433 21.5 20.5 21.5H8.5C6.56701 21.5 5 19.933 5 18V11C5 9.06701 6.56701 7.5 8.5 7.5H20.5ZM8.5 10.5C8.22386 10.5 8 10.7239 8 11V18C8 18.2761 8.22386 18.5 8.5 18.5H20.5C20.7761 18.5 21 18.2761 21 18V11C21 10.7239 20.7761 10.5 20.5 10.5H8.5ZM14.5 12C15.6046 12 16.5 12.8395 16.5 13.875V15.125C16.5 16.1605 15.6046 17 14.5 17C13.3954 17 12.5 16.1605 12.5 15.125V13.875C12.5 12.8395 13.3954 12 14.5 12ZM17 2.5C17.8284 2.5 18.5 3.17158 18.5 4C18.5 4.82843 17.8284 5.5 17 5.5H3.5C3.22386 5.5 3.00001 5.72386 3 6V13C3 13.8284 2.32843 14.5 1.5 14.5C0.671573 14.5 -1.3246e-10 13.8284 0 13V6C5.15421e-06 4.06701 1.56701 2.5 3.5 2.5H17Z" fill="#333333"/>
</svg>
