<svg width="24" height="24" viewBox="0 0 24 24" fill="none" xmlns="http://www.w3.org/2000/svg">
<g clip-path="url(#clip0_39_47679)">
<path d="M22.001 7C23.1055 7 24.001 7.89543 24.001 9V19C24.001 20.1046 23.1055 21 22.001 21H6.00098L6 20.999V21C4.89543 21 4 20.1046 4 19C4 18.9938 4.00092 18.9876 4.00098 18.9814L4.00098 9.01855C4.00092 9.01237 4 9.00619 4 9C4 7.89543 4.89543 7 6 7L22.001 7ZM8 9C8 10.1046 7.10457 11 6 11V17C7.10457 17 8 17.8954 8 19H20C20 17.8954 20.8954 17 22 17V11C20.8954 11 20 10.1046 20 9H8Z" fill="#333333"/>
<path d="M14 11C14.4431 11 14.9205 11.2371 15.3213 11.7715C15.7223 12.3062 16 13.0909 16 14C16 14.9091 15.7223 15.6938 15.3213 16.2285C14.9205 16.7629 14.4431 17 14 17C13.5569 17 13.0795 16.7629 12.6787 16.2285C12.2777 15.6938 12 14.9091 12 14C12 13.0909 12.2777 12.3062 12.6787 11.7715C13.0795 11.2371 13.5569 11 14 11Z" fill="#333333" stroke="#333333" stroke-width="2"/>
<path d="M1.48286 5.21024C0.415926 5.49612 -0.217239 6.59279 0.0686448 7.65973L1.76752 14L2 14.8676V14V9C2 6.79086 3.79086 5 6 5H18.7583C19.4158 5 19.8944 4.3763 19.7242 3.74118L19.3872 2.48335C19.1013 1.41641 18.0046 0.783249 16.9377 1.06913L1.48286 5.21024Z" fill="#333333"/>
</g>
<defs>
<clipPath id="clip0_39_47679">
<rect width="24" height="24" fill="white"/>
</clipPath>
</defs>
</svg>
