<svg width="24" height="24" viewBox="0 0 24 24" fill="none" xmlns="http://www.w3.org/2000/svg">
<path d="M10 10.5C11.933 10.5 13.5 12.067 13.5 14V19C13.5 20.933 11.933 22.5 10 22.5H5C3.067 22.5 1.5 20.933 1.5 19V14C1.50003 12.067 3.06703 10.5 5 10.5H10ZM21 14.5C21.8284 14.5 22.5 15.1716 22.5 16V19C22.4998 20.9328 20.9329 22.5 19 22.5H16C15.1717 22.5 14.5002 21.8283 14.5 21C14.5 20.1716 15.1716 19.5 16 19.5H19C19.276 19.5 19.4998 19.276 19.5 19V16C19.5 15.1717 20.1717 14.5001 21 14.5ZM5 13.5C4.72388 13.5 4.50003 13.7239 4.5 14V19C4.5 19.2761 4.72386 19.5 5 19.5H10C10.2761 19.5 10.5 19.2761 10.5 19V14C10.5 13.7239 10.2761 13.5 10 13.5H5ZM8 15C8.55226 15 8.99996 15.4477 9 16V17C9 17.5523 8.55229 18 8 18H7C6.44772 18 6 17.5523 6 17V16C6.00003 15.4477 6.44774 15 7 15H8ZM17 12C17.5523 12 18 12.4477 18 13V14C18 14.5523 17.5523 15 17 15H16C15.4477 15 15 14.5523 15 14V13C15 12.4477 15.4477 12 16 12H17ZM19 1.5C20.933 1.5 22.5 3.06703 22.5 5V7C22.5 8.933 20.933 10.5 19 10.5H17C15.067 10.5 13.5 8.933 13.5 7V5C13.5 3.06703 15.067 1.5 17 1.5H19ZM8 1.5C8.82841 1.5 9.49997 2.1716 9.5 3C9.49997 3.8284 8.82841 4.5 8 4.5H5C4.72388 4.5 4.50003 4.72389 4.5 5V8C4.5 8.82843 3.82843 9.5 3 9.5C2.17157 9.5 1.5 8.82843 1.5 8V5C1.50003 3.06703 3.06702 1.5 5 1.5H8ZM11 6C11.5523 6 12 6.44775 12 7V8C12 8.55228 11.5523 9 11 9H10C9.44772 9 9 8.55228 9 8V7C9.00003 6.44774 9.44774 6 10 6H11ZM17 4.5C16.7239 4.5 16.5 4.72389 16.5 5V7C16.5 7.27614 16.7239 7.5 17 7.5H19C19.2761 7.5 19.5 7.27614 19.5 7V5C19.5 4.72388 19.2761 4.5 19 4.5H17Z" fill="#333333"/>
</svg>
