<svg width="24" height="24" viewBox="0 0 24 24" fill="none" xmlns="http://www.w3.org/2000/svg">
<path d="M15 8C18.866 8 22 11.134 22 15C22 18.866 18.866 22 15 22C11.134 22 8 18.866 8 15C8 11.134 11.134 8 15 8ZM15 13C13.8954 13 13 13.8954 13 15C13 16.1046 13.8954 17 15 17C16.1046 17 17 16.1046 17 15C17 13.8954 16.1046 13 15 13ZM9 2C11.7953 2 14.2072 3.63886 15.3291 6.00781C15.2199 6.00389 15.1102 6 15 6C13.9865 6 13.0126 6.16868 12.1035 6.47754C11.3701 5.57625 10.2526 5 9 5C6.79086 5 5 6.79086 5 9C5 10.2526 5.57625 11.3701 6.47754 12.1035C6.16868 13.0126 6 13.9865 6 15C6 15.1102 6.00389 15.2199 6.00781 15.3291C3.63886 14.2072 2 11.7953 2 9C2 5.13401 5.13401 2 9 2Z" fill="#333333"/>
</svg>
