<svg width="24" height="24" viewBox="0 0 24 24" fill="none" xmlns="http://www.w3.org/2000/svg">
<path d="M16.5 11C19.5376 11 22 13.4624 22 16.5C22 19.5376 19.5376 22 16.5 22C13.4624 22 11 19.5376 11 16.5C11 13.4624 13.4624 11 16.5 11ZM7.5 2.5C10.2614 2.5 12.5 4.73858 12.5 7.5C12.5 10.2614 10.2614 12.5 7.5 12.5C4.73858 12.5 2.5 10.2614 2.5 7.5C2.5 4.73858 4.73858 2.5 7.5 2.5ZM7.5 5.5C6.39543 5.5 5.5 6.39543 5.5 7.5C5.5 8.60457 6.39543 9.5 7.5 9.5C8.60457 9.5 9.5 8.60457 9.5 7.5C9.5 6.39543 8.60457 5.5 7.5 5.5Z" fill="#333333"/>
</svg>
