<svg width="55" height="25" viewBox="0 0 55 25" fill="none" xmlns="http://www.w3.org/2000/svg">
<circle cx="4.01768" cy="20.0177" r="1" stroke="#00A3FF" stroke-width="0.05"/>
<circle cx="4.01768" cy="4.01768" r="1" stroke="#00A3FF" stroke-width="0.05"/>
<circle cx="20.0177" cy="4.01768" r="1" stroke="#00A3FF" stroke-width="0.05"/>
<circle cx="20.0177" cy="20.0177" r="1" stroke="#00A3FF" stroke-width="0.05"/>
<path d="M13.0177 24.0177L13.0177 0.0176777" stroke="#00A3FF" stroke-width="0.05"/>
<path d="M11.0177 24.0177L11.0177 0.0176777" stroke="#00A3FF" stroke-width="0.05"/>
<path d="M24.0177 13.0177H0.0176777" stroke="#00A3FF" stroke-width="0.05"/>
<path d="M24.0177 11.0177H0.0176777" stroke="#00A3FF" stroke-width="0.05"/>
<path d="M3.01768 24.0177L3.01768 0.0176777" stroke="#00A3FF" stroke-width="0.05"/>
<path d="M4.01768 24.0177L4.01768 0.0176777" stroke="#00A3FF" stroke-width="0.05"/>
<path d="M20.0177 24.0177L20.0177 0.0176777" stroke="#00A3FF" stroke-width="0.05"/>
<path d="M21.0177 24.0177L21.0177 0.0176777" stroke="#00A3FF" stroke-width="0.05"/>
<path d="M24.0177 21.0177H0.0176777" stroke="#00A3FF" stroke-width="0.05"/>
<path d="M24.0177 20.0177H0.0176777" stroke="#00A3FF" stroke-width="0.05"/>
<path d="M24.0177 4.01768H0.0176777" stroke="#00A3FF" stroke-width="0.05"/>
<path d="M24.0177 5.01768H0.0176777" stroke="#00A3FF" stroke-width="0.05"/>
<path d="M12.0177 24.0177L12.0177 0.0176777" stroke="#00A3FF" stroke-width="0.05"/>
<path d="M24.0177 12.0177H0.0176777" stroke="#00A3FF" stroke-width="0.05"/>
<path d="M24.0177 19.0177H0.0176777" stroke="#00A3FF" stroke-width="0.05"/>
<path d="M24.0177 3.01768H0.0176777" stroke="#00A3FF" stroke-width="0.05"/>
<path d="M24.0177 24.0177L0.0176777 0.0176777" stroke="#00A3FF" stroke-width="0.05"/>
<path d="M24.0177 0.0176777L0.0176777 24.0177" stroke="#00A3FF" stroke-width="0.05"/>
<path d="M19.0177 24.0177L19.0177 0.0176777" stroke="#00A3FF" stroke-width="0.05"/>
<path d="M5.01768 24.0177L5.01768 0.0176777" stroke="#00A3FF" stroke-width="0.05"/>
<path d="M20.0177 4.01768H4.01768V20.0177H20.0177V4.01768Z" stroke="#FF00FF" stroke-width="2" stroke-linejoin="round"/>
<path d="M43.0177 24.0177L43.0177 0.0176777" stroke="#00A3FF" stroke-width="0.05"/>
<path d="M41.0177 24.0177L41.0177 0.0176777" stroke="#00A3FF" stroke-width="0.05"/>
<path d="M54.0177 13.0177H30.0177" stroke="#00A3FF" stroke-width="0.05"/>
<path d="M54.0177 11.0177H30.0177" stroke="#00A3FF" stroke-width="0.05"/>
<path d="M33.0177 24.0177L33.0177 0.0176777" stroke="#00A3FF" stroke-width="0.05"/>
<path d="M34.0177 24.0177L34.0177 0.0176777" stroke="#00A3FF" stroke-width="0.05"/>
<path d="M50.0177 24.0177L50.0177 0.0176777" stroke="#00A3FF" stroke-width="0.05"/>
<path d="M51.0177 24.0177L51.0177 0.0176777" stroke="#00A3FF" stroke-width="0.05"/>
<path d="M54.0177 21.0177H30.0177" stroke="#00A3FF" stroke-width="0.05"/>
<path d="M54.0177 20.0177H30.0177" stroke="#00A3FF" stroke-width="0.05"/>
<path d="M54.0177 4.01768H30.0177" stroke="#00A3FF" stroke-width="0.05"/>
<path d="M54.0177 5.01768H30.0177" stroke="#00A3FF" stroke-width="0.05"/>
<path d="M42.0177 24.0177L42.0177 0.0176777" stroke="#00A3FF" stroke-width="0.05"/>
<path d="M54.0177 12.0177H30.0177" stroke="#00A3FF" stroke-width="0.05"/>
<path d="M54.0177 19.0177H30.0177" stroke="#00A3FF" stroke-width="0.05"/>
<path d="M54.0177 3.01768H30.0177" stroke="#00A3FF" stroke-width="0.05"/>
<path d="M49.0177 24.0177L49.0177 0.0176777" stroke="#00A3FF" stroke-width="0.05"/>
<path d="M35.0177 24.0177L35.0177 0.0176777" stroke="#00A3FF" stroke-width="0.05"/>
<path d="M54.0177 2.01768H30.0177" stroke="#00A3FF" stroke-width="0.05"/>
<path d="M54.0177 1.01768H30.0177" stroke="#00A3FF" stroke-width="0.05"/>
<path d="M54.0177 6.01768H30.0177" stroke="#00A3FF" stroke-width="0.05"/>
<path d="M31.0177 24.0177L31.0177 0.0176777" stroke="#00A3FF" stroke-width="0.05"/>
<path d="M32.0177 24.0177L32.0177 0.0176777" stroke="#00A3FF" stroke-width="0.05"/>
<path d="M52.0177 24.0177L52.0177 0.0176777" stroke="#00A3FF" stroke-width="0.05"/>
<path d="M53.0177 24.0177L53.0177 0.0176777" stroke="#00A3FF" stroke-width="0.05"/>
<path d="M36.0177 24.0177L36.0177 0.0176777" stroke="#00A3FF" stroke-width="0.05"/>
<path d="M37.0177 24.0177L37.0177 0.0176777" stroke="#00A3FF" stroke-width="0.05"/>
<path d="M38.0177 24.0177L38.0177 0.0176777" stroke="#00A3FF" stroke-width="0.05"/>
<path d="M39.0177 24.0177L39.0177 0.0176777" stroke="#00A3FF" stroke-width="0.05"/>
<path d="M40.0177 24.0177L40.0177 0.0176777" stroke="#00A3FF" stroke-width="0.05"/>
<path d="M41.0177 24.0177L41.0177 0.0176777" stroke="#00A3FF" stroke-width="0.05"/>
<path d="M44.0177 24.0177L44.0177 0.0176777" stroke="#00A3FF" stroke-width="0.05"/>
<path d="M45.0177 24.0177L45.0177 0.0176777" stroke="#00A3FF" stroke-width="0.05"/>
<path d="M46.0177 24.0177L46.0177 0.0176777" stroke="#00A3FF" stroke-width="0.05"/>
<path d="M47.0177 24.0177L47.0177 0.0176777" stroke="#00A3FF" stroke-width="0.05"/>
<path d="M48.0177 24.0177L48.0177 0.0176777" stroke="#00A3FF" stroke-width="0.05"/>
<path d="M49.0177 24.0177L49.0177 0.0176777" stroke="#00A3FF" stroke-width="0.05"/>
<path d="M54.0177 6.01768H30.0177" stroke="#00A3FF" stroke-width="0.05"/>
<path d="M54.0177 7.01768H30.0177" stroke="#00A3FF" stroke-width="0.05"/>
<path d="M54.0177 11.0177H30.0177" stroke="#00A3FF" stroke-width="0.05"/>
<path d="M54.0177 8.01768H30.0177" stroke="#00A3FF" stroke-width="0.05"/>
<path d="M54.0177 9.01768H30.0177" stroke="#00A3FF" stroke-width="0.05"/>
<path d="M54.0177 10.0177H30.0177" stroke="#00A3FF" stroke-width="0.05"/>
<path d="M54.0177 14.0177H30.0177" stroke="#00A3FF" stroke-width="0.05"/>
<path d="M54.0177 15.0177H30.0177" stroke="#00A3FF" stroke-width="0.05"/>
<path d="M54.0177 19.0177H30.0177" stroke="#00A3FF" stroke-width="0.05"/>
<path d="M54.0177 16.0177H30.0177" stroke="#00A3FF" stroke-width="0.05"/>
<path d="M54.0177 17.0177H30.0177" stroke="#00A3FF" stroke-width="0.05"/>
<path d="M54.0177 18.0177H30.0177" stroke="#00A3FF" stroke-width="0.05"/>
<path d="M54.0177 19.0177H30.0177" stroke="#00A3FF" stroke-width="0.05"/>
<path d="M54.0177 20.0177H30.0177" stroke="#00A3FF" stroke-width="0.05"/>
<path d="M54.0177 21.0177H30.0177" stroke="#00A3FF" stroke-width="0.05"/>
<path d="M54.0177 22.0177H30.0177" stroke="#00A3FF" stroke-width="0.05"/>
<path d="M54.0177 23.0177H30.0177" stroke="#00A3FF" stroke-width="0.05"/>
<path d="M50.0177 4.01768H34.0177V20.0177H50.0177V4.01768Z" stroke="#FF00FF" stroke-width="0.15" stroke-linejoin="round"/>
</svg>
