<svg width="24" height="24" viewBox="0 0 24 24" fill="none" xmlns="http://www.w3.org/2000/svg">
<path d="M10 22C9.33334 18 9.66667 14.3333 11 11C11.6667 10.3333 12.3333 10.3333 13 11C14.3333 14.3333 14.6667 18 14 22H10Z" stroke="#FF00FF" stroke-width="2" stroke-linejoin="round"/>
<path d="M12 8C9.33333 6 6.33333 5 3 5" stroke="#FF00FF" stroke-width="2" stroke-linejoin="round"/>
<path d="M12 8C14.6667 6 17.6667 5 21 5" stroke="#FF00FF" stroke-width="2" stroke-linejoin="round"/>
<path d="M12 8C10.6667 4.66667 8.66667 2.66667 6 2" stroke="#FF00FF" stroke-width="2" stroke-linejoin="round"/>
<path d="M12 8C13.3333 4.66667 15.3333 2.66667 18 2" stroke="#FF00FF" stroke-width="2" stroke-linejoin="round"/>
<path d="M12 8C10 8.66667 8 10 6 12" stroke="#FF00FF" stroke-width="2" stroke-linejoin="round"/>
<path d="M12 8C14 8.66667 16 10 18 12" stroke="#FF00FF" stroke-width="2" stroke-linejoin="round"/>
</svg>
