<svg width="2192" height="344" viewBox="0 0 2192 344" fill="none" xmlns="http://www.w3.org/2000/svg">
<g clip-path="url(#clip0_23_5085)">
<rect width="8" height="8" transform="matrix(0 -1 -1 0 2192 344)" fill="black"/>
<rect width="8" height="8" transform="matrix(0 -1 -1 0 2192 288)" fill="black"/>
<rect width="8" height="8" transform="matrix(0 -1 -1 0 2192 232)" fill="black"/>
<rect width="8" height="8" transform="matrix(0 -1 -1 0 2192 176)" fill="black"/>
<rect width="8" height="8" transform="matrix(0 -1 -1 0 2192 120)" fill="black"/>
<rect width="8" height="8" transform="matrix(0 -1 -1 0 2192 64)" fill="black"/>
<rect width="8" height="8" transform="matrix(0 -1 -1 0 2192 8)" fill="black"/>
<rect width="8" height="8" transform="matrix(0 -1 -1 0 2136 344)" fill="black"/>
<rect width="8" height="8" transform="matrix(0 -1 -1 0 2136 288)" fill="black"/>
<rect width="8" height="8" transform="matrix(0 -1 -1 0 2136 232)" fill="black"/>
<rect width="8" height="8" transform="matrix(0 -1 -1 0 2136 176)" fill="black"/>
<rect width="8" height="8" transform="matrix(0 -1 -1 0 2136 120)" fill="black"/>
<rect width="8" height="8" transform="matrix(0 -1 -1 0 2136 64)" fill="black"/>
<rect width="8" height="8" transform="matrix(0 -1 -1 0 2136 8)" fill="black"/>
<rect width="8" height="8" transform="matrix(0 -1 -1 0 2080 344)" fill="black"/>
<rect width="8" height="8" transform="matrix(0 -1 -1 0 2080 288)" fill="black"/>
<rect width="8" height="8" transform="matrix(0 -1 -1 0 2080 232)" fill="black"/>
<rect width="8" height="8" transform="matrix(0 -1 -1 0 2080 176)" fill="black"/>
<rect width="8" height="8" transform="matrix(0 -1 -1 0 2080 120)" fill="black"/>
<rect width="8" height="8" transform="matrix(0 -1 -1 0 2080 64)" fill="black"/>
<rect width="8" height="8" transform="matrix(0 -1 -1 0 2080 8)" fill="black"/>
<rect width="8" height="8" transform="matrix(0 -1 -1 0 2024 344)" fill="black"/>
<rect width="8" height="8" transform="matrix(0 -1 -1 0 2024 288)" fill="black"/>
<rect width="8" height="8" transform="matrix(0 -1 -1 0 2024 232)" fill="black"/>
<rect width="8" height="8" transform="matrix(0 -1 -1 0 2024 176)" fill="black"/>
<rect width="8" height="8" transform="matrix(0 -1 -1 0 2024 120)" fill="black"/>
<rect width="8" height="8" transform="matrix(0 -1 -1 0 2024 64)" fill="black"/>
<rect width="8" height="8" transform="matrix(0 -1 -1 0 2024 8)" fill="black"/>
<rect width="8" height="8" transform="matrix(0 -1 -1 0 1968 344)" fill="black"/>
<rect width="8" height="8" transform="matrix(0 -1 -1 0 1968 288)" fill="black"/>
<rect width="8" height="8" transform="matrix(0 -1 -1 0 1968 232)" fill="black"/>
<rect width="8" height="8" transform="matrix(0 -1 -1 0 1968 176)" fill="black"/>
<rect width="8" height="8" transform="matrix(0 -1 -1 0 1968 120)" fill="black"/>
<rect width="8" height="8" transform="matrix(0 -1 -1 0 1968 64)" fill="black"/>
<rect width="8" height="8" transform="matrix(0 -1 -1 0 1968 8)" fill="black"/>
<rect width="8" height="8" transform="matrix(0 -1 -1 0 1912 344)" fill="black"/>
<rect width="8" height="8" transform="matrix(0 -1 -1 0 1912 288)" fill="black"/>
<rect width="8" height="8" transform="matrix(0 -1 -1 0 1912 232)" fill="black"/>
<rect width="8" height="8" transform="matrix(0 -1 -1 0 1912 176)" fill="black"/>
<rect width="8" height="8" transform="matrix(0 -1 -1 0 1912 120)" fill="black"/>
<rect width="8" height="8" transform="matrix(0 -1 -1 0 1912 64)" fill="black"/>
<rect width="8" height="8" transform="matrix(0 -1 -1 0 1912 8)" fill="black"/>
<rect width="8" height="8" transform="matrix(0 -1 -1 0 1856 344)" fill="black"/>
<rect width="8" height="8" transform="matrix(0 -1 -1 0 1856 288)" fill="black"/>
<rect width="8" height="8" transform="matrix(0 -1 -1 0 1856 232)" fill="black"/>
<rect width="8" height="8" transform="matrix(0 -1 -1 0 1856 176)" fill="black"/>
<rect width="8" height="8" transform="matrix(0 -1 -1 0 1856 120)" fill="black"/>
<rect width="8" height="8" transform="matrix(0 -1 -1 0 1856 64)" fill="black"/>
<rect width="8" height="8" transform="matrix(0 -1 -1 0 1856 8)" fill="black"/>
<rect width="8" height="8" transform="matrix(0 -1 -1 0 1800 344)" fill="black"/>
<rect width="8" height="8" transform="matrix(0 -1 -1 0 1800 288)" fill="black"/>
<rect width="8" height="8" transform="matrix(0 -1 -1 0 1800 232)" fill="black"/>
<rect width="8" height="8" transform="matrix(0 -1 -1 0 1800 176)" fill="black"/>
<rect width="8" height="8" transform="matrix(0 -1 -1 0 1800 120)" fill="black"/>
<rect width="8" height="8" transform="matrix(0 -1 -1 0 1800 64)" fill="black"/>
<rect width="8" height="8" transform="matrix(0 -1 -1 0 1800 8)" fill="black"/>
<rect width="8" height="8" transform="matrix(0 -1 -1 0 1744 344)" fill="black"/>
<rect width="8" height="8" transform="matrix(0 -1 -1 0 1744 288)" fill="black"/>
<rect width="8" height="8" transform="matrix(0 -1 -1 0 1744 232)" fill="black"/>
<rect width="8" height="8" transform="matrix(0 -1 -1 0 1744 176)" fill="black"/>
<rect width="8" height="8" transform="matrix(0 -1 -1 0 1744 120)" fill="black"/>
<rect width="8" height="8" transform="matrix(0 -1 -1 0 1744 64)" fill="black"/>
<rect width="8" height="8" transform="matrix(0 -1 -1 0 1744 8)" fill="black"/>
<rect width="8" height="8" transform="matrix(0 -1 -1 0 1688 344)" fill="black"/>
<rect width="8" height="8" transform="matrix(0 -1 -1 0 1688 288)" fill="black"/>
<rect width="8" height="8" transform="matrix(0 -1 -1 0 1688 232)" fill="black"/>
<rect width="8" height="8" transform="matrix(0 -1 -1 0 1688 176)" fill="black"/>
<rect width="8" height="8" transform="matrix(0 -1 -1 0 1688 120)" fill="black"/>
<rect width="8" height="8" transform="matrix(0 -1 -1 0 1688 64)" fill="black"/>
<rect width="8" height="8" transform="matrix(0 -1 -1 0 1688 8)" fill="black"/>
<rect width="8" height="8" transform="matrix(0 -1 -1 0 1632 344)" fill="black"/>
<rect width="8" height="8" transform="matrix(0 -1 -1 0 1632 288)" fill="black"/>
<rect width="8" height="8" transform="matrix(0 -1 -1 0 1632 232)" fill="black"/>
<rect width="8" height="8" transform="matrix(0 -1 -1 0 1632 176)" fill="black"/>
<rect width="8" height="8" transform="matrix(0 -1 -1 0 1632 120)" fill="black"/>
<rect width="8" height="8" transform="matrix(0 -1 -1 0 1632 64)" fill="black"/>
<rect width="8" height="8" transform="matrix(0 -1 -1 0 1632 8)" fill="black"/>
<rect width="8" height="8" transform="matrix(0 -1 -1 0 1576 344)" fill="black"/>
<rect width="8" height="8" transform="matrix(0 -1 -1 0 1576 288)" fill="black"/>
<rect width="8" height="8" transform="matrix(0 -1 -1 0 1576 232)" fill="black"/>
<rect width="8" height="8" transform="matrix(0 -1 -1 0 1576 176)" fill="black"/>
<rect width="8" height="8" transform="matrix(0 -1 -1 0 1576 120)" fill="black"/>
<rect width="8" height="8" transform="matrix(0 -1 -1 0 1576 64)" fill="black"/>
<rect width="8" height="8" transform="matrix(0 -1 -1 0 1576 8)" fill="black"/>
<rect width="8" height="8" transform="matrix(0 -1 -1 0 1520 344)" fill="black"/>
<rect width="8" height="8" transform="matrix(0 -1 -1 0 1520 288)" fill="black"/>
<rect width="8" height="8" transform="matrix(0 -1 -1 0 1520 232)" fill="black"/>
<rect width="8" height="8" transform="matrix(0 -1 -1 0 1520 176)" fill="black"/>
<rect width="8" height="8" transform="matrix(0 -1 -1 0 1520 120)" fill="black"/>
<rect width="8" height="8" transform="matrix(0 -1 -1 0 1520 64)" fill="black"/>
<rect width="8" height="8" transform="matrix(0 -1 -1 0 1520 8)" fill="black"/>
<rect width="8" height="8" transform="matrix(0 -1 -1 0 1464 344)" fill="black"/>
<rect width="8" height="8" transform="matrix(0 -1 -1 0 1464 288)" fill="black"/>
<rect width="8" height="8" transform="matrix(0 -1 -1 0 1464 232)" fill="black"/>
<rect width="8" height="8" transform="matrix(0 -1 -1 0 1464 176)" fill="black"/>
<rect width="8" height="8" transform="matrix(0 -1 -1 0 1464 120)" fill="black"/>
<rect width="8" height="8" transform="matrix(0 -1 -1 0 1464 64)" fill="black"/>
<rect width="8" height="8" transform="matrix(0 -1 -1 0 1464 8)" fill="black"/>
<rect width="8" height="8" transform="matrix(0 -1 -1 0 1408 344)" fill="black"/>
<rect width="8" height="8" transform="matrix(0 -1 -1 0 1408 288)" fill="black"/>
<rect width="8" height="8" transform="matrix(0 -1 -1 0 1408 232)" fill="black"/>
<rect width="8" height="8" transform="matrix(0 -1 -1 0 1408 176)" fill="black"/>
<rect width="8" height="8" transform="matrix(0 -1 -1 0 1408 120)" fill="black"/>
<rect width="8" height="8" transform="matrix(0 -1 -1 0 1408 64)" fill="black"/>
<rect width="8" height="8" transform="matrix(0 -1 -1 0 1408 8)" fill="black"/>
<rect width="8" height="8" transform="matrix(0 -1 -1 0 1352 344)" fill="black"/>
<rect width="8" height="8" transform="matrix(0 -1 -1 0 1352 288)" fill="black"/>
<rect width="8" height="8" transform="matrix(0 -1 -1 0 1352 232)" fill="black"/>
<rect width="8" height="8" transform="matrix(0 -1 -1 0 1352 176)" fill="black"/>
<rect width="8" height="8" transform="matrix(0 -1 -1 0 1352 120)" fill="black"/>
<rect width="8" height="8" transform="matrix(0 -1 -1 0 1352 64)" fill="black"/>
<rect width="8" height="8" transform="matrix(0 -1 -1 0 1352 8)" fill="black"/>
<rect width="8" height="8" transform="matrix(0 -1 -1 0 1296 344)" fill="black"/>
<rect width="8" height="8" transform="matrix(0 -1 -1 0 1296 288)" fill="black"/>
<rect width="8" height="8" transform="matrix(0 -1 -1 0 1296 232)" fill="black"/>
<rect width="8" height="8" transform="matrix(0 -1 -1 0 1296 176)" fill="black"/>
<rect width="8" height="8" transform="matrix(0 -1 -1 0 1296 120)" fill="black"/>
<rect width="8" height="8" transform="matrix(0 -1 -1 0 1296 64)" fill="black"/>
<rect width="8" height="8" transform="matrix(0 -1 -1 0 1296 8)" fill="black"/>
<rect width="8" height="8" transform="matrix(0 -1 -1 0 1240 344)" fill="black"/>
<rect width="8" height="8" transform="matrix(0 -1 -1 0 1240 288)" fill="black"/>
<rect width="8" height="8" transform="matrix(0 -1 -1 0 1240 232)" fill="black"/>
<rect width="8" height="8" transform="matrix(0 -1 -1 0 1240 176)" fill="black"/>
<rect width="8" height="8" transform="matrix(0 -1 -1 0 1240 120)" fill="black"/>
<rect width="8" height="8" transform="matrix(0 -1 -1 0 1240 64)" fill="black"/>
<rect width="8" height="8" transform="matrix(0 -1 -1 0 1240 8)" fill="black"/>
<rect width="8" height="8" transform="matrix(0 -1 -1 0 1184 344)" fill="black"/>
<rect width="8" height="8" transform="matrix(0 -1 -1 0 1184 288)" fill="black"/>
<rect width="8" height="8" transform="matrix(0 -1 -1 0 1184 232)" fill="black"/>
<rect width="8" height="8" transform="matrix(0 -1 -1 0 1184 176)" fill="black"/>
<rect width="8" height="8" transform="matrix(0 -1 -1 0 1184 120)" fill="black"/>
<rect width="8" height="8" transform="matrix(0 -1 -1 0 1184 64)" fill="black"/>
<rect width="8" height="8" transform="matrix(0 -1 -1 0 1184 8)" fill="black"/>
<rect width="8" height="8" transform="matrix(0 -1 -1 0 1128 344)" fill="black"/>
<rect width="8" height="8" transform="matrix(0 -1 -1 0 1128 288)" fill="black"/>
<rect width="8" height="8" transform="matrix(0 -1 -1 0 1128 232)" fill="black"/>
<rect width="8" height="8" transform="matrix(0 -1 -1 0 1128 176)" fill="black"/>
<rect width="8" height="8" transform="matrix(0 -1 -1 0 1128 120)" fill="black"/>
<rect width="8" height="8" transform="matrix(0 -1 -1 0 1128 64)" fill="black"/>
<rect width="8" height="8" transform="matrix(0 -1 -1 0 1128 8)" fill="black"/>
<rect width="8" height="8" transform="matrix(0 -1 -1 0 1072 344)" fill="black"/>
<rect width="8" height="8" transform="matrix(0 -1 -1 0 1072 288)" fill="black"/>
<rect width="8" height="8" transform="matrix(0 -1 -1 0 1072 232)" fill="black"/>
<rect width="8" height="8" transform="matrix(0 -1 -1 0 1072 176)" fill="black"/>
<rect width="8" height="8" transform="matrix(0 -1 -1 0 1072 120)" fill="black"/>
<rect width="8" height="8" transform="matrix(0 -1 -1 0 1072 64)" fill="black"/>
<rect width="8" height="8" transform="matrix(0 -1 -1 0 1072 8)" fill="black"/>
<rect width="8" height="8" transform="matrix(0 -1 -1 0 1016 344)" fill="black"/>
<rect width="8" height="8" transform="matrix(0 -1 -1 0 1016 288)" fill="black"/>
<rect width="8" height="8" transform="matrix(0 -1 -1 0 1016 232)" fill="black"/>
<rect width="8" height="8" transform="matrix(0 -1 -1 0 1016 176)" fill="black"/>
<rect width="8" height="8" transform="matrix(0 -1 -1 0 1016 120)" fill="black"/>
<rect width="8" height="8" transform="matrix(0 -1 -1 0 1016 64)" fill="black"/>
<rect width="8" height="8" transform="matrix(0 -1 -1 0 1016 8)" fill="black"/>
<rect width="8" height="8" transform="matrix(0 -1 -1 0 960 344)" fill="black"/>
<rect width="8" height="8" transform="matrix(0 -1 -1 0 960 288)" fill="black"/>
<rect width="8" height="8" transform="matrix(0 -1 -1 0 960 232)" fill="black"/>
<rect width="8" height="8" transform="matrix(0 -1 -1 0 960 176)" fill="black"/>
<rect width="8" height="8" transform="matrix(0 -1 -1 0 960 120)" fill="black"/>
<rect width="8" height="8" transform="matrix(0 -1 -1 0 960 64)" fill="black"/>
<rect width="8" height="8" transform="matrix(0 -1 -1 0 960 8)" fill="black"/>
<rect width="8" height="8" transform="matrix(0 -1 -1 0 904 344)" fill="black"/>
<rect width="8" height="8" transform="matrix(0 -1 -1 0 904 288)" fill="black"/>
<rect width="8" height="8" transform="matrix(0 -1 -1 0 904 232)" fill="black"/>
<rect width="8" height="8" transform="matrix(0 -1 -1 0 904 176)" fill="black"/>
<rect width="8" height="8" transform="matrix(0 -1 -1 0 904 120)" fill="black"/>
<rect width="8" height="8" transform="matrix(0 -1 -1 0 904 64)" fill="black"/>
<rect width="8" height="8" transform="matrix(0 -1 -1 0 904 8)" fill="black"/>
<rect width="8" height="8" transform="matrix(0 -1 -1 0 848 344)" fill="black"/>
<rect width="8" height="8" transform="matrix(0 -1 -1 0 848 288)" fill="black"/>
<rect width="8" height="8" transform="matrix(0 -1 -1 0 848 232)" fill="black"/>
<rect width="8" height="8" transform="matrix(0 -1 -1 0 848 176)" fill="black"/>
<rect width="8" height="8" transform="matrix(0 -1 -1 0 848 120)" fill="black"/>
<rect width="8" height="8" transform="matrix(0 -1 -1 0 848 64)" fill="black"/>
<rect width="8" height="8" transform="matrix(0 -1 -1 0 848 8)" fill="black"/>
<rect width="8" height="8" transform="matrix(0 -1 -1 0 792 344)" fill="black"/>
<rect width="8" height="8" transform="matrix(0 -1 -1 0 792 288)" fill="black"/>
<rect width="8" height="8" transform="matrix(0 -1 -1 0 792 232)" fill="black"/>
<rect width="8" height="8" transform="matrix(0 -1 -1 0 792 176)" fill="black"/>
<rect width="8" height="8" transform="matrix(0 -1 -1 0 792 120)" fill="black"/>
<rect width="8" height="8" transform="matrix(0 -1 -1 0 792 64)" fill="black"/>
<rect width="8" height="8" transform="matrix(0 -1 -1 0 792 8)" fill="black"/>
<rect width="8" height="8" transform="matrix(0 -1 -1 0 736 344)" fill="black"/>
<rect width="8" height="8" transform="matrix(0 -1 -1 0 736 288)" fill="black"/>
<rect width="8" height="8" transform="matrix(0 -1 -1 0 736 232)" fill="black"/>
<rect width="8" height="8" transform="matrix(0 -1 -1 0 736 176)" fill="black"/>
<rect width="8" height="8" transform="matrix(0 -1 -1 0 736 120)" fill="black"/>
<rect width="8" height="8" transform="matrix(0 -1 -1 0 736 64)" fill="black"/>
<rect width="8" height="8" transform="matrix(0 -1 -1 0 736 8)" fill="black"/>
<rect width="8" height="8" transform="matrix(0 -1 -1 0 680 344)" fill="black"/>
<rect width="8" height="8" transform="matrix(0 -1 -1 0 680 288)" fill="black"/>
<rect width="8" height="8" transform="matrix(0 -1 -1 0 680 232)" fill="black"/>
<rect width="8" height="8" transform="matrix(0 -1 -1 0 680 176)" fill="black"/>
<rect width="8" height="8" transform="matrix(0 -1 -1 0 680 120)" fill="black"/>
<rect width="8" height="8" transform="matrix(0 -1 -1 0 680 64)" fill="black"/>
<rect width="8" height="8" transform="matrix(0 -1 -1 0 680 8)" fill="black"/>
<rect width="8" height="8" transform="matrix(0 -1 -1 0 624 344)" fill="black"/>
<rect width="8" height="8" transform="matrix(0 -1 -1 0 624 288)" fill="black"/>
<rect width="8" height="8" transform="matrix(0 -1 -1 0 624 232)" fill="black"/>
<rect width="8" height="8" transform="matrix(0 -1 -1 0 624 176)" fill="black"/>
<rect width="8" height="8" transform="matrix(0 -1 -1 0 624 120)" fill="black"/>
<rect width="8" height="8" transform="matrix(0 -1 -1 0 624 64)" fill="black"/>
<rect width="8" height="8" transform="matrix(0 -1 -1 0 624 8)" fill="black"/>
<rect width="8" height="8" transform="matrix(0 -1 -1 0 568 344)" fill="black"/>
<rect width="8" height="8" transform="matrix(0 -1 -1 0 568 288)" fill="black"/>
<rect width="8" height="8" transform="matrix(0 -1 -1 0 568 232)" fill="black"/>
<rect width="8" height="8" transform="matrix(0 -1 -1 0 568 176)" fill="black"/>
<rect width="8" height="8" transform="matrix(0 -1 -1 0 568 120)" fill="black"/>
<rect width="8" height="8" transform="matrix(0 -1 -1 0 568 64)" fill="black"/>
<rect width="8" height="8" transform="matrix(0 -1 -1 0 568 8)" fill="black"/>
<rect width="8" height="8" transform="matrix(0 -1 -1 0 512 344)" fill="black"/>
<rect width="8" height="8" transform="matrix(0 -1 -1 0 512 288)" fill="black"/>
<rect width="8" height="8" transform="matrix(0 -1 -1 0 512 232)" fill="black"/>
<rect width="8" height="8" transform="matrix(0 -1 -1 0 512 176)" fill="black"/>
<rect width="8" height="8" transform="matrix(0 -1 -1 0 512 120)" fill="black"/>
<rect width="8" height="8" transform="matrix(0 -1 -1 0 512 64)" fill="black"/>
<rect width="8" height="8" transform="matrix(0 -1 -1 0 512 8)" fill="black"/>
<rect width="8" height="8" transform="matrix(0 -1 -1 0 456 344)" fill="black"/>
<rect width="8" height="8" transform="matrix(0 -1 -1 0 456 288)" fill="black"/>
<rect width="8" height="8" transform="matrix(0 -1 -1 0 456 232)" fill="black"/>
<rect width="8" height="8" transform="matrix(0 -1 -1 0 456 176)" fill="black"/>
<rect width="8" height="8" transform="matrix(0 -1 -1 0 456 120)" fill="black"/>
<rect width="8" height="8" transform="matrix(0 -1 -1 0 456 64)" fill="black"/>
<rect width="8" height="8" transform="matrix(0 -1 -1 0 456 8)" fill="black"/>
<rect width="8" height="8" transform="matrix(0 -1 -1 0 400 344)" fill="black"/>
<rect width="8" height="8" transform="matrix(0 -1 -1 0 400 288)" fill="black"/>
<rect width="8" height="8" transform="matrix(0 -1 -1 0 400 232)" fill="black"/>
<rect width="8" height="8" transform="matrix(0 -1 -1 0 400 176)" fill="black"/>
<rect width="8" height="8" transform="matrix(0 -1 -1 0 400 120)" fill="black"/>
<rect width="8" height="8" transform="matrix(0 -1 -1 0 400 64)" fill="black"/>
<rect width="8" height="8" transform="matrix(0 -1 -1 0 400 8)" fill="black"/>
<rect width="8" height="8" transform="matrix(0 -1 -1 0 344 344)" fill="black"/>
<rect width="8" height="8" transform="matrix(0 -1 -1 0 344 288)" fill="black"/>
<rect width="8" height="8" transform="matrix(0 -1 -1 0 344 232)" fill="black"/>
<rect width="8" height="8" transform="matrix(0 -1 -1 0 344 176)" fill="black"/>
<rect width="8" height="8" transform="matrix(0 -1 -1 0 344 120)" fill="black"/>
<rect width="8" height="8" transform="matrix(0 -1 -1 0 344 64)" fill="black"/>
<rect width="8" height="8" transform="matrix(0 -1 -1 0 344 8)" fill="black"/>
<rect width="8" height="8" transform="matrix(0 -1 -1 0 288 344)" fill="black"/>
<rect width="8" height="8" transform="matrix(0 -1 -1 0 288 288)" fill="black"/>
<rect width="8" height="8" transform="matrix(0 -1 -1 0 288 232)" fill="black"/>
<rect width="8" height="8" transform="matrix(0 -1 -1 0 288 176)" fill="black"/>
<rect width="8" height="8" transform="matrix(0 -1 -1 0 288 120)" fill="black"/>
<rect width="8" height="8" transform="matrix(0 -1 -1 0 288 64)" fill="black"/>
<rect width="8" height="8" transform="matrix(0 -1 -1 0 288 8)" fill="black"/>
<rect width="8" height="8" transform="matrix(0 -1 -1 0 232 344)" fill="black"/>
<rect width="8" height="8" transform="matrix(0 -1 -1 0 232 288)" fill="black"/>
<rect width="8" height="8" transform="matrix(0 -1 -1 0 232 232)" fill="black"/>
<rect width="8" height="8" transform="matrix(0 -1 -1 0 232 176)" fill="black"/>
<rect width="8" height="8" transform="matrix(0 -1 -1 0 232 120)" fill="black"/>
<rect width="8" height="8" transform="matrix(0 -1 -1 0 232 64)" fill="black"/>
<rect width="8" height="8" transform="matrix(0 -1 -1 0 232 8)" fill="black"/>
<rect width="8" height="8" transform="matrix(0 -1 -1 0 176 344)" fill="black"/>
<rect width="8" height="8" transform="matrix(0 -1 -1 0 176 288)" fill="black"/>
<rect width="8" height="8" transform="matrix(0 -1 -1 0 176 232)" fill="black"/>
<rect width="8" height="8" transform="matrix(0 -1 -1 0 176 176)" fill="black"/>
<rect width="8" height="8" transform="matrix(0 -1 -1 0 176 120)" fill="black"/>
<rect width="8" height="8" transform="matrix(0 -1 -1 0 176 64)" fill="black"/>
<rect width="8" height="8" transform="matrix(0 -1 -1 0 176 8)" fill="black"/>
<rect width="8" height="8" transform="matrix(0 -1 -1 0 120 344)" fill="black"/>
<rect width="8" height="8" transform="matrix(0 -1 -1 0 120 288)" fill="black"/>
<rect width="8" height="8" transform="matrix(0 -1 -1 0 120 232)" fill="black"/>
<rect width="8" height="8" transform="matrix(0 -1 -1 0 120 176)" fill="black"/>
<rect width="8" height="8" transform="matrix(0 -1 -1 0 120 120)" fill="black"/>
<rect width="8" height="8" transform="matrix(0 -1 -1 0 120 64)" fill="black"/>
<rect width="8" height="8" transform="matrix(0 -1 -1 0 120 8)" fill="black"/>
<rect width="8" height="8" transform="matrix(0 -1 -1 0 64 344)" fill="black"/>
<rect width="8" height="8" transform="matrix(0 -1 -1 0 64 288)" fill="black"/>
<rect width="8" height="8" transform="matrix(0 -1 -1 0 64 232)" fill="black"/>
<rect width="8" height="8" transform="matrix(0 -1 -1 0 64 176)" fill="black"/>
<rect width="8" height="8" transform="matrix(0 -1 -1 0 64 120)" fill="black"/>
<rect width="8" height="8" transform="matrix(0 -1 -1 0 64 64)" fill="black"/>
<rect width="8" height="8" transform="matrix(0 -1 -1 0 64 8)" fill="black"/>
<rect width="8" height="8" transform="matrix(0 -1 -1 0 8 344)" fill="black"/>
<rect width="8" height="8" transform="matrix(0 -1 -1 0 8 288)" fill="black"/>
<rect width="8" height="8" transform="matrix(0 -1 -1 0 8 232)" fill="black"/>
<rect width="8" height="8" transform="matrix(0 -1 -1 0 8 176)" fill="black"/>
<rect width="8" height="8" transform="matrix(0 -1 -1 0 8 120)" fill="black"/>
<rect width="8" height="8" transform="matrix(0 -1 -1 0 8 64)" fill="black"/>
<rect width="8" height="8" transform="matrix(0 -1 -1 0 8 8)" fill="black"/>
</g>
<defs>
<clipPath id="clip0_23_5085">
<rect width="344" height="2192" fill="white" transform="matrix(0 -1 -1 0 2192 344)"/>
</clipPath>
</defs>
</svg>
