<svg width="107" height="107" viewBox="0 0 107 107" fill="none" xmlns="http://www.w3.org/2000/svg">
<path d="M84.0174 63.2881C84.4163 63.0279 84.9545 63.0999 85.2605 63.46L91.1863 70.4326C91.5149 70.8192 91.4563 71.3955 91.0398 71.6914C88.1126 73.7489 84.7881 75.2686 81.449 76.5176C74.8035 79.003 64.8859 81.37 51.2722 81.3701C37.6588 81.37 27.7419 79.0029 21.0965 76.5176C17.7569 75.2685 14.4335 73.7501 11.5047 71.6914C11.0884 71.3955 11.0297 70.8192 11.3582 70.4326L17.2849 63.46C17.5909 63.1 18.1292 63.0279 18.5281 63.2881C20.5594 64.6128 22.8099 65.6019 25.075 66.4492C30.4433 68.4571 39.0118 70.5848 51.2722 70.585C63.533 70.5848 72.1021 68.4572 77.4705 66.4492C79.7356 65.6019 81.986 64.6129 84.0174 63.2881ZM21.7908 26.6553C21.9563 26.6555 22.0906 26.7895 22.0906 26.9551V44.5938C22.0906 44.7593 21.9563 44.8933 21.7908 44.8936H11.447C11.2814 44.8935 11.1472 44.7594 11.1472 44.5938V26.9551C11.1472 26.7894 11.2814 26.6553 11.447 26.6553H21.7908ZM76.4998 26.6543C76.6653 26.6543 76.7993 26.7886 76.7996 26.9541V44.5938C76.7994 44.7593 76.6654 44.8936 76.4998 44.8936H66.157C65.9914 44.8936 65.8564 44.7593 65.8562 44.5938V26.9541C65.8565 26.7886 65.9915 26.6543 66.157 26.6543H76.4998Z" fill="black"/>
</svg>
