<svg width="24" height="24" viewBox="0 0 24 24" fill="none" xmlns="http://www.w3.org/2000/svg">
<path d="M1.22402 8.47002C6.29802 2.22302 14.198 1.29302 20.11 5.85502L19.5 6.64502L18.89 7.43802C14.089 3.73402 7.75402 4.23002 3.33902 9.08002L12 18.52L13.557 16.825L13.844 16.512L14.58 17.188L15.317 17.864L15.03 18.176L12.737 20.676C12.6432 20.7779 12.5292 20.8592 12.4024 20.9148C12.2755 20.9705 12.1385 20.9992 12 20.9992C11.8615 20.9992 11.7245 20.9705 11.5977 20.9148C11.4708 20.8592 11.3569 20.7779 11.263 20.676L1.26302 9.77602C1.10083 9.59931 1.00757 9.3702 1.00022 9.13046C0.992882 8.89072 1.07295 8.65632 1.22402 8.47002ZM23.759 8.65002L17.759 15.65C17.6712 15.7526 17.5635 15.8364 17.4425 15.8962C17.3214 15.9561 17.1895 15.9908 17.0546 15.9983C16.9198 16.0058 16.7848 15.9858 16.6579 15.9397C16.5309 15.8936 16.4146 15.8223 16.316 15.73L16.241 15.65L13.241 12.15L14.759 10.85L17 13.464L22.241 7.35002L23.759 8.65002Z" fill="#FF00FF"/>
</svg>
