<svg width="24" height="24" viewBox="0 0 24 24" fill="none" xmlns="http://www.w3.org/2000/svg">
<path d="M12.2251 2.69501L12.4471 2.73301L12.5841 2.77101C12.8981 2.87301 13.1721 3.05801 13.3891 3.19401L22.0341 8.65401C22.2169 8.77008 22.3571 8.94228 22.4337 9.14479C22.5103 9.34729 22.5192 9.56918 22.459 9.77717C22.3989 9.98516 22.2729 10.168 22.1 10.2984C21.9271 10.4287 21.7166 10.4994 21.5001 10.5H20.0001V19H22.0001V21H2.00009V19H4.00009V10.5H2.50009C2.2832 10.5002 2.07213 10.4298 1.89871 10.2996C1.72529 10.1693 1.59892 9.98624 1.53865 9.77789C1.47838 9.56954 1.48748 9.34725 1.56458 9.14453C1.64168 8.94181 1.7826 8.76965 1.96609 8.65401L10.6111 3.19401L10.8111 3.06801C11.0231 2.93701 11.2741 2.79801 11.5531 2.73301L11.7751 2.69501C11.9246 2.67808 12.0756 2.67808 12.2251 2.69501ZM6.00009 10.5V19H11.0001V10.5H6.00009ZM13.0001 10.5V19H18.0001V10.5H13.0001ZM11.9941 4.69201L11.6801 4.88501L5.95609 8.50001H18.0441L12.3201 4.88501C12.2172 4.81783 12.1125 4.75347 12.0061 4.69201C12.0041 4.69201 12.0021 4.68901 12.0001 4.68801L11.9941 4.69201Z" fill="#FF00FF"/>
</svg>
