<svg width="24" height="24" viewBox="0 0 24 24" fill="none" xmlns="http://www.w3.org/2000/svg">
<path d="M16.985 12.675C16.75 13.993 16.146 15.817 15.398 17.548C14.653 19.272 13.714 21.022 12.764 22.145L11.237 20.855C11.997 19.955 12.843 18.418 13.562 16.755C14.277 15.099 14.819 13.432 15.016 12.324L16.985 12.675ZM9.89002 3.005C14.793 2.461 17.947 4.79 19.354 6.745C20.0363 7.6895 20.5216 8.76161 20.781 9.89753C21.0404 11.0335 21.0687 12.21 20.864 13.357C20.534 15.197 19.621 17.744 18.92 19.391L17.08 18.608C17.76 17.011 18.604 14.624 18.896 13.004C19.0534 12.1207 19.0313 11.2147 18.8312 10.34C18.631 9.46541 18.2569 8.64 17.731 7.913C16.691 6.467 14.207 4.539 10.111 4.993L9.89002 3.005ZM11.161 6.958C13.547 6.545 15.749 7.762 16.895 10.052L15.105 10.947C14.339 9.414 13.02 8.724 11.631 8.909L11.353 8.958C10.743 9.09 10.214 9.458 9.71902 10.072C9.21402 10.697 8.78402 11.528 8.37302 12.487C7.94602 13.483 7.62002 14.417 7.20102 15.444C6.81202 16.399 6.36702 17.371 5.79102 18.113L4.21102 16.886C4.60502 16.378 4.96502 15.631 5.34902 14.689C5.70302 13.819 6.11802 12.673 6.53402 11.699C6.96702 10.689 7.48402 9.656 8.16402 8.815C8.85202 7.962 9.74602 7.259 10.93 7.003L11.161 6.958ZM11.016 11.825C11.0651 11.5664 11.2141 11.3376 11.4308 11.1882C11.6475 11.0388 11.9144 10.9808 12.1735 11.0269C12.4326 11.0729 12.6632 11.2193 12.8151 11.4342C12.967 11.6492 13.0281 11.9153 12.985 12.175C12.842 12.978 12.357 14.111 11.884 15.101C11.4534 15.9958 10.9949 16.8769 10.509 17.743L9.63702 17.253L8.76602 16.763C9.09202 16.183 9.61302 15.215 10.079 14.239C10.564 13.225 10.928 12.323 11.016 11.825ZM8.44802 5.895C7.23002 6.503 6.35502 7.652 5.64502 9.072C4.91602 10.529 4.47402 12.009 3.92902 13.371L2.07202 12.629C2.52702 11.491 3.08402 9.72 3.85602 8.177C4.64602 6.597 5.77002 4.997 7.55302 4.105L8.44802 5.895Z" fill="#FF00FF"/>
</svg>
