<svg width="24" height="24" viewBox="0 0 24 24" fill="none" xmlns="http://www.w3.org/2000/svg">
<path d="M4.92901 4.92901C8.83401 1.02301 15.166 1.02301 19.071 4.92901C22.976 8.83401 22.976 15.166 19.071 19.071C15.166 22.976 8.83401 22.976 4.92901 19.071C1.02301 15.166 1.02301 8.83401 4.92901 4.92901ZM7.09601 18.317C8.63485 19.5118 10.5568 20.104 12.5012 19.9825C14.4456 19.861 16.2789 19.0341 17.657 17.657C19.0341 16.2789 19.861 14.4456 19.9825 12.5012C20.104 10.5568 19.5118 8.63485 18.317 7.09601L7.09601 18.317ZM16.903 5.68201C15.3643 4.48749 13.4425 3.89545 11.4983 4.01696C9.55412 4.13848 7.72106 4.96519 6.34301 6.34201C4.96577 7.71999 4.13871 9.55319 4.01701 11.4976C3.89531 13.442 4.48734 15.3641 5.68201 16.903L16.903 5.68201Z" fill="#FF00FF"/>
</svg>
