<svg width="24" height="24" viewBox="0 0 24 24" fill="none" xmlns="http://www.w3.org/2000/svg">
<path d="M5.5 11.25C5.5 12.9739 6.18482 14.6272 7.40381 15.8462C8.62279 17.0652 10.2761 17.75 12 17.75C13.7239 17.75 15.3772 17.0652 16.5962 15.8462C17.8152 14.6272 18.5 12.9739 18.5 11.25V10.5H20.5V11.25C20.4998 13.331 19.7361 15.3396 18.3538 16.8952C16.9715 18.4508 15.0666 19.4452 13 19.69V23.25H11V19.69C6.777 19.194 3.5 15.606 3.5 11.25V10.5H5.5V11.25ZM12 1.25C13.0609 1.25 14.0783 1.67143 14.8284 2.42157C15.5786 3.17172 16 4.18913 16 5.25V11.25C16 12.3109 15.5786 13.3283 14.8284 14.0784C14.0783 14.8286 13.0609 15.25 12 15.25C10.9391 15.25 9.92172 14.8286 9.17157 14.0784C8.42143 13.3283 8 12.3109 8 11.25V5.25C8 4.18913 8.42143 3.17172 9.17157 2.42157C9.92172 1.67143 10.9391 1.25 12 1.25ZM12 3.25C11.4696 3.25 10.9609 3.46071 10.5858 3.83579C10.2107 4.21086 10 4.71957 10 5.25V11.25C10 11.7804 10.2107 12.2891 10.5858 12.6642C10.9609 13.0393 11.4696 13.25 12 13.25C12.5304 13.25 13.0391 13.0393 13.4142 12.6642C13.7893 12.2891 14 11.7804 14 11.25V5.25C14 4.71957 13.7893 4.21086 13.4142 3.83579C13.0391 3.46071 12.5304 3.25 12 3.25Z" fill="#FF00FF"/>
</svg>
