<svg width="24" height="24" viewBox="0 0 24 24" fill="none" xmlns="http://www.w3.org/2000/svg">
<path d="M19.5 4C20.2956 4 21.0587 4.31607 21.6213 4.87868C22.1839 5.44129 22.5 6.20435 22.5 7V17C22.5 17.7956 22.1839 18.5587 21.6213 19.1213C21.0587 19.6839 20.2956 20 19.5 20H4.5C3.70435 20 2.94129 19.6839 2.37868 19.1213C1.81607 18.5587 1.5 17.7956 1.5 17V7C1.5 6.20435 1.81607 5.44129 2.37868 4.87868C2.94129 4.31607 3.70435 4 4.5 4H19.5ZM4.5 6C4.23478 6 3.98043 6.10536 3.79289 6.29289C3.60536 6.48043 3.5 6.73478 3.5 7V17C3.5 17.2652 3.60536 17.5196 3.79289 17.7071C3.98043 17.8946 4.23478 18 4.5 18H19.5C19.7652 18 20.0196 17.8946 20.2071 17.7071C20.3946 17.5196 20.5 17.2652 20.5 17V7C20.5 6.73478 20.3946 6.48043 20.2071 6.29289C20.0196 6.10536 19.7652 6 19.5 6H4.5ZM10.25 9C10.3163 9 10.3799 9.02634 10.4268 9.07322C10.4737 9.12011 10.5 9.1837 10.5 9.25V11.25C10.5 11.3163 10.4737 11.3799 10.4268 11.4268C10.3799 11.4737 10.3163 11.5 10.25 11.5H7.25C7.1837 11.5 7.12011 11.4737 7.07322 11.4268C7.02634 11.3799 7 11.3163 7 11.25V9.25C7 9.1837 7.02634 9.12011 7.07322 9.07322C7.12011 9.02634 7.1837 9 7.25 9H10.25Z" fill="#FF00FF"/>
</svg>
