<svg width="24" height="24" viewBox="0 0 24 24" fill="none" xmlns="http://www.w3.org/2000/svg">
<path d="M23.259 13.65L17.259 20.65C17.1651 20.7594 17.0487 20.8473 16.9177 20.9075C16.7867 20.9677 16.6442 20.9989 16.5 20.9989C16.3558 20.9989 16.2133 20.9677 16.0823 20.9075C15.9513 20.8473 15.8349 20.7594 15.741 20.65L12.741 17.15L14.259 15.85L16.5 18.464L21.741 12.35L23.259 13.65ZM19.5 4C20.2956 4 21.0587 4.31607 21.6213 4.87868C22.1839 5.44129 22.5 6.20435 22.5 7V9.5H20.5V7C20.5 6.73478 20.3946 6.48043 20.2071 6.29289C20.0196 6.10536 19.7652 6 19.5 6H4.5C4.23478 6 3.98043 6.10536 3.79289 6.29289C3.60536 6.48043 3.5 6.73478 3.5 7V17C3.5 17.2652 3.60536 17.5196 3.79289 17.7071C3.98043 17.8946 4.23478 18 4.5 18H11V20H4.5C3.70435 20 2.94129 19.6839 2.37868 19.1213C1.81607 18.5587 1.5 17.7956 1.5 17V7C1.5 6.20435 1.81607 5.44129 2.37868 4.87868C2.94129 4.31607 3.70435 4 4.5 4H19.5Z" fill="#FF00FF"/>
</svg>
