<svg width="24" height="24" viewBox="0 0 24 24" fill="none" xmlns="http://www.w3.org/2000/svg">
<path d="M6.5829 9.73C8.6679 9.675 10.9809 10.397 13.4979 12.185C14.3779 12.809 16.1689 14.201 17.7179 15.419C18.4979 16.032 19.2249 16.607 19.7559 17.029L20.0519 17.264C20.9026 16.9716 21.7215 16.5936 22.4959 16.136L23.5039 17.864C20.9429 19.357 18.6519 19.85 16.5359 19.812C14.4499 19.775 12.5789 19.218 10.9059 18.706C9.1869 18.181 7.7159 17.719 6.2219 17.688C4.7879 17.658 3.2959 18.028 1.5999 19.3L0.399902 17.7C2.4479 16.166 4.3749 15.648 6.2639 15.688C6.9239 15.701 7.5759 15.784 8.2159 15.908L11.2859 13.128C9.4899 12.064 7.9439 11.695 6.6359 11.729C5.0779 11.771 3.7439 12.385 2.6249 13.28L1.9999 12.5L1.3749 11.719C2.7549 10.615 4.4979 9.786 6.5829 9.73ZM10.5359 16.504C10.8579 16.6 11.1759 16.698 11.4899 16.794C13.1769 17.31 14.7999 17.78 16.5709 17.812C16.8709 17.818 17.1779 17.81 17.4909 17.787L16.4829 16.992C15.3261 16.0787 14.1597 15.1776 12.9839 14.289L10.5359 16.504ZM18.9999 5C20.0608 5 21.0782 5.42143 21.8283 6.17157C22.5785 6.92172 22.9999 7.93913 22.9999 9C22.9999 10.0609 22.5785 11.0783 21.8283 11.8284C21.0782 12.5786 20.0608 13 18.9999 13C17.939 13 16.9216 12.5786 16.1715 11.8284C15.4213 11.0783 14.9999 10.0609 14.9999 9C14.9999 7.93913 15.4213 6.92172 16.1715 6.17157C16.9216 5.42143 17.939 5 18.9999 5ZM18.9999 7C18.4695 7 17.9608 7.21071 17.5857 7.58579C17.2106 7.96086 16.9999 8.46957 16.9999 9C16.9999 9.53043 17.2106 10.0391 17.5857 10.4142C17.9608 10.7893 18.4695 11 18.9999 11C19.5303 11 20.039 10.7893 20.4141 10.4142C20.7892 10.0391 20.9999 9.53043 20.9999 9C20.9999 8.46957 20.7892 7.96086 20.4141 7.58579C20.039 7.21071 19.5303 7 18.9999 7Z" fill="#FF00FF"/>
</svg>
