<svg width="24" height="24" viewBox="0 0 24 24" fill="none" xmlns="http://www.w3.org/2000/svg">
<path d="M15.707 20.207C14.727 21.187 13.323 21.625 12 21.625C10.677 21.625 9.27303 21.187 8.29303 20.207L9.70703 18.793C10.227 19.313 11.073 19.625 12 19.625C12.927 19.625 13.773 19.313 14.293 18.793L15.707 20.207ZM13 6H17C17.2653 6 17.5196 6.10536 17.7071 6.29289C17.8947 6.48043 18 6.73478 18 7C18 8.377 17.318 9.653 16.198 10.571C18.699 11.269 21.305 12.717 22.872 15.511C22.957 15.6632 23.0008 15.835 22.999 16.0093C22.9972 16.1836 22.9499 16.3544 22.8618 16.5049C22.7737 16.6553 22.6479 16.7801 22.4967 16.8669C22.3456 16.9538 22.1744 16.9997 22 17H2.00003C1.82545 17 1.65389 16.9544 1.50243 16.8676C1.35097 16.7807 1.22487 16.6558 1.13669 16.5051C1.04851 16.3544 1.00131 16.1833 0.999794 16.0087C0.998275 15.8341 1.04249 15.6622 1.12803 15.51C2.69403 12.719 5.30003 11.27 7.80003 10.572C6.68003 9.653 6.00003 8.377 6.00003 7C6.00003 6.73478 6.10539 6.48043 6.29293 6.29289C6.48046 6.10536 6.73482 6 7.00003 6H11V2H13V6ZM12 12C9.55203 12 6.16003 12.682 3.96903 15H20.03C17.84 12.682 14.45 12 12 12ZM8.25103 8C8.76103 9.035 10.039 10 12 10C13.961 10 15.24 9.035 15.749 8H8.25103Z" fill="#FF00FF"/>
</svg>
