<svg width="24" height="24" viewBox="0 0 24 24" fill="none" xmlns="http://www.w3.org/2000/svg">
<path d="M16.9999 3.5H12.9999V5.5H17.9999L18.1029 5.505C18.349 5.53049 18.577 5.64632 18.7426 5.8301C18.9083 6.01388 19 6.25256 18.9999 6.5V10H19.9999C20.7956 10 21.5586 10.3161 22.1212 10.8787C22.6838 11.4413 22.9999 12.2044 22.9999 13V15C22.9999 15.7956 22.6838 16.5587 22.1212 17.1213C21.5586 17.6839 20.7956 18 19.9999 18H18.9999V20.5C18.9999 20.7652 18.8945 21.0196 18.707 21.2071C18.5195 21.3946 18.2651 21.5 17.9999 21.5H5.99991C5.73469 21.5 5.48034 21.3946 5.2928 21.2071C5.10526 21.0196 4.99991 20.7652 4.99991 20.5V9.803L3.16791 7.055C3.06743 6.9044 3.00972 6.72935 3.00093 6.54852C2.99215 6.36769 3.03262 6.18786 3.11803 6.02823C3.20344 5.86861 3.33058 5.73516 3.4859 5.64213C3.64121 5.5491 3.81886 5.49997 3.99991 5.5H10.9999V3.5H6.99991V1.5H16.9999V3.5ZM6.83191 8.945C6.94149 9.10935 6.99995 9.30247 6.99991 9.5V19.5H16.9999V7.5H12.9999V16H14.9999V18H8.99991V16H10.9999V7.5H5.86791L6.83191 8.945ZM18.9999 16H19.9999C20.2651 16 20.5195 15.8946 20.707 15.7071C20.8946 15.5196 20.9999 15.2652 20.9999 15V13C20.9999 12.7348 20.8946 12.4804 20.707 12.2929C20.5195 12.1054 20.2651 12 19.9999 12H18.9999V16Z" fill="#FF00FF"/>
</svg>
