<svg width="24" height="24" viewBox="0 0 24 24" fill="none" xmlns="http://www.w3.org/2000/svg">
<g clip-path="url(#clip0_1_5547)">
<path d="M13.5119 4C14.1572 3.99989 14.7853 4.20784 15.3031 4.59298C15.8208 4.97813 16.2005 5.51994 16.3859 6.138L17.3899 9.49L23.7309 16.32C23.8921 16.4948 23.9858 16.7212 23.9951 16.9588C24.0045 17.1964 23.9288 17.4295 23.7818 17.6163C23.6348 17.8032 23.4261 17.9315 23.193 17.9784C22.9599 18.0253 22.7177 17.9875 22.5099 17.872C18.5449 15.646 15.3439 17.139 11.8059 18.668C10.0929 19.408 8.23995 20.178 6.31395 20.249C4.30795 20.322 2.31695 19.641 0.307949 17.724C0.128027 17.5522 0.0185993 17.3195 0.00103291 17.0714C-0.0165335 16.8232 0.0590234 16.5774 0.212949 16.382L5.59495 9.532L6.61295 6.138L6.69395 5.905C6.91414 5.34336 7.29853 4.86116 7.79696 4.52132C8.29539 4.18148 8.88469 3.9998 9.48795 4H13.5119ZM2.37195 16.871C3.75895 17.971 5.02395 18.295 6.24195 18.251C7.73695 18.196 9.25695 17.591 11.0139 16.832C13.4839 15.764 16.3389 14.415 19.6079 14.816L16.0639 11H6.98595L2.37195 16.871ZM9.48795 6C9.30087 6 9.11754 6.05248 8.9588 6.15147C8.80005 6.25046 8.67227 6.392 8.58995 6.56L8.52995 6.713L7.84395 9H15.1559L14.4699 6.713C14.4082 6.50692 14.2816 6.32624 14.1091 6.1978C13.9365 6.06935 13.7271 5.99999 13.5119 6H9.48795Z" fill="#FF00FF"/>
</g>
<defs>
<clipPath id="clip0_1_5547">
<rect width="24" height="24" fill="white"/>
</clipPath>
</defs>
</svg>
