<svg width="24" height="24" viewBox="0 0 24 24" fill="none" xmlns="http://www.w3.org/2000/svg">
<path d="M9.49997 5H8.12297C7.4978 4.99989 6.88821 5.1951 6.37939 5.55833C5.87057 5.92157 5.48794 6.4347 5.28497 7.026L5.21297 7.272L4.07397 11.825C4.73506 11.3743 5.49927 11.098 6.2957 11.0215C7.09213 10.9451 7.89497 11.071 8.62971 11.3877C9.36445 11.7044 10.0073 12.2016 10.4986 12.8331C10.9899 13.4646 11.3137 14.2099 11.44 15H12.56C12.6863 14.2101 13.0102 13.4649 13.5014 12.8336C13.9926 12.2022 14.6353 11.7051 15.3699 11.3885C16.1045 11.0718 16.9072 10.9457 17.7035 11.0221C18.4998 11.0984 19.2639 11.3746 19.925 11.825L18.787 7.272C18.6246 6.62307 18.2501 6.04701 17.7228 5.63536C17.1956 5.22371 16.5459 5.00007 15.877 5H14.5V3H15.877C16.9919 3.00014 18.0748 3.37291 18.9535 4.05907C19.8323 4.74522 20.4565 5.7054 20.727 6.787L22.969 15.757L22.991 15.87C23.0095 16.0111 22.9976 16.1544 22.9563 16.2905C22.915 16.4267 22.8451 16.5524 22.7513 16.6594C22.6575 16.7663 22.542 16.852 22.4124 16.9108C22.2828 16.9695 22.1422 16.9999 22 17H21.94C21.761 18.1151 21.1907 19.1299 20.3312 19.8625C19.4717 20.595 18.3793 20.9974 17.25 20.9974C16.1206 20.9974 15.0283 20.595 14.1688 19.8625C13.3093 19.1299 12.7389 18.1151 12.56 17H11.44C11.261 18.1151 10.6907 19.1299 9.83117 19.8625C8.97168 20.595 7.8793 20.9974 6.74997 20.9974C5.62064 20.9974 4.52825 20.595 3.66876 19.8625C2.80927 19.1299 2.2389 18.1151 2.05997 17H1.99997C1.84807 17 1.69818 16.9653 1.56167 16.8987C1.42516 16.8321 1.30562 16.7352 1.21212 16.6155C1.11863 16.4958 1.05363 16.3564 1.02207 16.2078C0.990508 16.0592 0.993209 15.9054 1.02997 15.758L3.27197 6.788L3.32897 6.581C3.63502 5.54695 4.26718 4.63955 5.13115 3.99419C5.99511 3.34883 7.04458 3.00009 8.12297 3H9.49997V5ZM6.74997 13C6.02062 13 5.32115 13.2897 4.80542 13.8055C4.2897 14.3212 3.99997 15.0207 3.99997 15.75V16.25C3.99997 16.9793 4.2897 17.6788 4.80542 18.1945C5.32115 18.7103 6.02062 19 6.74997 19C7.47931 19 8.17879 18.7103 8.69451 18.1945C9.21024 17.6788 9.49997 16.9793 9.49997 16.25V15.75C9.49997 15.0207 9.21024 14.3212 8.69451 13.8055C8.17879 13.2897 7.47931 13 6.74997 13ZM17.25 13C16.5206 13 15.8211 13.2897 15.3054 13.8055C14.7897 14.3212 14.5 15.0207 14.5 15.75V16.25C14.5 16.9793 14.7897 17.6788 15.3054 18.1945C15.8211 18.7103 16.5206 19 17.25 19C17.9793 19 18.6788 18.7103 19.1945 18.1945C19.7102 17.6788 20 16.9793 20 16.25V15.75C20 15.3889 19.9288 15.0313 19.7906 14.6976C19.6524 14.364 19.4499 14.0608 19.1945 13.8055C18.9391 13.5501 18.636 13.3475 18.3023 13.2093C17.9687 13.0711 17.6111 13 17.25 13Z" fill="#FF00FF"/>
</svg>
