<svg width="24" height="24" viewBox="0 0 24 24" fill="none" xmlns="http://www.w3.org/2000/svg">
<path d="M8.33 2.25401C8.899 1.95701 9.558 2.15501 9.914 2.60601L9.985 2.70601L10.119 2.90101C10.473 3.38101 11.114 4.00101 12 4.00101C13.012 4.00101 13.704 3.19101 14.015 2.70601L14.085 2.60601C14.442 2.15501 15.104 1.95601 15.673 2.25601L15.793 2.32801L18.538 4.17001L18.578 4.19801L18.788 4.35801C20.933 6.05401 22 8.50001 22 11V21H20V11C20 9.02101 19.139 7.11101 17.393 5.81001L15.259 4.37701C14.66 5.08201 13.584 6.00001 12 6.00001C10.415 6.00001 9.336 5.08201 8.738 4.37601L6.582 5.81401C4.859 7.11501 4 9.02401 4 11V21H2V11C2 8.42001 3.136 5.90001 5.4 4.20001L5.445 4.16801L8.21 2.32501L8.33 2.25501V2.25401ZM8 19H16V13H18V20C18 20.2652 17.8946 20.5196 17.7071 20.7071C17.5196 20.8946 17.2652 21 17 21H7C6.73478 21 6.48043 20.8946 6.29289 20.7071C6.10536 20.5196 6 20.2652 6 20V13H8V19ZM16 10.5H12V8.50001H16V10.5Z" fill="#FF00FF"/>
</svg>
