<svg width="24" height="24" viewBox="0 0 24 24" fill="none" xmlns="http://www.w3.org/2000/svg">
<path d="M1.89 3.208C2.01119 3.1146 2.15219 3.05026 2.30215 3.01992C2.45211 2.98958 2.60704 2.99406 2.755 3.033L21.755 8.033C21.9685 8.08931 22.1574 8.21471 22.2922 8.38964C22.4269 8.56457 22.5 8.77918 22.5 9V21H20.5V9.77L3.5 5.297V21H1.5V4C1.50006 3.84695 1.53526 3.69595 1.60287 3.55864C1.67049 3.42132 1.76872 3.30137 1.89 3.208ZM14.84 12C15.2315 11.9999 15.6145 12.1146 15.9414 12.3301C16.2683 12.5455 16.5247 12.8522 16.679 13.212L17.579 15.309C17.937 15.197 18.289 15.074 18.629 14.939L19 15.867L19.371 16.795C18.928 16.972 18.469 17.13 18 17.272V21H16V17.758C13.3556 18.2449 10.6444 18.2449 8 17.758V21H6V17.272C5.53 17.13 5.072 16.972 4.629 16.795L5 15.867L5.371 14.938C5.711 15.074 6.063 15.198 6.421 15.31L7.321 13.212C7.47526 12.8522 7.73174 12.5455 8.05864 12.3301C8.38554 12.1146 8.76849 11.9999 9.16 12H14.842H14.84ZM8.39 15.796C10.73 16.232 13.27 16.231 15.611 15.796L14.84 14H9.16L8.389 15.796H8.39Z" fill="#FF00FF"/>
</svg>
