<svg width="24" height="24" viewBox="0 0 24 24" fill="none" xmlns="http://www.w3.org/2000/svg">
<path d="M14 22H10V20H14V22ZM19.753 4.65803L13.329 11.998L19.443 18.986C19.636 18.978 19.885 18.966 20.173 18.944C20.893 18.888 21.838 18.774 22.771 18.555L23.23 20.503C22.164 20.753 21.108 20.877 20.329 20.938C19.8967 20.9718 19.4635 20.9924 19.03 21H19C18.8574 21 18.7164 20.9695 18.5865 20.9105C18.4566 20.8515 18.3409 20.7654 18.247 20.658L12 13.518L5.753 20.658C5.563 20.875 5.29 21 5 21H4.97C4.85462 20.9996 4.73927 20.997 4.624 20.992C4.392 20.984 4.064 20.969 3.672 20.938C2.69552 20.8654 1.72583 20.72 0.770996 20.503L1.23 18.555C2.163 18.775 3.109 18.888 3.829 18.944C4.116 18.967 4.365 18.978 4.559 18.986L10.671 11.999L4.248 4.65803L5.753 3.34003L12.001 10.48L18.248 3.34003L19.753 4.65803Z" fill="#FF00FF"/>
</svg>
