<svg width="24" height="24" viewBox="0 0 24 24" fill="none" xmlns="http://www.w3.org/2000/svg">
<path d="M17.0731 3.5C17.5374 3.50002 17.9925 3.62931 18.3874 3.87341C18.7823 4.1175 19.1015 4.46674 19.3091 4.882L21.5581 9.379C21.9481 9.275 22.3281 9.166 22.6951 9.048L23.3051 10.952C22.8851 11.087 22.4481 11.212 22.0001 11.33V20C22.0001 20.2652 21.8947 20.5196 21.7072 20.7071C21.5197 20.8946 21.2653 21 21.0001 21H17.0001C16.7349 21 16.4805 20.8946 16.293 20.7071C16.1054 20.5196 16.0001 20.2652 16.0001 20V18H8.00009V20C8.00009 20.2652 7.89473 20.5196 7.7072 20.7071C7.51966 20.8946 7.26531 21 7.00009 21H3.00009C2.73488 21 2.48052 20.8946 2.29298 20.7071C2.10545 20.5196 2.00009 20.2652 2.00009 20V11.33C1.56143 11.2158 1.12594 11.0898 0.694092 10.952L1.30609 9.048C1.67309 9.166 2.05209 9.275 2.44209 9.378L4.69209 4.882L4.77609 4.727C4.99711 4.35344 5.31158 4.04385 5.68856 3.82871C6.06554 3.61357 6.49204 3.50028 6.92609 3.5H17.0731ZM20.0001 11.781C15.0161 12.738 8.98509 12.738 4.00009 11.781V19H6.00009V17C6.00009 16.7348 6.10545 16.4804 6.29298 16.2929C6.48052 16.1054 6.73488 16 7.00009 16H17.0001C17.2653 16 17.5197 16.1054 17.7072 16.2929C17.8947 16.4804 18.0001 16.7348 18.0001 17V19H20.0001V11.781ZM6.92709 5.5C6.84622 5.50008 6.76658 5.51978 6.695 5.5574C6.62342 5.59502 6.56202 5.64944 6.51609 5.716L6.48009 5.776L4.45009 9.832C9.14209 10.722 14.8551 10.722 19.5471 9.832L17.5201 5.776C17.4785 5.6929 17.4145 5.62305 17.3353 5.5743C17.2562 5.52555 17.165 5.49982 17.0721 5.5H6.92709Z" fill="#FF00FF"/>
</svg>
