<svg width="24" height="24" viewBox="0 0 24 24" fill="none" xmlns="http://www.w3.org/2000/svg">
<path d="M16.75 3C18.275 3 19.7375 3.6058 20.8159 4.68414C21.8942 5.76247 22.5 7.22501 22.5 8.75V16.5C22.5 17.5609 22.0786 18.5783 21.3284 19.3284C20.5783 20.0786 19.5609 20.5 18.5 20.5H5.5C4.43913 20.5 3.42172 20.0786 2.67157 19.3284C1.92143 18.5783 1.5 17.5609 1.5 16.5V9C1.5 7.93913 1.92143 6.92172 2.67157 6.17157C3.42172 5.42143 4.43913 5 5.5 5H8V7H5.5C4.96957 7 4.46086 7.21071 4.08579 7.58579C3.71071 7.96086 3.5 8.46957 3.5 9V16.5C3.5 17.0304 3.71071 17.5391 4.08579 17.9142C4.46086 18.2893 4.96957 18.5 5.5 18.5H18.5C19.0304 18.5 19.5391 18.2893 19.9142 17.9142C20.2893 17.5391 20.5 17.0304 20.5 16.5V8.75C20.5 7.75544 20.1049 6.80161 19.4017 6.09835C18.6984 5.39509 17.7446 5 16.75 5C15.7554 5 14.8016 5.39509 14.0983 6.09835C13.3951 6.80161 13 7.75544 13 8.75V13.086L15.793 10.293L17.207 11.707L12.707 16.207C12.5195 16.3945 12.2652 16.4998 12 16.4998C11.7348 16.4998 11.4805 16.3945 11.293 16.207L6.793 11.707L8.207 10.293L11 13.086V8.75C11 7.22501 11.6058 5.76247 12.6841 4.68414C13.7625 3.6058 15.225 3 16.75 3Z" fill="#FF00FF"/>
</svg>
