<svg width="24" height="24" viewBox="0 0 24 24" fill="none" xmlns="http://www.w3.org/2000/svg">
<path d="M3.5 19H7.5V21H2.5L2.397 20.995C2.15088 20.9695 1.92294 20.8537 1.75726 20.6699C1.59158 20.4861 1.49992 20.2474 1.5 20V15H3.5V19ZM22.5 20C22.5 20.2652 22.3946 20.5196 22.2071 20.7071C22.0196 20.8946 21.7652 21 21.5 21H16.5V19H20.5V15H22.5V20ZM11.742 8.034C13.605 7.537 15.802 6.928 18.406 8.086C18.5828 8.16455 18.7331 8.29272 18.8385 8.45495C18.9439 8.61718 19 8.80652 19 9V15C18.9998 15.1665 18.958 15.3303 18.8785 15.4766C18.7989 15.6229 18.6842 15.7471 18.5446 15.8378C18.405 15.9286 18.2449 15.9831 18.0789 15.9964C17.913 16.0097 17.7463 15.9814 17.594 15.914C15.699 15.072 14.144 15.464 12.258 15.967C10.395 16.464 8.198 17.072 5.594 15.914C5.41718 15.8354 5.26695 15.7073 5.16151 15.5451C5.05608 15.3828 4.99998 15.1935 5 15V9C4.99998 8.83339 5.04159 8.66942 5.12104 8.52297C5.2005 8.37653 5.31528 8.25226 5.45497 8.16146C5.59466 8.07065 5.75482 8.01618 5.92091 8.00301C6.08699 7.98983 6.25374 8.01836 6.406 8.086C8.301 8.928 9.856 8.537 11.742 8.034ZM17 9.687C15.364 9.157 13.944 9.517 12.258 9.967C10.74 10.372 9.001 10.849 7 10.387V14.312C8.636 14.842 10.056 14.484 11.742 14.034C13.26 13.629 14.999 13.151 17 13.614V9.686V9.687ZM7.5 5H3.5V9H1.5V4C1.5 3.73478 1.60536 3.48043 1.79289 3.29289C1.98043 3.10536 2.23478 3 2.5 3H7.5V5ZM21.602 3.005C21.8483 3.03025 22.0765 3.14598 22.2424 3.32979C22.4083 3.5136 22.5001 3.75241 22.5 4V9H20.5V5H16.5V3H21.5L21.602 3.005Z" fill="#FF00FF"/>
</svg>
