<svg width="24" height="24" viewBox="0 0 24 24" fill="none" xmlns="http://www.w3.org/2000/svg">
<path d="M11.794 4.56901C14.861 3.77501 18.337 2.82301 21.942 4.60301C22.1095 4.68553 22.2505 4.81329 22.3491 4.97181C22.4477 5.13034 22.5 5.31331 22.5 5.50001V17.5C22.4998 17.6699 22.4564 17.8369 22.3738 17.9854C22.2911 18.1338 22.1721 18.2587 22.0278 18.3484C21.8835 18.438 21.7187 18.4895 21.5491 18.4978C21.3794 18.5061 21.2104 18.4711 21.058 18.396C18.216 16.993 15.474 17.683 12.295 18.506C9.31 19.278 5.933 20.167 2.395 18.557L2.053 18.394C1.88692 18.311 1.74722 18.1834 1.64955 18.0255C1.55188 17.8676 1.5001 17.6857 1.5 17.5V5.50001L1.508 5.37001C1.52899 5.21192 1.58742 5.06113 1.67841 4.93017C1.76941 4.79921 1.89035 4.69185 2.03119 4.61704C2.17202 4.54222 2.32868 4.5021 2.48814 4.50001C2.6476 4.49791 2.80525 4.53391 2.948 4.60501C5.851 6.05701 8.628 5.38801 11.794 4.56901ZM20.5 6.14701C17.854 5.08401 15.266 5.73701 12.295 6.50501C9.622 7.19701 6.635 7.98101 3.5 6.98201V16.856C6.206 17.971 8.83 17.336 11.794 16.569C14.45 15.882 17.412 15.077 20.5 16.029V6.14701ZM12 8.50001C13.5 8.50001 14 9.84301 14 11.5C14 13.156 13.5 14.5 12 14.5C10.5 14.5 10 13.156 10 11.5C10 9.84301 10.5 8.50001 12 8.50001Z" fill="#FF00FF"/>
</svg>
