<svg width="24" height="24" viewBox="0 0 24 24" fill="none" xmlns="http://www.w3.org/2000/svg">
<path d="M11.794 4.977C14.861 4.184 18.337 3.232 21.942 5.011C22.1095 5.09352 22.2505 5.22128 22.3491 5.37981C22.4477 5.53833 22.5 5.7213 22.5 5.908V17.908C22.4998 18.0779 22.4564 18.2449 22.3738 18.3933C22.2911 18.5418 22.1721 18.6667 22.0278 18.7564C21.8835 18.846 21.7187 18.8974 21.5491 18.9058C21.3794 18.9141 21.2104 18.8791 21.058 18.804C18.216 17.402 15.474 18.091 12.295 18.914C9.31 19.686 5.933 20.576 2.395 18.966L2.053 18.802C1.88692 18.719 1.74722 18.5914 1.64955 18.4335C1.55188 18.2756 1.5001 18.0937 1.5 17.908V5.908L1.508 5.779C1.52885 5.62083 1.58718 5.46992 1.67811 5.33884C1.76905 5.20775 1.88998 5.10027 2.03083 5.02535C2.17168 4.95042 2.32839 4.91021 2.48792 4.90806C2.64745 4.90592 2.80518 4.94189 2.948 5.013C5.851 6.465 8.628 5.796 11.794 4.977ZM20.5 6.555C17.854 5.493 15.266 6.145 12.295 6.914C9.622 7.605 6.635 8.39 3.5 7.39V17.264C6.206 18.379 8.83 17.744 11.794 16.977C14.45 16.29 17.412 15.485 20.5 16.437V6.555ZM18 14H16V8H18V14Z" fill="#FF00FF"/>
</svg>
