<svg width="24" height="24" viewBox="0 0 24 24" fill="none" xmlns="http://www.w3.org/2000/svg">
<path d="M19.0001 2.5C19.1617 2.5 19.321 2.53919 19.4642 2.61422C19.6074 2.68925 19.7302 2.79787 19.8223 2.93079C19.9143 3.06371 19.9727 3.21695 19.9925 3.37739C20.0123 3.53783 19.993 3.70069 19.9361 3.852C19.2221 5.754 18.9871 7.255 19.0001 8.49L17.0001 8.51C16.9881 7.33 17.1631 6.013 17.6101 4.5H5.76006C5.08606 7.174 5.40006 9.308 5.79906 11.645C6.18606 13.915 6.65206 16.378 6.19406 19.5H12.0001V21.5H5.00006C4.85089 21.5 4.7036 21.4667 4.56897 21.4025C4.43435 21.3382 4.31581 21.2446 4.22204 21.1286C4.12827 21.0126 4.06164 20.8771 4.02704 20.732C3.99244 20.5869 3.99074 20.4358 4.02206 20.29C4.72706 17 4.26606 14.55 3.82706 11.98C3.38506 9.394 2.97106 6.694 4.04506 3.206L4.10506 3.055C4.18785 2.88839 4.31548 2.74819 4.47359 2.65014C4.63169 2.55209 4.81402 2.5001 5.00006 2.5H19.0001ZM21.5391 8.612C21.7036 8.52699 21.8885 8.48929 22.0731 8.50309C22.2578 8.51688 22.435 8.58163 22.5851 8.69014C22.7352 8.79865 22.8522 8.94665 22.9231 9.1177C22.9941 9.28875 23.0162 9.47613 22.9871 9.659C22.6761 11.591 22.1551 13.943 21.0571 15.852C20.0451 17.612 18.5001 19.054 16.1871 19.396L16.1641 19.529C16.0584 20.1808 16.0036 20.8397 16.0001 21.5H14.0001C14.0047 20.4249 14.1271 19.3535 14.3651 18.305L14.3781 18.249L14.3821 18.232L14.3841 18.227V18.225C15.2471 14.239 17.8811 10.514 21.5391 8.612ZM20.5371 11.672C18.8201 13.102 17.4911 15.061 16.7461 17.202C17.8631 16.797 18.6841 15.964 19.3221 14.855C19.8621 13.916 20.2471 12.81 20.5371 11.672Z" fill="#FF00FF"/>
</svg>
