<svg width="24" height="24" viewBox="0 0 24 24" fill="none" xmlns="http://www.w3.org/2000/svg">
<path d="M7 3.753L7.654 3.608L8.014 3.535C9.81451 3.20555 11.6715 3.39135 13.371 4.071L13.644 4.175C15.0131 4.66309 16.4922 4.7546 17.911 4.439L19.783 4.023L19.894 4.006C20.0334 3.99114 20.1745 4.00577 20.3079 4.04894C20.4413 4.09211 20.5641 4.16287 20.6684 4.2566C20.7727 4.35034 20.8562 4.46497 20.9133 4.59304C20.9704 4.72111 20.9999 4.85977 21 5V14C21.0002 14.2277 20.9227 14.4486 20.7803 14.6262C20.638 14.8038 20.4392 14.9276 20.217 14.977L18.346 15.392C16.4372 15.8164 14.4447 15.655 12.629 14.929C11.1872 14.3521 9.605 14.2235 8.089 14.56L7 14.802V21H5V3H7V3.753ZM18.346 6.392C16.9135 6.7096 15.4277 6.69866 14 6.36V9C13.9998 9.16333 13.9597 9.32413 13.8831 9.46838C13.8065 9.61263 13.6957 9.73595 13.5605 9.82757C13.4253 9.91919 13.2697 9.97633 13.1074 9.99401C12.945 10.0117 12.7808 9.98937 12.629 9.929C11.2788 9.38888 9.80347 9.24121 8.373 9.503L8.089 9.561L7 9.8V12.752L7.654 12.607C9.56285 12.1826 11.5553 12.344 13.371 13.07C14.8128 13.6469 16.395 13.7755 17.911 13.439L19 13.197V6.247L18.346 6.392ZM11.135 5.5C10.1258 5.31742 9.09026 5.33781 8.089 5.56L7 5.803V7.753L7.654 7.609L8.014 7.537C9.3355 7.2954 10.6927 7.33047 12 7.64V5.71L11.993 5.708C11.7112 5.62273 11.4247 5.55262 11.135 5.5Z" fill="#FF00FF"/>
</svg>
