<svg width="24" height="24" viewBox="0 0 24 24" fill="none" xmlns="http://www.w3.org/2000/svg">
<path d="M20.2751 11.946L20.4851 12.166C21.4611 13.2481 22.0014 14.6537 22.0014 16.111C22.0014 17.5683 21.4611 18.9739 20.4851 20.056L20.2751 20.276C19.2075 21.3434 17.7708 21.9601 16.2616 21.9988C14.7524 22.0375 13.286 21.4953 12.1651 20.484L11.9461 20.275L9.87206 18.2L11.2861 16.786L13.3601 18.86L13.5061 18.999C14.2463 19.6663 15.2145 20.0239 16.2108 19.998C17.2071 19.9721 18.1554 19.5648 18.8601 18.86L18.9991 18.716C19.6435 18.0014 20.0001 17.0732 20.0001 16.111C20.0001 15.1487 19.6435 14.2206 18.9991 13.506L18.8601 13.36L16.7861 11.286L18.2001 9.87198L20.2751 11.946ZM16.9711 15.556L16.2631 16.263L15.5551 16.971L7.03006 8.44398L7.73806 7.73698L8.44506 7.02898L16.9711 15.556ZM3.94406 3.51598C5.06497 2.5047 6.5314 1.96244 8.04058 2.00114C9.54976 2.03985 10.9865 2.65657 12.0541 3.72398L14.1281 5.79999L12.7141 7.21398L10.6391 5.13998C9.93437 4.435 8.98595 4.02743 7.9895 4.00138C6.99305 3.97533 6.02462 4.33278 5.28406 4.99998L5.14006 5.13998C4.41094 5.86945 4.00135 6.85861 4.00135 7.88998C4.00135 8.92136 4.41094 9.91052 5.14006 10.64L7.21406 12.714L5.80006 14.128L3.72406 12.054C3.17708 11.507 2.74319 10.8577 2.44717 10.1431C2.15114 9.42845 1.99878 8.6625 1.99878 7.88898C1.99878 7.11547 2.15114 6.34952 2.44717 5.63489C2.74319 4.92025 3.17708 4.27093 3.72406 3.72398L3.94406 3.51598Z" fill="#FF00FF"/>
</svg>
