<svg width="24" height="24" viewBox="0 0 24 24" fill="none" xmlns="http://www.w3.org/2000/svg">
<path d="M14.9999 22H8.9999V20H14.9999V22ZM11.9999 1C13.7609 1.00008 15.4727 1.58121 16.8698 2.65327C18.2668 3.72533 19.2712 5.22842 19.7269 6.92942C20.1827 8.63042 20.0645 10.4343 19.3907 12.0613C18.7168 13.6882 17.5249 15.0474 15.9999 15.928V17.5C15.9999 17.7652 15.8945 18.0196 15.707 18.2071C15.5195 18.3946 15.2651 18.5 14.9999 18.5H8.9999C8.73468 18.5 8.48032 18.3946 8.29279 18.2071C8.10525 18.0196 7.99989 17.7652 7.99989 17.5V15.928C6.47486 15.0474 5.28299 13.6882 4.60913 12.0613C3.93526 10.4343 3.81706 8.63042 4.27285 6.92942C4.72864 5.22842 5.73295 3.72533 7.13003 2.65327C8.52711 1.58121 10.2389 1.00008 11.9999 1ZM11.9999 3C10.6369 2.99916 9.31424 3.46241 8.24963 4.3135C7.18502 5.16459 6.44192 6.3528 6.14263 7.68252C5.84335 9.01225 6.00572 10.4043 6.60303 11.6294C7.20034 12.8545 8.19698 13.8398 9.42889 14.423C9.59971 14.5041 9.74403 14.632 9.84509 14.7919C9.94616 14.9517 9.99984 15.1369 9.9999 15.326V16.5H13.9999V15.326C14 15.1369 14.0536 14.9517 14.1547 14.7919C14.2558 14.632 14.4001 14.5041 14.5709 14.423C15.8028 13.8398 16.7995 12.8545 17.3968 11.6294C17.9941 10.4043 18.1564 9.01225 17.8572 7.68252C17.5579 6.3528 16.8148 5.16459 15.7502 4.3135C14.6855 3.46241 13.3629 2.99916 11.9999 3Z" fill="#FF00FF"/>
</svg>
