<svg width="24" height="24" viewBox="0 0 24 24" fill="none" xmlns="http://www.w3.org/2000/svg">
<path d="M12 2L12.515 2.013C17.798 2.28 22 6.65 22 12C22 17.523 17.523 22 12 22L11.485 21.987C6.202 21.72 2 17.35 2 12C2 6.477 6.477 2 12 2ZM9.026 13C9.122 14.85 9.484 16.606 10.085 17.958C10.824 19.62 11.597 20 12 20C12.402 20 13.176 19.62 13.915 17.958C14.515 16.606 14.878 14.85 14.974 13H9.026ZM4.064 13C4.403 15.71 6.096 18 8.445 19.168C8.37968 19.0368 8.31733 18.9041 8.258 18.77C7.523 17.116 7.122 15.068 7.024 13H4.064ZM16.976 13C16.878 15.068 16.477 17.116 15.742 18.77C15.682 18.906 15.619 19.038 15.554 19.168C16.7363 18.5808 17.7551 17.7105 18.5196 16.6343C19.2841 15.5582 19.7707 14.3097 19.936 13H16.976ZM15.553 4.831C15.618 4.961 15.682 5.094 15.743 5.229L15.898 5.596C16.535 7.181 16.885 9.082 16.976 11H19.936C19.7708 9.69004 19.2841 8.44128 18.5194 7.36495C17.7547 6.28861 16.7356 5.41812 15.553 4.831ZM11.92 4.005C11.529 4.05 10.873 4.428 10.225 5.745L10.085 6.042C9.485 7.394 9.122 9.15 9.026 11H14.974C14.884 9.287 14.568 7.654 14.044 6.348L13.915 6.042C13.176 4.38 12.403 4 12 4L11.92 4.005ZM8.446 4.831C7.26362 5.41832 6.24482 6.28889 5.48028 7.3652C4.71575 8.44151 4.22922 9.69017 4.064 11H7.024C7.122 8.932 7.523 6.884 8.258 5.23L8.417 4.889L8.446 4.831Z" fill="#FF00FF"/>
</svg>
