<svg width="24" height="24" viewBox="0 0 24 24" fill="none" xmlns="http://www.w3.org/2000/svg">
<path d="M12 1.00001C14.381 1.00001 16.668 1.93001 18.357 3.59001C19.1922 4.4074 19.8561 5.38305 20.3099 6.45995C20.7637 7.53685 20.9983 8.6934 21 9.86201L20.993 10.185C20.86 13.517 18.701 16.543 16.731 18.656C15.4917 19.9769 14.1325 21.1801 12.671 22.25C12.641 22.273 12.615 22.29 12.598 22.302L12.578 22.316L12.571 22.32L12.569 22.322L12 21.5L12.568 22.323C12.401 22.4383 12.2029 22.5 12 22.5C11.7971 22.5 11.599 22.4383 11.432 22.323H11.431L11.429 22.32C11.427 22.32 11.425 22.318 11.423 22.316L11.403 22.302L11.328 22.25C10.9158 21.95 10.5123 21.6382 10.118 21.315C9.11005 20.4929 8.15795 19.6046 7.268 18.656C5.298 16.543 3.14 13.518 3.007 10.186L3 9.86101C3 7.50501 3.953 5.24901 5.643 3.58901C7.34108 1.92665 9.62368 0.997024 12 1.00001ZM12 3.00001C10.1477 2.99705 8.36824 3.72091 7.044 5.01601C6.39838 5.64741 5.88509 6.40117 5.53413 7.23323C5.18318 8.06529 5.00159 8.95896 5 9.86201L5.005 10.112C5.11 12.684 6.827 15.249 8.731 17.292C9.7391 18.3661 10.8323 19.357 12 20.255C13.1677 19.357 14.2609 18.3661 15.269 17.292C17.235 15.182 18.999 12.518 19 9.86201L18.991 9.52201C18.9021 7.81787 18.1757 6.20946 16.956 5.01601C15.6318 3.72091 13.8523 2.99705 12 3.00001ZM12 7.50001C12.5304 7.50001 13.0391 7.71072 13.4142 8.08579C13.7893 8.46087 14 8.96957 14 9.50001C14 10.0304 13.7893 10.5391 13.4142 10.9142C13.0391 11.2893 12.5304 11.5 12 11.5C11.4696 11.5 10.9609 11.2893 10.5858 10.9142C10.2107 10.5391 10 10.0304 10 9.50001C10 8.96957 10.2107 8.46087 10.5858 8.08579C10.9609 7.71072 11.4696 7.50001 12 7.50001Z" fill="#FF00FF"/>
</svg>
