<svg width="24" height="24" viewBox="0 0 24 24" fill="none" xmlns="http://www.w3.org/2000/svg">
<path fill-rule="evenodd" clip-rule="evenodd" d="M19.987 3.008C20.1179 2.99166 20.2508 3.00135 20.3779 3.03654C20.5051 3.07172 20.6241 3.1317 20.728 3.21301C20.8319 3.29433 20.9187 3.39539 20.9834 3.51037C21.0481 3.62535 21.0894 3.75199 21.105 3.883V3.891L21.108 3.913L21.118 3.996L21.155 4.319C21.187 4.598 21.234 4.999 21.289 5.491C21.399 6.473 21.546 7.815 21.693 9.251C21.985 12.1 22.285 15.402 22.285 16.984C22.285 19.245 20.398 21.023 18.143 21.023C15.887 21.023 14 19.246 14 16.983C14 14.723 15.887 12.946 18.143 12.946C18.853 12.946 19.508 13.133 20.077 13.449C19.9645 12.1162 19.8399 10.7845 19.703 9.454C19.575 8.2067 19.441 6.96002 19.301 5.714L19.233 5.118L9.218 6.37C9.238 6.555 9.264 6.764 9.289 6.99C9.399 7.973 9.546 9.315 9.693 10.751C9.985 13.601 10.285 16.903 10.285 18.485L10.279 18.695C10.166 20.855 8.328 22.523 6.143 22.523C3.887 22.523 2 20.746 2 18.485C2 16.223 3.887 14.445 6.143 14.445C6.836 14.445 7.495 14.613 8.074 14.911C7.96256 13.5909 7.83922 12.2719 7.704 10.954C7.52505 9.21107 7.33438 7.46937 7.132 5.729L7.122 5.646L7.119 5.624V5.618C7.08789 5.35588 7.16169 5.09209 7.32429 4.88415C7.48689 4.67622 7.72511 4.54101 7.987 4.508L19.987 3.008ZM6.143 16.446C4.927 16.446 4 17.39 4 18.485C4 19.579 4.928 20.523 6.143 20.523C7.357 20.523 8.285 19.579 8.285 18.485C8.285 17.39 7.358 16.446 6.143 16.446ZM18.143 14.946C16.928 14.946 16 15.889 16 16.984C16 18.078 16.928 19.023 18.143 19.023C19.349 19.023 20.271 18.091 20.283 17.006C20.225 15.972 19.28 14.946 18.143 14.946Z" fill="#FF00FF"/>
</svg>
