<svg width="24" height="24" viewBox="0 0 24 24" fill="none" xmlns="http://www.w3.org/2000/svg">
<path d="M15.7071 21.207C14.7271 22.187 13.3231 22.625 12.0001 22.625C10.6771 22.625 9.27306 22.187 8.29306 21.207L9.70706 19.793C10.2271 20.313 11.0731 20.625 12.0001 20.625C12.9271 20.625 13.7731 20.313 14.2931 19.793L15.7071 21.207ZM12.0001 2C13.4673 2.00036 14.8901 2.50329 16.0317 3.42505C17.1732 4.3468 17.9646 5.63177 18.2741 7.066L20.4771 17.289L20.4951 17.4C20.509 17.5391 20.4937 17.6795 20.4501 17.8123C20.4064 17.945 20.3354 18.0672 20.2417 18.1708C20.1479 18.2745 20.0335 18.3573 19.9058 18.414C19.778 18.4707 19.6398 18.5 19.5001 18.5H4.50006C4.35095 18.4999 4.20375 18.4664 4.06922 18.4021C3.93469 18.3378 3.81623 18.2442 3.7225 18.1282C3.62876 18.0123 3.56212 17.8768 3.52745 17.7318C3.49277 17.5868 3.49093 17.4358 3.52206 17.29L5.72606 7.065C6.03554 5.63087 6.82695 4.34603 7.96852 3.42444C9.11009 2.50285 10.5329 2.00013 12.0001 2ZM12.0001 4C10.9899 3.99991 10.0102 4.34592 9.22411 4.98041C8.43806 5.6149 7.89312 6.49955 7.68006 7.487L5.73906 16.5H18.2631L16.3201 7.487C16.107 6.49955 15.5621 5.6149 14.776 4.98041C13.99 4.34592 13.0102 3.99991 12.0001 4Z" fill="#FF00FF"/>
</svg>
