<svg width="24" height="24" viewBox="0 0 24 24" fill="none" xmlns="http://www.w3.org/2000/svg">
<path d="M4 12C4 14.1217 4.84285 16.1566 6.34315 17.6569C7.84344 19.1571 9.87827 20 12 20V22C6.477 22 2 17.523 2 12H4ZM21.66 14.588C21.215 16.2519 20.3475 17.7726 19.1417 19.0026C17.9359 20.2325 16.4328 21.13 14.778 21.608L14.5 20.648L14.222 19.686C15.5457 19.3036 16.7482 18.5856 17.7127 17.6016C18.6773 16.6177 19.3711 15.4011 19.727 14.07L21.66 14.588ZM17.262 9.148L11.737 15.648C11.6429 15.7582 11.5261 15.8466 11.3945 15.9073C11.263 15.9679 11.1199 15.9993 10.975 15.9993C10.8301 15.9993 10.687 15.9679 10.5555 15.9073C10.4239 15.8466 10.3071 15.7582 10.213 15.648L7.238 12.148L8.762 10.852L10.975 13.455L15.738 7.853L17.262 9.148ZM12 2C17.523 2 22 6.477 22 12H20C20 9.87827 19.1571 7.84344 17.6569 6.34315C16.1566 4.84285 14.1217 4 12 4V2ZM9.5 3.353L9.778 4.313C8.45395 4.69532 7.2512 5.4134 6.28648 6.39757C5.32176 7.38175 4.62782 8.59858 4.272 9.93L2.341 9.412C2.78594 7.74835 3.65314 6.22786 4.85854 4.99793C6.06394 3.76801 7.56665 2.87036 9.221 2.392L9.5 3.353Z" fill="#FF00FF"/>
</svg>
