<svg width="24" height="24" viewBox="0 0 24 24" fill="none" xmlns="http://www.w3.org/2000/svg">
<path d="M17.45 3.688C18.695 3.626 20.3 3.728 21.73 4.482L22.015 4.642C22.1631 4.73095 22.2855 4.85674 22.3705 5.0071C22.4555 5.15746 22.5001 5.32728 22.5 5.5V18.5L22.492 18.628C22.4715 18.7857 22.4137 18.9363 22.3233 19.0672C22.233 19.1981 22.1127 19.3056 21.9725 19.3807C21.8322 19.4558 21.6761 19.4963 21.5171 19.499C21.358 19.5017 21.2007 19.4664 21.058 19.396C18.216 17.994 15.474 18.682 12.295 19.505C9.215 20.302 5.715 21.225 2.053 19.394C1.88692 19.311 1.74722 19.1834 1.64955 19.0255C1.55188 18.8676 1.5001 18.6857 1.5 18.5V5.5C1.50011 5.34055 1.53834 5.18345 1.61151 5.04178C1.68468 4.90011 1.79066 4.778 1.92062 4.68562C2.05058 4.59324 2.20074 4.53328 2.35859 4.51073C2.51643 4.48818 2.67738 4.5037 2.828 4.556L2.948 4.606C3.823 5.043 5.163 5.283 6.443 5.399C7.691 5.513 8.746 5.5 9 5.5V7.5C8.754 7.5 7.612 7.514 6.262 7.39C5.414 7.313 4.425 7.177 3.5 6.927V17.857C6.206 18.971 8.83 18.337 11.794 17.569C14.45 16.882 17.412 16.077 20.5 17.029V6.111C19.593 5.723 18.539 5.637 17.55 5.687C16.977 5.715 16.454 5.787 16.034 5.854C15.808 5.891 15.656 5.919 15.482 5.947C15.361 5.967 15.162 6 15 6V4C14.963 4 14.983 4.002 15.158 3.974C15.281 3.954 15.504 3.914 15.716 3.88C16.29 3.78431 16.8689 3.72021 17.45 3.688ZM13 2V12.086L15.793 9.293L17.207 10.707L12.707 15.207C12.5316 15.3821 12.2973 15.4859 12.0497 15.4981C11.8021 15.5103 11.5588 15.43 11.367 15.273L11.293 15.207L6.793 10.707L8.207 9.293L11 12.086V2H13Z" fill="#FF00FF"/>
</svg>
