<svg width="24" height="24" viewBox="0 0 24 24" fill="none" xmlns="http://www.w3.org/2000/svg">
<path d="M11.102 12.005C11.3483 12.0303 11.5765 12.146 11.7424 12.3298C11.9083 12.5136 12.0001 12.7524 12 13V20C12 20.2652 11.8946 20.5196 11.7071 20.7071C11.5196 20.8946 11.2652 21 11 21H4C3.73478 21 3.48043 20.8946 3.29289 20.7071C3.10536 20.5196 3 20.2652 3 20V13L3.005 12.901C3.02956 12.6542 3.14499 12.4253 3.32886 12.2587C3.51274 12.0922 3.75194 12 4 12H11L11.102 12.005ZM21 20C21 20.2652 20.8946 20.5196 20.7071 20.7071C20.5196 20.8946 20.2652 21 20 21H15V19H19V15H21V20ZM5 19H10V14H5V19ZM15.5 12C15.8978 12 16.2794 12.158 16.5607 12.4393C16.842 12.7206 17 13.1022 17 13.5C17 13.8978 16.842 14.2794 16.5607 14.5607C16.2794 14.842 15.8978 15 15.5 15C15.1022 15 14.7206 14.842 14.4393 14.5607C14.158 14.2794 14 13.8978 14 13.5C14 13.1022 14.158 12.7206 14.4393 12.4393C14.7206 12.158 15.1022 12 15.5 12ZM10.5 7C10.8978 7 11.2794 7.15804 11.5607 7.43934C11.842 7.72064 12 8.10218 12 8.5C12 8.89782 11.842 9.27936 11.5607 9.56066C11.2794 9.84196 10.8978 10 10.5 10C10.1022 10 9.72064 9.84196 9.43934 9.56066C9.15804 9.27936 9 8.89782 9 8.5C9 8.10218 9.15804 7.72064 9.43934 7.43934C9.72064 7.15804 10.1022 7 10.5 7ZM20.102 3.005C20.3483 3.03025 20.5765 3.14598 20.7424 3.32979C20.9083 3.5136 21.0001 3.75241 21 4V9L20.995 9.103C20.9714 9.33167 20.8697 9.54522 20.707 9.70769C20.5444 9.87015 20.3307 9.97162 20.102 9.995L20 10H15C14.7348 10 14.4804 9.89464 14.2929 9.70711C14.1054 9.51957 14 9.26522 14 9V4L14.005 3.901C14.0296 3.65416 14.145 3.42525 14.3289 3.25875C14.5127 3.09224 14.7519 3.00002 15 3H20L20.102 3.005ZM9 5H5V9H3V4L3.005 3.897C3.03049 3.65088 3.14632 3.42294 3.3301 3.25726C3.51388 3.09158 3.75256 2.99992 4 3H9V5ZM16 8H19V5H16V8Z" fill="#FF00FF"/>
</svg>
