<svg width="24" height="24" viewBox="0 0 24 24" fill="none" xmlns="http://www.w3.org/2000/svg">
<path d="M22 13.5C22 15.0913 21.3679 16.6174 20.2426 17.7426C19.1174 18.8679 17.5913 19.5 16 19.5H7.414L10.207 22.293L8.793 23.707L4.293 19.207C4.10553 19.0195 4.00021 18.7652 4.00021 18.5C4.00021 18.2348 4.10553 17.9805 4.293 17.793L8.793 13.293L10.207 14.707L7.414 17.5H16C17.0609 17.5 18.0783 17.0786 18.8284 16.3284C19.5786 15.5783 20 14.5609 20 13.5V11H22V13.5ZM19.707 4.793L19.775 4.869C19.9312 5.06091 20.0107 5.30393 19.9982 5.55107C19.9856 5.79821 19.8819 6.03191 19.707 6.207L15.207 10.707L13.793 9.293L16.586 6.5H8C6.93913 6.5 5.92172 6.92143 5.17157 7.67157C4.42143 8.42172 4 9.43913 4 10.5V13H2V10.5C2 8.9087 2.63214 7.38258 3.75736 6.25736C4.88258 5.13214 6.4087 4.5 8 4.5H16.586L13.793 1.707L15.207 0.292999L19.707 4.793Z" fill="#FF00FF"/>
</svg>
