<svg width="24" height="24" viewBox="0 0 24 24" fill="none" xmlns="http://www.w3.org/2000/svg">
<path d="M17.758 2.03C17.9054 1.99324 18.0592 1.99054 18.2078 2.0221C18.3564 2.05366 18.4958 2.11866 18.6155 2.21215C18.7352 2.30565 18.8321 2.42519 18.8987 2.5617C18.9653 2.69821 19 2.8481 19 3C19 6.965 15.942 9.45 13 9.918V15.948C14.815 13.468 17.643 12 21 12V14C16.864 14 13.712 16.721 12.987 21.161H11.013C10.288 16.721 7.136 14 3 14V12C6.357 12 9.185 13.467 11 15.948V9.918C8.058 9.449 5 6.965 5 3L5.007 2.886C5.02327 2.74472 5.06948 2.60853 5.14256 2.48653C5.21564 2.36453 5.31389 2.25952 5.43078 2.1785C5.54766 2.09749 5.68048 2.04234 5.82037 2.01673C5.96026 1.99112 6.104 1.99564 6.242 2.03C10.082 2.99 13.917 2.99 17.758 2.03ZM16.836 4.28C13.613 4.904 10.386 4.904 7.163 4.28C7.776 6.617 10.02 8 12 8L12.219 7.994C14.143 7.897 16.245 6.531 16.836 4.28Z" fill="#FF00FF"/>
</svg>
