<svg width="24" height="24" viewBox="0 0 24 24" fill="none" xmlns="http://www.w3.org/2000/svg">
<path d="M23.759 14.15L17.759 21.15C17.6651 21.2594 17.5487 21.3473 17.4177 21.4075C17.2867 21.4677 17.1442 21.4989 17 21.4989C16.8558 21.4989 16.7133 21.4677 16.5823 21.4075C16.4513 21.3473 16.3349 21.2594 16.241 21.15L13.241 17.65L14.759 16.35L17 18.964L22.241 12.85L23.759 14.15ZM19 3C19.5304 3 20.0391 3.21071 20.4142 3.58579C20.7893 3.96086 21 4.46957 21 5V11.5H19V5H5V19H11.5V21H5C4.46957 21 3.96086 20.7893 3.58579 20.4142C3.21071 20.0391 3 19.5304 3 19V5C3 4.46957 3.21071 3.96086 3.58579 3.58579C3.96086 3.21071 4.46957 3 5 3H19Z" fill="#FF00FF"/>
</svg>
