<svg width="24" height="24" viewBox="0 0 24 24" fill="none" xmlns="http://www.w3.org/2000/svg">
<path d="M20.207 4.79303C20.3821 4.96848 20.4859 5.20272 20.4981 5.45032C20.5103 5.69792 20.4301 5.94122 20.273 6.13303L20.207 6.20703L15.707 10.707L14.293 9.29303L17.086 6.50003H9.4C8.264 6.50003 7.471 6.50003 6.854 6.55003C6.325 6.59403 5.992 6.67003 5.741 6.77803L5.638 6.82803C5.14522 7.07878 4.73131 7.46085 4.442 7.93203L4.327 8.13803C4.193 8.40103 4.1 8.74903 4.051 9.35403C4 9.97103 4 10.764 4 11.9V13.1L4.007 14.568C4.013 14.985 4.026 15.338 4.051 15.645C4.101 16.251 4.193 16.599 4.327 16.862C4.61453 17.426 5.07306 17.8845 5.637 18.172L5.741 18.222C5.992 18.33 6.325 18.406 6.854 18.449C7.471 18.499 8.264 18.499 9.4 18.499H14.6C15.736 18.499 16.529 18.499 17.145 18.449C17.751 18.399 18.099 18.307 18.362 18.173L18.568 18.058C19.038 17.769 19.421 17.356 19.673 16.862L19.722 16.759C19.83 16.507 19.906 16.175 19.949 15.645C19.974 15.337 19.987 14.985 19.993 14.568L20 13.101V12H22V13.1L21.993 14.6C21.986 15.049 21.972 15.45 21.943 15.809C21.89 16.446 21.788 17.017 21.56 17.546L21.455 17.77C21.0065 18.6507 20.307 19.3787 19.445 19.862L19.27 19.955C18.677 20.257 18.037 20.383 17.309 20.442C16.591 20.501 15.703 20.5 14.599 20.5H9.4C8.297 20.5 7.409 20.5 6.691 20.442C6.054 20.39 5.483 20.288 4.954 20.061L4.73 19.955C3.84935 19.5065 3.12136 18.8071 2.638 17.945L2.545 17.77C2.243 17.178 2.117 16.537 2.058 15.809C2.028 15.45 2.014 15.049 2.007 14.599L2 13.102V11.902C2 10.798 1.999 9.91003 2.058 9.19203C2.118 8.46403 2.243 7.82403 2.545 7.23203L2.638 7.05703C3.12115 6.19434 3.84913 5.49419 4.73 5.04503L4.954 4.93903C5.484 4.71203 6.054 4.60903 6.691 4.55803C7.409 4.49803 8.297 4.50003 9.401 4.50003H17.086L14.293 1.70703L15.707 0.29303L20.207 4.79303Z" fill="black"/>
<path d="M5.5 12V15C5.5 16.1046 6.39543 17 7.5 17H10.5" stroke="#FF00FF"/>
</svg>
