<svg width="24" height="24" viewBox="0 0 24 24" fill="none" xmlns="http://www.w3.org/2000/svg">
<path d="M7.397 4.20099C7.52059 4.1078 7.66413 4.04457 7.81632 4.01629C7.9685 3.988 8.12518 3.99543 8.274 4.03799L22.274 8.03799C22.4832 8.09758 22.6672 8.22374 22.7982 8.39734C22.9292 8.57093 23.0001 8.78251 23 8.99999V20C22.9998 20.2474 22.9079 20.486 22.742 20.6696C22.5762 20.8532 22.3481 20.9688 22.102 20.994L22 21H2C1.73478 21 1.48043 20.8946 1.29289 20.7071C1.10536 20.5196 1 20.2652 1 20V14C1.00005 13.8563 1.03107 13.7143 1.09095 13.5837C1.15083 13.453 1.23817 13.3368 1.347 13.243L1.445 13.168L7 9.46499V4.99999C7 4.68699 7.147 4.38999 7.397 4.20099ZM9 19.001H21V9.75299L9 6.32499V19.001ZM3 14.535V19H7V11.868L3 14.536V14.535Z" fill="black"/>
<path d="M8.5 2.5L22.5 6.5" stroke="#FF00FF"/>
</svg>
