<svg width="24" height="24" viewBox="0 0 24 24" fill="none" xmlns="http://www.w3.org/2000/svg">
<g clip-path="url(#clip0_142_5037)">
<path d="M7.542 0.109971C7.73055 0.0132218 7.94495 -0.021187 8.15431 0.0116995C8.36367 0.0445861 8.55719 0.143071 8.707 0.292971L17.414 8.99997H21C21.7956 8.99997 22.5587 9.31604 23.1213 9.87865C23.6839 10.4413 24 11.2043 24 12L23.996 12.154C23.9565 12.9219 23.6237 13.6454 23.0661 14.175C22.5086 14.7047 21.769 15 21 15H17.414L8.707 23.707C8.56095 23.8531 8.37321 23.9504 8.1696 23.9855C7.96599 24.0207 7.75651 23.9918 7.56994 23.903C7.38338 23.8143 7.2289 23.6699 7.12773 23.4897C7.02657 23.3096 6.9837 23.1025 7.005 22.897L7.035 22.732L9.186 15H4.5C4.34476 15 4.19164 14.9638 4.05279 14.8944C3.91393 14.825 3.79315 14.7242 3.7 14.6L0.7 10.6C0.588573 10.4514 0.520719 10.2747 0.504041 10.0898C0.487363 9.90481 0.52252 9.71886 0.605573 9.55276C0.688626 9.38665 0.816293 9.24695 0.974269 9.14932C1.13225 9.05169 1.31429 8.99997 1.5 8.99997H14.586L9.487 3.89997V3.90397C9.612 4.68697 9.738 5.48897 9.833 6.12697C9.88 6.44597 9.92 6.72797 9.949 6.94897C9.973 7.13897 9.999 7.35897 9.999 7.49997H8C8 7.51597 7.996 7.43997 7.966 7.20497C7.93168 6.94298 7.89501 6.6813 7.856 6.41997C7.762 5.79297 7.638 4.99997 7.513 4.21997C7.389 3.44197 7.264 2.67697 7.171 2.10797L7.057 1.42197L7.025 1.23197L7.017 1.18197L7.015 1.16897V1.16497C6.97961 0.956074 7.01148 0.741334 7.10601 0.551721C7.20055 0.362108 7.35387 0.207421 7.542 0.109971ZM5 13H10.5C10.6542 12.9999 10.8064 13.0355 10.9446 13.104C11.0828 13.1724 11.2033 13.272 11.2966 13.3948C11.39 13.5175 11.4537 13.6603 11.4827 13.8117C11.5117 13.9632 11.5053 14.1194 11.464 14.268L9.98 19.605L16.292 13.293C16.385 13.2 16.4953 13.1262 16.6168 13.076C16.7383 13.0257 16.8685 12.9999 17 13H21C21.2652 13 21.5196 12.8946 21.7071 12.7071C21.8946 12.5195 22 12.2652 22 12C22 11.7348 21.8946 11.4804 21.7071 11.2929C21.5196 11.1053 21.2652 11 21 11H3.5L5 13Z" fill="black"/>
<path d="M6.5 7.5H11.25V9H6.5V7.5Z" fill="#FF00FF"/>
</g>
<defs>
<clipPath id="clip0_142_5037">
<rect width="24" height="24" fill="white"/>
</clipPath>
</defs>
</svg>
