<svg width="24" height="24" viewBox="0 0 24 24" fill="none" xmlns="http://www.w3.org/2000/svg">
<path d="M13.5118 4C14.8366 4.00005 16.0051 4.8689 16.3859 6.1377L17.3907 9.49023L23.7325 16.3193C24.0675 16.6801 24.0905 17.2312 23.7863 17.6182C23.4816 18.005 22.9403 18.1129 22.5109 17.8721C18.5466 15.6461 15.3449 17.139 11.8077 18.668C10.0942 19.4087 8.24157 20.1786 6.31555 20.249C4.30924 20.3223 2.31826 19.6408 0.309692 17.7236C-0.0628996 17.368 -0.104243 16.7869 0.213989 16.3818L5.59583 9.53125L6.61438 6.1377C6.99512 4.86885 8.16364 4 9.4884 4H13.5118ZM2.37219 16.8711C3.75886 17.9718 5.02424 18.2954 6.24231 18.251C7.73729 18.1963 9.25731 17.5913 11.0138 16.832C13.4844 15.7641 16.3393 14.415 19.6085 14.8164L16.0646 11H6.98645L2.37219 16.8711ZM9.4884 6C9.0468 6 8.6573 6.28993 8.5304 6.71289L7.84387 9H15.1564L14.4698 6.71289C14.3429 6.28991 13.9534 6.00005 13.5118 6H9.4884Z" fill="black"/>
<path d="M1 17C8.33333 24 14.0953 12 23 17" stroke="#FF00FF" stroke-width="2" stroke-linecap="round" stroke-linejoin="round"/>
</svg>
