<svg width="24" height="24" viewBox="0 0 24 24" fill="none" xmlns="http://www.w3.org/2000/svg">
<path d="M17.0732 5.5C18.0199 5.50009 18.8851 6.03513 19.3086 6.88184L21.5576 11.3789C21.9476 11.2754 22.3272 11.1657 22.6943 11.0479L23.3057 12.9521C22.8842 13.0874 22.4481 13.2126 22 13.3301V20.5C22 21.0523 21.5523 21.5 21 21.5H17C16.4477 21.5 16 21.0523 16 20.5V18.5H8V20.5C8 21.0523 7.55228 21.5 7 21.5H3C2.44772 21.5 2 21.0523 2 20.5V13.3301C1.55189 13.2126 1.11583 13.0874 0.694336 12.9521L1.30566 11.0479C1.67253 11.1656 2.05172 11.2755 2.44141 11.3789L4.69141 6.88184C5.11489 6.03512 5.98004 5.50011 6.92676 5.5H17.0732ZM20 13.7812C15.0154 14.7379 8.98457 14.7379 4 13.7812V19.5H6V17.5C6 16.9477 6.44772 16.5 7 16.5H17C17.5523 16.5 18 16.9477 18 17.5V19.5H20V13.7812ZM6.92676 7.5C6.73748 7.50011 6.56415 7.60706 6.47949 7.77637L4.45117 11.832C9.14251 12.7213 14.8564 12.7212 19.5479 11.832L17.5205 7.77637C17.4358 7.60702 17.2625 7.50009 17.0732 7.5H6.92676ZM12 1C13.3235 0.999997 14.7271 1.438 15.707 2.41797L14.293 3.83203C13.7729 3.312 12.9265 3 12 3C11.0735 3 10.2271 3.312 9.70703 3.83203L8.29297 2.41797C9.27294 1.43799 10.6765 1 12 1Z" fill="black"/>
<path d="M9 3.125C10.5 1.62498 13.5 1.62498 15 3.12498" stroke="#FF00FF" stroke-width="2" stroke-linejoin="round"/>
</svg>
