<svg width="24" height="24" viewBox="0 0 24 24" fill="none" xmlns="http://www.w3.org/2000/svg">
<path d="M15.707 20.207C14.727 21.1869 13.3235 21.625 12 21.625C10.6765 21.625 9.27293 21.1871 8.29295 20.207L9.70701 18.793C10.227 19.313 11.0735 19.625 12 19.625C12.9265 19.625 13.7729 19.313 14.293 18.793L15.707 20.207ZM13 6H17C17.5523 6.00001 18 6.44772 18 7C18 8.37719 17.3184 9.65258 16.1982 10.5713C18.6994 11.2686 21.3053 12.7176 22.8721 15.5107C23.0456 15.8202 23.0424 16.1986 22.8633 16.5049C22.6838 16.8112 22.355 17 22 17H1.99998C1.64494 17 1.31613 16.8112 1.1367 16.5049C0.957576 16.1986 0.954322 15.8202 1.12791 15.5107C2.69446 12.7179 5.2999 11.2687 7.80076 10.5713C6.68094 9.65261 5.99998 8.37695 5.99998 7C5.99998 6.44772 6.4477 6 6.99998 6H11V2H13V6ZM12 12C9.55151 12 6.16081 12.682 3.96873 15H20.0312C17.8392 12.682 14.4484 12 12 12ZM8.25096 8C8.76047 9.03547 10.0389 10 12 10C13.9611 9.99999 15.2395 9.03547 15.749 8H8.25096Z" fill="black"/>
<path d="M9 19.5C10.5 21.0001 13.5 21 15 19.5001" stroke="#FF00FF" stroke-width="2" stroke-linejoin="round"/>
</svg>
