<svg width="24" height="24" viewBox="0 0 24 24" fill="none" xmlns="http://www.w3.org/2000/svg">
<path d="M4.5 18.5C4.5 19.0523 4.94771 19.5 5.5 19.5H18.5C19.0523 19.5 19.5 19.0523 19.5 18.5V17H21.5V18.5C21.5 20.1569 20.1569 21.5 18.5 21.5H5.5C3.84315 21.5 2.5 20.1569 2.5 18.5V17H4.5V18.5ZM12 2.5C14.3856 2.5 16.7274 3.04888 18.5039 4.26855C20.3194 5.51505 21.5 7.43955 21.5 10C21.5 10.5523 21.0523 11 20.5 11H3.5C2.94772 11 2.5 10.5523 2.5 10C2.5 7.43955 3.68059 5.51505 5.49609 4.26855C7.27264 3.04888 9.61437 2.5 12 2.5ZM12 4.5C9.88565 4.5 7.97734 4.99225 6.62891 5.91797C5.56777 6.64648 4.82806 7.65488 4.58594 9H19.4141C19.1719 7.65488 18.4322 6.64648 17.3711 5.91797C16.0227 4.99225 14.1143 4.5 12 4.5Z" fill="black"/>
<path d="M2 13.5C4.68293 13.5 5.80488 15.5 8 15.5C10.439 15.5 11.0488 13.5 13 13.5C14.9512 13.5 16 14.5 17.5 14.5C19 14.5 20.2451 13.5 22 13.5" stroke="#FF00FF" stroke-width="2" stroke-linejoin="round"/>
</svg>
