<svg width="24" height="24" viewBox="0 0 24 24" fill="none" xmlns="http://www.w3.org/2000/svg">
<path d="M6.58301 9.73047C8.66828 9.67526 10.981 10.3971 13.498 12.1846C14.3774 12.8091 16.169 14.2009 17.7188 15.4189C18.4984 16.0318 19.2249 16.607 19.7559 17.0283C20.0213 17.239 20.2382 17.4114 20.3887 17.5312C20.4639 17.5911 20.5226 17.6381 20.5625 17.6699C20.5823 17.6857 20.5981 17.6979 20.6084 17.7061C20.6133 17.71 20.6175 17.7128 20.6201 17.7148L20.624 17.7188L19.376 19.2812H19.375C19.3744 19.2807 19.3733 19.2793 19.3721 19.2783C19.3696 19.2763 19.366 19.2733 19.3613 19.2695C19.3512 19.2615 19.336 19.2491 19.3164 19.2334C19.2769 19.2019 19.2183 19.1552 19.1436 19.0957C18.9937 18.9764 18.7773 18.8047 18.5127 18.5947C17.9834 18.1747 17.2598 17.6024 16.4834 16.9922C15.2534 16.0254 13.9068 14.979 12.9844 14.2891L9.1709 17.7412L7.8291 16.2588L11.2852 13.1289C9.48998 12.0638 7.94358 11.6948 6.63574 11.7295C5.07844 11.7708 3.74442 12.3849 2.625 13.2803L2 12.5L1.375 11.7188C2.75544 10.6145 4.49786 9.78577 6.58301 9.73047ZM19 5C21.2092 5 23 6.79088 23 9C23 11.2092 21.2092 13 19 13C16.791 12.9999 15 11.2092 15 9C15 6.7909 16.791 5.00007 19 5ZM19 7C17.8955 7.00007 17 7.89549 17 9C17 10.1046 17.8955 10.9999 19 11C20.1046 11 21 10.1046 21 9C21 7.89542 20.1046 7 19 7Z" fill="black"/>
<path d="M1 18.5C8.48829 12.8887 13.372 22.6113 23 17" stroke="#FF00FF" stroke-width="2" stroke-linejoin="round"/>
</svg>
