<svg width="24" height="24" viewBox="0 0 24 24" fill="none" xmlns="http://www.w3.org/2000/svg">
<g clip-path="url(#clip0_144_5082)">
<path d="M7.54199 0.110046C7.92843 -0.0887287 8.39969 -0.01456 8.70703 0.292664L17.4141 8.99969H21C22.6568 8.99972 23.9998 10.3431 24 11.9997C24 13.6565 22.6569 14.9997 21 14.9997H17.4141L8.70703 23.7067C8.38579 24.028 7.88849 24.0919 7.49609 23.863C7.10392 23.634 6.91467 23.1697 7.03613 22.7321L9.18359 14.9997H4.5C4.18524 14.9997 3.88905 14.8511 3.7002 14.5993L0.700195 10.5993C0.473155 10.2963 0.436151 9.89109 0.605469 9.55243C0.774913 9.21381 1.12133 8.99969 1.5 8.99969H14.5859L9.48633 3.90009C9.48652 3.9013 9.48706 3.90278 9.4873 3.90399C9.61247 4.68629 9.73841 5.48813 9.83301 6.12665C9.8802 6.44523 9.9207 6.72796 9.94922 6.94891C9.97359 7.13776 9.99996 7.35865 10 7.49969H8C7.99999 7.51563 7.99512 7.43943 7.96484 7.20477C7.93868 7.00202 7.90099 6.73346 7.85449 6.41962C7.76161 5.79269 7.63747 5.00023 7.5127 4.2204C7.38801 3.44114 7.26352 2.67652 7.16992 2.10712C7.12315 1.82259 7.08392 1.58619 7.05664 1.42157C7.04305 1.33953 7.03169 1.27494 7.02441 1.23114C7.02083 1.20953 7.01847 1.19256 7.0166 1.18134C7.01573 1.17606 7.01511 1.17143 7.01465 1.16864L7.01367 1.16473C6.94237 0.736093 7.15564 0.308946 7.54199 0.110046ZM4.99902 12.9997H10.5C10.8123 12.9997 11.1068 13.1458 11.2959 13.3942C11.4849 13.6429 11.5473 13.9663 11.4639 14.2673L9.98047 19.6042L16.293 13.2927L16.3662 13.2263C16.5441 13.0805 16.768 12.9997 17 12.9997H21C21.5523 12.9997 22 12.552 22 11.9997C21.9998 11.4476 21.5521 10.9997 21 10.9997H3.49902L4.99902 12.9997Z" fill="black"/>
<path d="M11 7.5H7" stroke="#FF00FF"/>
</g>
<defs>
<clipPath id="clip0_144_5082">
<rect width="24" height="24" fill="white"/>
</clipPath>
</defs>
</svg>
