<svg width="24" height="24" viewBox="0 0 24 24" fill="none" xmlns="http://www.w3.org/2000/svg">
<path d="M17.648 3.01C17.8165 3.0355 17.9757 3.10364 18.1104 3.20795C18.2452 3.31226 18.3511 3.44928 18.418 3.606L19.66 6.5H21V8.5H19.852L17.987 20.158C17.9494 20.3928 17.8295 20.6065 17.6486 20.7608C17.4677 20.9151 17.2378 20.9999 17 21H7C6.77778 21 6.56188 20.926 6.38641 20.7896C6.21094 20.6533 6.08589 20.4623 6.031 20.247L6.013 20.158L4.147 8.5H3V6.5H4.34L5.581 3.606L5.649 3.475C5.73856 3.32981 5.86377 3.20995 6.01272 3.12681C6.16167 3.04367 6.32942 3.00002 6.5 3H17.5L17.648 3.01ZM7.853 19H16.148L17.828 8.5H6.172L7.853 19ZM6.517 6.5H17.483L16.841 5H7.159L6.517 6.5Z" fill="black"/>
<circle cx="3.5" cy="7.5" r="2.375" stroke="#FF00FF" stroke-width="0.25"/>
</svg>
