<svg width="24" height="24" viewBox="0 0 24 24" fill="none" xmlns="http://www.w3.org/2000/svg">
<path d="M11.7939 4.97656C14.861 4.18285 18.3367 3.23109 21.9424 5.01074C22.2835 5.17912 22.4998 5.52686 22.5 5.90723V17.9072C22.5 18.2527 22.3217 18.5743 22.0283 18.7568C21.7348 18.9393 21.3675 18.9566 21.0576 18.8037C18.2156 17.4009 15.4739 18.0904 12.2949 18.9131C9.21408 19.7104 5.71476 20.6328 2.05273 18.8018C1.71409 18.6323 1.50003 18.2859 1.5 17.9072V5.90723C1.50022 5.56089 1.67997 5.23874 1.97461 5.05664C2.26926 4.87478 2.63751 4.85793 2.94727 5.0127C5.8513 6.46472 8.62834 5.79577 11.7939 4.97656ZM20.5 6.55469C17.8544 5.49208 15.2657 6.14431 12.2949 6.91309C9.62234 7.60471 6.6354 8.38881 3.5 7.38965V17.2637C6.20622 18.3783 8.82959 17.7437 11.7939 16.9766C14.45 16.2892 17.4121 15.4845 20.5 16.4365V6.55469ZM12 8.90821C13.5 8.90821 14 10.2514 14 11.9082C13.9999 13.5649 13.4999 14.9082 12 14.9082C10.5001 14.9082 10.0001 13.5649 10 11.9082C10 10.2514 10.5 8.90821 12 8.90821Z" fill="black"/>
<path d="M2.5 17.9076C9.06607 21.1907 15.0519 14.7247 21.5 17.9076" stroke="#FF00FF" stroke-width="2" stroke-linecap="round" stroke-linejoin="round"/>
</svg>
