<svg width="24" height="24" viewBox="0 0 24 24" fill="none" xmlns="http://www.w3.org/2000/svg">
<path d="M17.15 1.98901L14.363 2.40901L14.088 4.50001H21V6.50001H19.871L17.991 20.137C17.9579 20.3763 17.8393 20.5955 17.6572 20.7541C17.475 20.9128 17.2416 21.0001 17 21H7C6.75861 20.9999 6.52543 20.9124 6.34347 20.7538C6.16151 20.5952 6.04307 20.3761 6.01 20.137L4.129 6.50001H3V4.50001H12.071L12.48 1.40301L12.514 1.24201C12.5689 1.06134 12.6738 0.89991 12.8166 0.776386C12.9594 0.652863 13.1343 0.572297 13.321 0.54401L16.851 0.0100098L17.15 1.98901ZM7.87 19H16.128L17.851 6.50001H13.823L12.49 16.631L10.508 16.37L11.808 6.50001H6.147L7.87 19Z" fill="black"/>
<circle cx="3.5" cy="5.5" r="2.375" stroke="#FF00FF" stroke-width="0.25"/>
</svg>
