<svg width="24" height="24" viewBox="0 0 24 24" fill="none" xmlns="http://www.w3.org/2000/svg">
<path d="M17.5 3.5C18.8261 3.5 20.0979 4.02678 21.0355 4.96447C21.9732 5.90215 22.5 7.17392 22.5 8.5V13.5C22.5 14.8261 21.9732 16.0979 21.0355 17.0355C20.0979 17.9732 18.8261 18.5 17.5 18.5H15V16.5H17.5C18.2956 16.5 19.0587 16.1839 19.6213 15.6213C20.1839 15.0587 20.5 14.2956 20.5 13.5V8.5C20.5 7.70435 20.1839 6.94129 19.6213 6.37868C19.0587 5.81607 18.2956 5.5 17.5 5.5H6.5C5.70435 5.5 4.94129 5.81607 4.37868 6.37868C3.81607 6.94129 3.5 7.70435 3.5 8.5V13.5C3.5 14.2956 3.81607 15.0587 4.37868 15.6213C4.94129 16.1839 5.70435 16.5 6.5 16.5H9.62C10.1096 16.5001 10.5821 16.6798 10.948 17.005L15.164 20.752L14.5 21.5L13.836 22.247L9.62 18.5H6.5C5.17392 18.5 3.90215 17.9732 2.96447 17.0355C2.02678 16.0979 1.5 14.8261 1.5 13.5V8.5C1.5 7.17392 2.02678 5.90215 2.96447 4.96447C3.90215 4.02678 5.17392 3.5 6.5 3.5H17.5Z" fill="black"/>
<path d="M5 10V13C5 14.1046 5.89543 15 7 15H10" stroke="#FF00FF"/>
</svg>
