<svg width="25" height="25" viewBox="0 0 25 25" fill="none" xmlns="http://www.w3.org/2000/svg">
<circle cx="4.0177" cy="7.0177" r="3" stroke="#0294E7" stroke-width="0.05"/>
<circle cx="4.0177" cy="17.0177" r="3" stroke="#0294E7" stroke-width="0.05"/>
<circle cx="20.0177" cy="17.0177" r="3" stroke="#0294E7" stroke-width="0.05"/>
<path d="M1.0177 21.0177V3.0177" stroke="#0294E7" stroke-width="0.05"/>
<path d="M23.0177 21.0177V3.0177" stroke="#0294E7" stroke-width="0.05"/>
<path d="M3.0177 24.0177L3.0177 0.0177002" stroke="#0294E7" stroke-width="0.05"/>
<path d="M4.0177 24.0177L4.0177 0.0177002" stroke="#0294E7" stroke-width="0.05"/>
<path d="M20.0177 24.0177L20.0177 0.0177002" stroke="#0294E7" stroke-width="0.05"/>
<path d="M21.0177 24.0177L21.0177 0.0177002" stroke="#0294E7" stroke-width="0.05"/>
<path d="M24.0177 21.0177H0.0177002" stroke="#0294E7" stroke-width="0.05"/>
<path d="M24.0177 20.0177H0.0177002" stroke="#0294E7" stroke-width="0.05"/>
<path d="M24.0177 4.0177H0.0177002" stroke="#0294E7" stroke-width="0.05"/>
<path d="M24.0177 5.0177H0.0177002" stroke="#0294E7" stroke-width="0.05"/>
<path d="M12.0177 24.0177L12.0177 0.0177002" stroke="#0294E7" stroke-width="0.05"/>
<path d="M24.0177 12.0177H0.0177002" stroke="#0294E7" stroke-width="0.05"/>
<path d="M24.0177 19.0177H0.0177002" stroke="#0294E7" stroke-width="0.05"/>
<path d="M24.0177 3.0177H0.0177002" stroke="#0294E7" stroke-width="0.05"/>
<path d="M24.0177 24.0177L0.0177002 0.0177002" stroke="#0294E7" stroke-width="0.05"/>
<path d="M24.0177 0.0177002L0.0177002 24.0177" stroke="#0294E7" stroke-width="0.05"/>
<path d="M19.0177 24.0177L19.0177 0.0177002" stroke="#0294E7" stroke-width="0.05"/>
<path d="M5.0177 24.0177L5.0177 0.0177002" stroke="#0294E7" stroke-width="0.05"/>
<g style="mix-blend-mode:multiply">
<path d="M17.0177 2.0177C20.3314 2.01774 23.0177 4.70402 23.0177 8.0177V17.0177C23.0177 18.6745 21.6745 20.0177 20.0177 20.0177H4.0177C2.36085 20.0177 1.0177 18.6745 1.0177 17.0177V7.0177C1.01771 5.36088 2.36088 4.01774 4.0177 4.0177H6.2179C6.77012 4.01777 7.2179 4.46546 7.2179 5.0177C7.2179 5.56994 6.77012 6.01763 6.2179 6.0177H4.0177C3.46545 6.01774 3.0177 6.46544 3.0177 7.0177V17.0177C3.0177 17.57 3.46542 18.0177 4.0177 18.0177H20.0177C20.57 18.0177 21.0177 17.57 21.0177 17.0177V8.0177C21.0177 5.80859 19.2268 4.01774 17.0177 4.0177C14.8086 4.0177 13.0177 5.80856 13.0177 8.0177V11.6036L15.3107 9.31067C15.7012 8.92016 16.3342 8.92015 16.7247 9.31067C17.1152 9.70119 17.1152 10.3342 16.7247 10.7247L12.7247 14.7247C12.5372 14.9122 12.2829 15.0177 12.0177 15.0177C11.7525 15.0177 11.4982 14.9122 11.3107 14.7247L7.31067 10.7247C6.92015 10.3342 6.92015 9.70119 7.31067 9.31067C7.7012 8.92016 8.33421 8.92015 8.72473 9.31067L11.0177 11.6036V8.0177C11.0177 4.70399 13.704 2.0177 17.0177 2.0177Z" fill="#3F524C"/>
</g>
</svg>
