<svg width="25" height="25" viewBox="0 0 25 25" fill="none" xmlns="http://www.w3.org/2000/svg">
<path d="M13.0177 24.0177L13.0177 0.0177002" stroke="#0294E7" stroke-width="0.05"/>
<path d="M11.0177 24.0177L11.0177 0.0177002" stroke="#0294E7" stroke-width="0.05"/>
<path d="M24.0177 13.0177H0.0177002" stroke="#0294E7" stroke-width="0.05"/>
<path d="M24.0177 11.0177H0.0177002" stroke="#0294E7" stroke-width="0.05"/>
<circle cx="4.0177" cy="7.0177" r="3" stroke="#0294E7" stroke-width="0.05"/>
<circle cx="20.0177" cy="7.0177" r="3" stroke="#0294E7" stroke-width="0.05"/>
<circle cx="4.0177" cy="17.0177" r="3" stroke="#0294E7" stroke-width="0.05"/>
<path d="M1.0177 21.0177V3.0177" stroke="#0294E7" stroke-width="0.05"/>
<path d="M23.0177 21.0177V3.0177" stroke="#0294E7" stroke-width="0.05"/>
<path d="M3.0177 24.0177L3.0177 0.0177002" stroke="#0294E7" stroke-width="0.05"/>
<path d="M4.0177 24.0177L4.0177 0.0177002" stroke="#0294E7" stroke-width="0.05"/>
<path d="M20.0177 24.0177L20.0177 0.0177002" stroke="#0294E7" stroke-width="0.05"/>
<path d="M21.0177 24.0177L21.0177 0.0177002" stroke="#0294E7" stroke-width="0.05"/>
<path d="M24.0177 21.0177H0.0177002" stroke="#0294E7" stroke-width="0.05"/>
<path d="M24.0177 20.0177H0.0177002" stroke="#0294E7" stroke-width="0.05"/>
<path d="M24.0177 4.0177H0.0177002" stroke="#0294E7" stroke-width="0.05"/>
<path d="M24.0177 5.0177H0.0177002" stroke="#0294E7" stroke-width="0.05"/>
<path d="M12.0177 24.0177L12.0177 0.0177002" stroke="#0294E7" stroke-width="0.05"/>
<path d="M24.0177 12.0177H0.0177002" stroke="#0294E7" stroke-width="0.05"/>
<path d="M24.0177 19.0177H0.0177002" stroke="#0294E7" stroke-width="0.05"/>
<path d="M24.0177 3.0177H0.0177002" stroke="#0294E7" stroke-width="0.05"/>
<path d="M24.0177 24.0177L0.0177002 0.0177002" stroke="#0294E7" stroke-width="0.05"/>
<path d="M24.0177 0.0177002L0.0177002 24.0177" stroke="#0294E7" stroke-width="0.05"/>
<path d="M19.0177 24.0177L19.0177 0.0177002" stroke="#0294E7" stroke-width="0.05"/>
<path d="M5.0177 24.0177L5.0177 0.0177002" stroke="#0294E7" stroke-width="0.05"/>
<g style="mix-blend-mode:multiply">
<path d="M20.0177 4.0177C21.6746 4.0177 23.0177 5.36085 23.0177 7.0177V9.0177C23.0177 9.56998 22.57 10.0177 22.0177 10.0177C21.4654 10.0177 21.0177 9.56998 21.0177 9.0177V7.0177C21.0177 6.46542 20.57 6.0177 20.0177 6.0177H4.0177C3.46542 6.0177 3.0177 6.46542 3.0177 7.0177V17.0177C3.0177 17.57 3.46542 18.0177 4.0177 18.0177H12.0177C12.57 18.0177 13.0177 18.4654 13.0177 19.0177C13.0177 19.57 12.57 20.0177 12.0177 20.0177H4.0177C2.36085 20.0177 1.0177 18.6746 1.0177 17.0177V7.0177C1.0177 5.36085 2.36085 4.0177 4.0177 4.0177H20.0177ZM21.3107 12.3107C21.7012 11.9201 22.3342 11.9201 22.7247 12.3107C23.1153 12.7012 23.1153 13.3342 22.7247 13.7247L20.4318 16.0177L22.7247 18.3107C23.1153 18.7012 23.1153 19.3342 22.7247 19.7247C22.3342 20.1153 21.7012 20.1153 21.3107 19.7247L19.0177 17.4318L16.7247 19.7247C16.3342 20.1153 15.7012 20.1153 15.3107 19.7247C14.9201 19.3342 14.9201 18.7012 15.3107 18.3107L17.6036 16.0177L15.3107 13.7247C14.9201 13.3342 14.9201 12.7012 15.3107 12.3107C15.7012 11.9201 16.3342 11.9201 16.7247 12.3107L19.0177 14.6036L21.3107 12.3107ZM10.0177 9.0177C10.57 9.0177 11.0177 9.46542 11.0177 10.0177C11.0177 10.57 10.57 11.0177 10.0177 11.0177H7.5177C6.96542 11.0177 6.5177 10.57 6.5177 10.0177C6.5177 9.46542 6.96542 9.0177 7.5177 9.0177H10.0177Z" fill="#3F524C"/>
</g>
</svg>
