<svg width="25" height="25" viewBox="0 0 25 25" fill="none" xmlns="http://www.w3.org/2000/svg">
<circle cx="6.0177" cy="20.0177" r="2" stroke="#0294E7" stroke-width="0.05"/>
<circle cx="6.0177" cy="4.0177" r="2" stroke="#0294E7" stroke-width="0.05"/>
<circle cx="18.0177" cy="20.0177" r="2" stroke="#0294E7" stroke-width="0.05"/>
<circle cx="18.0177" cy="4.0177" r="2" stroke="#0294E7" stroke-width="0.05"/>
<path d="M24.0177 22.0177H0.0177002" stroke="#0294E7" stroke-width="0.05"/>
<path d="M24.0177 18.0177H0.0177002" stroke="#0294E7" stroke-width="0.05"/>
<path d="M24.0177 2.0177H0.0177002" stroke="#0294E7" stroke-width="0.05"/>
<path d="M24.0177 6.0177H0.0177002" stroke="#0294E7" stroke-width="0.05"/>
<path d="M4.0177 24.0177L4.0177 0.0177002" stroke="#0294E7" stroke-width="0.05"/>
<path d="M20.0177 24.0177L20.0177 0.0177002" stroke="#0294E7" stroke-width="0.05"/>
<path d="M24.0177 21.0177H0.0177002" stroke="#0294E7" stroke-width="0.05"/>
<path d="M24.0177 20.0177H0.0177002" stroke="#0294E7" stroke-width="0.05"/>
<path d="M24.0177 4.0177H0.0177002" stroke="#0294E7" stroke-width="0.05"/>
<path d="M24.0177 5.0177H0.0177002" stroke="#0294E7" stroke-width="0.05"/>
<path d="M12.0177 24.0177L12.0177 0.0177002" stroke="#0294E7" stroke-width="0.05"/>
<path d="M24.0177 12.0177H0.0177002" stroke="#0294E7" stroke-width="0.05"/>
<path d="M24.0177 19.0177H0.0177002" stroke="#0294E7" stroke-width="0.05"/>
<path d="M24.0177 3.0177H0.0177002" stroke="#0294E7" stroke-width="0.05"/>
<path d="M24.0177 24.0177L0.0177002 0.0177002" stroke="#0294E7" stroke-width="0.05"/>
<path d="M24.0177 0.0177002L0.0177002 24.0177" stroke="#0294E7" stroke-width="0.05"/>
<path d="M19.0177 24.0177L19.0177 0.0177002" stroke="#0294E7" stroke-width="0.05"/>
<path d="M5.0177 24.0177L5.0177 0.0177002" stroke="#0294E7" stroke-width="0.05"/>
<path d="M6.0177 24.0177L6.0177 0.0177002" stroke="#0294E7" stroke-width="0.05"/>
<path d="M7.0177 24.0177L7.0177 0.0177002" stroke="#0294E7" stroke-width="0.05"/>
<path d="M8.0177 24.0177L8.0177 0.0177002" stroke="#0294E7" stroke-width="0.05"/>
<path d="M16.0177 24.0177L16.0177 0.0177002" stroke="#0294E7" stroke-width="0.05"/>
<path d="M17.0177 24.0177L17.0177 0.0177002" stroke="#0294E7" stroke-width="0.05"/>
<path d="M18.0177 24.0177L18.0177 0.0177002" stroke="#0294E7" stroke-width="0.05"/>
<g style="mix-blend-mode:multiply">
<path d="M18.0177 2.0177C19.1223 2.0177 20.0177 2.91313 20.0177 4.0177V7.0177C20.0177 7.56998 19.57 8.0177 19.0177 8.0177C18.4654 8.0177 18.0177 7.56998 18.0177 7.0177V4.0177H6.0177V20.0177H10.0177C10.57 20.0177 11.0177 20.4654 11.0177 21.0177C11.0177 21.57 10.57 22.0177 10.0177 22.0177H6.0177C4.91313 22.0177 4.0177 21.1223 4.0177 20.0177V4.0177C4.0177 2.91313 4.91313 2.0177 6.0177 2.0177H18.0177ZM19.6593 10.0841C19.9936 9.95583 20.3708 10.0164 20.6486 10.2423C20.9263 10.4683 21.0627 10.8255 21.005 11.1788C20.8375 12.2044 20.6898 13.3199 20.4689 14.3029C20.2463 15.2935 19.9214 16.2927 19.3243 17.1085C18.3873 18.3886 17.144 19.0418 16.17 19.3741C15.82 19.4936 15.4985 19.5731 15.2286 19.6271L15.0079 21.1603C14.9291 21.7068 14.4216 22.0866 13.8751 22.0079C13.3286 21.9291 12.9488 21.4216 13.0275 20.8751L13.3566 18.5978L13.3693 18.5284V18.5265C13.3694 18.5257 13.37 18.5247 13.3702 18.5236C13.3707 18.5213 13.3714 18.5183 13.3722 18.5148C13.3738 18.5078 13.3753 18.4982 13.3781 18.4865C13.3835 18.4626 13.3921 18.429 13.4025 18.3868C13.4231 18.3026 13.4538 18.1829 13.4952 18.0343C13.578 17.7375 13.704 17.3219 13.882 16.837C14.2353 15.8743 14.8043 14.6026 15.6583 13.4357C16.5716 12.1878 17.5458 11.3598 18.3029 10.84C18.6813 10.5801 19.0065 10.3965 19.2433 10.2755C19.3617 10.215 19.4587 10.1701 19.5294 10.1388C19.5647 10.1232 19.5935 10.1107 19.6154 10.1017C19.6262 10.0972 19.6354 10.0939 19.6427 10.0909C19.6464 10.0895 19.6497 10.0881 19.6525 10.087C19.6539 10.0865 19.6552 10.0855 19.6564 10.0851H19.6583V10.0841C19.6587 10.084 19.6594 10.0841 20.0177 11.0177L19.6593 10.0841ZM18.673 13.0822C18.2285 13.4706 17.7418 13.9738 17.2716 14.6163C16.6087 15.5221 16.1356 16.536 15.8185 17.3702C16.4667 17.1051 17.1719 16.6635 17.7111 15.9269C18.0653 15.4428 18.3158 14.7629 18.5177 13.8644C18.5748 13.6102 18.625 13.3498 18.673 13.0822ZM12.0177 13.0177C12.57 13.0177 13.0177 13.4654 13.0177 14.0177C13.0177 14.57 12.57 15.0177 12.0177 15.0177H9.0177C8.46542 15.0177 8.0177 14.57 8.0177 14.0177C8.0177 13.4654 8.46542 13.0177 9.0177 13.0177H12.0177ZM15.0177 8.0177C15.57 8.0177 16.0177 8.46542 16.0177 9.0177C16.0177 9.56998 15.57 10.0177 15.0177 10.0177H9.0177C8.46542 10.0177 8.0177 9.56998 8.0177 9.0177C8.0177 8.46542 8.46542 8.0177 9.0177 8.0177H15.0177Z" fill="#3F524C"/>
</g>
</svg>
