<svg width="25" height="25" viewBox="0 0 25 25" fill="none" xmlns="http://www.w3.org/2000/svg">
<circle cx="6.0177" cy="20.0177" r="2" stroke="#0294E7" stroke-width="0.05"/>
<circle cx="6.0177" cy="4.0177" r="2" stroke="#0294E7" stroke-width="0.05"/>
<circle cx="18.0177" cy="4.0177" r="2" stroke="#0294E7" stroke-width="0.05"/>
<path d="M24.0177 22.0177H0.0177002" stroke="#0294E7" stroke-width="0.05"/>
<path d="M24.0177 18.0177H0.0177002" stroke="#0294E7" stroke-width="0.05"/>
<path d="M24.0177 2.0177H0.0177002" stroke="#0294E7" stroke-width="0.05"/>
<path d="M24.0177 6.0177H0.0177002" stroke="#0294E7" stroke-width="0.05"/>
<path d="M4.0177 24.0177L4.0177 0.0177002" stroke="#0294E7" stroke-width="0.05"/>
<path d="M20.0177 24.0177L20.0177 0.0177002" stroke="#0294E7" stroke-width="0.05"/>
<path d="M24.0177 21.0177H0.0177002" stroke="#0294E7" stroke-width="0.05"/>
<path d="M24.0177 20.0177H0.0177002" stroke="#0294E7" stroke-width="0.05"/>
<path d="M24.0177 4.0177H0.0177002" stroke="#0294E7" stroke-width="0.05"/>
<path d="M24.0177 5.0177H0.0177002" stroke="#0294E7" stroke-width="0.05"/>
<path d="M12.0177 24.0177L12.0177 0.0177002" stroke="#0294E7" stroke-width="0.05"/>
<path d="M24.0177 12.0177H0.0177002" stroke="#0294E7" stroke-width="0.05"/>
<path d="M24.0177 19.0177H0.0177002" stroke="#0294E7" stroke-width="0.05"/>
<path d="M24.0177 3.0177H0.0177002" stroke="#0294E7" stroke-width="0.05"/>
<path d="M24.0177 24.0177L0.0177002 0.0177002" stroke="#0294E7" stroke-width="0.05"/>
<path d="M24.0177 0.0177002L0.0177002 24.0177" stroke="#0294E7" stroke-width="0.05"/>
<path d="M19.0177 24.0177L19.0177 0.0177002" stroke="#0294E7" stroke-width="0.05"/>
<path d="M5.0177 24.0177L5.0177 0.0177002" stroke="#0294E7" stroke-width="0.05"/>
<path d="M6.0177 24.0177L6.0177 0.0177002" stroke="#0294E7" stroke-width="0.05"/>
<path d="M7.0177 24.0177L7.0177 0.0177002" stroke="#0294E7" stroke-width="0.05"/>
<path d="M8.0177 24.0177L8.0177 0.0177002" stroke="#0294E7" stroke-width="0.05"/>
<path d="M16.0177 24.0177L16.0177 0.0177002" stroke="#0294E7" stroke-width="0.05"/>
<path d="M17.0177 24.0177L17.0177 0.0177002" stroke="#0294E7" stroke-width="0.05"/>
<path d="M18.0177 24.0177L18.0177 0.0177002" stroke="#0294E7" stroke-width="0.05"/>
<g style="mix-blend-mode:multiply">
<path fill-rule="evenodd" clip-rule="evenodd" d="M19.0177 12.0177C21.2269 12.0177 23.0177 13.8086 23.0177 16.0177C23.0177 17.2805 22.4317 18.4057 21.5177 19.1388V22.4171C21.5177 22.9944 20.924 23.3209 20.5128 22.9699L19.3976 22.0177C19.1733 21.8263 18.8621 21.8263 18.6378 22.0177L17.5226 22.9699C17.1115 23.3209 16.5177 22.9944 16.5177 22.4171V19.1388C15.6037 18.4057 15.0177 17.2805 15.0177 16.0177C15.0177 13.8086 16.8086 12.0177 19.0177 12.0177ZM17.4181 2.01771C17.6815 2.01771 17.9396 2.0166 18.1564 2.03432C18.3849 2.05301 18.6547 2.09727 18.9259 2.23549C19.2552 2.40326 19.5306 2.65856 19.7228 2.97182L19.7999 3.10951L19.8869 3.31264C19.9583 3.51348 19.9871 3.70777 20.0011 3.87904C20.0188 4.09585 20.0177 4.35393 20.0177 4.61732V9.01771C20.0177 9.57 19.57 10.0177 19.0177 10.0177C18.4654 10.0177 18.0177 9.57 18.0177 9.01771V4.61732C18.0177 4.32105 18.0165 4.15866 18.007 4.04213C18.0066 4.03764 18.0054 4.03346 18.005 4.02943C18.0013 4.02909 17.9974 4.02879 17.9933 4.02846C17.8768 4.01894 17.7144 4.01771 17.4181 4.01771H6.61732C6.32105 4.01771 6.15866 4.01894 6.04213 4.02846C6.03767 4.02882 6.03344 4.02906 6.02943 4.02943C6.02906 4.03344 6.02882 4.03767 6.02846 4.04213C6.01894 4.15866 6.01771 4.32105 6.01771 4.61732V19.4181C6.01771 19.7144 6.01894 19.8768 6.02846 19.9933C6.02879 19.9974 6.02909 20.0013 6.02943 20.005C6.03346 20.0054 6.03764 20.0066 6.04213 20.007C6.15866 20.0165 6.32105 20.0177 6.61732 20.0177H13.5177C14.07 20.0177 14.5177 20.4654 14.5177 21.0177C14.5177 21.57 14.07 22.0177 13.5177 22.0177H6.61732C6.35393 22.0177 6.09585 22.0188 5.87904 22.0011C5.65054 21.9824 5.38077 21.9382 5.10951 21.7999C4.73326 21.6082 4.42722 21.3022 4.23549 20.9259C4.09727 20.6547 4.05301 20.3849 4.03432 20.1564C4.0166 19.9396 4.01771 19.6815 4.01771 19.4181V4.61732C4.01771 4.35393 4.0166 4.09585 4.03432 3.87904C4.05301 3.65054 4.09727 3.38077 4.23549 3.10951C4.42722 2.73326 4.73326 2.42722 5.10951 2.23549C5.38077 2.09727 5.65054 2.05301 5.87904 2.03432C6.09585 2.0166 6.35393 2.01771 6.61732 2.01771H17.4181ZM19.0177 14.0177C17.9131 14.0177 17.0177 14.9131 17.0177 16.0177C17.0177 17.1223 17.9131 18.0177 19.0177 18.0177C20.1223 18.0177 21.0177 17.1223 21.0177 16.0177C21.0177 14.9131 20.1223 14.0177 19.0177 14.0177ZM12.0177 13.0177C12.57 13.0177 13.0177 13.4654 13.0177 14.0177C13.0177 14.57 12.57 15.0177 12.0177 15.0177H9.01771C8.46543 15.0177 8.01771 14.57 8.01771 14.0177C8.01771 13.4654 8.46543 13.0177 9.01771 13.0177H12.0177ZM15.0177 8.01771C15.57 8.01771 16.0177 8.46543 16.0177 9.01771C16.0177 9.57 15.57 10.0177 15.0177 10.0177H9.01771C8.46543 10.0177 8.01771 9.57 8.01771 9.01771C8.01771 8.46543 8.46543 8.01771 9.01771 8.01771H15.0177Z" fill="#3F524C"/>
</g>
</svg>
