<svg width="25" height="25" viewBox="0 0 25 25" fill="none" xmlns="http://www.w3.org/2000/svg">
<circle cx="6.0177" cy="20.0177" r="2" stroke="#0294E7" stroke-width="0.05"/>
<circle cx="6.0177" cy="4.0177" r="2" stroke="#0294E7" stroke-width="0.05"/>
<circle cx="18.0177" cy="20.0177" r="2" stroke="#0294E7" stroke-width="0.05"/>
<circle cx="18.0177" cy="4.0177" r="2" stroke="#0294E7" stroke-width="0.05"/>
<path d="M24.0177 22.0177H0.0177002" stroke="#0294E7" stroke-width="0.05"/>
<path d="M24.0177 18.0177H0.0177002" stroke="#0294E7" stroke-width="0.05"/>
<path d="M24.0177 2.0177H0.0177002" stroke="#0294E7" stroke-width="0.05"/>
<path d="M24.0177 6.0177H0.0177002" stroke="#0294E7" stroke-width="0.05"/>
<path d="M4.0177 24.0177L4.0177 0.0177002" stroke="#0294E7" stroke-width="0.05"/>
<path d="M20.0177 24.0177L20.0177 0.0177002" stroke="#0294E7" stroke-width="0.05"/>
<path d="M24.0177 21.0177H0.0177002" stroke="#0294E7" stroke-width="0.05"/>
<path d="M24.0177 20.0177H0.0177002" stroke="#0294E7" stroke-width="0.05"/>
<path d="M24.0177 4.0177H0.0177002" stroke="#0294E7" stroke-width="0.05"/>
<path d="M24.0177 5.0177H0.0177002" stroke="#0294E7" stroke-width="0.05"/>
<path d="M12.0177 24.0177L12.0177 0.0177002" stroke="#0294E7" stroke-width="0.05"/>
<path d="M24.0177 12.0177H0.0177002" stroke="#0294E7" stroke-width="0.05"/>
<path d="M24.0177 19.0177H0.0177002" stroke="#0294E7" stroke-width="0.05"/>
<path d="M24.0177 3.0177H0.0177002" stroke="#0294E7" stroke-width="0.05"/>
<path d="M24.0177 24.0177L0.0177002 0.0177002" stroke="#0294E7" stroke-width="0.05"/>
<path d="M24.0177 0.0177002L0.0177002 24.0177" stroke="#0294E7" stroke-width="0.05"/>
<path d="M19.0177 24.0177L19.0177 0.0177002" stroke="#0294E7" stroke-width="0.05"/>
<path d="M5.0177 24.0177L5.0177 0.0177002" stroke="#0294E7" stroke-width="0.05"/>
<path d="M6.0177 24.0177L6.0177 0.0177002" stroke="#0294E7" stroke-width="0.05"/>
<path d="M7.0177 24.0177L7.0177 0.0177002" stroke="#0294E7" stroke-width="0.05"/>
<path d="M8.0177 24.0177L8.0177 0.0177002" stroke="#0294E7" stroke-width="0.05"/>
<path d="M16.0177 24.0177L16.0177 0.0177002" stroke="#0294E7" stroke-width="0.05"/>
<path d="M17.0177 24.0177L17.0177 0.0177002" stroke="#0294E7" stroke-width="0.05"/>
<path d="M18.0177 24.0177L18.0177 0.0177002" stroke="#0294E7" stroke-width="0.05"/>
<g style="mix-blend-mode:multiply">
<path fill-rule="evenodd" clip-rule="evenodd" d="M14.1925 2.01812C14.4349 2.01811 14.7571 2.00855 15.0656 2.09917C15.31 2.171 15.5382 2.28929 15.7384 2.44683C15.9908 2.64559 16.1703 2.91345 16.3107 3.11089L19.5363 7.64702C19.6251 7.77192 19.7462 7.93554 19.8331 8.12358C19.885 8.23598 19.9269 8.35333 19.9572 8.47319L19.9835 8.59331L20.005 8.74566C20.02 8.89576 20.0177 9.03897 20.0177 9.15386V19.4185C20.0177 19.6818 20.0188 19.9401 20.0011 20.1568C19.9824 20.3852 19.9381 20.6552 19.7999 20.9263C19.6082 21.3024 19.3021 21.6087 18.9259 21.8003C18.6547 21.9385 18.3848 21.9828 18.1564 22.0015C17.9396 22.0192 17.6815 22.0181 17.4181 22.0181H6.61732C6.35395 22.0181 6.09585 22.0192 5.87904 22.0015C5.65058 21.9828 5.38072 21.9385 5.10951 21.8003C4.73336 21.6087 4.42723 21.3024 4.23549 20.9263C4.09735 20.6552 4.05303 20.3852 4.03432 20.1568C4.01661 19.9401 4.01771 19.6818 4.01771 19.4185V4.61773C4.01771 4.3545 4.01664 4.09617 4.03432 3.87944C4.053 3.65103 4.0974 3.38107 4.23549 3.10991C4.42719 2.73372 4.73334 2.42763 5.10951 2.23589C5.38075 2.09769 5.65055 2.05342 5.87904 2.03472C6.09585 2.017 6.35394 2.01812 6.61732 2.01812H14.1925ZM6.61732 4.01812C6.32106 4.01812 6.15866 4.01934 6.04213 4.02886C6.03769 4.02922 6.03342 4.02947 6.02943 4.02983C6.02908 4.03372 6.02881 4.03822 6.02846 4.04253C6.01896 4.15904 6.01771 4.32178 6.01771 4.61773V19.4185C6.01772 19.7145 6.01894 19.8772 6.02846 19.9937C6.02878 19.9977 6.0291 20.0018 6.02943 20.0054C6.03346 20.0058 6.03764 20.007 6.04213 20.0074C6.15866 20.0169 6.32107 20.0181 6.61732 20.0181H17.4181C17.7143 20.0181 17.8768 20.0169 17.9933 20.0074C17.9974 20.007 18.0013 20.0058 18.005 20.0054C18.0054 20.0018 18.0066 19.9977 18.007 19.9937C18.0165 19.8772 18.0177 19.7145 18.0177 19.4185V9.15386C18.0177 9.05258 18.0171 9.00185 18.0158 8.96538C18.0157 8.96413 18.015 8.96259 18.0148 8.96148V8.9605C17.9947 8.93001 17.9651 8.88883 17.9064 8.8062L14.6808 4.27007C14.5877 4.13908 14.54 4.07233 14.5031 4.02593C14.502 4.02461 14.5002 4.02322 14.4992 4.02202C14.4979 4.02195 14.4966 4.0221 14.4953 4.02202C14.436 4.01878 14.3539 4.01812 14.1925 4.01812H6.61732ZM15.0177 13.0181C15.57 13.0181 16.0177 13.4658 16.0177 14.0181C16.0175 14.5702 15.5699 15.0181 15.0177 15.0181H9.01771C8.46557 15.0181 8.01793 14.5702 8.01771 14.0181C8.01771 13.4658 8.46544 13.0181 9.01771 13.0181H15.0177ZM12.0177 8.01812C12.57 8.01812 13.0177 8.46583 13.0177 9.01812C13.0175 9.57022 12.5699 10.0181 12.0177 10.0181H9.01771C8.46557 10.0181 8.01793 9.57021 8.01771 9.01812C8.01771 8.46584 8.46544 8.01813 9.01771 8.01812H12.0177Z" fill="#3F524C"/>
</g>
</svg>
