<svg width="25" height="25" viewBox="0 0 25 25" fill="none" xmlns="http://www.w3.org/2000/svg">
<circle cx="4.0177" cy="7.0177" r="3" stroke="#0294E7" stroke-width="0.05"/>
<circle cx="20.0177" cy="7.0177" r="3" stroke="#0294E7" stroke-width="0.05"/>
<circle cx="4.0177" cy="17.0177" r="3" stroke="#0294E7" stroke-width="0.05"/>
<path d="M1.0177 21.0177V3.0177" stroke="#0294E7" stroke-width="0.05"/>
<path d="M23.0177 21.0177V3.0177" stroke="#0294E7" stroke-width="0.05"/>
<path d="M3.0177 24.0177L3.0177 0.0177002" stroke="#0294E7" stroke-width="0.05"/>
<path d="M4.0177 24.0177L4.0177 0.0177002" stroke="#0294E7" stroke-width="0.05"/>
<path d="M20.0177 24.0177L20.0177 0.0177002" stroke="#0294E7" stroke-width="0.05"/>
<path d="M21.0177 24.0177L21.0177 0.0177002" stroke="#0294E7" stroke-width="0.05"/>
<path d="M24.0177 21.0177H0.0177002" stroke="#0294E7" stroke-width="0.05"/>
<path d="M24.0177 20.0177H0.0177002" stroke="#0294E7" stroke-width="0.05"/>
<path d="M24.0177 4.0177H0.0177002" stroke="#0294E7" stroke-width="0.05"/>
<path d="M24.0177 5.0177H0.0177002" stroke="#0294E7" stroke-width="0.05"/>
<path d="M12.0177 24.0177L12.0177 0.0177002" stroke="#0294E7" stroke-width="0.05"/>
<path d="M24.0177 12.0177H0.0177002" stroke="#0294E7" stroke-width="0.05"/>
<path d="M24.0177 19.0177H0.0177002" stroke="#0294E7" stroke-width="0.05"/>
<path d="M24.0177 3.0177H0.0177002" stroke="#0294E7" stroke-width="0.05"/>
<path d="M24.0177 24.0177L0.0177002 0.0177002" stroke="#0294E7" stroke-width="0.05"/>
<path d="M24.0177 0.0177002L0.0177002 24.0177" stroke="#0294E7" stroke-width="0.05"/>
<path d="M19.0177 24.0177L19.0177 0.0177002" stroke="#0294E7" stroke-width="0.05"/>
<path d="M5.0177 24.0177L5.0177 0.0177002" stroke="#0294E7" stroke-width="0.05"/>
<g style="mix-blend-mode:multiply">
<path d="M20.0177 4.0177C21.6746 4.0177 23.0177 5.36085 23.0177 7.0177V10.0177C23.0177 10.57 22.57 11.0177 22.0177 11.0177C21.4654 11.0177 21.0177 10.57 21.0177 10.0177V7.0177C21.0177 6.46542 20.57 6.0177 20.0177 6.0177H4.0177C3.46542 6.0177 3.0177 6.46542 3.0177 7.0177V17.0177C3.0177 17.57 3.46542 18.0177 4.0177 18.0177H12.0177C12.57 18.0177 13.0177 18.4654 13.0177 19.0177C13.0177 19.57 12.57 20.0177 12.0177 20.0177H4.0177C2.36085 20.0177 1.0177 18.6746 1.0177 17.0177V7.0177C1.0177 5.36085 2.36085 4.0177 4.0177 4.0177H20.0177ZM21.2716 13.3517C21.6395 12.9399 22.2718 12.9039 22.6837 13.2716C23.0955 13.6394 23.1314 14.2718 22.7638 14.6837L18.297 19.6837C18.1146 19.8879 17.8558 20.0081 17.5822 20.0167C17.3086 20.0253 17.0436 19.9218 16.8488 19.7296L14.3156 17.2296C13.9225 16.8417 13.918 16.2087 14.3058 15.8156C14.6937 15.4225 15.3267 15.418 15.7198 15.8058L17.505 17.5675L21.2716 13.3517ZM10.0177 9.0177C10.57 9.0177 11.0177 9.46542 11.0177 10.0177C11.0177 10.57 10.57 11.0177 10.0177 11.0177H7.5177C6.96542 11.0177 6.5177 10.57 6.5177 10.0177C6.5177 9.46542 6.96542 9.0177 7.5177 9.0177H10.0177Z" fill="#3F524C"/>
</g>
</svg>
