<svg width="24" height="24" viewBox="0 0 24 24" fill="none" xmlns="http://www.w3.org/2000/svg">
<path d="M12.25 4.5C14.8965 4.5 17.0844 6.45837 17.4463 9.00488C20.2548 9.10814 22.5 11.4162 22.5 14.25C22.5 17.1495 20.1495 19.5 17.25 19.5H11.75C9.10314 19.5 6.91416 17.5412 6.55273 14.9941C3.74468 14.8904 1.5 12.5834 1.5 9.75C1.5 6.85051 3.85051 4.5 6.75 4.5H12.25ZM17.3486 11.002C16.7871 13.2968 14.7179 15 12.25 15H8.58789C8.92655 16.4332 10.2133 17.5 11.75 17.5H17.25C19.0449 17.5 20.5 16.0449 20.5 14.25C20.5 12.4881 19.0979 11.0541 17.3486 11.002ZM11.75 11C10.3982 11 9.23986 11.8257 8.75 13H12.25C13.6018 13 14.7601 12.1743 15.25 11H11.75ZM6.75 6.5C4.95508 6.5 3.5 7.95508 3.5 9.75C3.5 11.5116 4.90157 12.9444 6.65039 12.9971C7.21222 10.7025 9.28231 9 11.75 9H15.4121C15.0735 7.56675 13.7867 6.5 12.25 6.5H6.75Z" fill="#4E6F64"/>
</svg>
