<svg width="24" height="24" viewBox="0 0 24 24" fill="none" xmlns="http://www.w3.org/2000/svg">
<path fill-rule="evenodd" clip-rule="evenodd" d="M5.63565 5.63559C9.15027 2.12097 14.8494 2.12116 18.3642 5.63559C21.8789 9.1503 21.8789 14.8494 18.3642 18.3641C14.8494 21.8788 9.15037 21.8788 5.63565 18.3641C2.12122 14.8494 2.12103 9.1502 5.63565 5.63559ZM16.9501 7.04965C14.2164 4.31627 9.78328 4.31608 7.04971 7.04965C4.31614 9.78322 4.31634 14.2163 7.04971 16.95C9.78338 19.6837 14.2164 19.6837 16.9501 16.95C19.6838 14.2164 19.6838 9.78332 16.9501 7.04965ZM11.9999 14.4998C12.5521 14.4998 12.9997 14.9477 12.9999 15.4998C12.9999 16.0521 12.5522 16.4998 11.9999 16.4998C11.4478 16.4997 10.9999 16.052 10.9999 15.4998C11.0001 14.9478 11.4479 14.5 11.9999 14.4998ZM11.9999 7.99984C12.5521 7.99984 12.9997 8.44769 12.9999 8.99984V11.9998C12.9999 12.5521 12.5522 12.9998 11.9999 12.9998C11.4478 12.9997 10.9999 12.552 10.9999 11.9998V8.99984C11.0001 8.44779 11.4479 8 11.9999 7.99984Z" fill="#4E6F64"/>
</svg>
