<svg width="24" height="24" viewBox="0 0 24 24" fill="none" xmlns="http://www.w3.org/2000/svg">
<path fill-rule="evenodd" clip-rule="evenodd" d="M10.7678 2.458C11.5512 2.10516 12.4492 2.10513 13.2326 2.458L19.2746 5.17968C20.3054 5.64407 21.024 6.67233 20.9895 7.86522C20.9616 8.82747 20.8698 10.2372 20.5988 11.7187C20.3301 13.1881 19.8721 14.7997 19.0715 16.1191C17.6068 18.5328 14.8361 20.4445 13.4465 21.3096C12.5573 21.8629 11.4432 21.8629 10.5539 21.3096C9.16436 20.4446 6.39367 18.5328 4.92893 16.1191C4.12835 14.7997 3.67039 13.188 3.40158 11.7187C3.13058 10.2372 3.03882 8.82747 3.01096 7.86522C2.97643 6.67224 3.69488 5.64403 4.7258 5.17968L10.7678 2.458ZM12.4113 4.28124C12.1502 4.16363 11.8502 4.16365 11.5891 4.28124L5.54709 7.00292C5.19457 7.1617 5.00159 7.48392 5.01096 7.80761C5.03707 8.70888 5.12165 10.0106 5.36838 11.3594C5.61745 12.7208 6.01935 14.06 6.63889 15.081C7.83777 17.0568 10.2413 18.759 11.6106 19.6113C11.8529 19.7621 12.1475 19.7622 12.3899 19.6113C13.7591 18.759 16.1627 17.0568 17.3615 15.081C17.9811 14.0599 18.383 12.7208 18.6321 11.3594C18.8788 10.0106 18.9634 8.70888 18.9895 7.80761C18.9988 7.48399 18.8057 7.16173 18.4533 7.00292L12.4113 4.28124ZM12.0002 6.38866C12.0002 6.20684 12.1882 6.08589 12.3537 6.16112L17.341 8.42772C17.4364 8.47109 17.4949 8.56762 17.4846 8.67187C17.4137 9.3778 17.0793 12.103 16.0002 14C15.093 15.5949 13.1842 16.8223 12.3752 17.292C12.2094 17.3881 12.0002 17.262 12.0002 17.0703V6.38866Z" fill="#4E6F64"/>
</svg>
