<svg width="24" height="24" viewBox="0 0 24 24" fill="none" xmlns="http://www.w3.org/2000/svg">
<path fill-rule="evenodd" clip-rule="evenodd" d="M14.7236 13.2969C14.8205 12.7533 15.3402 12.3907 15.8837 12.4873C16.4273 12.5842 16.789 13.1039 16.6923 13.6474C16.219 16.3052 14.9051 18.5428 13.1259 20.6455C12.7692 21.0671 12.1384 21.1204 11.7168 20.7637C11.2955 20.4069 11.2431 19.776 11.5996 19.3545C13.2416 17.4139 14.3327 15.4913 14.7236 13.2969ZM10.8593 3.12889C11.8618 2.9611 12.5085 2.95462 13.5214 3.12987L13.5224 3.12889C15.8741 3.53023 17.9736 4.8281 19.3535 6.74511C20.7338 8.66308 21.2791 11.0423 20.8642 13.3574V13.3584C20.5399 15.1625 20.0127 16.9262 19.2929 18.6172C19.0767 19.1253 18.4895 19.3616 17.9814 19.1455C17.4734 18.9291 17.2359 18.342 17.4521 17.834C18.1134 16.2803 18.5977 14.6603 18.8955 13.0039C19.2138 11.2263 18.7962 9.39524 17.7294 7.91307C16.6619 6.43015 15.0292 5.41515 13.1865 5.10057L13.1835 5.0996C12.4033 4.96441 11.9838 4.96779 11.1904 5.10057C10.6459 5.1916 10.1304 4.82464 10.039 4.28026C9.94805 3.73588 10.3151 3.22036 10.8593 3.12889ZM10.9296 7.00292C11.8926 6.79456 12.8903 6.89648 13.7871 7.29784C14.6833 7.6991 15.4276 8.37692 15.9267 9.23241C16.2049 9.70937 16.0442 10.3213 15.5673 10.5996C15.0903 10.8778 14.4774 10.7173 14.1992 10.2402C13.9047 9.73556 13.4741 9.34882 12.9697 9.12303C12.4658 8.89756 11.9029 8.83886 11.3525 8.958C10.8011 9.07739 10.2818 9.37063 9.87007 9.81053C9.45859 10.2502 9.17669 10.8116 9.06734 11.4199L9.06832 11.4209C8.68667 13.5787 7.78632 15.6145 6.45113 17.333C6.11229 17.7691 5.48392 17.8476 5.04781 17.5088C4.61193 17.1699 4.53227 16.5415 4.87105 16.1055C6.0048 14.6463 6.77302 12.9137 7.09859 11.0732V11.0713C7.27456 10.0869 7.73033 9.17064 8.41011 8.44432C9.09033 7.71758 9.96751 7.21122 10.9296 7.00292ZM11.0439 11.9922C11.1403 11.4487 11.6586 11.0857 12.2021 11.1816C12.7459 11.2779 13.1089 11.7971 13.0127 12.3408C12.7488 13.8301 12.1545 14.8892 11.4921 16.0674C11.2214 16.5486 10.6112 16.7189 10.1298 16.4482C9.6489 16.1774 9.47844 15.5681 9.74898 15.0869C10.4186 13.8959 10.8464 13.107 11.0439 11.9922ZM6.81832 4.4619C7.28753 4.171 7.90412 4.3152 8.19527 4.78417C8.48626 5.25354 8.34137 5.8701 7.87203 6.16112C7.1219 6.62618 6.80161 7.07619 6.18062 7.98925C5.64691 8.77398 5.15816 10.0619 4.98433 11.0361C4.88732 11.5798 4.36786 11.9417 3.82417 11.8447C3.28074 11.7475 2.91862 11.2281 3.01558 10.6846C3.23082 9.47842 3.8104 7.91688 4.52632 6.86425C5.15496 5.93995 5.67706 5.16949 6.81832 4.4619Z" fill="#4E6F64"/>
</svg>
