<svg width="24" height="24" viewBox="0 0 24 24" fill="none" xmlns="http://www.w3.org/2000/svg">
<path d="M18 3C19.6569 3 21 4.34315 21 6V9.60449C20.9999 14.455 17.9985 18.7991 13.4619 20.5156L12.3535 20.9355C12.1257 21.0216 11.8743 21.0216 11.6465 20.9355L10.5381 20.5156C6.00148 18.7991 3.00008 14.455 3 9.60449V6C3 4.34315 4.34315 3 6 3H18ZM6 5C5.44772 5 5 5.44772 5 6V9.60449C5.00008 13.6235 7.4872 17.2232 11.2461 18.6455L12 18.9307L12.7539 18.6455C16.5128 17.2232 18.9999 13.6234 19 9.60449V6C19 5.44772 18.5523 5 18 5H6ZM12 8.5C13.1046 8.5 14 9.39543 14 10.5C14 11.3201 13.5062 12.0254 12.7998 12.334V13.7002C12.7997 14.1419 12.4418 14.5 12 14.5C11.5582 14.5 11.2003 14.1419 11.2002 13.7002V12.334C10.4938 12.0254 10 11.3201 10 10.5C10 9.39543 10.8954 8.5 12 8.5Z" fill="#4E6F64"/>
</svg>
