<svg width="24" height="24" viewBox="0 0 24 24" fill="none" xmlns="http://www.w3.org/2000/svg">
<path d="M19 15C19.5523 15 20 15.4477 20 16V18C20 19.6569 18.6569 21 17 21H7C5.34315 21 4 19.6569 4 18V16C4 15.4477 4.44772 15 5 15C5.55228 15 6 15.4477 6 16V18C6 18.5523 6.44772 19 7 19H17C17.5523 19 18 18.5523 18 18V16C18 15.4477 18.4477 15 19 15ZM12 3C12.5523 3 13 3.44772 13 4V12.5859L15.293 10.293C15.6834 9.90268 16.3166 9.90268 16.707 10.293C17.0975 10.6834 17.0974 11.3165 16.707 11.707L12.707 15.707C12.5195 15.8946 12.2652 16 12 16C11.7348 16 11.4805 15.8946 11.293 15.707L7.29297 11.707C6.90262 11.3165 6.9025 10.6834 7.29297 10.293C7.68345 9.90268 8.31655 9.90268 8.70703 10.293L11 12.5859V4C11 3.44772 11.4477 3 12 3Z" fill="#4E6F64"/>
</svg>
