<svg width="24" height="24" viewBox="0 0 24 24" fill="none" xmlns="http://www.w3.org/2000/svg">
<path d="M18 7C19.6568 7 21 8.34315 21 10V19C21 20.6569 19.6569 22 18 22H11C9.34315 22 8 20.6569 8 19V10C8.00001 8.34315 9.34315 7 11 7H18ZM11 9C10.4477 9 10 9.44773 10 10V19C10 19.5523 10.4477 20 11 20H18C18.5177 20 18.9438 19.6067 18.9951 19.1025L19 19V10C19 9.44772 18.5523 9 18 9H11ZM15 2C15.5523 2 16 2.44772 16 3C16 3.55228 15.5523 4 15 4H6C5.44771 4 5 4.44772 5 5V16C5 16.5523 4.55228 17 4 17C3.44772 17 3 16.5523 3 16V5C3 3.34315 4.34315 2 6 2H15Z" fill="#4E6F64"/>
</svg>
