<svg width="24" height="24" viewBox="0 0 24 24" fill="none" xmlns="http://www.w3.org/2000/svg">
<path d="M18 13C18.5523 13 19 13.4477 19 14V16H21C21.5523 16 22 16.4477 22 17C22 17.5523 21.5523 18 21 18H19V20C19 20.5523 18.5523 21 18 21C17.4477 21 17 20.5523 17 20V14C17 13.4477 17.4477 13 18 13ZM14 16C14.5523 16 15 16.4477 15 17C15 17.5523 14.5523 18 14 18H3C2.44772 18 2 17.5523 2 17C2 16.4477 2.44772 16 3 16H14ZM10 3C10.5523 3 11 3.44772 11 4V6H21C21.5523 6 22 6.44772 22 7C22 7.55228 21.5523 8 21 8H11V10C11 10.5523 10.5523 11 10 11C9.44772 11 9 10.5523 9 10V4C9 3.44772 9.44772 3 10 3ZM6 6C6.55228 6 7 6.44772 7 7C7 7.55228 6.55228 8 6 8H3C2.44772 8 2 7.55228 2 7C2 6.44772 2.44772 6 3 6H6Z" fill="#4E6F64"/>
</svg>
