<svg width="570" height="360" viewBox="0 0 570 360" fill="none" xmlns="http://www.w3.org/2000/svg">
<g clip-path="url(#clip0_9147_7426)">
<path d="M266 275V283H284V275" stroke="#00E013"/>
<path d="M480.928 112.384H482.26L484.96 121H483.796L483.1 118.732H480.064L479.368 121H478.24L480.928 112.384ZM481.576 113.764L480.364 117.724H482.788L481.576 113.764ZM486.311 121V114.724H487.391V115.576C487.739 115.06 488.375 114.604 489.263 114.604C490.595 114.604 491.351 115.528 491.351 116.86V121H490.271V117.148C490.271 116.272 489.899 115.612 488.963 115.612C488.183 115.612 487.391 116.212 487.391 117.256V121H486.311ZM498.583 120.436C498.583 122.272 497.383 123.292 495.667 123.292C494.299 123.292 493.291 122.656 492.943 121.504L493.951 121.12C494.167 121.924 494.803 122.392 495.667 122.392C496.783 122.392 497.503 121.828 497.503 120.52V119.812C497.167 120.424 496.495 120.856 495.619 120.856C493.939 120.856 492.967 119.44 492.967 117.724C492.967 116.02 493.939 114.604 495.619 114.604C496.495 114.604 497.167 115.036 497.503 115.648V114.724H498.583V120.436ZM497.515 117.628C497.515 116.224 496.687 115.552 495.835 115.552C494.695 115.552 494.059 116.404 494.059 117.724C494.059 119.044 494.695 119.908 495.835 119.908C496.687 119.908 497.515 119.236 497.515 117.856V117.628ZM500.558 121V120.076H502.874V113.308H500.558V112.384H503.954V120.076H506.27V121H500.558ZM510.537 121.132C508.737 121.132 507.513 119.8 507.513 117.868C507.513 115.996 508.737 114.604 510.489 114.604C512.289 114.604 513.237 115.936 513.237 117.676V118.036H508.557C508.629 119.356 509.409 120.196 510.537 120.196C511.425 120.196 512.049 119.74 512.253 118.996L513.189 119.332C512.793 120.448 511.821 121.132 510.537 121.132ZM510.489 115.528C509.517 115.528 508.821 116.14 508.617 117.208H512.145C512.121 116.32 511.617 115.528 510.489 115.528ZM517.241 121.132C515.561 121.132 514.613 119.632 514.613 117.868C514.613 116.092 515.561 114.604 517.241 114.604C518.093 114.604 518.729 115.024 519.089 115.648V112.384H520.169V121H519.089V120.076C518.729 120.712 518.093 121.132 517.241 121.132ZM519.113 117.664C519.113 116.176 518.261 115.552 517.457 115.552C516.329 115.552 515.705 116.512 515.705 117.868C515.705 119.224 516.329 120.184 517.457 120.184C518.261 120.184 519.113 119.536 519.113 118.096V117.664ZM480.316 134.984V131.648H478.468V130.724H480.316V128.888H481.372V130.724H484.264V131.648H481.372V134.9C481.372 135.752 481.876 136.1 482.872 136.1C483.364 136.1 483.856 136.016 484.3 135.884V136.856C483.88 136.976 483.28 137.072 482.704 137.072C481.396 137.072 480.316 136.52 480.316 134.984ZM488.951 137.132C487.151 137.132 485.927 135.8 485.927 133.868C485.927 131.996 487.151 130.604 488.903 130.604C490.703 130.604 491.651 131.936 491.651 133.676V134.036H486.971C487.043 135.356 487.823 136.196 488.951 136.196C489.839 136.196 490.463 135.74 490.667 134.996L491.603 135.332C491.207 136.448 490.235 137.132 488.951 137.132ZM488.903 131.528C487.931 131.528 487.235 132.14 487.031 133.208H490.559C490.535 132.32 490.031 131.528 488.903 131.528ZM493.111 137V136.076H494.875V131.648H493.111V130.724H495.943V131.876C496.327 131.144 497.155 130.604 498.211 130.604C498.631 130.604 498.967 130.664 499.183 130.76V131.828C498.895 131.732 498.559 131.66 498.103 131.66C496.987 131.66 495.943 132.416 495.943 133.568V136.076H498.319V137H493.111ZM501.206 132.776V137H500.222V130.712H501.206V131.396C501.41 130.976 501.794 130.604 502.37 130.604C502.934 130.604 503.318 130.94 503.534 131.468C503.726 131.048 504.206 130.604 504.83 130.604C505.718 130.604 506.198 131.348 506.198 132.392V137H505.202V132.704C505.202 132.068 505.082 131.6 504.53 131.6C504.05 131.6 503.702 132.044 503.702 132.776V137H502.706V132.704C502.706 132.068 502.574 131.6 502.022 131.6C501.53 131.6 501.206 132.044 501.206 132.776ZM510.021 129.632V128.384H511.197V129.632H510.021ZM507.753 137V136.076H510.069V131.648H507.753V130.724H511.149V136.076H513.465V137H507.753ZM515.093 137V130.724H516.173V131.576C516.521 131.06 517.157 130.604 518.045 130.604C519.377 130.604 520.133 131.528 520.133 132.86V137H519.053V133.148C519.053 132.272 518.681 131.612 517.745 131.612C516.965 131.612 516.173 132.212 516.173 133.256V137H515.093ZM523.98 137.108C522.816 137.108 521.868 136.436 521.868 135.308C521.868 134.06 522.888 133.532 524.28 133.268L525.96 132.944V132.68C525.96 131.96 525.516 131.54 524.628 131.54C523.824 131.54 523.296 131.936 523.08 132.632L522.072 132.368C522.396 131.336 523.332 130.604 524.676 130.604C526.128 130.604 527.016 131.288 527.016 132.632V135.656C527.016 136.136 527.34 136.232 527.784 136.136V137C526.776 137.12 526.176 136.928 526.02 136.268C525.612 136.76 524.88 137.108 523.98 137.108ZM525.96 134.828V133.784L524.556 134.048C523.632 134.228 522.96 134.504 522.96 135.26C522.96 135.872 523.416 136.232 524.136 136.232C525.096 136.232 525.96 135.632 525.96 134.828ZM529.339 137V136.076H531.655V129.308H529.339V128.384H532.735V136.076H535.051V137H529.339ZM536.187 135.632L537.075 135.044C537.447 135.776 538.323 136.232 539.271 136.232C540.087 136.232 540.807 135.896 540.807 135.26C540.807 134.552 540.135 134.456 538.923 134.24C537.783 134.024 536.583 133.784 536.583 132.5C536.583 131.384 537.663 130.604 539.139 130.604C540.411 130.604 541.383 131.18 541.791 131.924L540.963 132.512C540.615 131.876 539.955 131.492 539.043 131.492C538.215 131.492 537.651 131.852 537.651 132.416C537.651 133.004 538.347 133.124 539.319 133.316C540.519 133.568 541.898 133.772 541.898 135.14C541.898 136.34 540.699 137.132 539.211 137.132C537.939 137.132 536.715 136.604 536.187 135.632Z" fill="black"/>
<path d="M40.956 273.388V277H39.804V268.384H42.828C44.652 268.384 45.804 269.236 45.804 270.88C45.804 272.224 45.012 273.064 43.704 273.316L46.104 277H44.784L42.468 273.388H40.956ZM40.956 272.392H42.756C43.992 272.392 44.676 271.852 44.676 270.88C44.676 269.908 43.992 269.38 42.756 269.38H40.956V272.392ZM52.7113 273.868C52.7113 275.812 51.5113 277.132 49.7953 277.132C48.0793 277.132 46.8793 275.812 46.8793 273.868C46.8793 271.924 48.0793 270.604 49.7953 270.604C51.5113 270.604 52.7113 271.924 52.7113 273.868ZM47.9713 273.868C47.9713 275.296 48.6913 276.208 49.7953 276.208C50.8993 276.208 51.6193 275.296 51.6193 273.868C51.6193 272.428 50.8993 271.516 49.7953 271.516C48.6913 271.516 47.9713 272.428 47.9713 273.868ZM59.4746 270.724V277H58.3946V276.136C58.0346 276.664 57.4226 277.132 56.5346 277.132C55.2026 277.132 54.4346 276.208 54.4346 274.876V270.724H55.5146V274.648C55.5146 275.536 55.8986 276.136 56.8226 276.136C57.6026 276.136 58.3946 275.548 58.3946 274.504V270.724H59.4746ZM61.7019 277V270.724H62.7819V271.576C63.1299 271.06 63.7659 270.604 64.6539 270.604C65.9859 270.604 66.7419 271.528 66.7419 272.86V277H65.6619V273.148C65.6619 272.272 65.2899 271.612 64.3539 271.612C63.5739 271.612 62.7819 272.212 62.7819 273.256V277H61.7019ZM71.0453 277.132C69.3652 277.132 68.4173 275.632 68.4173 273.868C68.4173 272.092 69.3652 270.604 71.0453 270.604C71.8973 270.604 72.5333 271.024 72.8933 271.648V268.384H73.9733V277H72.8933V276.076C72.5333 276.712 71.8973 277.132 71.0453 277.132ZM72.9173 273.664C72.9173 272.176 72.0653 271.552 71.2613 271.552C70.1333 271.552 69.5093 272.512 69.5093 273.868C69.5093 275.224 70.1333 276.184 71.2613 276.184C72.0653 276.184 72.9173 275.536 72.9173 274.096V273.664ZM84.0079 273.868C84.0079 275.296 84.8359 276.184 86.0599 276.184C87.0199 276.184 87.5959 275.632 87.7999 274.852L88.7119 275.296C88.3999 276.34 87.4399 277.132 86.0479 277.132C84.2479 277.132 82.9519 275.8 82.9519 273.868C82.9519 271.924 84.2479 270.604 86.0479 270.604C87.4279 270.604 88.3759 271.36 88.6999 272.404L87.7999 272.872C87.5959 272.104 87.0199 271.54 86.0599 271.54C84.8359 271.54 84.0079 272.428 84.0079 273.868ZM95.8832 273.868C95.8832 275.812 94.6832 277.132 92.9672 277.132C91.2512 277.132 90.0512 275.812 90.0512 273.868C90.0512 271.924 91.2512 270.604 92.9672 270.604C94.6832 270.604 95.8832 271.924 95.8832 273.868ZM91.1432 273.868C91.1432 275.296 91.8632 276.208 92.9672 276.208C94.0712 276.208 94.7912 275.296 94.7912 273.868C94.7912 272.428 94.0712 271.516 92.9672 271.516C91.8632 271.516 91.1432 272.428 91.1432 273.868ZM97.2825 277V276.076H99.0465V271.648H97.2825V270.724H100.115V271.876C100.499 271.144 101.327 270.604 102.383 270.604C102.803 270.604 103.139 270.664 103.355 270.76V271.828C103.067 271.732 102.73 271.66 102.275 271.66C101.159 271.66 100.115 272.416 100.115 273.568V276.076H102.491V277H97.2825ZM104.874 277V270.724H105.954V271.576C106.302 271.06 106.938 270.604 107.826 270.604C109.158 270.604 109.914 271.528 109.914 272.86V277H108.834V273.148C108.834 272.272 108.462 271.612 107.526 271.612C106.746 271.612 105.954 272.212 105.954 273.256V277H104.874ZM114.709 277.132C112.909 277.132 111.685 275.8 111.685 273.868C111.685 271.996 112.909 270.604 114.661 270.604C116.461 270.604 117.409 271.936 117.409 273.676V274.036H112.729C112.801 275.356 113.581 276.196 114.709 276.196C115.597 276.196 116.221 275.74 116.425 274.996L117.361 275.332C116.965 276.448 115.993 277.132 114.709 277.132ZM114.661 271.528C113.689 271.528 112.993 272.14 112.789 273.208H116.317C116.293 272.32 115.789 271.528 114.661 271.528ZM118.868 277V276.076H120.632V271.648H118.868V270.724H121.7V271.876C122.084 271.144 122.912 270.604 123.968 270.604C124.388 270.604 124.724 270.664 124.94 270.76V271.828C124.652 271.732 124.316 271.66 123.86 271.66C122.744 271.66 121.7 272.416 121.7 273.568V276.076H124.076V277H118.868ZM125.968 275.632L126.856 275.044C127.228 275.776 128.104 276.232 129.052 276.232C129.868 276.232 130.588 275.896 130.588 275.26C130.588 274.552 129.916 274.456 128.704 274.24C127.564 274.024 126.364 273.784 126.364 272.5C126.364 271.384 127.444 270.604 128.92 270.604C130.192 270.604 131.164 271.18 131.572 271.924L130.744 272.512C130.396 271.876 129.736 271.492 128.824 271.492C127.996 271.492 127.432 271.852 127.432 272.416C127.432 273.004 128.128 273.124 129.1 273.316C130.3 273.568 131.68 273.772 131.68 275.14C131.68 276.34 130.48 277.132 128.992 277.132C127.72 277.132 126.496 276.604 125.968 275.632Z" fill="black"/>
<path d="M113.948 208V143.8H97.7484V128.4H113.948V97.8H131.748V128.4H155.548V143.8H131.748V205.2C131.748 216.2 137.148 218.2 146.348 218.2C150.548 218.2 153.548 218 157.748 217V232.4C153.148 233.4 147.948 234 141.948 234C124.148 234 113.948 228 113.948 208ZM213.527 244.4C207.527 260.2 199.327 270.2 181.127 270.2C176.727 270.2 174.527 270 171.327 269.4V253.8C174.727 254.6 176.927 254.8 179.927 254.8C187.727 254.8 191.927 252 196.127 241.6L201.127 229.2L162.327 128.4H181.327L210.727 208.4L239.727 128.4H258.527L213.527 244.4ZM316.494 235.2C301.894 235.2 290.294 228.2 284.094 217.8V269H266.094V128.4H284.094V143.6C290.294 133.4 301.894 126.4 316.494 126.4C345.494 126.4 362.094 151 362.094 180.8C362.094 210.4 345.494 235.2 316.494 235.2ZM283.694 177.2V184.6C283.694 208.6 298.494 219.4 313.294 219.4C332.894 219.4 343.894 203.2 343.894 180.8C343.894 158.2 332.894 142.2 313.294 142.2C298.494 142.2 283.694 152.8 283.694 177.2ZM422.644 235.2C393.644 235.2 373.644 213 373.644 180.8C373.644 149.6 393.444 126.4 421.844 126.4C451.044 126.4 466.444 148.6 466.444 177.6V183.6H390.844C391.844 205.6 404.444 219.6 422.644 219.6C436.644 219.6 446.644 212 449.844 199.6L465.644 205.2C459.244 223.8 443.444 235.2 422.644 235.2ZM421.644 141.8C406.444 141.8 395.044 152 391.844 169.8H448.244C447.844 155 439.844 141.8 421.644 141.8Z" fill="black"/>
<path d="M444 197.5L486.5 212.5" stroke="#00E013"/>
<circle cx="112.461" cy="232.461" r="22.8361" stroke="#00E013" stroke-width="1.25"/>
<path d="M240.378 303H239.238V294.384H244.806V295.392H240.378V298.164H244.122V299.172H240.378V303ZM246.338 303V302.076H248.654V295.308H246.338V294.384H249.734V302.076H252.05V303H246.338ZM255.369 303.108C254.205 303.108 253.257 302.436 253.257 301.308C253.257 300.06 254.277 299.532 255.669 299.268L257.349 298.944V298.68C257.349 297.96 256.905 297.54 256.017 297.54C255.213 297.54 254.685 297.936 254.469 298.632L253.461 298.368C253.785 297.336 254.721 296.604 256.065 296.604C257.517 296.604 258.405 297.288 258.405 298.632V301.656C258.405 302.136 258.729 302.232 259.173 302.136V303C258.165 303.12 257.565 302.928 257.409 302.268C257.001 302.76 256.269 303.108 255.369 303.108ZM257.349 300.828V299.784L255.945 300.048C255.021 300.228 254.349 300.504 254.349 301.26C254.349 301.872 254.805 302.232 255.525 302.232C256.485 302.232 257.349 301.632 257.349 300.828ZM262.072 300.984V297.648H260.224V296.724H262.072V294.888H263.128V296.724H266.02V297.648H263.128V300.9C263.128 301.752 263.632 302.1 264.628 302.1C265.12 302.1 265.612 302.016 266.056 301.884V302.856C265.636 302.976 265.036 303.072 264.46 303.072C263.152 303.072 262.072 302.52 262.072 300.984ZM277.903 303.132C276.103 303.132 274.879 301.8 274.879 299.868C274.879 297.996 276.103 296.604 277.855 296.604C279.655 296.604 280.603 297.936 280.603 299.676V300.036H275.923C275.995 301.356 276.775 302.196 277.903 302.196C278.791 302.196 279.415 301.74 279.619 300.996L280.555 301.332C280.159 302.448 279.187 303.132 277.903 303.132ZM277.855 297.528C276.883 297.528 276.187 298.14 275.983 299.208H279.511C279.487 298.32 278.983 297.528 277.855 297.528ZM282.458 303V296.724H283.538V297.576C283.886 297.06 284.522 296.604 285.41 296.604C286.742 296.604 287.498 297.528 287.498 298.86V303H286.418V299.148C286.418 298.272 286.046 297.612 285.11 297.612C284.33 297.612 283.538 298.212 283.538 299.256V303H282.458ZM291.802 303.132C290.122 303.132 289.174 301.632 289.174 299.868C289.174 298.092 290.122 296.604 291.802 296.604C292.654 296.604 293.29 297.024 293.65 297.648V294.384H294.73V303H293.65V302.076C293.29 302.712 292.654 303.132 291.802 303.132ZM293.674 299.664C293.674 298.176 292.822 297.552 292.018 297.552C290.89 297.552 290.266 298.512 290.266 299.868C290.266 301.224 290.89 302.184 292.018 302.184C292.822 302.184 293.674 301.536 293.674 300.096V299.664ZM297.689 299.988V299.016H300.977V299.988H297.689ZM304.764 299.868C304.764 301.296 305.592 302.184 306.816 302.184C307.776 302.184 308.352 301.632 308.556 300.852L309.468 301.296C309.156 302.34 308.196 303.132 306.804 303.132C305.004 303.132 303.708 301.8 303.708 299.868C303.708 297.924 305.004 296.604 306.804 296.604C308.184 296.604 309.132 297.36 309.456 298.404L308.556 298.872C308.352 298.104 307.776 297.54 306.816 297.54C305.592 297.54 304.764 298.428 304.764 299.868ZM312.932 303.108C311.768 303.108 310.82 302.436 310.82 301.308C310.82 300.06 311.84 299.532 313.232 299.268L314.912 298.944V298.68C314.912 297.96 314.468 297.54 313.58 297.54C312.776 297.54 312.248 297.936 312.032 298.632L311.024 298.368C311.348 297.336 312.284 296.604 313.628 296.604C315.08 296.604 315.968 297.288 315.968 298.632V301.656C315.968 302.136 316.292 302.232 316.736 302.136V303C315.728 303.12 315.128 302.928 314.972 302.268C314.564 302.76 313.832 303.108 312.932 303.108ZM314.912 300.828V299.784L313.508 300.048C312.584 300.228 311.912 300.504 311.912 301.26C311.912 301.872 312.368 302.232 313.088 302.232C314.048 302.232 314.912 301.632 314.912 300.828ZM321.255 303.132C320.403 303.132 319.767 302.712 319.407 302.076V305.16H318.327V296.724H319.407V297.648C319.767 297.024 320.403 296.604 321.255 296.604C322.935 296.604 323.883 298.092 323.883 299.868C323.883 301.632 322.935 303.132 321.255 303.132ZM319.383 299.664V300.096C319.383 301.536 320.235 302.184 321.039 302.184C322.167 302.184 322.791 301.224 322.791 299.868C322.791 298.512 322.167 297.552 321.039 297.552C320.235 297.552 319.383 298.176 319.383 299.664ZM325.138 301.632L326.026 301.044C326.398 301.776 327.274 302.232 328.222 302.232C329.038 302.232 329.758 301.896 329.758 301.26C329.758 300.552 329.086 300.456 327.874 300.24C326.734 300.024 325.534 299.784 325.534 298.5C325.534 297.384 326.614 296.604 328.09 296.604C329.362 296.604 330.334 297.18 330.742 297.924L329.914 298.512C329.566 297.876 328.906 297.492 327.994 297.492C327.166 297.492 326.602 297.852 326.602 298.416C326.602 299.004 327.298 299.124 328.27 299.316C329.47 299.568 330.85 299.772 330.85 301.14C330.85 302.34 329.65 303.132 328.162 303.132C326.89 303.132 325.666 302.604 325.138 301.632Z" fill="black"/>
<path d="M479.967 204.624C479.622 204.606 479.358 204.312 479.376 203.967L479.672 198.35C479.69 198.005 479.984 197.74 480.328 197.759C480.673 197.777 480.938 198.071 480.92 198.416L480.657 203.409L485.65 203.672C485.995 203.69 486.26 203.984 486.241 204.328C486.223 204.673 485.929 204.938 485.584 204.92L479.967 204.624ZM499.5 150L500.123 149.952C501.634 169.594 495.597 190.804 480.418 204.465L480 204L479.582 203.535C494.403 190.196 500.366 169.406 498.877 150.048L499.5 150Z" fill="#00E013"/>
</g>
<defs>
<clipPath id="clip0_9147_7426">
<rect width="570" height="360" fill="white"/>
</clipPath>
</defs>
</svg>
