<svg width="570" height="296" viewBox="0 0 570 296" fill="none" xmlns="http://www.w3.org/2000/svg">
<g clip-path="url(#clip0_37_18860)">
<mask id="mask0_37_18860" style="mask-type:luminance" maskUnits="userSpaceOnUse" x="0" y="-32" width="570" height="360">
<path d="M570 -32H0V328H570V-32Z" fill="white"/>
</mask>
<g mask="url(#mask0_37_18860)">
<path d="M266 243V251H284V243" stroke="#00E013"/>
<path d="M113.948 176V111.8H97.7483V96.3998H113.948V65.7998H131.748V96.3998H155.548V111.8H131.748V173.2C131.748 184.2 137.148 186.2 146.348 186.2C150.548 186.2 153.548 186 157.748 185V200.4C153.148 201.4 147.948 202 141.948 202C124.148 202 113.948 196 113.948 176ZM213.527 212.4C207.527 228.2 199.327 238.2 181.127 238.2C176.727 238.2 174.527 238 171.327 237.4V221.8C174.727 222.6 176.927 222.8 179.927 222.8C187.727 222.8 191.927 220 196.127 209.6L201.127 197.2L162.327 96.3998H181.327L210.727 176.4L239.727 96.3998H258.527L213.527 212.4ZM316.494 203.2C301.894 203.2 290.294 196.2 284.094 185.8V237H266.094V96.3998H284.094V111.6C290.294 101.4 301.894 94.3998 316.494 94.3998C345.494 94.3998 362.094 119 362.094 148.8C362.094 178.4 345.494 203.2 316.494 203.2ZM283.694 145.2V152.6C283.694 176.6 298.494 187.4 313.294 187.4C332.894 187.4 343.894 171.2 343.894 148.8C343.894 126.2 332.894 110.2 313.294 110.2C298.494 110.2 283.694 120.8 283.694 145.2ZM422.644 203.2C393.644 203.2 373.644 181 373.644 148.8C373.644 117.6 393.444 94.3998 421.844 94.3998C451.044 94.3998 466.444 116.6 466.444 145.6V151.6H390.844C391.844 173.6 404.444 187.6 422.644 187.6C436.644 187.6 446.644 180 449.844 167.6L465.644 173.2C459.244 191.8 443.444 203.2 422.644 203.2ZM421.644 109.8C406.444 109.8 395.044 120 391.844 137.8H448.244C447.844 123 439.844 109.8 421.644 109.8Z" fill="black"/>
<path d="M444 165.5L486.5 180.5" stroke="#00E013"/>
<path d="M112.461 223.297C125.073 223.297 135.297 213.073 135.297 200.461C135.297 187.849 125.073 177.625 112.461 177.625C99.8489 177.625 89.6249 187.849 89.6249 200.461C89.6249 213.073 99.8489 223.297 112.461 223.297Z" stroke="#00E013" stroke-width="1.25"/>
<path d="M479.967 172.624C479.622 172.606 479.358 172.312 479.376 171.967L479.672 166.35C479.69 166.005 479.984 165.74 480.328 165.759C480.673 165.777 480.938 166.071 480.92 166.416L480.657 171.409L485.65 171.672C485.995 171.69 486.26 171.984 486.241 172.328C486.223 172.673 485.929 172.938 485.584 172.92L479.967 172.624ZM499.5 118L500.123 117.952C501.634 137.594 495.597 158.804 480.418 172.465L480 172L479.582 171.535C494.403 158.196 500.366 137.406 498.877 118.048L499.5 118Z" fill="#00E013"/>
</g>
</g>
<defs>
<clipPath id="clip0_37_18860">
<rect width="570" height="296" fill="white"/>
</clipPath>
</defs>
</svg>
