<svg width="570" height="296" viewBox="0 0 570 296" fill="none" xmlns="http://www.w3.org/2000/svg">
<path d="M307.945 75.0488C316.838 75.0488 324.047 82.2578 324.047 91.1498V108.382H357.931C366.823 108.382 374.032 115.591 374.032 124.483V208.85C374.032 217.743 366.823 224.952 357.931 224.952H215.23C206.338 224.952 199.129 217.743 199.129 208.85V124.483C199.129 115.591 206.338 108.382 215.23 108.382H249.144V91.1498C249.144 82.2578 256.353 75.0488 265.245 75.0488H307.945ZM215.699 208.382H357.463V124.952H215.699V208.382ZM265.714 108.382H307.478V91.6188H265.714V108.382Z" fill="black"/>
<path d="M236.605 150.001C266.605 161.112 306.605 161.112 336.605 150.001" stroke="black" stroke-width="16.5698" stroke-linejoin="round"/>
<path d="M340.572 149.829C340.501 150.167 340.717 150.498 341.054 150.57L346.557 151.736C346.895 151.807 347.227 151.591 347.298 151.254C347.37 150.916 347.154 150.584 346.816 150.513L341.925 149.477L342.961 144.585C343.033 144.247 342.817 143.916 342.479 143.844C342.141 143.773 341.81 143.988 341.738 144.326L340.572 149.829ZM405.185 159.5L405.782 159.315C402.431 148.49 391.895 142.272 379.453 140.625C366.998 138.976 352.472 141.871 340.843 149.435L341.184 149.959L341.525 150.482C352.895 143.087 367.119 140.253 379.289 141.864C391.473 143.477 401.438 149.51 404.588 159.685L405.185 159.5Z" fill="#00E013"/>
<path d="M231.091 148.681C231.322 148.425 231.301 148.03 231.045 147.799L226.862 144.038C226.605 143.807 226.21 143.828 225.979 144.085C225.748 144.341 225.769 144.736 226.026 144.967L229.744 148.31L226.401 152.028C226.17 152.285 226.191 152.68 226.448 152.911C226.704 153.142 227.1 153.121 227.33 152.864L231.091 148.681ZM173.684 109.5H173.059C173.058 121.783 180.621 132.01 191.545 138.955C202.471 145.9 216.837 149.622 230.66 148.888L230.627 148.263L230.594 147.639C217.019 148.36 202.912 144.7 192.216 137.9C181.518 131.099 174.308 121.217 174.309 109.5H173.684Z" fill="#00E013"/>
<path d="M182.137 220.928C182.137 233.54 192.361 243.764 204.973 243.764C217.585 243.764 227.809 233.54 227.809 220.928C227.809 208.316 217.585 198.092 204.973 198.092C192.361 198.092 182.137 208.316 182.137 220.928Z" stroke="#00E013" stroke-width="1.25"/>
</svg>
