<svg width="570" height="360" viewBox="0 0 570 360" fill="none" xmlns="http://www.w3.org/2000/svg">
<path d="M206.834 93.4077L207.898 100.453L187.903 103.474L185.449 122.116H235.5V136.366H227.405L213.896 237.682C213.424 241.222 210.404 243.866 206.833 243.866H135.167C131.596 243.866 128.576 241.222 128.104 237.682L114.595 136.366H106.5V122.116H171.076L174.476 96.3003L174.521 96.0073C175.044 92.9996 177.434 90.6456 180.475 90.186L205.769 86.3628L206.834 93.4077ZM141.405 229.616H200.595L213.029 136.366H183.573L174.481 205.421L167.417 204.491L160.353 203.561L169.2 136.366H128.971L141.405 229.616Z" fill="black"/>
<path d="M136.989 287.769H135.849V279.153H141.417V280.161H136.989V282.933H140.733V283.941H136.989V287.769ZM145.744 287.877C144.58 287.877 143.632 287.205 143.632 286.077C143.632 284.829 144.652 284.301 146.044 284.037L147.724 283.713V283.449C147.724 282.729 147.28 282.309 146.392 282.309C145.588 282.309 145.06 282.705 144.844 283.401L143.836 283.137C144.16 282.105 145.096 281.373 146.44 281.373C147.892 281.373 148.78 282.057 148.78 283.401V286.425C148.78 286.905 149.104 287.001 149.548 286.905V287.769C148.54 287.889 147.94 287.697 147.784 287.037C147.376 287.529 146.644 287.877 145.744 287.877ZM147.724 285.597V284.553L146.32 284.817C145.396 284.997 144.724 285.273 144.724 286.029C144.724 286.641 145.18 287.001 145.9 287.001C146.86 287.001 147.724 286.401 147.724 285.597ZM151.716 286.401L152.604 285.813C152.976 286.545 153.852 287.001 154.8 287.001C155.616 287.001 156.336 286.665 156.336 286.029C156.336 285.321 155.664 285.225 154.452 285.009C153.312 284.793 152.112 284.553 152.112 283.269C152.112 282.153 153.192 281.373 154.668 281.373C155.94 281.373 156.912 281.949 157.32 282.693L156.492 283.281C156.144 282.645 155.484 282.261 154.572 282.261C153.744 282.261 153.18 282.621 153.18 283.185C153.18 283.773 153.876 283.893 154.848 284.085C156.048 284.337 157.428 284.541 157.428 285.909C157.428 287.109 156.228 287.901 154.74 287.901C153.468 287.901 152.244 287.373 151.716 286.401ZM161.563 285.753V282.417H159.715V281.493H161.563V279.657H162.619V281.493H165.511V282.417H162.619V285.669C162.619 286.521 163.123 286.869 164.119 286.869C164.611 286.869 165.103 286.785 165.547 286.653V287.625C165.127 287.745 164.527 287.841 163.951 287.841C162.643 287.841 161.563 287.289 161.563 285.753ZM177.766 287.769H176.626V279.153H182.194V280.161H177.766V282.933H181.51V283.941H177.766V287.769ZM190.229 284.637C190.229 286.581 189.029 287.901 187.313 287.901C185.597 287.901 184.397 286.581 184.397 284.637C184.397 282.693 185.597 281.373 187.313 281.373C189.029 281.373 190.229 282.693 190.229 284.637ZM185.489 284.637C185.489 286.065 186.209 286.977 187.313 286.977C188.417 286.977 189.137 286.065 189.137 284.637C189.137 283.197 188.417 282.285 187.313 282.285C186.209 282.285 185.489 283.197 185.489 284.637ZM198.384 284.637C198.384 286.581 197.184 287.901 195.468 287.901C193.752 287.901 192.552 286.581 192.552 284.637C192.552 282.693 193.752 281.373 195.468 281.373C197.184 281.373 198.384 282.693 198.384 284.637ZM193.644 284.637C193.644 286.065 194.364 286.977 195.468 286.977C196.572 286.977 197.292 286.065 197.292 284.637C197.292 283.197 196.572 282.285 195.468 282.285C194.364 282.285 193.644 283.197 193.644 284.637ZM203.288 287.901C201.608 287.901 200.66 286.401 200.66 284.637C200.66 282.861 201.608 281.373 203.288 281.373C204.14 281.373 204.776 281.793 205.136 282.417V279.153H206.216V287.769H205.136V286.845C204.776 287.481 204.14 287.901 203.288 287.901ZM205.16 284.433C205.16 282.945 204.308 282.321 203.504 282.321C202.376 282.321 201.752 283.281 201.752 284.637C201.752 285.993 202.376 286.953 203.504 286.953C204.308 286.953 205.16 286.305 205.16 284.865V284.433Z" fill="black"/>
<path d="M382.324 283.461C382.324 285.501 383.284 286.881 384.64 286.881C385.6 286.881 386.296 286.233 386.572 285.141L387.652 285.501C387.196 286.989 386.104 287.901 384.64 287.901C382.648 287.901 381.22 286.089 381.22 283.461C381.22 280.833 382.648 279.021 384.64 279.021C386.104 279.021 387.196 279.933 387.652 281.421L386.572 281.781C386.296 280.689 385.6 280.041 384.64 280.041C383.284 280.041 382.324 281.421 382.324 283.461ZM395.435 284.637C395.435 286.581 394.235 287.901 392.519 287.901C390.803 287.901 389.603 286.581 389.603 284.637C389.603 282.693 390.803 281.373 392.519 281.373C394.235 281.373 395.435 282.693 395.435 284.637ZM390.695 284.637C390.695 286.065 391.415 286.977 392.519 286.977C393.623 286.977 394.343 286.065 394.343 284.637C394.343 283.197 393.623 282.285 392.519 282.285C391.415 282.285 390.695 283.197 390.695 284.637ZM403.183 287.769H397.771V286.845H399.703V282.417H397.771V281.493H399.703C399.703 279.741 400.867 279.021 402.283 279.021C402.811 279.021 403.291 279.105 403.639 279.189V280.137C403.255 280.053 402.847 279.981 402.319 279.981C401.347 279.981 400.771 280.401 400.771 281.493H403.615V282.417H400.771V286.845H403.183V287.769ZM411.338 287.769H405.926V286.845H407.858V282.417H405.926V281.493H407.858C407.858 279.741 409.022 279.021 410.438 279.021C410.966 279.021 411.446 279.105 411.794 279.189V280.137C411.41 280.053 411.002 279.981 410.474 279.981C409.502 279.981 408.926 280.401 408.926 281.493H411.77V282.417H408.926V286.845H411.338V287.769ZM417.141 287.901C415.341 287.901 414.117 286.569 414.117 284.637C414.117 282.765 415.341 281.373 417.093 281.373C418.893 281.373 419.841 282.705 419.841 284.445V284.805H415.161C415.233 286.125 416.013 286.965 417.141 286.965C418.029 286.965 418.653 286.509 418.857 285.765L419.793 286.101C419.397 287.217 418.425 287.901 417.141 287.901ZM417.093 282.297C416.121 282.297 415.425 282.909 415.221 283.977H418.749C418.725 283.089 418.221 282.297 417.093 282.297ZM425.297 287.901C423.497 287.901 422.273 286.569 422.273 284.637C422.273 282.765 423.497 281.373 425.249 281.373C427.049 281.373 427.997 282.705 427.997 284.445V284.805H423.317C423.389 286.125 424.169 286.965 425.297 286.965C426.185 286.965 426.809 286.509 427.013 285.765L427.949 286.101C427.553 287.217 426.581 287.901 425.297 287.901ZM425.249 282.297C424.277 282.297 423.581 282.909 423.377 283.977H426.905C426.881 283.089 426.377 282.297 425.249 282.297Z" fill="black"/>
<path d="M444.433 111.204C447.176 111.306 449.627 112.98 450.715 115.518L459.614 136.283H469.25V150.533H460.843L444.006 241.456C443.38 244.833 440.434 247.283 437 247.283H372.5C369.173 247.283 366.304 244.983 365.56 241.77L365.494 241.456L348.656 150.533H340.25V136.283H349.885L358.784 115.518L358.894 115.274C360.068 112.793 362.572 111.199 365.333 111.199H444.166L444.433 111.204ZM378.427 233.033H431.073L446.351 150.533H363.148L378.427 233.033ZM365.388 136.283H444.111L439.468 125.449H370.031L365.388 136.283Z" fill="black"/>
<circle cx="223.375" cy="128.822" r="22.8361" stroke="#00E013" stroke-width="1.25"/>
<circle cx="456.75" cy="139.189" r="22.8361" stroke="#00E013" stroke-width="1.25"/>
</svg>
