<svg width="570" height="258" viewBox="0 0 570 258" fill="none" xmlns="http://www.w3.org/2000/svg">
<path d="M121.044 72.1334C122.829 70.7874 125.142 70.3574 127.292 70.9714L227.626 99.6374C230.685 100.511 232.793 103.308 232.793 106.489V185.285C232.793 185.298 232.794 185.31 232.794 185.323C232.794 189.257 229.604 192.447 225.669 192.448H82.3359C78.4011 192.448 75.2113 189.257 75.2109 185.323V142.323C75.2109 139.94 76.4016 137.715 78.3838 136.394L118.21 109.842V77.8224L118.223 77.4044C118.345 75.3254 119.371 73.3954 121.044 72.1334ZM132.46 113.606L132.461 113.656V178.198H218.543V111.862L132.46 87.2674V113.606ZM89.4609 146.135V178.198H118.21V126.968L89.4609 146.135Z" fill="black"/>
<path d="M438.006 124.448C441.154 124.448 444.009 126.264 445.349 129.092L445.474 129.37L453.525 148.142C456.168 147.34 458.702 146.462 461.103 145.501L463.749 152.118L466.395 158.733C463.261 159.986 459.967 161.109 456.548 162.111L456.54 192.491L442.29 192.487L442.297 165.451C431.926 167.336 420.914 168.259 409.999 168.259C399.086 168.259 388.076 167.336 377.707 165.452V192.489H363.457V162.113C360.035 161.111 356.738 159.987 353.603 158.733L356.249 152.118L358.895 145.501C361.297 146.462 363.833 147.342 366.478 148.144L374.523 129.371L374.648 129.095C375.988 126.266 378.843 124.448 381.991 124.448H438.006ZM333.947 65.0392C335.677 63.6892 337.932 63.2122 340.061 63.7442L483.394 99.5772L483.688 99.6572C486.702 100.548 488.79 103.321 488.79 106.489V192.489H474.54V112.051L345.457 79.7812V192.489H331.207V70.6562C331.207 68.4622 332.218 66.3902 333.947 65.0392ZM380.549 151.485C389.835 153.152 399.869 154.009 409.999 154.009C420.13 154.009 430.165 153.152 439.453 151.484L433.969 138.698H386.03L380.549 151.485Z" fill="black"/>
<path d="M122.934 49.8965L233.359 81.5605" stroke="#00E013"/>
<path d="M337.332 43.4561L485.698 85.9995" stroke="#00E013"/>

</svg>
