<svg width="570" height="360" viewBox="0 0 570 360" fill="none" xmlns="http://www.w3.org/2000/svg">
<path d="M121.044 123.133C122.829 121.787 125.142 121.357 127.292 121.971L227.626 150.637C230.685 151.511 232.793 154.308 232.793 157.489V236.285C232.793 236.298 232.794 236.31 232.794 236.323C232.794 240.257 229.604 243.447 225.669 243.448H82.3359C78.4011 243.448 75.2113 240.257 75.2109 236.323V193.323C75.2109 190.94 76.4016 188.715 78.3838 187.394L118.21 160.842V128.822L118.223 128.404C118.345 126.325 119.371 124.395 121.044 123.133ZM132.46 164.606L132.461 164.656V229.198H218.543V162.862L132.46 138.267V164.606ZM89.4609 197.135V229.198H118.21V177.968L89.4609 197.135Z" fill="black"/>
<path d="M438.006 175.448C441.154 175.448 444.009 177.264 445.349 180.092L445.474 180.37L453.525 199.142C456.168 198.34 458.702 197.462 461.103 196.501L463.749 203.118L466.395 209.733C463.261 210.986 459.967 212.109 456.548 213.111L456.54 243.491L442.29 243.487L442.297 216.451C431.926 218.336 420.914 219.259 409.999 219.259C399.086 219.259 388.076 218.336 377.707 216.452V243.489H363.457V213.113C360.035 212.111 356.738 210.987 353.603 209.733L356.249 203.118L358.895 196.501C361.297 197.462 363.833 198.342 366.478 199.144L374.523 180.371L374.648 180.095C375.988 177.266 378.843 175.448 381.991 175.448H438.006ZM333.947 116.039C335.677 114.689 337.932 114.212 340.061 114.744L483.394 150.577L483.688 150.657C486.702 151.548 488.79 154.321 488.79 157.489V243.489H474.54V163.051L345.457 130.781V243.489H331.207V121.656C331.207 119.462 332.218 117.39 333.947 116.039ZM380.549 202.485C389.835 204.152 399.869 205.009 409.999 205.009C420.13 205.009 430.165 204.152 439.453 202.484L433.969 189.698H386.03L380.549 202.485Z" fill="black"/>
<path d="M122.934 100.896L233.359 132.56" stroke="#00E013"/>
<path d="M337.332 94.4556L485.698 136.999" stroke="#00E013"/>
<path d="M145.592 279.291H146.744V287.907H145.592V283.959H142.304V287.907H141.152V279.291H142.304V282.951H145.592V279.291ZM155.02 284.775C155.02 286.719 153.82 288.039 152.104 288.039C150.388 288.039 149.188 286.719 149.188 284.775C149.188 282.831 150.388 281.511 152.104 281.511C153.82 281.511 155.02 282.831 155.02 284.775ZM150.28 284.775C150.28 286.203 151 287.115 152.104 287.115C153.208 287.115 153.928 286.203 153.928 284.775C153.928 283.335 153.208 282.423 152.104 282.423C151 282.423 150.28 283.335 150.28 284.775ZM158.279 283.683V287.907H157.295V281.619H158.279V282.303C158.483 281.883 158.867 281.511 159.443 281.511C160.007 281.511 160.391 281.847 160.607 282.375C160.799 281.955 161.279 281.511 161.903 281.511C162.791 281.511 163.271 282.255 163.271 283.299V287.907H162.275V283.611C162.275 282.975 162.155 282.507 161.603 282.507C161.123 282.507 160.775 282.951 160.775 283.683V287.907H159.779V283.611C159.779 282.975 159.647 282.507 159.095 282.507C158.603 282.507 158.279 282.951 158.279 283.683ZM168.57 288.039C166.77 288.039 165.546 286.707 165.546 284.775C165.546 282.903 166.77 281.511 168.522 281.511C170.322 281.511 171.27 282.843 171.27 284.583V284.943H166.59C166.662 286.263 167.442 287.103 168.57 287.103C169.458 287.103 170.082 286.647 170.286 285.903L171.222 286.239C170.826 287.355 169.854 288.039 168.57 288.039ZM168.522 282.435C167.55 282.435 166.854 283.047 166.65 284.115H170.178C170.154 283.227 169.65 282.435 168.522 282.435Z" fill="black"/>
<path d="M370.868 279.153H372.02V287.769H370.868V283.821H367.58V287.769H366.428V279.153H367.58V282.813H370.868V279.153ZM380.296 284.637C380.296 286.581 379.096 287.901 377.38 287.901C375.664 287.901 374.464 286.581 374.464 284.637C374.464 282.693 375.664 281.373 377.38 281.373C379.096 281.373 380.296 282.693 380.296 284.637ZM375.556 284.637C375.556 286.065 376.276 286.977 377.38 286.977C378.484 286.977 379.204 286.065 379.204 284.637C379.204 283.197 378.484 282.285 377.38 282.285C376.276 282.285 375.556 283.197 375.556 284.637ZM383.555 283.545V287.769H382.571V281.481H383.555V282.165C383.759 281.745 384.143 281.373 384.719 281.373C385.283 281.373 385.667 281.709 385.883 282.237C386.075 281.817 386.555 281.373 387.179 281.373C388.067 281.373 388.547 282.117 388.547 283.161V287.769H387.551V283.473C387.551 282.837 387.431 282.369 386.879 282.369C386.399 282.369 386.051 282.813 386.051 283.545V287.769H385.055V283.473C385.055 282.837 384.923 282.369 384.371 282.369C383.879 282.369 383.555 282.813 383.555 283.545ZM393.846 287.901C392.046 287.901 390.822 286.569 390.822 284.637C390.822 282.765 392.046 281.373 393.798 281.373C395.598 281.373 396.546 282.705 396.546 284.445V284.805H391.866C391.938 286.125 392.718 286.965 393.846 286.965C394.734 286.965 395.358 286.509 395.562 285.765L396.498 286.101C396.102 287.217 395.13 287.901 393.846 287.901ZM393.798 282.297C392.826 282.297 392.13 282.909 391.926 283.977H395.454C395.43 283.089 394.926 282.297 393.798 282.297ZM413.049 284.145H410.481V286.713H409.521V284.145H406.953V283.185H409.521V280.605H410.481V283.185H413.049V284.145ZM425.64 279.153H426.972L429.672 287.769H428.508L427.812 285.501H424.776L424.08 287.769H422.952L425.64 279.153ZM426.288 280.533L425.076 284.493H427.5L426.288 280.533ZM436.951 281.493V287.769H435.871V286.905C435.511 287.433 434.899 287.901 434.011 287.901C432.679 287.901 431.911 286.977 431.911 285.645V281.493H432.991V285.417C432.991 286.305 433.375 286.905 434.299 286.905C435.079 286.905 435.871 286.317 435.871 285.273V281.493H436.951ZM441.338 285.753V282.417H439.49V281.493H441.338V279.657H442.394V281.493H445.286V282.417H442.394V285.669C442.394 286.521 442.898 286.869 443.894 286.869C444.386 286.869 444.878 286.785 445.322 286.653V287.625C444.902 287.745 444.302 287.841 443.726 287.841C442.418 287.841 441.338 287.289 441.338 285.753ZM453.694 284.637C453.694 286.581 452.494 287.901 450.778 287.901C449.062 287.901 447.862 286.581 447.862 284.637C447.862 282.693 449.062 281.373 450.778 281.373C452.494 281.373 453.694 282.693 453.694 284.637ZM448.954 284.637C448.954 286.065 449.674 286.977 450.778 286.977C451.882 286.977 452.602 286.065 452.602 284.637C452.602 283.197 451.882 282.285 450.778 282.285C449.674 282.285 448.954 283.197 448.954 284.637Z" fill="black"/>
</svg>
