<svg width="570" height="258" viewBox="0 0 570 258" fill="none" xmlns="http://www.w3.org/2000/svg">
<path d="M206.834 42.4082L207.898 49.4535L187.903 52.4745L185.449 71.1165H235.5V85.3665H227.405L213.896 186.682C213.424 190.222 210.404 192.866 206.833 192.866H135.167C131.596 192.866 128.576 190.222 128.104 186.682L114.595 85.3665H106.5V71.1165H171.076L174.476 45.3008L174.521 45.0078C175.044 42.0001 177.434 39.6461 180.475 39.1865L205.769 35.3633L206.834 42.4082ZM141.405 178.616H200.595L213.029 85.3665H183.573L174.481 154.421L167.417 153.491L160.353 152.561L169.2 85.3665H128.971L141.405 178.616Z" fill="black"/>
<path d="M444.433 60.2042C447.176 60.3062 449.627 61.9802 450.715 64.5182L459.614 85.2832H469.25V99.5332H460.843L444.006 190.456C443.38 193.833 440.434 196.283 437 196.283H372.5C369.173 196.283 366.304 193.983 365.56 190.77L365.494 190.456L348.656 99.5332H340.25V85.2832H349.885L358.784 64.5182L358.894 64.2742C360.068 61.7932 362.572 60.1992 365.333 60.1992H444.166L444.433 60.2042ZM378.427 182.033H431.073L446.351 99.5332H363.148L378.427 182.033ZM365.388 85.2832H444.111L439.468 74.4492H370.031L365.388 85.2832Z" fill="black"/>
<path d="M223.375 100.659C235.987 100.659 246.211 90.4345 246.211 77.8224C246.211 65.2104 235.987 54.9863 223.375 54.9863C210.763 54.9863 200.539 65.2104 200.539 77.8224C200.539 90.4345 210.763 100.659 223.375 100.659Z" stroke="#00E013" stroke-width="1.25"/>
<path d="M456.75 111.025C469.362 111.025 479.586 100.801 479.586 88.1886C479.586 75.5766 469.362 65.3525 456.75 65.3525C444.138 65.3525 433.914 75.5766 433.914 88.1886C433.914 100.801 444.138 111.025 456.75 111.025Z" stroke="#00E013" stroke-width="1.25"/>

</svg>
