<svg width="1920" height="1081" viewBox="0 0 1920 1081" fill="none" xmlns="http://www.w3.org/2000/svg">
<rect y="0.895996" width="1920" height="1080" fill="black"/>
<path d="M668.062 754.328L667.535 753.695L667.025 754.121L667.333 754.709L668.062 754.328ZM741.306 693.291L742.038 692.916L741.569 692.001L740.779 692.659L741.306 693.291ZM927.467 826.554L927.376 827.372L928.29 827.474V826.554H927.467ZM927.467 565.115H928.29V564.447L927.637 564.31L927.467 565.115ZM927.467 167.362L927.533 168.182L928.29 168.121V167.362H927.467ZM927.467 70.7208V69.8976H926.644V70.7208H927.467ZM1001.73 70.7208H1002.55V69.8976H1001.73V70.7208ZM1001.73 168.379H1000.9V169.112L1001.63 169.197L1001.73 168.379ZM1223.49 307.745L1224.02 308.375L1224.52 307.958L1224.23 307.377L1223.49 307.745ZM1153.3 366.747L1152.57 367.12L1153.04 368.044L1153.83 367.377L1153.3 366.747ZM1001.73 249.761L1001.87 248.95L1000.9 248.782V249.761H1001.73ZM1001.73 491.871H1000.9V492.54L1001.56 492.677L1001.73 491.871ZM1001.73 908.953L1001.64 908.135L1000.9 908.216V908.953H1001.73ZM1001.73 1007.63V1008.45H1002.55V1007.63H1001.73ZM927.467 1007.63H926.644V1008.45H927.467V1007.63ZM927.467 909.97H928.29V909.216L927.539 909.15L927.467 909.97ZM927.467 475.595L927.293 476.4L928.29 476.615V475.595H927.467ZM927.467 247.726H928.29V246.813L927.382 246.907L927.467 247.726ZM1001.73 581.391L1001.92 580.591L1000.9 580.347V581.391H1001.73ZM1001.73 826.554H1000.9V827.491L1001.83 827.37L1001.73 826.554ZM668.062 754.328L668.589 754.96L741.833 693.924L741.306 693.291L740.779 692.659L667.535 753.695L668.062 754.328ZM741.306 693.291L740.573 693.667C781.381 773.242 844.682 818.184 927.376 827.372L927.467 826.554L927.558 825.736C845.453 816.613 782.613 772.036 742.038 692.916L741.306 693.291ZM927.467 826.554H928.29V565.115H927.467H926.644V826.554H927.467ZM927.467 565.115L927.637 564.31C872.18 552.608 816.125 538.898 773.929 511.148C731.807 483.445 703.473 441.736 703.473 373.868H702.65H701.826C701.826 442.314 730.46 484.53 773.025 512.523C815.517 540.468 871.87 554.225 927.297 565.921L927.467 565.115ZM702.65 373.868H703.473C703.473 257.454 801.659 178.333 927.533 168.182L927.467 167.362L927.401 166.541C800.991 176.735 701.826 256.309 701.826 373.868H702.65ZM927.467 167.362H928.29V70.7208H927.467H926.644V167.362H927.467ZM927.467 70.7208V71.544H1001.73V70.7208V69.8976H927.467V70.7208ZM1001.73 70.7208H1000.9V168.379H1001.73H1002.55V70.7208H1001.73ZM1001.73 168.379L1001.63 169.197C1106.19 181.379 1185.27 233.132 1222.76 308.113L1223.49 307.745L1224.23 307.377C1186.44 231.802 1106.82 179.794 1001.82 167.561L1001.73 168.379ZM1223.49 307.745L1222.96 307.115L1152.77 366.117L1153.3 366.747L1153.83 367.377L1224.02 308.375L1223.49 307.745ZM1153.3 366.747L1154.03 366.374C1122.4 304.128 1072.36 261.208 1001.87 248.95L1001.73 249.761L1001.59 250.572C1071.48 262.728 1121.13 305.259 1152.57 367.12L1153.3 366.747ZM1001.73 249.761H1000.9V491.871H1001.73H1002.55V249.761H1001.73ZM1001.73 491.871L1001.56 492.677C1057.52 504.378 1114.08 518.595 1156.65 547.738C1199.15 576.832 1227.76 620.83 1227.76 692.274H1228.58H1229.4C1229.4 620.283 1200.53 575.778 1157.58 546.379C1114.7 517.028 1057.84 502.762 1001.9 491.066L1001.73 491.871ZM1228.58 692.274H1227.76C1227.76 813.787 1129.55 893.922 1001.64 908.135L1001.73 908.953L1001.82 909.771C1130.26 895.5 1229.4 814.906 1229.4 692.274H1228.58ZM1001.73 908.953H1000.9V1007.63H1001.73H1002.55V908.953H1001.73ZM1001.73 1007.63V1006.81H927.467V1007.63V1008.45H1001.73V1007.63ZM927.467 1007.63H928.29V909.97H927.467H926.644V1007.63H927.467ZM927.467 909.97L927.539 909.15C811.785 898.997 714.412 841.131 668.792 753.946L668.062 754.328L667.333 754.709C713.267 842.495 811.21 900.599 927.395 910.79L927.467 909.97ZM792.17 367.764H791.346C791.346 401.642 806.517 424.772 831.127 441.435C855.682 458.061 889.641 468.259 927.293 476.4L927.467 475.595L927.641 474.791C890.014 466.655 856.325 456.508 832.05 440.072C807.832 423.674 792.993 401.027 792.993 367.764H792.17ZM927.467 475.595H928.29V247.726H927.467H926.644V475.595H927.467ZM927.467 247.726L927.382 246.907C848.834 255.068 791.346 300.027 791.346 367.764H792.17H792.993C792.993 301.222 849.439 256.661 927.552 248.545L927.467 247.726ZM1139.06 698.378H1139.88C1139.88 661.978 1124.48 637.07 1099.49 618.999C1074.55 600.969 1040.08 589.75 1001.92 580.591L1001.73 581.391L1001.54 582.192C1039.67 591.344 1073.87 602.505 1098.52 620.333C1123.12 638.122 1138.24 662.552 1138.24 698.378H1139.06ZM1001.73 581.391H1000.9V826.554H1001.73H1002.55V581.391H1001.73ZM1001.73 826.554L1001.83 827.37C1041.1 822.27 1075.61 809.257 1100.31 787.884C1125.03 766.492 1139.88 736.764 1139.88 698.378H1139.06H1138.24C1138.24 736.287 1123.59 765.561 1099.23 786.639C1074.85 807.738 1040.68 820.665 1001.62 825.738L1001.73 826.554Z" fill="white"/>
<path d="M747.625 372.234C747.625 599.128 1184.57 456.582 1184.57 696.743" stroke="#00E013" stroke-width="3.29267" stroke-dasharray="6.59 6.59"/>
<path d="M741.04 371.427C741.04 375.063 743.988 378.012 747.625 378.012C751.262 378.012 754.21 375.063 754.21 371.427C754.21 367.79 751.262 364.841 747.625 364.841C743.988 364.841 741.04 367.79 741.04 371.427ZM747.625 605.749L754.754 598.62L747.625 591.492L740.496 598.62L747.625 605.749ZM747.625 371.427H746.39V598.62H747.625H748.86V371.427H747.625Z" fill="#00E013"/>
<path d="M1190.49 697.4C1190.49 693.763 1187.54 690.815 1183.9 690.815C1180.27 690.815 1177.32 693.763 1177.32 697.4C1177.32 701.037 1180.27 703.986 1183.9 703.986C1187.54 703.986 1190.49 701.037 1190.49 697.4ZM1183.9 453.2L1176.77 460.329L1183.9 467.457L1191.03 460.329L1183.9 453.2ZM1183.9 697.4L1185.14 697.4L1185.14 460.329L1183.9 460.329L1182.67 460.329L1182.67 697.4L1183.9 697.4Z" fill="#00E013"/>
</svg>
