<svg width="64" height="36" viewBox="0 0 64 36" fill="none" xmlns="http://www.w3.org/2000/svg">
<path d="M7.61905 22.0004V14.2964H5.67505V12.4484H7.61905V8.77637H9.75505V12.4484H12.611V14.2964H9.75505V21.6644C9.75505 22.9844 10.403 23.2244 11.507 23.2244C12.011 23.2244 12.371 23.2004 12.875 23.0804V24.9284C12.323 25.0484 11.699 25.1204 10.979 25.1204C8.84305 25.1204 7.61905 24.4004 7.61905 22.0004Z" fill="var(--fg)"/>
<path d="M20.0484 26.3684C19.3284 28.2644 18.3444 29.4644 16.1604 29.4644C15.6324 29.4644 15.3684 29.4404 14.9844 29.3684V27.4964C15.3924 27.5924 15.6564 27.6164 16.0164 27.6164C16.9524 27.6164 17.4564 27.2804 17.9604 26.0324L18.5604 24.5444L13.9044 12.4484H16.1844L19.7124 22.0484L23.1924 12.4484H25.4484L20.0484 26.3684Z" fill="var(--fg)"/>
<path d="M33.6045 25.2644C31.8525 25.2644 30.4605 24.4244 29.7165 23.1764V29.3204H27.5565V12.4484H29.7165V14.2724C30.4605 13.0484 31.8525 12.2084 33.6045 12.2084C37.0845 12.2084 39.0765 15.1604 39.0765 18.7364C39.0765 22.2884 37.0845 25.2644 33.6045 25.2644ZM29.6685 18.3044V19.1924C29.6685 22.0724 31.4445 23.3684 33.2205 23.3684C35.5725 23.3684 36.8925 21.4244 36.8925 18.7364C36.8925 16.0244 35.5725 14.1044 33.2205 14.1044C31.4445 14.1044 29.6685 15.3764 29.6685 18.3044Z" fill="var(--fg)"/>
<path d="M46.8225 25.2644C43.3425 25.2644 40.9425 22.6004 40.9425 18.7364C40.9425 14.9924 43.3185 12.2084 46.7265 12.2084C50.2305 12.2084 52.0785 14.8724 52.0785 18.3524V19.0724H43.0065C43.1265 21.7124 44.6385 23.3924 46.8225 23.3924C48.5025 23.3924 49.7025 22.4804 50.0865 20.9924L51.9825 21.6644C51.2145 23.8964 49.3185 25.2644 46.8225 25.2644ZM46.7025 14.0564C44.8785 14.0564 43.5105 15.2804 43.1265 17.4164H49.8945C49.8465 15.6404 48.8865 14.0564 46.7025 14.0564Z" fill="var(--fg)"/>
<path d="M52.983 22L48.983 20.5" stroke="#FF00FF" stroke-width="0.25"/>
<circle cx="7.48303" cy="25" r="3" stroke="#FF00FF" stroke-width="0.25"/>
<path d="M26.583 30V31H30.583V30" stroke="#FF00FF" stroke-width="0.25"/>
<path d="M54.483 17V20H57.483" stroke="#FF00FF" stroke-width="0.25"/>
<path d="M54.483 20C55.983 18.5 60.483 14 57.983 7.5" stroke="#FF00FF" stroke-width="0.25"/>
</svg>
