<svg width="24" height="24" viewBox="0 0 24 24" fill="none" xmlns="http://www.w3.org/2000/svg">
<path fill-rule="evenodd" clip-rule="evenodd" d="M11 12C11.2652 12 11.5196 12.1054 11.7071 12.2929C11.8946 12.4804 12 12.7348 12 13V20C12 20.2652 11.8946 20.5196 11.7071 20.7071C11.5196 20.8946 11.2652 21 11 21H4C3.73478 21 3.48043 20.8946 3.29289 20.7071C3.10536 20.5196 3 20.2652 3 20V13C3 12.7348 3.10536 12.4804 3.29289 12.2929C3.48043 12.1054 3.73478 12 4 12H11ZM5 19H10V14H5V19Z" fill="black"/>
<path d="M21 20C21 20.2652 20.8946 20.5196 20.7071 20.7071C20.5196 20.8946 20.2652 21 20 21H15V19H19V15H21V20ZM15.5 12C15.8978 12 16.2794 12.158 16.5607 12.4393C16.842 12.7206 17 13.1022 17 13.5C17 13.8978 16.842 14.2794 16.5607 14.5607C16.2794 14.842 15.8978 15 15.5 15C15.1022 15 14.7206 14.842 14.4393 14.5607C14.158 14.2794 14 13.8978 14 13.5C14 13.1022 14.158 12.7206 14.4393 12.4393C14.7206 12.158 15.1022 12 15.5 12ZM10.5 7C10.8978 7 11.2794 7.15804 11.5607 7.43934C11.842 7.72064 12 8.10218 12 8.5C12 8.89782 11.842 9.27936 11.5607 9.56066C11.2794 9.84196 10.8978 10 10.5 10C10.1022 10 9.72064 9.84196 9.43934 9.56066C9.15804 9.27936 9 8.89782 9 8.5C9 8.10218 9.15804 7.72064 9.43934 7.43934C9.72064 7.15804 10.1022 7 10.5 7Z" fill="black"/>
<path fill-rule="evenodd" clip-rule="evenodd" d="M20 3C20.2652 3 20.5196 3.10536 20.7071 3.29289C20.8946 3.48043 21 3.73478 21 4V9C21 9.26522 20.8946 9.51957 20.7071 9.70711C20.5196 9.89464 20.2652 10 20 10H15C14.7348 10 14.4804 9.89464 14.2929 9.70711C14.1054 9.51957 14 9.26522 14 9V4C14 3.73478 14.1054 3.48043 14.2929 3.29289C14.4804 3.10536 14.7348 3 15 3H20ZM16 8H19V5H16V8Z" fill="black"/>
<path d="M9 5H5V9H3V4C3 3.73478 3.10536 3.48043 3.29289 3.29289C3.48043 3.10536 3.73478 3 4 3H9V5Z" fill="black"/>
</svg>
