<svg width="24" height="24" viewBox="0 0 24 24" fill="none" xmlns="http://www.w3.org/2000/svg">
<path d="M9.5 12C10.8807 12 12 13.1193 12 14.5V18.5C12 19.8807 10.8807 21 9.5 21H5.5C4.11929 21 3 19.8807 3 18.5V14.5C3 13.1193 4.11929 12 5.5 12H9.5ZM20 15C20.5523 15 21 15.4477 21 16V18.5C21 19.8807 19.8807 21 18.5 21H16C15.4477 21 15 20.5523 15 20C15 19.4477 15.4477 19 16 19H18.5C18.7761 19 19 18.7761 19 18.5V16C19 15.4477 19.4477 15 20 15ZM5.5 14C5.22386 14 5 14.2239 5 14.5V18.5C5 18.7761 5.22386 19 5.5 19H9.5C9.77614 19 10 18.7761 10 18.5V14.5C9.99999 14.2239 9.77614 14 9.5 14H5.5ZM16 12C16.5523 12 17 12.4477 17 13V14C17 14.5523 16.5523 15 16 15H15C14.4477 15 14 14.5523 14 14V13C14 12.4477 14.4477 12 15 12H16ZM11 7C11.5523 7 12 7.44772 12 8V9C12 9.55228 11.5523 10 11 10H10C9.44772 10 9 9.55228 9 9V8C9 7.44772 9.44772 7 10 7H11ZM18.5 3C19.8807 3 21 4.11929 21 5.5V7.5C21 8.88071 19.8807 10 18.5 10H16.5C15.1193 10 14 8.88071 14 7.5V5.5C14 4.11929 15.1193 3 16.5 3H18.5ZM8 3C8.55226 3 8.99996 3.44775 9 4C9 4.55228 8.55228 5 8 5H5.5C5.22388 5 5.00004 5.22389 5 5.5V8C5 8.55228 4.55228 9 4 9C3.44772 9 3 8.55228 3 8V5.5C3.00004 4.11932 4.11931 3 5.5 3H8ZM16.5 5C16.2239 5 16 5.22386 16 5.5V7.5C16 7.77614 16.2239 8 16.5 8H18.5C18.7761 8 19 7.77614 19 7.5V5.5C19 5.22386 18.7761 5 18.5 5H16.5Z" fill="black"/>
</svg>
