<svg width="24" height="24" viewBox="0 0 24 24" fill="none" xmlns="http://www.w3.org/2000/svg">
<path d="M10 15C10 13.9391 9.57857 12.9217 8.82843 12.1716C8.07828 11.4214 7.06087 11 6 11C4.93913 11 3.92172 11.4214 3.17157 12.1716C2.42143 12.9217 2 13.9391 2 15C2 16.0609 2.42143 17.0783 3.17157 17.8284C3.92172 18.5786 4.93913 19 6 19C7.06087 19 8.07828 18.5786 8.82843 17.8284C9.57857 17.0783 10 16.0609 10 15Z" stroke="#FF00FF" stroke-width="2" stroke-linejoin="round"/>
<path d="M22 15C22 13.9391 21.5786 12.9217 20.8284 12.1716C20.0783 11.4214 19.0609 11 18 11C16.9391 11 15.9217 11.4214 15.1716 12.1716C14.4214 12.9217 14 13.9391 14 15C14 16.0609 14.4214 17.0783 15.1716 17.8284C15.9217 18.5786 16.9391 19 18 19C19.0609 19 20.0783 18.5786 20.8284 17.8284C21.5786 17.0783 22 16.0609 22 15Z" stroke="#FF00FF" stroke-width="2" stroke-linejoin="round"/>
<path d="M9 8L6 15H12M9 8H15M9 8L12 15M15 8L18 15M15 8L12 15" stroke="#FF00FF" stroke-width="2" stroke-linejoin="round"/>
<path d="M8 5H12M9 8V5" stroke="#FF00FF" stroke-width="2" stroke-linejoin="round"/>
<path d="M15 8L16 5H21" stroke="#FF00FF" stroke-width="2" stroke-linejoin="round"/>
<path d="M13 15C13 14.7348 12.8946 14.4804 12.7071 14.2929C12.5196 14.1054 12.2652 14 12 14C11.7348 14 11.4804 14.1054 11.2929 14.2929C11.1054 14.4804 11 14.7348 11 15C11 15.2652 11.1054 15.5196 11.2929 15.7071C11.4804 15.8946 11.7348 16 12 16C12.2652 16 12.5196 15.8946 12.7071 15.7071C12.8946 15.5196 13 15.2652 13 15Z" fill="#FF00FF"/>
<path d="M7 15C7 14.7348 6.89464 14.4804 6.70711 14.2929C6.51957 14.1054 6.26522 14 6 14C5.73478 14 5.48043 14.1054 5.29289 14.2929C5.10536 14.4804 5 14.7348 5 15C5 15.2652 5.10536 15.5196 5.29289 15.7071C5.48043 15.8946 5.73478 16 6 16C6.26522 16 6.51957 15.8946 6.70711 15.7071C6.89464 15.5196 7 15.2652 7 15Z" fill="#FF00FF"/>
</svg>
