<svg width="24" height="24" viewBox="0 0 24 24" fill="none" xmlns="http://www.w3.org/2000/svg">
<path d="M5.5 10C6.56087 10 7.57828 10.4214 8.32843 11.1716C9.07857 11.9217 9.5 12.9391 9.5 14C9.5 15.0609 9.07857 16.0783 8.32843 16.8284C7.57828 17.5786 6.56087 18 5.5 18C4.43913 18 3.42172 17.5786 2.67157 16.8284C1.92143 16.0783 1.5 15.0609 1.5 14C1.5 12.9391 1.92143 11.9217 2.67157 11.1716C3.42172 10.4214 4.43913 10 5.5 10Z" stroke="#FF00FF" stroke-width="2" stroke-linejoin="round"/>
<path d="M15.5 10C16.5609 10 17.5783 10.4214 18.3284 11.1716C19.0786 11.9217 19.5 12.9391 19.5 14C19.5 15.0609 19.0786 16.0783 18.3284 16.8284C17.5783 17.5786 16.5609 18 15.5 18C14.4391 18 13.4217 17.5786 12.6716 16.8284C11.9214 16.0783 11.5 15.0609 11.5 14C11.5 12.9391 11.9214 11.9217 12.6716 11.1716C13.4217 10.4214 14.4391 10 15.5 10Z" stroke="#FF00FF" stroke-width="2" stroke-linejoin="round"/>
<path d="M9.5 7L5.5 14H10.5M9.5 7L13.5 9M9.5 7L10.5 14M10.5 14L13.5 9M10.5 14H15.5L13.5 9" stroke="#FF00FF" stroke-width="2" stroke-linejoin="round"/>
<path d="M13.5 9L14.5 6H18.5" stroke="#FF00FF" stroke-width="2" stroke-linejoin="round"/>
<path d="M8.5 6H11.5" stroke="#FF00FF" stroke-width="2" stroke-linejoin="round"/>
<path d="M10.5 14L13.5 15H14.5" stroke="#FF00FF" stroke-width="2" stroke-linejoin="round"/>
<path d="M11.5 14C11.5 14.2652 11.3946 14.5196 11.2071 14.7071C11.0196 14.8946 10.7652 15 10.5 15C10.2348 15 9.98043 14.8946 9.79289 14.7071C9.60536 14.5196 9.5 14.2652 9.5 14C9.5 13.7348 9.60536 13.4804 9.79289 13.2929C9.98043 13.1054 10.2348 13 10.5 13C10.7652 13 11.0196 13.1054 11.2071 13.2929C11.3946 13.4804 11.5 13.7348 11.5 14Z" fill="#FF00FF"/>
</svg>
