<svg width="24" height="24" viewBox="0 0 24 24" fill="none" xmlns="http://www.w3.org/2000/svg">
<g clip-path="url(#clip0_6_179)">
<path d="M17.7279 0.570984C18.5385 -0.155978 19.7733 0.66987 19.4144 1.69305C19.2332 2.19293 18.9424 2.74048 18.6918 3.21844C18.3491 3.872 18.0345 4.64738 17.639 5.26532C18.281 5.83331 19.1661 7.61062 19.3285 8.46844C19.6688 10.2666 19.3708 12.2813 18.6517 13.9567C18.4945 14.3231 18.334 14.7529 18.1156 15.0856C17.7716 15.7175 17.3647 16.3133 16.9017 16.864C15.7531 18.2159 14.2031 19.3189 12.3998 19.447C10.8357 19.5581 9.43435 18.9615 8.2572 17.9645C6.23312 16.25 4.95 13.6501 4.6322 11.0368C4.56304 10.4393 4.56 9.45452 4.64978 8.87469C4.85026 7.58044 5.54909 6.25417 6.39685 5.26825C6.35293 5.13543 6.10451 4.67492 6.02478 4.51825L5.16931 2.80927C4.99177 2.45756 4.73749 2.02839 4.62634 1.65985C4.42001 0.975222 4.83594 0.474604 5.46716 0.298523C5.72024 0.284079 5.93383 0.312959 6.15466 0.447937C6.44838 0.627471 8.46748 2.65023 8.69958 2.9704C8.75925 3.05269 8.77869 3.1941 8.80212 3.29266C9.29892 3.06703 9.63937 2.84629 10.1976 2.69989C12.0149 2.22349 13.594 2.40447 15.2162 3.28583C15.5147 2.60284 16.2212 2.11148 16.725 1.56708C17.0386 1.22821 17.3835 0.879925 17.7279 0.570984ZM15.1234 5.75946C14.1788 4.98514 12.8715 4.43865 11.6469 4.59637C10.5766 4.69705 9.63901 5.16432 8.81384 5.84735C8.53174 6.59951 8.1956 6.42272 7.7572 6.9704C6.25356 8.84895 6.55772 11.329 7.48181 13.3923C8.18391 14.9596 9.39819 16.5268 11.0424 17.1735C11.481 17.3446 12.0019 17.3443 12.4633 17.3015C13.6885 17.132 14.8682 16.0621 15.5922 15.0856C16.8142 13.4374 17.5456 11.2167 17.2806 9.15497C17.1922 8.46761 16.5992 7.18898 16.0463 6.70575C15.9085 6.58536 15.6293 6.47794 15.4769 6.28876C15.3463 6.12653 15.2574 5.86927 15.1234 5.75946Z" fill="#FE00FE"/>
<path d="M12.0367 9.52303C12.7668 8.50308 14.0459 8.13054 15.2027 8.63046C15.8022 8.88818 16.2746 9.3739 16.5162 9.98006C16.7249 10.5114 16.7272 11.4939 16.4781 12.0152C16.0929 12.8205 15.6547 13.1049 14.8775 13.4078C14.9126 13.4379 14.9475 13.4696 14.98 13.5025C15.1453 13.6713 15.2461 13.9403 15.2369 14.1754C15.2199 14.5955 14.9742 14.8328 14.6949 15.0973C14.0256 15.6404 13.3785 15.8895 12.5191 15.9713C11.4201 16.0763 10.2722 15.8492 9.40289 15.1373C8.76555 14.6153 8.61118 14.0549 9.16461 13.3932C8.87297 13.2815 8.59214 13.1915 8.34528 12.9937C6.58192 11.5806 7.29108 8.72885 9.57574 8.42831C9.66534 8.41343 10.0457 8.40788 10.1402 8.41952C11.0461 8.53287 11.4807 8.87732 12.0367 9.52303ZM13.9664 10.5572C13.8456 10.6476 13.78 10.7436 13.7593 10.898C13.7447 11.0082 13.7747 11.1203 13.8433 11.2076C13.9842 11.3881 14.1526 11.3808 14.3541 11.3297C14.7154 11.1489 14.6707 10.6863 14.2925 10.5572C14.2169 10.5314 14.049 10.5478 13.9664 10.5572Z" fill="#FE00FE"/>
<path d="M9.73297 10.5643C9.87396 10.5075 10.0346 10.5314 10.1529 10.6268C10.2712 10.7223 10.3291 10.8744 10.3033 11.0243C10.2774 11.1741 10.1723 11.2981 10.0289 11.3485C9.81399 11.4238 9.57812 11.3143 9.49762 11.1014C9.4173 10.8882 9.52175 10.6496 9.73297 10.5643Z" fill="white"/>
<path d="M10.9512 13.2422C11.0151 13.2644 11.2059 13.5563 11.3057 13.6289C11.4476 13.7322 11.5837 13.7787 11.7148 13.8867C11.6417 13.908 11.5837 13.877 11.499 13.8555C11.1794 13.757 10.9139 13.5997 10.6426 13.4082C10.7446 13.3515 10.8476 13.2959 10.9512 13.2422Z" fill="white"/>
<path d="M13.4297 13.4189C13.1264 13.6064 12.939 13.7114 12.6074 13.8389C12.5077 13.8662 12.4033 13.8913 12.3027 13.917C12.6272 13.6736 12.8622 13.6335 13.0664 13.2285C13.1519 13.2652 13.3405 13.3715 13.4297 13.4189Z" fill="#FFF2FF"/>
</g>
<defs>
<clipPath id="clip0_6_179">
<rect width="24" height="24" fill="white"/>
</clipPath>
</defs>
</svg>
