<svg width="24" height="24" viewBox="0 0 24 24" fill="none" xmlns="http://www.w3.org/2000/svg">
<path d="M12 21C15 21 18 19 19 16C20 13 19 10 18 8L17 3L15 8C14 6 10 6 9 8L7 3L6 8C5 10 4 13 5 16C6 19 9 21 12 21Z" stroke="#FF00FF" stroke-width="2" stroke-linejoin="round"/>
<path d="M10.5 13.5L12 15L13.5 13.5" stroke="#FF00FF" stroke-width="2" stroke-linejoin="round"/>
<path d="M10 18C11 18 12 17 12 16C12 17 13 18 14 18" stroke="#FF00FF" stroke-width="2" stroke-linejoin="round"/>
<path d="M7 14H10M7 17H10M14 14H17M14 17H17" stroke="#FF00FF" stroke-width="2" stroke-linejoin="round"/>
</svg>
