<svg width="24" height="24" viewBox="0 0 24 24" fill="none" xmlns="http://www.w3.org/2000/svg">
<path d="M6 9H14L15 7H17L18 5L19 7L18 8L21 10V12H18L16 14H14L13 13H8L7 14V19H9V15H11V19H13V14L14 13H6V9Z" stroke="#FF00FF" stroke-width="2" stroke-linejoin="round"/>
<path d="M6 10L3 8L4 11" stroke="#FF00FF" stroke-width="2" stroke-linejoin="round"/>
<path d="M18 10C18 10.2652 17.8946 10.5196 17.7071 10.7071C17.5196 10.8946 17.2652 11 17 11C16.7348 11 16.4804 10.8946 16.2929 10.7071C16.1054 10.5196 16 10.2652 16 10C16 9.73478 16.1054 9.48043 16.2929 9.29289C16.4804 9.10536 16.7348 9 17 9C17.2652 9 17.5196 9.10536 17.7071 9.29289C17.8946 9.48043 18 9.73478 18 10Z" fill="#FF00FF"/>
</svg>
