<svg width="24" height="24" viewBox="0 0 24 24" fill="none" xmlns="http://www.w3.org/2000/svg">
<g clip-path="url(#clip0_6_169)">
<g clip-path="url(#clip1_6_169)">
<path d="M7.93854 3.70598C8.89614 3.58848 9.71681 4.07457 10.4239 4.66008C10.6912 4.45832 10.8824 4.37445 11.2051 4.27629C11.933 4.05505 12.6313 4.02306 13.3721 4.19426C14.4146 4.43523 15.3443 4.88859 15.9151 5.82805C16.4502 6.70893 16.5189 7.72652 16.2833 8.7177C16.1062 9.45276 15.6523 10.2745 14.9903 10.6728C14.3722 11.0445 13.7087 10.9264 13.0469 10.7626C13.0508 12.689 11.9521 14.428 10.3546 15.455C10.0022 15.6815 9.58646 15.8544 9.19928 16.0146C7.70733 16.4981 6.72793 16.2957 5.35065 15.6572C4.38379 15.9674 3.93434 16.2156 2.86139 15.7782C1.94354 15.3957 1.21075 14.6703 0.820374 13.7558C0.426047 12.8092 0.451283 11.5933 1.1524 10.7929C1.52238 10.3706 1.95225 10.1533 2.461 9.94426C2.66105 8.86722 3.35642 7.8055 4.14948 7.07024C4.34607 6.88804 4.63937 6.68399 4.79401 6.49504C4.93529 6.2971 4.99889 6.00776 5.11334 5.80071C5.66957 4.79472 6.77492 3.84779 7.93854 3.70598ZM5.31061 8.94231C5.08883 9.21222 4.91107 9.44329 4.7735 9.76848C5.65776 10.496 6.96946 11.8458 7.03326 13.0107C7.05538 13.4164 7.01106 13.6387 6.90533 14.0302C7.33767 14.1091 7.64037 14.1701 8.08209 14.0927C8.88657 13.9517 9.53844 13.49 10.0743 12.8925C10.994 11.7334 11.1158 10.9045 10.5196 9.57708C10.0226 10.1308 9.13889 10.611 8.37604 10.6445C7.47523 10.6839 6.75106 10.3205 6.07526 9.74602C5.9418 9.63249 5.37512 8.97814 5.31061 8.94231Z" fill="#FE00FE"/>
<path d="M12.2109 6.24286C12.8202 6.18703 13.4614 6.36363 13.9365 6.74775C14.3898 7.11417 14.3232 8.40033 13.9648 8.75751C13.8897 8.78181 13.786 8.73904 13.707 8.71454C13.2969 8.60091 12.9338 8.45672 12.5488 8.27997C12.122 8.08402 11.9591 7.9246 11.6904 7.5456C11.7028 7.141 11.6929 6.78263 11.5898 6.39032C11.8095 6.33053 11.9878 6.28566 12.2109 6.24286Z" fill="white"/>
<path d="M7.44824 7.71912C7.79719 7.68228 8.56306 7.76035 8.82324 8.05701C8.9482 8.19964 8.67898 8.34611 8.57324 8.4076C8.23831 8.55949 7.96167 8.49569 7.66699 8.27967C7.53757 8.1848 7.21635 7.927 7.19043 7.77088C7.23857 7.73132 7.37748 7.7266 7.44824 7.71912Z" fill="white"/>
</g>
</g>
<defs>
<clipPath id="clip0_6_169">
<rect width="24" height="24" fill="white"/>
</clipPath>
<clipPath id="clip1_6_169">
<rect width="26" height="26" fill="white" transform="translate(-1 -1)"/>
</clipPath>
</defs>
</svg>
