<svg width="24" height="24" viewBox="0 0 24 24" fill="none" xmlns="http://www.w3.org/2000/svg">
<path d="M6.5 2.5L8.75 6.5M4 6.5H10M5 6.5L6.25 12.5H7.75L9 6.5M3 12C7 6.5 17 6.5 21 12M4 14.5C4.66667 14 5.33333 14 6 14.5C6.66667 15 7.33333 15 8 14.5C8.66667 14 9.33333 14 10 14.5C10.6667 15 11.3333 15 12 14.5C12.6667 14 13.3333 14 14 14.5C14.6667 15 15.3333 15 16 14.5C16.6667 14 17.3333 14 18 14.5C18.6667 15 19.3333 15 20 14.5M5 17C9.66667 18.5 14.3333 18.5 19 17" stroke="#FF00FF" stroke-width="2" stroke-linejoin="round"/>
</svg>
