<svg width="24" height="24" viewBox="0 0 24 24" fill="none" xmlns="http://www.w3.org/2000/svg">
<g clip-path="url(#clip0_6_185)">
<g clip-path="url(#clip1_6_185)">
<path d="M11.8958 0.12951C15.8459 0.101545 19.6476 1.63454 22.473 4.39513C23.294 5.19225 24.0115 6.09023 24.6077 7.06701C24.7422 7.2846 24.9001 7.51226 24.9886 7.75353C25.0549 7.93445 25.063 8.13595 25.0648 8.32678C25.08 10.0194 25.0564 11.715 25.0579 13.4078C25.0585 13.9999 25.1291 16.2782 24.9954 16.7106C24.918 16.9611 24.764 17.1968 24.6302 17.4205C24.1506 18.2224 23.6148 18.9619 22.9564 19.6276C21.6885 20.9101 20.1163 21.8511 18.387 22.3629C17.8921 22.5056 17.4087 22.5765 16.9105 22.691C16.6159 22.783 16.3273 23.0033 16.0589 23.1383C14.9189 23.707 13.4247 23.8269 12.1595 23.8268C10.6698 23.8267 8.96557 23.7127 7.69366 22.8737C7.36063 22.654 6.94112 22.6143 6.55695 22.5387C6.2744 22.481 5.99458 22.4106 5.71808 22.3287C2.998 21.5389 0.334035 19.2909 -0.815125 16.6862L-0.842468 16.4869C-0.875633 13.7664 -0.82351 11.0381 -0.849304 8.31701C-0.85276 7.95235 -0.813816 7.7896 -0.639343 7.47033C-0.054692 6.40053 0.69252 5.4562 1.5423 4.58556C4.28273 1.8106 7.99664 0.211933 11.8958 0.12951ZM20.6976 5.68713C18.1958 3.36455 14.8653 2.14586 11.4554 2.30529C8.08515 2.50399 4.92887 4.02269 2.6712 6.53283C1.10466 8.26712 0.173851 10.2618 0.282532 12.4391C0.49868 16.7676 3.87285 20.2523 8.15656 20.6324C8.45339 20.6588 8.92257 21.158 9.2171 21.2613C10.21 21.6786 11.7005 21.7044 12.762 21.6588C13.7629 21.6268 14.8636 21.497 15.6321 20.8375C16.0409 20.4867 16.8592 20.5889 17.3577 20.4069C19.0416 19.9965 20.4167 19.1773 21.598 17.9176C23.1618 16.2532 23.9979 14.0341 23.9222 11.7516C23.8414 9.38916 22.3787 7.24983 20.6976 5.68713Z" fill="#FE00FE"/>
<path d="M7.73548 8.76813C8.90503 8.73447 9.8823 9.65139 9.9232 10.8207C9.96408 11.99 9.05326 12.9729 7.88423 13.021C6.70495 13.0696 5.71147 12.149 5.67021 10.9694C5.62895 9.78986 6.55568 8.80209 7.73548 8.76813Z" fill="#FE00FE"/>
<path d="M15.2417 8.77128C16.4143 8.72066 17.4063 9.62932 17.4585 10.8019C17.5108 11.9744 16.6035 12.9676 15.431 13.0215C14.2563 13.0755 13.2607 12.166 13.2083 10.9912C13.156 9.81638 14.0668 8.822 15.2417 8.77128Z" fill="#FE00FE"/>
<path d="M12.0618 14.6565C12.4126 14.6902 12.6893 15.0192 12.9974 15.1776C13.9552 15.6701 15.2324 15.549 16.0284 14.808C16.2787 15.0723 16.5375 15.3284 16.8045 15.5759C15.4684 16.7927 13.6678 16.8167 12.1451 15.9392C12.0221 15.9339 11.486 16.2494 11.223 16.339C10.8933 16.4533 10.5493 16.5209 10.2009 16.5399C9.10394 16.5973 8.21349 16.3008 7.40179 15.5679C7.67266 15.3324 7.93076 15.0625 8.18415 14.8069C8.90556 15.5804 10.3764 15.6491 11.2659 15.1488C11.551 14.9884 11.7391 14.7788 12.0618 14.6565Z" fill="#FE00FE"/>
<path d="M-0.842346 16.4868L-0.815112 16.6866C-0.93692 17.0204 -0.838359 23.9693 -0.854741 24.9346L16.3859 24.9293L22.1376 24.9305L24.009 24.9284C24.3346 24.928 24.7495 24.9159 25.0674 24.935L25.0694 19.9819C25.0694 19.3197 25.0335 18.1531 25.0742 17.544C25.069 17.2909 25.0339 16.8144 25.1226 16.5957C25.2119 16.7093 25.1833 23.9147 25.1765 24.6396C25.1839 24.7849 25.1941 24.93 25.2073 25.0748C24.545 25.0539 23.7922 25.0698 23.1246 25.0696L19.1827 25.0695L7.38149 25.0698L1.61455 25.0691L-0.0083534 25.0684C-0.277643 25.0685 -0.765015 25.0565 -1.01721 25.0983C-0.963038 24.3928 -0.988074 23.5073 -0.987913 22.7842C-0.996034 21.3002 -0.991129 19.816 -0.973194 18.332C-0.962401 17.7847 -0.98861 17.2029 -0.950469 16.657C-0.944046 16.5651 -0.910292 16.5553 -0.842346 16.4868Z" fill="#B7BDC9"/>
</g>
</g>
<defs>
<clipPath id="clip0_6_185">
<rect width="24" height="24" fill="white"/>
</clipPath>
<clipPath id="clip1_6_185">
<rect width="28" height="28" fill="white" transform="translate(-2 -2)"/>
</clipPath>
</defs>
</svg>
