<svg width="24" height="24" viewBox="0 0 24 24" fill="none" xmlns="http://www.w3.org/2000/svg">
<g clip-path="url(#clip0_6_183)">
<g clip-path="url(#clip1_6_183)">
<path d="M13.8083 10.7572C13.4122 11.1233 12.6943 11.5106 12.1854 11.7044C8.74929 13.0132 5.05827 10.3676 5.21432 6.68145C5.27923 5.30751 5.88596 4.0153 6.90162 3.08774C8.79 1.36555 11.9304 1.28486 13.8043 3.06269C14.074 2.84676 14.3409 2.62418 14.6403 2.43718C15.7995 1.71323 17.4528 1.6365 18.749 1.95998C19.7444 2.20834 20.6695 2.98687 21.315 3.74763C22.1317 4.72585 22.4631 6.23006 22.3224 7.47373C22.1907 8.63825 21.8475 9.50283 21.0297 10.3667C20.8745 10.5306 20.5524 10.8797 20.3809 10.9988C19.5622 11.5668 18.4783 12.0048 17.4891 12.0362C17.371 12.1037 17.2131 12.0241 17.0863 12.09C17.0758 12.1383 17.0714 12.1229 17.0842 12.1643C16.6153 12.1229 16.3665 12.0521 15.8454 12.0524C15.9931 12.0141 16.0542 12.0269 16.1583 11.926C15.3877 11.7221 14.3786 11.329 13.8083 10.7572Z" fill="#FE00FE"/>
<path d="M16.1584 11.926C16.6279 11.9954 17.0139 12.0318 17.4891 12.0362C17.371 12.1037 17.2131 12.0241 17.0863 12.09C17.0758 12.1383 17.0714 12.1229 17.0842 12.1643C16.6154 12.1229 16.3665 12.0521 15.8455 12.0524C15.9931 12.0141 16.0542 12.0269 16.1584 11.926Z" fill="#FFB6FF"/>
<path d="M15.8454 12.0524C16.3665 12.0521 16.6154 12.1229 17.0842 12.1643C17.4984 12.2565 17.7957 12.4597 18.1457 12.5872C18.3824 12.6735 19.2132 12.634 19.5132 12.6312C19.5077 13.0055 19.4799 13.5055 19.5332 13.8714C19.5782 14.1062 19.7251 14.3132 19.8095 14.533C20.8145 17.1474 19.1047 19.919 16.2945 20.0507C15.201 20.1102 14.1297 19.7261 13.3232 18.9853C13.1755 19.8245 13.2262 21.416 13.2287 22.3243C12.887 22.3072 12.4452 22.3206 12.0878 22.314C12.0652 21.1079 12.0873 19.8477 12.101 18.6394C12.0517 18.3566 12.3066 17.5442 12.2581 17.3324C11.6284 14.5811 12.976 12.3821 15.8454 12.0524Z" fill="#FE00FE"/>
<path d="M-2 -2H-1.60684H26V-1.86054C23.2196 -1.83319 20.4389 -1.82592 17.6584 -1.83873L4.56778 -1.83746L0.218122 -1.83576C-0.0971265 -1.83562 -1.66574 -1.81222 -1.83588 -1.86777C-1.82866 -1.73819 -1.82681 -1.37544 -1.80972 -1.28062L-1.81005 -1.25535C-1.86187 -0.801286 -1.82518 0.488864 -1.82521 1.00316L-1.82633 5.73954L-1.83057 19.0574L-1.83225 23.4732C-1.83288 24.2742 -1.81344 25.2114 -1.84937 26H-2V-2Z" fill="white"/>
</g>
</g>
<defs>
<clipPath id="clip0_6_183">
<rect width="24" height="24" fill="white"/>
</clipPath>
<clipPath id="clip1_6_183">
<rect width="28" height="28" fill="white" transform="translate(-2 -2)"/>
</clipPath>
</defs>
</svg>
