<svg width="24" height="24" viewBox="0 0 24 24" fill="none" xmlns="http://www.w3.org/2000/svg">
<path d="M10 10.4999C11.933 10.4999 13.5 12.067 13.5 13.9999V18.9999C13.5 20.9329 11.933 22.4999 10 22.4999H5C3.067 22.4999 1.5 20.9329 1.5 18.9999V13.9999C1.50003 12.067 3.06703 10.4999 5 10.4999H10ZM21 14.4999C21.8284 14.4999 22.5 15.1715 22.5 15.9999V18.9999C22.4998 20.9328 20.9329 22.4999 19 22.4999H16C15.1717 22.4999 14.5002 21.8282 14.5 20.9999C14.5 20.1715 15.1716 19.4999 16 19.4999H19C19.276 19.4999 19.4998 19.2759 19.5 18.9999V15.9999C19.5 15.1716 20.1717 14.5001 21 14.4999ZM5 13.4999C4.72388 13.4999 4.50003 13.7238 4.5 13.9999V18.9999C4.5 19.2761 4.72386 19.4999 5 19.4999H10C10.2761 19.4999 10.5 19.2761 10.5 18.9999V13.9999C10.5 13.7238 10.2761 13.4999 10 13.4999H5ZM8 14.9999C8.55226 14.9999 8.99996 15.4477 9 15.9999V16.9999C9 17.5522 8.55229 17.9999 8 17.9999H7C6.44772 17.9999 6 17.5522 6 16.9999V15.9999C6.00003 15.4477 6.44774 14.9999 7 14.9999H8ZM17 11.9999C17.5523 11.9999 18 12.4477 18 12.9999V13.9999C18 14.5522 17.5523 14.9999 17 14.9999H16C15.4477 14.9999 15 14.5522 15 13.9999V12.9999C15 12.4477 15.4477 11.9999 16 11.9999H17ZM19 1.49994C20.933 1.49994 22.5 3.06697 22.5 4.99994V6.99994C22.5 8.93294 20.933 10.4999 19 10.4999H17C15.067 10.4999 13.5 8.93294 13.5 6.99994V4.99994C13.5 3.06697 15.067 1.49994 17 1.49994H19ZM8 1.49994C8.82841 1.49994 9.49997 2.17154 9.5 2.99994C9.49997 3.82834 8.82841 4.49994 8 4.49994H5C4.72388 4.49994 4.50003 4.72382 4.5 4.99994V7.99994C4.5 8.82837 3.82843 9.49994 3 9.49994C2.17157 9.49994 1.5 8.82837 1.5 7.99994V4.99994C1.50003 3.06697 3.06702 1.49994 5 1.49994H8ZM11 5.99994C11.5523 5.99994 12 6.44768 12 6.99994V7.99994C12 8.55222 11.5523 8.99994 11 8.99994H10C9.44772 8.99994 9 8.55222 9 7.99994V6.99994C9.00003 6.44768 9.44774 5.99994 10 5.99994H11ZM17 4.49994C16.7239 4.49994 16.5 4.72382 16.5 4.99994V6.99994C16.5 7.27608 16.7239 7.49994 17 7.49994H19C19.2761 7.49994 19.5 7.27608 19.5 6.99994V4.99994C19.5 4.72382 19.2761 4.49994 19 4.49994H17Z" fill="#4E6F64"/>
</svg>
