<svg width="24" height="24" viewBox="0 0 24 24" fill="none" xmlns="http://www.w3.org/2000/svg">
<path fill-rule="evenodd" clip-rule="evenodd" d="M5.11501 5.115C6.40778 3.82169 8.14309 3.06702 9.97062 3.00334C11.7982 2.93966 13.5818 3.57171 14.9614 4.7719C16.3411 5.97209 17.214 7.65103 17.404 9.46977C17.594 11.2885 17.0869 13.1116 15.985 14.571L21.207 19.793L19.793 21.207L14.571 15.985C13.1116 17.0869 11.2885 17.594 9.46978 17.404C7.65103 17.214 5.9721 16.3411 4.77191 14.9614C3.57172 13.5818 2.93967 11.7981 3.00335 9.97061C3.06703 8.14308 3.8217 6.40777 5.11501 5.115ZM13.915 6.529C12.9354 5.54955 11.6069 4.99936 10.2217 4.99946C8.83642 4.99955 7.50795 5.54992 6.52851 6.5295C5.54906 7.50908 4.99887 8.83762 4.99896 10.2229C4.99906 11.6081 5.54943 12.9366 6.52901 13.916C7.50858 14.8954 8.83712 15.4456 10.2224 15.4455C11.6076 15.4454 12.9361 14.8951 13.9155 13.9155C14.895 12.9359 15.4451 11.6074 15.4451 10.2221C15.445 8.83691 14.8946 7.50844 13.915 6.529Z" fill="#7B61FF"/>
</svg>
