<svg width="24" height="24" viewBox="0 0 24 24" fill="none" xmlns="http://www.w3.org/2000/svg">
<path fill-rule="evenodd" clip-rule="evenodd" d="M7.42383 3.18292C7.68958 2.99564 8.02975 2.94964 8.33594 3.0589L22.3359 8.0589C22.7339 8.20107 23 8.57773 23 9.00031V20.0003L22.9951 20.1019C22.9781 20.2701 22.919 20.4258 22.8291 20.5589C22.7931 20.6122 22.7524 20.662 22.707 20.7073C22.5261 20.8882 22.2761 21.0003 22 21.0003H2C1.44784 21.0003 1.0002 20.5524 1 20.0003V14.0003C1 13.666 1.16721 13.3538 1.44531 13.1683L7 9.46515V4.00031C7 3.67521 7.15815 3.37027 7.42383 3.18292ZM3 14.5355V19.0003H7V11.8685L3 14.5355ZM9 19.0003H12V15.0003C12 14.448 12.4477 14.0003 13 14.0003H17C17.5523 14.0003 18 14.448 18 15.0003V19.0003H21V9.70441L9 5.41828V19.0003ZM14 19.0003H16V16.0003H14V19.0003Z" fill="#101010"/>
</svg>
