<svg width="24" height="24" viewBox="0 0 24 24" fill="none" xmlns="http://www.w3.org/2000/svg">
<path fill-rule="evenodd" clip-rule="evenodd" d="M3.35866 2.65869C3.85715 2.06717 4.59794 1.89678 5.24049 2.05811C5.86791 2.21582 6.42029 2.68858 6.65065 3.36963C6.66053 3.38838 6.6731 3.41189 6.68776 3.43897C6.73715 3.53018 6.81336 3.6671 6.91628 3.83936C7.12286 4.18509 7.43583 4.67237 7.85182 5.22315C8.6889 6.33136 9.91969 7.66476 11.5227 8.64697C13.8584 10.078 17.1962 10.3528 20.1507 10.2778C20.4064 10.2713 20.66 10.2619 20.9094 10.2495C21.7318 10.2087 22.4293 10.6555 22.7708 11.2876C23.1231 11.9402 23.0962 12.8006 22.5012 13.4605C22.0371 13.975 21.5267 14.4308 20.9837 14.8296C20.2169 15.3926 19.3263 15.8452 18.3655 16.1606C18.7118 16.2448 19.0584 16.3228 19.4036 16.395C20.1741 16.5563 20.7391 17.1197 20.9299 17.7983C21.1275 18.5019 20.9109 19.3139 20.2014 19.8091C19.6716 20.1787 19.1181 20.5017 18.5481 20.7778C13.9995 22.9817 8.35872 22.2046 4.57741 18.439C0.795273 14.6723 0.012628 9.04959 2.2278 4.51514C2.52016 3.91676 2.86548 3.3372 3.26198 2.78369L3.35866 2.65869ZM3.7737 5.95459C2.24607 9.63646 2.98427 14.03 5.98854 17.022C8.99393 20.0149 13.41 20.7513 17.1116 19.228V17.9028C14.3594 17.1588 11.5313 15.9713 9.49049 13.939C8.38598 12.839 7.49032 11.3024 6.78151 9.76319C6.18921 8.47692 5.70842 7.13779 5.33132 5.95459H3.7737ZM4.79616 10.021C5.33655 9.90855 5.86588 10.2552 5.97878 10.7954C6.14096 11.5739 6.78279 12.8034 7.74635 13.9956C8.70572 15.1825 9.84699 16.1609 10.8714 16.5708C11.3839 16.7758 11.6335 17.358 11.429 17.8706C11.2239 18.3833 10.6419 18.6331 10.1292 18.4282C8.65376 17.8381 7.25299 16.5663 6.19167 15.2534C5.13476 13.9459 4.27625 12.4249 4.02174 11.2036C3.90936 10.6631 4.25574 10.1337 4.79616 10.021ZM8.62721 8.98682C9.28989 10.4149 10.0556 11.6793 10.9016 12.522C11.7042 13.3212 12.6781 13.9804 13.7571 14.5288C15.7558 14.9115 17.817 14.4621 19.3489 13.5181L19.2522 12.2876C16.4191 12.2856 13.051 11.9287 10.4778 10.3521C9.79862 9.9359 9.18203 9.46971 8.62721 8.98682Z" fill="#101010"/>
</svg>
