<svg width="24" height="24" viewBox="0 0 24 24" fill="none" xmlns="http://www.w3.org/2000/svg">
<path d="M12 12C17.274 12 22 15.362 22 20C22 20.2652 21.8946 20.5196 21.7071 20.7071C21.5196 20.8946 21.2652 21 21 21H3C2.73478 21 2.48043 20.8946 2.29289 20.7071C2.10536 20.5196 2 20.2652 2 20C2 15.362 6.726 12 12 12ZM12 14C7.841 14 4.744 16.308 4.118 19H19.882C19.256 16.308 16.159 14 12 14ZM12 2.5C13.0609 2.5 14.0783 2.92143 14.8284 3.67157C15.5786 4.42172 16 5.43913 16 6.5C16 7.56087 15.5786 8.57828 14.8284 9.32843C14.0783 10.0786 13.0609 10.5 12 10.5C10.9391 10.5 9.92172 10.0786 9.17157 9.32843C8.42143 8.57828 8 7.56087 8 6.5C8 5.43913 8.42143 4.42172 9.17157 3.67157C9.92172 2.92143 10.9391 2.5 12 2.5ZM12 4.5C11.4696 4.5 10.9609 4.71071 10.5858 5.08579C10.2107 5.46086 10 5.96957 10 6.5C10 7.03043 10.2107 7.53914 10.5858 7.91421C10.9609 8.28929 11.4696 8.5 12 8.5C12.5304 8.5 13.0391 8.28929 13.4142 7.91421C13.7893 7.53914 14 7.03043 14 6.5C14 5.96957 13.7893 5.46086 13.4142 5.08579C13.0391 4.71071 12.5304 4.5 12 4.5Z" fill="#FF00FF"/>
</svg>
