<svg width="24" height="24" viewBox="0 0 24 24" fill="none" xmlns="http://www.w3.org/2000/svg">
<path d="M12.2499 3.50001C13.7323 3.50023 15.1573 4.073 16.2274 5.09877C17.2975 6.12454 17.93 7.52401 17.993 9.00501C19.4238 9.06539 20.7805 9.65752 21.7978 10.6655C22.815 11.6735 23.4195 13.0248 23.493 14.455L23.5 14.75C23.5 15.5051 23.3512 16.2528 23.0623 16.9504C22.7733 17.6481 22.3498 18.2819 21.8158 18.8159C21.2819 19.3498 20.648 19.7734 19.9504 20.0623C19.2528 20.3513 18.5051 20.5 17.75 20.5H11.7499C10.2672 20.4998 8.84181 19.9268 7.77148 18.9006C6.70115 17.8744 6.06861 16.4745 6.00595 14.993H5.95395C4.45423 14.919 3.04295 14.2613 2.02177 13.1605C1.0006 12.0596 0.450554 10.603 0.489213 9.10196C0.527872 7.60091 1.15217 6.17453 2.22865 5.12772C3.30514 4.0809 4.74841 3.49671 6.24995 3.50001H12.2499ZM17.7269 11C16.9869 13.32 14.8149 15 12.2499 15H8.00895C8.07236 15.9491 8.49405 16.8386 9.18863 17.4884C9.88321 18.1382 10.7988 18.4998 11.7499 18.5H17.75C18.2424 18.5 18.73 18.403 19.185 18.2146C19.64 18.0261 20.0534 17.7499 20.4016 17.4017C20.7498 17.0534 21.026 16.64 21.2145 16.1851C21.403 15.7301 21.5 15.2425 21.5 14.75L21.495 14.557C21.4455 13.5971 21.0293 12.6929 20.3324 12.031C19.6355 11.3691 18.7111 11 17.75 11H17.7269ZM11.5569 11.005C10.908 11.0384 10.2789 11.2398 9.73123 11.5895C9.18357 11.9393 8.7362 12.4253 8.43295 13H12.2499C13.6889 13 14.9379 12.19 15.5659 11H11.7499L11.5569 11.005ZM6.24995 5.50001C5.27221 5.50017 4.33318 5.88219 3.63303 6.56465C2.93287 7.24712 2.52694 8.17606 2.50178 9.15348C2.47661 10.1309 2.83418 11.0795 3.49829 11.7971C4.16239 12.5147 5.08051 12.9445 6.05695 12.995L6.24995 13H6.27195C6.62795 11.887 7.31451 10.9088 8.24024 10.1957C9.16597 9.48253 10.2869 9.06827 11.4539 9.00801L11.7499 9.00001H15.9909C15.9275 8.05096 15.5059 7.16146 14.8113 6.51163C14.1167 5.86179 13.2011 5.50018 12.2499 5.50001H6.24995Z" fill="#FF00FF"/>
</svg>
