<svg width="24" height="24" viewBox="0 0 24 24" fill="none" xmlns="http://www.w3.org/2000/svg">
<path d="M5 19H9V21H4C3.73478 21 3.48043 20.8946 3.29289 20.7071C3.10536 20.5196 3 20.2652 3 20V15H5V19ZM21 20C21 20.2652 20.8946 20.5196 20.7071 20.7071C20.5196 20.8946 20.2652 21 20 21H15V19H19V15H21V20ZM15.895 14.448C15.159 15.918 13.728 17 12 17C10.272 17 8.841 15.918 8.105 14.448L9.895 13.552C10.356 14.473 11.164 15 12 15C12.836 15 13.644 14.473 14.105 13.552L15.895 14.448ZM9 5H5V9H3V4L3.005 3.897C3.03049 3.65088 3.14632 3.42294 3.3301 3.25726C3.51388 3.09158 3.75256 2.99992 4 3H9V5ZM20.102 3.005C20.3483 3.03025 20.5765 3.14598 20.7424 3.32979C20.9083 3.5136 21.0001 3.75241 21 4V9H19V5H15V3H20L20.102 3.005Z" fill="#FF00FF"/>
</svg>
