<svg width="24" height="24" viewBox="0 0 24 24" fill="none" xmlns="http://www.w3.org/2000/svg">
<path d="M19 15H23V17H19V21H17V17H13V15H17V11H19V15ZM19.5 4C20.2956 4 21.0587 4.31607 21.6213 4.87868C22.1839 5.44129 22.5 6.20435 22.5 7V10H20.5V7C20.5 6.73478 20.3946 6.48043 20.2071 6.29289C20.0196 6.10536 19.7652 6 19.5 6H4.5C4.23478 6 3.98043 6.10536 3.79289 6.29289C3.60536 6.48043 3.5 6.73478 3.5 7V17C3.5 17.2652 3.60536 17.5196 3.79289 17.7071C3.98043 17.8946 4.23478 18 4.5 18H12V20H4.5C3.70435 20 2.94129 19.6839 2.37868 19.1213C1.81607 18.5587 1.5 17.7956 1.5 17V7C1.5 6.20435 1.81607 5.44129 2.37868 4.87868C2.94129 4.31607 3.70435 4 4.5 4H19.5Z" fill="#FF00FF"/>
</svg>
