<svg width="24" height="24" viewBox="0 0 24 24" fill="none" xmlns="http://www.w3.org/2000/svg">
<path d="M5 19H9V21H4C3.73478 21 3.48043 20.8946 3.29289 20.7071C3.10536 20.5196 3 20.2652 3 20V15H5V19ZM21 20L20.995 20.099C20.9704 20.3458 20.855 20.5747 20.6711 20.7413C20.4873 20.9078 20.2481 21 20 21H15V19H19V15H21V20ZM13.97 6C14.19 6 14.355 6.212 14.31 6.438L14.102 7.477C14.7594 7.70344 15.3647 8.05946 15.882 8.524C16.034 8.66 16.038 8.904 15.898 9.053L15.234 9.758C15.203 9.79071 15.1659 9.81694 15.1247 9.83518C15.0835 9.85341 15.0391 9.86328 14.9941 9.86421C14.9491 9.86514 14.9043 9.85711 14.8624 9.8406C14.8205 9.82408 14.7823 9.7994 14.75 9.768C14.1175 9.1973 13.2979 8.87818 12.446 8.871C11.749 8.871 11.05 9.133 11.05 9.793C11.05 10.471 11.798 10.697 12.662 11.027C14.174 11.567 15.42 12.227 15.42 13.792C15.42 15.492 14.17 16.654 12.127 16.786L11.941 17.711C11.9264 17.7912 11.8845 17.8639 11.8223 17.9166C11.7601 17.9693 11.6815 17.9988 11.6 18L10.314 17.99C10.094 17.988 9.931 17.775 9.977 17.55L10.172 16.589C9.3908 16.3738 8.67911 15.9588 8.107 15.385C8.03925 15.3147 8.00123 15.221 8.00085 15.1234C8.00048 15.0258 8.03779 14.9318 8.105 14.861L8.818 14.125C8.84947 14.0919 8.88735 14.0656 8.92934 14.0476C8.97133 14.0296 9.01654 14.0204 9.06221 14.0205C9.10789 14.0206 9.15306 14.03 9.19498 14.0481C9.23689 14.0663 9.27467 14.0928 9.306 14.126C9.996 14.838 10.884 15.131 11.732 15.131C12.663 15.131 13.294 14.731 13.294 14.053C13.294 13.393 12.663 13.218 11.467 12.749C10.204 12.279 9.007 11.601 9.007 10.019C9.008 8.19 10.454 7.3 12.16 7.21L12.348 6.287C12.3628 6.20714 12.4047 6.13484 12.4666 6.08235C12.5286 6.02987 12.6068 6.00042 12.688 5.999H13.971L13.97 6ZM9 5H5V9H3V4L3.005 3.901C3.02956 3.65416 3.14499 3.42525 3.32886 3.25875C3.51274 3.09224 3.75194 3.00002 4 3H9V5ZM20.102 3.005C20.3483 3.03025 20.5765 3.14598 20.7424 3.32979C20.9083 3.5136 21.0001 3.75241 21 4V9H19V5H15V3H20L20.102 3.005Z" fill="#FF00FF"/>
</svg>
