<svg width="24" height="24" viewBox="0 0 24 24" fill="none" xmlns="http://www.w3.org/2000/svg">
<path d="M12.602 4.27298C13.569 3.31198 14.974 2.67798 16.507 3.02398L16.762 3.08898C18.005 3.43898 18.8 4.18398 19.445 4.74898C20.139 5.35598 20.721 5.82398 21.696 6.01898L21.304 7.98098C19.78 7.67598 18.861 6.89498 18.127 6.25298C17.433 5.64498 16.952 5.21798 16.217 5.01298L16.067 4.97598C15.367 4.81798 14.628 5.07898 14.011 5.69198C13.387 6.31198 13 7.18998 13 7.99998V8.99998C13.7428 8.44284 14.6262 8.10357 15.551 8.02018C16.4758 7.93679 17.4055 8.11258 18.2361 8.52784C19.0666 8.94311 19.7651 9.58144 20.2533 10.3713C20.7414 11.1612 21 12.0714 21 13H19C19.0057 12.2139 18.7026 11.4571 18.156 10.8922C17.6094 10.3273 16.8629 9.99952 16.0771 9.97934C15.2913 9.95917 14.529 10.2482 13.9541 10.7843C13.3792 11.3204 13.0377 12.0607 13.003 12.846L13 13V19H19V21H5V19H11V13L10.996 12.846C10.9556 12.0649 10.6118 11.3304 10.0377 10.7991C9.46371 10.2678 8.70488 9.98175 7.92297 10.0018C7.14107 10.0219 6.39793 10.3466 5.85192 10.9066C5.30592 11.4667 5.00023 12.2178 5 13H3C3 12.0714 3.25857 11.1612 3.74675 10.3713C4.23492 9.58144 4.9334 8.94311 5.76393 8.52784C6.59446 8.11258 7.52422 7.93679 8.44903 8.02018C9.37384 8.10357 10.2572 8.44284 11 8.99998V7.99998L10.996 7.85198C10.912 6.31998 9.536 4.99998 7.713 4.99998C6.465 4.99998 5.404 5.63298 4.85 6.52698L4 5.99998L3.15 5.47398C4.079 3.97698 5.789 2.99998 7.714 2.99998C9.43 2.99998 10.994 3.78698 11.969 5.02998C12.159 4.75698 12.37 4.50198 12.602 4.27298Z" fill="#FF00FF"/>
</svg>
