<svg width="24" height="24" viewBox="0 0 24 24" fill="none" xmlns="http://www.w3.org/2000/svg">
<path d="M12 1.5C17.523 1.5 22 5.977 22 11.5V18.5C22 19.2956 21.6839 20.0587 21.1213 20.6213C20.5587 21.1839 19.7956 21.5 19 21.5H16C15.7348 21.5 15.4804 21.3946 15.2929 21.2071C15.1054 21.0196 15 20.7652 15 20.5V12.5L15.005 12.398C15.0303 12.1517 15.146 11.9235 15.3298 11.7576C15.5136 11.5917 15.7524 11.4999 16 11.5H19C19.351 11.5 19.687 11.563 20 11.674V11.5C20 9.37827 19.1571 7.34344 17.6569 5.84315C16.1566 4.34285 14.1217 3.5 12 3.5C9.87827 3.5 7.84344 4.34285 6.34315 5.84315C4.84285 7.34344 4 9.37827 4 11.5V11.674C4.313 11.564 4.649 11.5 5 11.5H8L8.103 11.505C8.34912 11.5305 8.57706 11.6463 8.74274 11.8301C8.90842 12.0139 9.00008 12.2526 9 12.5V20.5C9 20.7652 8.89464 21.0196 8.70711 21.2071C8.51957 21.3946 8.26522 21.5 8 21.5H5C4.20435 21.5 3.44129 21.1839 2.87868 20.6213C2.31607 20.0587 2 19.2956 2 18.5V11.5C2 5.977 6.477 1.5 12 1.5ZM5 13.5C4.73478 13.5 4.48043 13.6054 4.29289 13.7929C4.10536 13.9804 4 14.2348 4 14.5V18.5C4 18.7652 4.10536 19.0196 4.29289 19.2071C4.48043 19.3946 4.73478 19.5 5 19.5H7V13.5H5ZM17 19.5H19C19.2652 19.5 19.5196 19.3946 19.7071 19.2071C19.8946 19.0196 20 18.7652 20 18.5V14.5C20 14.2348 19.8946 13.9804 19.7071 13.7929C19.5196 13.6054 19.2652 13.5 19 13.5H17V19.5Z" fill="#FF00FF"/>
</svg>
