<svg width="24" height="24" viewBox="0 0 24 24" fill="none" xmlns="http://www.w3.org/2000/svg">
<path d="M1.58406 4.22898C1.69788 4.13515 1.83106 4.06766 1.97404 4.03135C2.11702 3.99505 2.26626 3.99082 2.41106 4.01898H2.41606L2.43506 4.02398L2.51206 4.03698L2.80606 4.08998C3.06006 4.13398 3.42006 4.19298 3.83906 4.25098C4.68606 4.36998 5.74506 4.48298 6.66406 4.48298C7.57806 4.48298 8.50706 4.36998 9.21906 4.25398C9.5826 4.19483 9.94441 4.12547 10.3041 4.04598L10.3611 4.03298L10.3751 4.02998H10.3771V4.02898C10.5788 3.97966 10.7909 3.99436 10.9839 4.07106C11.1769 4.14776 11.3412 4.28264 11.4541 4.45698L11.4551 4.45798L11.4571 4.46098L11.4641 4.47198L11.4911 4.51398L11.5981 4.67698C12.1374 5.50663 12.6847 6.331 13.2401 7.14998C14.2321 8.60798 15.2861 10.086 15.7701 10.575L16.0051 10.798C16.5891 11.322 17.3991 11.852 18.2851 12.343C19.2831 12.896 20.3151 13.368 21.0951 13.7C22.2151 14.176 22.9991 15.275 22.9991 16.538V17L22.9951 17.155C22.9553 17.9226 22.6225 18.6457 22.0652 19.1751C21.5079 19.7045 20.7687 19.9997 20.0001 20H13.5771C11.6571 20 10.4151 18.878 9.52106 17.94C9.03506 17.432 8.70406 17.038 8.31606 16.68L8.29406 16.662L7.63306 19.248C7.57798 19.4631 7.45285 19.6538 7.27739 19.79C7.10194 19.9262 6.88615 20 6.66406 20H3.20706C2.9915 20.0001 2.78168 19.9305 2.60886 19.8017C2.43605 19.6728 2.30949 19.4916 2.24806 19.285L2.22806 19.199L1.23906 14.326L1.23506 14.297C0.969059 12.764 0.973059 11.119 1.03506 9.54098C1.09906 7.91998 1.22006 6.42598 1.22006 5.00098C1.22001 4.85342 1.25263 4.70767 1.31556 4.5742C1.37849 4.44072 1.47018 4.32283 1.58406 4.22898ZM4.02606 18H5.88806L6.41806 15.925L3.49306 15.38L4.02606 18ZM9.54006 6.22998C8.5892 6.3899 7.62723 6.47483 6.66306 6.48398C5.60706 6.48398 4.44306 6.35598 3.56206 6.23298C3.43406 6.21498 3.31206 6.19598 3.19506 6.17798C3.15606 7.31798 3.07606 8.50798 3.03206 9.62198C2.98206 10.908 2.97806 12.141 3.10906 13.276L7.83406 14.156L7.88806 14.168C8.62306 14.348 9.20606 14.781 9.67206 15.211C10.1171 15.622 10.5891 16.165 10.9671 16.561C11.8001 17.434 12.5341 18.001 13.5771 18.001H20.0001C20.5181 18.001 20.9441 17.608 20.9951 17.104L21.0001 17V16.537C21.0001 16.12 20.7371 15.719 20.3131 15.539C19.2906 15.1073 18.2906 14.624 17.3171 14.091C16.3841 13.574 15.4171 12.958 14.6591 12.276L14.3481 11.979C13.7051 11.329 12.5361 9.66798 11.5881 8.27398C11.0991 7.55498 10.6461 6.87298 10.3161 6.37098L10.1501 6.11998C9.97406 6.15398 9.76806 6.19198 9.54106 6.22898L9.54006 6.22998Z" fill="#FF00FF"/>
</svg>
