<svg width="24" height="24" viewBox="0 0 24 24" fill="none" xmlns="http://www.w3.org/2000/svg">
<path d="M17.0731 5.5C17.5374 5.50002 17.9925 5.62931 18.3874 5.87341C18.7823 6.1175 19.1015 6.46674 19.3091 6.882L21.5581 11.379C21.9481 11.275 22.3281 11.166 22.6951 11.048L23.3051 12.952C22.8851 13.087 22.4481 13.212 22.0001 13.33V20.5C22.0001 20.7652 21.8947 21.0196 21.7072 21.2071C21.5197 21.3946 21.2653 21.5 21.0001 21.5H17.0001C16.7349 21.5 16.4805 21.3946 16.293 21.2071C16.1054 21.0196 16.0001 20.7652 16.0001 20.5V18.5H8.00009V20.5C8.00009 20.7652 7.89473 21.0196 7.7072 21.2071C7.51966 21.3946 7.26531 21.5 7.00009 21.5H3.00009C2.73488 21.5 2.48052 21.3946 2.29298 21.2071C2.10545 21.0196 2.00009 20.7652 2.00009 20.5V13.33C1.56144 13.2158 1.12595 13.0897 0.694092 12.952L1.30609 11.048C1.67309 11.166 2.05209 11.275 2.44209 11.378L4.69209 6.882C4.89964 6.46689 5.21864 6.11775 5.61337 5.87367C6.0081 5.62959 6.46299 5.5002 6.92709 5.5H17.0731ZM20.0001 13.781C15.0161 14.738 8.98509 14.738 4.00009 13.781V19.5H6.00009V17.5C6.00009 17.2348 6.10545 16.9804 6.29298 16.7929C6.48052 16.6054 6.73488 16.5 7.00009 16.5H17.0001C17.2653 16.5 17.5197 16.6054 17.7072 16.7929C17.8947 16.9804 18.0001 17.2348 18.0001 17.5V19.5H20.0001V13.781ZM6.92709 7.5C6.83431 7.5 6.74337 7.52582 6.66442 7.57456C6.58548 7.62331 6.52166 7.69305 6.48009 7.776L4.45009 11.832C9.14209 12.722 14.8551 12.722 19.5471 11.832L17.5201 7.776C17.4785 7.6929 17.4145 7.62305 17.3353 7.5743C17.2562 7.52555 17.165 7.49982 17.0721 7.5H6.92709ZM12.0001 1C13.3241 1 14.7271 1.438 15.7071 2.418L14.2931 3.832C13.7731 3.312 12.9271 3 12.0001 3C11.0741 3 10.2271 3.312 9.70709 3.832L8.29309 2.418C9.27309 1.438 10.6771 1 12.0001 1Z" fill="#FF00FF"/>
</svg>
