<svg width="24" height="24" viewBox="0 0 24 24" fill="none" xmlns="http://www.w3.org/2000/svg">
<path d="M4.5 18.5L4.505 18.602C4.53025 18.8483 4.64598 19.0765 4.82979 19.2424C5.0136 19.4083 5.25241 19.5001 5.5 19.5H18.5C18.7652 19.5 19.0196 19.3946 19.2071 19.2071C19.3946 19.0196 19.5 18.7652 19.5 18.5V17H21.5V18.5C21.5 19.2956 21.1839 20.0587 20.6213 20.6213C20.0587 21.1839 19.2956 21.5 18.5 21.5H5.5C4.73102 21.5 3.9914 21.2047 3.43387 20.6751C2.87634 20.1455 2.54347 19.422 2.504 18.654L2.5 18.5V17H4.5V18.5ZM22 14.5C21.31 14.5 20.704 14.694 19.983 14.944C19.306 15.18 18.451 15.5 17.5 15.5C16.54 15.5 15.726 15.173 15.08 14.94C14.407 14.698 13.793 14.5 13 14.5C12.4 14.5 12.022 14.774 11.264 15.315C10.526 15.84 9.546 16.5 8 16.5C6.594 16.5 5.53 15.842 4.693 15.372C3.823 14.883 3.065 14.5 2 14.5V12.5C3.617 12.5 4.763 13.117 5.673 13.628C6.616 14.158 7.211 14.5 8 14.5C8.893 14.5 9.438 14.16 10.102 13.685C10.747 13.226 11.649 12.5 13 12.5C14.158 12.5 15.044 12.802 15.758 13.06C16.498 13.327 16.96 13.5 17.5 13.5C18.048 13.5 18.566 13.32 19.325 13.056C20.041 12.806 20.935 12.5 22 12.5V14.5ZM12 2.5C14.386 2.5 16.727 3.049 18.504 4.269C20.319 5.515 21.5 7.439 21.5 10C21.5 10.2652 21.3946 10.5196 21.2071 10.7071C21.0196 10.8946 20.7652 11 20.5 11H3.5C3.23478 11 2.98043 10.8946 2.79289 10.7071C2.60536 10.5196 2.5 10.2652 2.5 10C2.5 7.44 3.68 5.515 5.496 4.269C7.273 3.049 9.614 2.5 12 2.5ZM12 4.5C9.886 4.5 7.977 4.992 6.629 5.918C5.568 6.646 4.829 7.655 4.586 9H19.414C19.172 7.655 18.432 6.646 17.371 5.918C16.023 4.992 14.114 4.5 12 4.5Z" fill="#FF00FF"/>
</svg>
