<svg width="24" height="24" viewBox="0 0 24 24" fill="none" xmlns="http://www.w3.org/2000/svg">
<path d="M12 3C12.9283 3 13.8185 3.36875 14.4749 4.02513C15.1313 4.6815 15.5 5.57174 15.5 6.5V6.554C15.4999 7.16783 15.3409 7.77119 15.0385 8.30533C14.736 8.83947 14.3004 9.28619 13.774 9.602L13 10.065V10.942L22.266 16.679L22.406 16.773C22.8559 17.0933 23.1923 17.5483 23.3667 18.0723C23.5411 18.5963 23.5445 19.1621 23.3763 19.6882C23.2082 20.2142 22.8772 20.6732 22.4312 20.9988C21.9852 21.3245 21.4472 21.5 20.895 21.5H3.105C2.53856 21.4994 1.98775 21.3142 1.53597 20.9725C1.08419 20.6308 0.756041 20.1512 0.601204 19.6064C0.446368 19.0615 0.473276 18.481 0.677856 17.9528C0.882436 17.4246 1.25355 16.9774 1.735 16.679L11 10.942V9.5C11 9.34945 11.034 9.20085 11.0994 9.06527C11.1649 8.92969 11.2601 8.81064 11.378 8.717L11.485 8.643L12.745 7.887C13.213 7.606 13.5 7.1 13.5 6.554V6.5C13.5 6.10218 13.342 5.72064 13.0607 5.43934C12.7794 5.15804 12.3978 5 12 5C11.6022 5 11.2206 5.15804 10.9393 5.43934C10.658 5.72064 10.5 6.10218 10.5 6.5V7H8.5V6.5C8.5 5.57174 8.86875 4.6815 9.52513 4.02513C10.1815 3.36875 11.0717 3 12 3ZM2.787 18.38C2.67486 18.4491 2.58836 18.553 2.54062 18.6757C2.49288 18.7985 2.48651 18.9335 2.52249 19.0602C2.55847 19.187 2.63483 19.2985 2.73997 19.3779C2.8451 19.4572 2.97327 19.5001 3.105 19.5H20.895C21.0198 19.4994 21.1413 19.4604 21.2431 19.3881C21.3448 19.3159 21.4218 19.214 21.4634 19.0964C21.5051 18.9788 21.5095 18.8512 21.4759 18.7311C21.4424 18.6109 21.3726 18.504 21.276 18.425L21.213 18.38L12 12.676L2.787 18.38Z" fill="#FF00FF"/>
</svg>
