<svg width="24" height="24" viewBox="0 0 24 24" fill="none" xmlns="http://www.w3.org/2000/svg">
<path d="M20 8H14" stroke="#FF00FF" stroke-width="2" stroke-linejoin="round"/>
<path d="M19 16L5 7L5.5 4H11" stroke="#FF00FF" stroke-width="2" stroke-linejoin="round"/>
<path d="M5 20C2.79086 20 1 18.2091 1 16C1 13.7909 2.79086 12 5 12C7.20914 12 9 13.7909 9 16C9 18.2091 7.20914 20 5 20Z" stroke="#FF00FF" stroke-width="2" stroke-linecap="round" stroke-linejoin="round"/>
<path d="M19 20C16.7909 20 15 18.2091 15 16C15 13.7909 16.7909 12 19 12C21.2091 12 23 13.7909 23 16C23 18.2091 21.2091 20 19 20Z" stroke="#FF00FF" stroke-width="2" stroke-linecap="round" stroke-linejoin="round"/>
</svg>
