<svg width="24" height="24" viewBox="0 0 24 24" fill="none" xmlns="http://www.w3.org/2000/svg">
<path d="M5.50006 3.5C6.04768 3.49994 6.58768 3.62838 7.07663 3.875C7.56557 4.12162 7.98983 4.47953 8.31528 4.91995C8.64074 5.36037 8.8583 5.87101 8.95049 6.41082C9.04267 6.95063 9.0069 7.50453 8.84606 8.028L13.0001 10.798L21.4451 5.168L22.5551 6.832L14.8031 11.999L22.5551 17.168L21.4451 18.832L13.0001 13.202L8.84606 15.97C9.09329 16.7735 9.04304 17.6392 8.70449 18.4087C8.36595 19.1782 7.76173 19.8002 7.00233 20.1608C6.24292 20.5215 5.37907 20.5968 4.56873 20.3729C3.75839 20.149 3.05572 19.6409 2.58919 18.9415C2.12266 18.2422 1.92345 17.3982 2.02799 16.5641C2.13253 15.7299 2.53383 14.9612 3.15851 14.3986C3.7832 13.836 4.58952 13.517 5.43005 13.5C6.27057 13.483 7.08914 13.7691 7.73606 14.306L11.1951 12L7.73506 9.692C7.30278 10.0512 6.79037 10.301 6.24115 10.4203C5.69194 10.5395 5.12207 10.5248 4.57975 10.3773C4.03742 10.2298 3.5386 9.95389 3.12545 9.57287C2.71231 9.19184 2.397 8.71692 2.20618 8.18829C2.01537 7.65965 1.95467 7.09283 2.02922 6.53577C2.10376 5.97872 2.31136 5.4478 2.63445 4.98793C2.95754 4.52806 3.38663 4.15276 3.88542 3.89377C4.38421 3.63478 4.93804 3.49972 5.50006 3.5ZM5.50006 15.5C5.10224 15.5 4.7207 15.658 4.4394 15.9393C4.1581 16.2206 4.00006 16.6022 4.00006 17C4.00006 17.3978 4.1581 17.7794 4.4394 18.0607C4.7207 18.342 5.10224 18.5 5.50006 18.5C5.89789 18.5 6.27942 18.342 6.56072 18.0607C6.84202 17.7794 7.00006 17.3978 7.00006 17C7.00006 16.6022 6.84202 16.2206 6.56072 15.9393C6.27942 15.658 5.89789 15.5 5.50006 15.5ZM5.50006 5.5C5.30308 5.5 5.10802 5.5388 4.92604 5.61418C4.74405 5.68956 4.57869 5.80005 4.4394 5.93934C4.30011 6.07863 4.18962 6.24399 4.11424 6.42598C4.03886 6.60796 4.00006 6.80302 4.00006 7C4.00006 7.19698 4.03886 7.39204 4.11424 7.57403C4.18962 7.75601 4.30011 7.92137 4.4394 8.06066C4.57869 8.19995 4.74405 8.31044 4.92604 8.38582C5.10802 8.4612 5.30308 8.5 5.50006 8.5C5.89789 8.5 6.27942 8.34197 6.56072 8.06066C6.84202 7.77936 7.00006 7.39783 7.00006 7C7.00006 6.60218 6.84202 6.22064 6.56072 5.93934C6.27942 5.65804 5.89789 5.5 5.50006 5.5Z" fill="#FF00FF"/>
</svg>
