<svg width="24" height="24" viewBox="0 0 24 24" fill="none" xmlns="http://www.w3.org/2000/svg">
<path d="M5 11C6.32608 11 7.59785 11.5268 8.53553 12.4645C9.47322 13.4021 10 14.6739 10 16C10 17.3261 9.47322 18.5979 8.53553 19.5355C7.59785 20.4732 6.32608 21 5 21C3.67392 21 2.40215 20.4732 1.46447 19.5355C0.526784 18.5979 0 17.3261 0 16C0 14.6739 0.526784 13.4021 1.46447 12.4645C2.40215 11.5268 3.67392 11 5 11ZM11 5H6.347L6.094 6.515L15.421 12.51C16.2866 11.6235 17.4506 11.0899 18.6872 11.0128C19.9239 10.9357 21.1451 11.3205 22.1142 12.0926C23.0833 12.8647 23.7311 13.9691 23.9322 15.1918C24.1333 16.4144 23.8732 17.6681 23.2024 18.7099C22.5316 19.7517 21.4979 20.5073 20.3017 20.8303C19.1055 21.1532 17.8319 21.0205 16.728 20.4579C15.6241 19.8952 14.7683 18.9427 14.3268 17.785C13.8852 16.6273 13.8892 15.3469 14.338 14.192L4.459 7.84C4.29478 7.73425 4.16513 7.58272 4.08605 7.40412C4.00696 7.22552 3.98192 7.02767 4.014 6.835L4.514 3.835L4.532 3.746C4.58817 3.53213 4.71363 3.3429 4.88878 3.20792C5.06393 3.07294 5.27888 2.99982 5.5 3H11V5ZM5 13C4.20435 13 3.44129 13.3161 2.87868 13.8787C2.31607 14.4413 2 15.2044 2 16C2 16.7956 2.31607 17.5587 2.87868 18.1213C3.44129 18.6839 4.20435 19 5 19C5.79565 19 6.55871 18.6839 7.12132 18.1213C7.68393 17.5587 8 16.7956 8 16C8 15.2044 7.68393 14.4413 7.12132 13.8787C6.55871 13.3161 5.79565 13 5 13ZM19 13C18.307 13 17.67 13.237 17.163 13.63L19.541 15.16L18.459 16.84L16.081 15.313C15.9383 15.9194 15.988 16.5552 16.2231 17.132C16.4581 17.7089 16.867 18.1984 17.3928 18.5324C17.9186 18.8663 18.5354 19.0284 19.1575 18.9959C19.7796 18.9635 20.3762 18.7382 20.8644 18.3513C21.3527 17.9644 21.7084 17.4351 21.8822 16.8369C22.056 16.2387 22.0392 15.6012 21.8343 15.013C21.6293 14.4247 21.2463 13.9148 20.7384 13.5541C20.2305 13.1934 19.6229 12.9997 19 13ZM20 9H14V7H20V9Z" fill="#FF00FF"/>
</svg>
