<svg width="24" height="24" viewBox="0 0 24 24" fill="none" xmlns="http://www.w3.org/2000/svg">
<path d="M21.1511 3.512C21.336 3.54066 21.5091 3.62055 21.6509 3.74261C21.7926 3.86467 21.8974 4.02402 21.9532 4.20258C22.009 4.38114 22.0136 4.57176 21.9666 4.75283C21.9196 4.9339 21.8227 5.09817 21.6871 5.227L13.0001 13.43V19H17.0001V21H7.0001V19H11.0001V13.43L2.3141 5.227C2.16858 5.08956 2.06766 4.91162 2.02438 4.7162C1.98111 4.52077 1.99748 4.31686 2.07137 4.13084C2.14526 3.94482 2.27327 3.78525 2.43885 3.67278C2.60442 3.56032 2.79994 3.50013 3.0001 3.5H21.0001L21.1511 3.512ZM12.0011 11.625L18.4841 5.5H5.5151L12.0001 11.625H12.0011Z" fill="#FF00FF"/>
</svg>
