<svg width="24" height="24" fill="none" xmlns="http://www.w3.org/2000/svg"><path d="M16.12 2.507a1 1 0 0 1 .86 1.193l-.032.116v.002l-.002.005c0 .004-.003.008-.005.014l-.015.046-.059.16a13.137 13.137 0 0 1-1.076 2.229 8.543 8.543 0 0 1-.927 1.257A8.002 8.002 0 0 1 12 23 8 8 0 0 1 9.135 7.53a8.542 8.542 0 0 1-.926-1.259 13.135 13.135 0 0 1-1.135-2.388l-.015-.046-.005-.014-.002-.005v-.002A1 1 0 0 1 8 2.5h8l.12.007ZM12 9a6 6 0 1 0 0 12 6 6 0 0 0 0-12ZM9.514 4.5c.118.235.252.483.402.729.315.514.672.981 1.055 1.31.38.325.72.461 1.029.461.309 0 .65-.136 1.03-.462.382-.328.74-.795 1.054-1.31.15-.245.284-.493.402-.728H9.514Z" fill="#F0F"/></svg>