<svg width="24" height="24" viewBox="0 0 24 24" fill="none" xmlns="http://www.w3.org/2000/svg">
<path d="M15.86 3.009C17.6519 3.10128 19.3399 3.87809 20.5755 5.17904C21.8112 6.48 22.5001 8.20576 22.5 10V17.25C22.5 18.2446 22.1049 19.1984 21.4017 19.9017C20.6984 20.6049 19.7446 21 18.75 21C17.7554 21 16.8016 20.6049 16.0983 19.9017C15.3951 19.1984 15 18.2446 15 17.25V17H9V17.25C9 18.2446 8.60491 19.1984 7.90165 19.9017C7.19839 20.6049 6.24456 21 5.25 21C4.25544 21 3.30161 20.6049 2.59835 19.9017C1.89509 19.1984 1.5 18.2446 1.5 17.25V10C1.5 8.14348 2.2375 6.36301 3.55025 5.05025C4.86301 3.7375 6.64348 3 8.5 3H15.5L15.86 3.009ZM8.5 5C7.17392 5 5.90215 5.52678 4.96447 6.46447C4.02678 7.40215 3.5 8.67392 3.5 10V17.25C3.5 17.7141 3.68437 18.1592 4.01256 18.4874C4.34075 18.8156 4.78587 19 5.25 19C5.71413 19 6.15925 18.8156 6.48744 18.4874C6.81563 18.1592 7 17.7141 7 17.25V16C7 15.7348 7.10536 15.4804 7.29289 15.2929C7.48043 15.1054 7.73478 15 8 15H16C16.2652 15 16.5196 15.1054 16.7071 15.2929C16.8946 15.4804 17 15.7348 17 16V17.25C17 17.7141 17.1844 18.1592 17.5126 18.4874C17.8408 18.8156 18.2859 19 18.75 19C19.2141 19 19.6592 18.8156 19.9874 18.4874C20.3156 18.1592 20.5 17.7141 20.5 17.25V10C20.4999 8.71848 20.0077 7.48591 19.1251 6.55678C18.2425 5.62764 17.0368 5.07287 15.757 5.007L15.5 5H8.5ZM9.5 9H11.5V11H9.5V13H7.5V11H5.5V9H7.5V7H9.5V9Z" fill="#FF00FF"/>
</svg>
