<svg width="24" height="24" viewBox="0 0 24 24" fill="none" xmlns="http://www.w3.org/2000/svg">
<path d="M9.547 2.5C12.8 2.5 15.455 5.113 15.455 8.357C15.455 9.446 15.222 10.547 14.711 11.5H20.182L20.316 11.509C20.623 11.55 20.897 11.732 21.052 12.006C21.593 12.958 22.501 14.151 22.501 16.452C22.501 19.337 19.936 21.5 17.001 21.5H7.5C4.564 21.5 2 19.337 2 16.452C2 14.447 3.294 12.857 5.008 12.048C4.73254 11.7134 4.49258 11.3512 4.292 10.967C3.99952 10.9315 3.71029 10.873 3.427 10.792C2.57001 10.5514 1.78644 10.1012 1.147 9.482L0.996998 9.329C0.864021 9.18653 0.775527 9.00833 0.742374 8.81628C0.70922 8.62423 0.73285 8.42668 0.810364 8.24787C0.887877 8.06906 1.0159 7.91676 1.17873 7.80967C1.34156 7.70258 1.53211 7.64535 1.727 7.645C1.982 7.645 2.528 7.615 3.037 7.529C3.292 7.486 3.504 7.435 3.652 7.379C3.684 7.369 3.707 7.356 3.725 7.347C4.21 4.587 6.64 2.5 9.546 2.5H9.547ZM9.547 4.5C7.377 4.5 5.637 6.237 5.637 8.357C5.637 9.682 6.429 10.949 7.539 11.657L7.664 11.751C7.79754 11.8702 7.8967 12.0231 7.95116 12.1936C8.00562 12.3641 8.01341 12.5461 7.9737 12.7207C7.93399 12.8953 7.84823 13.056 7.72536 13.1862C7.60248 13.3164 7.44697 13.4113 7.275 13.461L7.122 13.492C5.28 13.717 4 15.044 4 16.452C4 18.038 5.465 19.5 7.5 19.5H17C19.035 19.5 20.5 18.038 20.5 16.452C20.5 15.055 20.096 14.326 19.608 13.5H12.5C12.2849 13.4999 12.0756 13.4306 11.9031 13.3021C11.7306 13.1737 11.6041 12.9931 11.5423 12.7871C11.4806 12.5811 11.4869 12.3607 11.5603 12.1585C11.6338 11.9564 11.7704 11.7833 11.95 11.665C12.908 11.035 13.454 9.823 13.454 8.357C13.454 6.237 11.714 4.5 9.546 4.5H9.547Z" fill="#FF00FF"/>
</svg>
