<svg width="24" height="24" viewBox="0 0 24 24" fill="none" xmlns="http://www.w3.org/2000/svg">
<path d="M3.5 16.5H20.5V9H22.5V17.5C22.5 17.7652 22.3946 18.0196 22.2071 18.2071C22.0196 18.3946 21.7652 18.5 21.5 18.5H20V21.5H18V18.5H6V21.5H4V18.5H2.5C2.23478 18.5 1.98043 18.3946 1.79289 18.2071C1.60536 18.0196 1.5 17.7652 1.5 17.5V9H3.5V16.5ZM15 3C16.0609 3 17.0783 3.42143 17.8284 4.17157C18.5786 4.92172 19 5.93913 19 7V14C19 14.2652 18.8946 14.5196 18.7071 14.7071C18.5196 14.8946 18.2652 15 18 15H6C5.73478 15 5.48043 14.8946 5.29289 14.7071C5.10536 14.5196 5 14.2652 5 14V7C5 5.93913 5.42143 4.92172 6.17157 4.17157C6.92172 3.42143 7.93913 3 9 3H15ZM9 5C8.46957 5 7.96086 5.21071 7.58579 5.58579C7.21071 5.96086 7 6.46957 7 7V13H17V7C17 6.46957 16.7893 5.96086 16.4142 5.58579C16.0391 5.21071 15.5304 5 15 5H9Z" fill="#FF00FF"/>
</svg>
