<svg width="24" height="24" viewBox="0 0 24 24" fill="none" xmlns="http://www.w3.org/2000/svg">
<path d="M3.5 19H7.5V21H2.5L2.397 20.995C2.15088 20.9695 1.92294 20.8537 1.75726 20.6699C1.59158 20.4861 1.49992 20.2474 1.5 20V15H3.5V19ZM22.5 20C22.5 20.2652 22.3946 20.5196 22.2071 20.7071C22.0196 20.8946 21.7652 21 21.5 21H16.5V19H20.5V15H22.5V20ZM7.5 15.5H5.5V8.5H7.5V15.5ZM11 15.5H10V8.5H11V15.5ZM15 15.5H13V8.5H15V15.5ZM18.5 15.5H17.5V8.5H18.5V15.5ZM7.5 5H3.5V9H1.5V4C1.5 3.73478 1.60536 3.48043 1.79289 3.29289C1.98043 3.10536 2.23478 3 2.5 3H7.5V5ZM21.602 3.005C21.8483 3.03025 22.0765 3.14598 22.2424 3.32979C22.4083 3.5136 22.5001 3.75241 22.5 4V9H20.5V5H16.5V3H21.5L21.602 3.005Z" fill="#FF00FF"/>
</svg>
