<svg width="24" height="24" viewBox="0 0 24 24" fill="none" xmlns="http://www.w3.org/2000/svg">
<path d="M11.7939 4.97685C14.8611 4.18312 18.3366 3.23128 21.9424 5.01103C22.2836 5.17945 22.4999 5.52703 22.5 5.90751V17.9075C22.5 18.2531 22.3217 18.5746 22.0283 18.7571C21.7348 18.9396 21.3675 18.9569 21.0576 18.804C18.2156 17.4011 15.474 18.0907 12.2949 18.9134C9.21408 19.7107 5.71476 20.6331 2.05273 18.802C1.71402 18.6326 1.50003 18.2862 1.5 17.9075V5.90751C1.50012 5.56107 1.67989 5.23907 1.97461 5.05693C2.26932 4.87497 2.63744 4.85813 2.94727 5.01298C5.8513 6.465 8.62834 5.79606 11.7939 4.97685ZM20.5 6.55498C17.8543 5.4923 15.2657 6.14457 12.2949 6.91337C9.62234 7.605 6.6354 8.3891 3.5 7.38994V17.264C6.20622 18.3786 8.82959 17.744 11.7939 16.9769C14.45 16.2895 17.412 15.4847 20.5 16.4368V6.55498ZM12 8.90751C13.4999 8.90751 13.9999 10.2508 14 11.9075C14 13.5644 13.5 14.9075 12 14.9075C10.5 14.9075 10 13.5644 10 11.9075C10.0001 10.2508 10.5001 8.90751 12 8.90751Z" fill="black"/>
</svg>
