<svg width="24" height="24" viewBox="0 0 24 24" fill="none" xmlns="http://www.w3.org/2000/svg">
<path d="M21 15C21 16.6569 19.6569 18 18 18C16.3431 18 15 16.6569 15 15C15 13.3431 16.3431 12 18 12C19.6569 12 21 13.3431 21 15Z" stroke="#FF00FF" stroke-width="2"/>
<path d="M15.5 21.5585V17.5H20.5V21.5585C20.5 21.7528 20.288 21.8728 20.1214 21.7728L18.1286 20.5772C18.0495 20.5297 17.9505 20.5297 17.8714 20.5772L15.8786 21.7728C15.712 21.8728 15.5 21.7528 15.5 21.5585Z" fill="#FF00FF"/>
<path d="M13.5 20.5H4.99999C6.49999 13.5 2.99999 10 4.99999 3.5H18.7506C18 5 17.9861 7.62343 18 9" stroke="#FF00FF" stroke-width="2" stroke-linejoin="round"/>
</svg>
