<svg width="24" height="24" viewBox="0 0 24 24" fill="none" xmlns="http://www.w3.org/2000/svg">
<path d="M17 3.5C19.139 3.5 20.622 4.04 21.383 5.467C21.724 6.107 21.866 6.839 21.933 7.572C22.002 8.307 22 9.14 22 10H20C20 9.112 19.999 8.38 19.941 7.756C19.884 7.13 19.776 6.706 19.617 6.408C19.426 6.05 19.057 5.685 17.969 5.553C17.893 6.945 17.646 8.515 17 9.854C16.585 10.714 15.991 11.511 15.146 12.091C14.294 12.676 13.246 13 12 13C11.061 13 10.67 13.323 10.486 13.62C10.268 13.973 10.186 14.55 10.357 15.269C10.525 15.974 10.908 16.686 11.416 17.209C11.924 17.731 12.487 17.999 13.028 18C13.603 18 14.001 17.86 14.289 17.67C14.583 17.479 14.819 17.2 15.004 16.848C15.388 16.117 15.5 15.178 15.5 14.5H17.5C17.5 15.321 17.376 16.633 16.774 17.777C16.735 17.852 16.694 17.927 16.649 18H19.5V20H10C5.536 20 1.5 16.644 1.5 12C1.5 9.903 2.336 7.937 3.682 6.425C3.73108 6.35496 3.78888 6.29145 3.854 6.236C5.424 4.57 7.63 3.5 10 3.5H17ZM4.622 8.463C3.92 9.497 3.5 10.72 3.5 12C3.5 15.19 6.158 17.722 9.454 17.977C8.96185 17.3043 8.6074 16.541 8.411 15.731C8.166 14.701 8.192 13.527 8.784 12.568C8.827 12.5 8.871 12.433 8.918 12.368L4.622 8.463ZM10 5.5C8.512 5.5 7.1 6.067 5.974 6.988L10.604 11.198C11.024 11.068 11.492 11 12 11C12.886 11 13.529 10.776 14.014 10.442C14.506 10.104 14.896 9.611 15.198 8.985C15.682 7.982 15.898 6.725 15.97 5.5H10ZM13 7C13.2652 7 13.5196 7.10536 13.7071 7.29289C13.8946 7.48043 14 7.73478 14 8C14 8.26522 13.8946 8.51957 13.7071 8.70711C13.5196 8.89464 13.2652 9 13 9C12.7348 9 12.4804 8.89464 12.2929 8.70711C12.1054 8.51957 12 8.26522 12 8C12 7.73478 12.1054 7.48043 12.2929 7.29289C12.4804 7.10536 12.7348 7 13 7Z" fill="#FF00FF"/>
</svg>
