<svg width="24" height="24" viewBox="0 0 24 24" fill="none" xmlns="http://www.w3.org/2000/svg">
<path d="M13.973 1.24101C14.1483 1.09033 14.3704 1.00506 14.6016 0.999704C14.8327 0.994352 15.0585 1.06925 15.2407 1.21165C15.4228 1.35405 15.55 1.55516 15.6005 1.78076C15.6511 2.00635 15.6219 2.2425 15.518 2.44901L15.471 2.53101L11.764 8.43601L19.327 11.055L19.444 11.105C19.5845 11.1748 19.7067 11.2767 19.8006 11.4024C19.8945 11.5282 19.9575 11.6743 19.9845 11.8289C20.0114 11.9835 20.0016 12.1423 19.9559 12.2924C19.9101 12.4425 19.8296 12.5798 19.721 12.693L16.221 16.33L10.095 22.694C9.92323 22.8717 9.69182 22.9794 9.44533 22.9966C9.19885 23.0137 8.95474 22.939 8.76008 22.7868C8.56542 22.6346 8.43399 22.4158 8.39113 22.1725C8.34827 21.9291 8.39701 21.6785 8.52796 21.469L12.234 15.564L4.67296 12.945C4.51454 12.8899 4.37251 12.7959 4.2599 12.6716C4.14729 12.5473 4.06772 12.3967 4.02849 12.2336C3.98927 12.0706 3.99165 11.9003 4.03541 11.7383C4.07918 11.5764 4.16292 11.4281 4.27896 11.307L7.77896 7.67001L13.904 1.30701L13.974 1.24101H13.973ZM6.80396 11.566L14.077 14.086L15.222 14.482L17.194 12.432L9.92296 9.91501L8.77596 9.51801L6.80396 11.566Z" fill="#FF00FF"/>
</svg>
