<svg width="24" height="24" viewBox="0 0 24 24" fill="none" xmlns="http://www.w3.org/2000/svg">
<path d="M14.4001 3.21C14.5902 3.0625 14.8271 2.98848 15.0674 3.00152C15.3076 3.01456 15.5351 3.11379 15.7081 3.281L19.2701 6.724C19.3671 6.81781 19.444 6.93027 19.4964 7.05461C19.5487 7.17894 19.5754 7.31259 19.5747 7.44749C19.5741 7.5824 19.5461 7.71578 19.4926 7.8396C19.439 7.96343 19.361 8.07513 19.2631 8.168L9.18912 17.726C9.08912 17.82 8.97112 17.892 8.84212 17.939L8.67612 18H20.0001V20H3.00012C2.83941 19.9998 2.68112 19.9609 2.53861 19.8867C2.3961 19.8124 2.27356 19.7049 2.18137 19.5733C2.08917 19.4417 2.03002 19.2898 2.00891 19.1305C1.98781 18.9711 2.00537 18.8091 2.06012 18.658L4.06012 13.158L4.10712 13.052C4.15881 12.9481 4.22818 12.8541 4.31212 12.774L14.3241 3.274L14.4001 3.21ZM5.85812 14.063L4.67012 17.328L7.96012 16.132L17.1271 7.436L15.0051 5.384L5.85812 14.064V14.063Z" fill="#FF00FF"/>
</svg>
