<svg width="24" height="24" viewBox="0 0 24 24" fill="none" xmlns="http://www.w3.org/2000/svg">
<path d="M15.707 21.207C14.7271 22.187 13.3235 22.625 12 22.625C10.6765 22.625 9.27294 22.187 8.29296 21.207L9.70703 19.793C10.2271 20.313 11.0735 20.625 12 20.625C12.9265 20.625 13.7729 20.313 14.293 19.793L15.707 21.207ZM12 2C15.0236 2.00014 17.6374 4.11078 18.2744 7.06641L20.4775 17.2891C20.5412 17.5844 20.468 17.8928 20.2783 18.1279C20.0885 18.3631 19.8022 18.5 19.5 18.5H4.5C4.1978 18.5 3.91152 18.363 3.72167 18.1279C3.53202 17.8929 3.45883 17.5843 3.52246 17.2891L5.72558 7.06641C6.36254 4.11055 8.97632 2 12 2ZM12 4C9.91863 4 8.11925 5.45266 7.68066 7.4873L5.73828 16.5H18.2617L16.3193 7.4873C15.8808 5.45271 14.0814 4.00014 12 4Z" fill="black"/>
<path d="M9 20.5C10.5 22 13.5 22 15 20.5" stroke="#FF00FF" stroke-width="2" stroke-linejoin="round"/>
</svg>
