<svg width="24" height="24" viewBox="0 0 24 24" fill="none" xmlns="http://www.w3.org/2000/svg">
<path d="M20 6.5C20.7956 6.5 21.5587 6.81607 22.1213 7.37868C22.6839 7.94129 23 8.70435 23 9.5V18C23 18.7956 22.6839 19.5587 22.1213 20.1213C21.5587 20.6839 20.7956 21 20 21H4C3.20435 21 2.44129 20.6839 1.87868 20.1213C1.31607 19.5587 1 18.7956 1 18V9.5C1 8.70435 1.31607 7.94129 1.87868 7.37868C2.44129 6.81607 3.20435 6.5 4 6.5H20ZM4 8.5C3.73478 8.5 3.48043 8.60536 3.29289 8.79289C3.10536 8.98043 3 9.23478 3 9.5V18C3 18.2652 3.10536 18.5196 3.29289 18.7071C3.48043 18.8946 3.73478 19 4 19H20C20.2652 19 20.5196 18.8946 20.7071 18.7071C20.8946 18.5196 21 18.2652 21 18V9.5C21 9.23478 20.8946 8.98043 20.7071 8.79289C20.5196 8.60536 20.2652 8.5 20 8.5H4ZM12 10.25C12.4596 10.25 12.9148 10.3405 13.3394 10.5164C13.764 10.6923 14.1499 10.9501 14.4749 11.2751C14.7999 11.6001 15.0577 11.986 15.2336 12.4106C15.4095 12.8352 15.5 13.2904 15.5 13.75C15.5 14.2096 15.4095 14.6648 15.2336 15.0894C15.0577 15.514 14.7999 15.8999 14.4749 16.2249C14.1499 16.5499 13.764 16.8077 13.3394 16.9836C12.9148 17.1595 12.4596 17.25 12 17.25C11.0717 17.25 10.1815 16.8813 9.52513 16.2249C8.86875 15.5685 8.5 14.6783 8.5 13.75C8.5 12.8217 8.86875 11.9315 9.52513 11.2751C10.1815 10.6187 11.0717 10.25 12 10.25ZM12 12.25C11.6022 12.25 11.2206 12.408 10.9393 12.6893C10.658 12.9706 10.5 13.3522 10.5 13.75C10.5 14.1478 10.658 14.5294 10.9393 14.8107C11.2206 15.092 11.6022 15.25 12 15.25C12.3978 15.25 12.7794 15.092 13.0607 14.8107C13.342 14.5294 13.5 14.1478 13.5 13.75C13.5 13.3522 13.342 12.9706 13.0607 12.6893C12.7794 12.408 12.3978 12.25 12 12.25ZM12 2C13.173 2 14.075 2.294 14.697 2.605C15.007 2.76 15.245 2.918 15.412 3.044C15.5021 3.11138 15.5889 3.18313 15.672 3.259L15.692 3.279L15.702 3.287L15.704 3.29L15.706 3.291V3.292L14.294 4.708L14.304 4.718L14.294 4.71C14.2679 4.68697 14.2408 4.66495 14.213 4.644C14.084 4.5487 13.9468 4.46504 13.803 4.394C13.425 4.207 12.827 4 12 4C11.173 4 10.575 4.206 10.197 4.395C10.007 4.49 9.87 4.582 9.787 4.644C9.75882 4.66493 9.73147 4.68695 9.705 4.71L9.695 4.719L9.706 4.708L8.294 3.292V3.291L8.296 3.29L8.299 3.287L8.308 3.279L8.328 3.259L8.388 3.204C8.45267 3.14822 8.51938 3.09485 8.588 3.044C8.755 2.918 8.993 2.76 9.303 2.605C9.925 2.295 10.827 2 12 2Z" fill="#FF00FF"/>
</svg>
