<svg width="24" height="24" viewBox="0 0 24 24" fill="none" xmlns="http://www.w3.org/2000/svg">
<path d="M20 6.5C21.6569 6.5 23 7.84315 23 9.5V18C23 19.6569 21.6569 21 20 21H4C2.34315 21 1 19.6569 1 18V9.5C1 7.84315 2.34315 6.5 4 6.5H20ZM4 8.5C3.44771 8.5 3 8.94771 3 9.5V18C3 18.5523 3.44771 19 4 19H20C20.5523 19 21 18.5523 21 18V9.5C21 8.94771 20.5523 8.5 20 8.5H4ZM12 10.25C13.933 10.25 15.5 11.817 15.5 13.75C15.5 15.683 13.933 17.25 12 17.25C10.067 17.25 8.5 15.683 8.5 13.75C8.5 11.817 10.067 10.25 12 10.25ZM12 12.25C11.1716 12.25 10.5 12.9216 10.5 13.75C10.5 14.5784 11.1716 15.25 12 15.25C12.8284 15.25 13.5 14.5784 13.5 13.75C13.5 12.9216 12.8284 12.25 12 12.25ZM12 2C13.1728 2 14.075 2.29433 14.6973 2.60547C15.0067 2.76017 15.2447 2.91837 15.4121 3.04395C15.4957 3.10665 15.5624 3.16129 15.6113 3.2041C15.6356 3.22536 15.656 3.24395 15.6719 3.25879C15.6798 3.26622 15.6866 3.27368 15.6924 3.2793C15.6953 3.28211 15.6988 3.28477 15.7012 3.28711C15.7022 3.28812 15.7032 3.28912 15.7041 3.29004L15.7061 3.29102V3.29199L14.2939 4.70801L14.3047 4.71875C14.3047 4.71875 14.3012 4.71544 14.2949 4.70996C14.2814 4.69814 14.254 4.6744 14.2129 4.64355C14.1304 4.58165 13.9932 4.48978 13.8027 4.39453C13.425 4.20568 12.8272 4 12 4C11.1728 4 10.575 4.20568 10.1973 4.39453C10.0068 4.48978 9.86965 4.58165 9.78711 4.64355C9.746 4.6744 9.71859 4.69814 9.70508 4.70996C9.69882 4.71544 9.69531 4.71875 9.69531 4.71875L9.70605 4.70801L8.29395 3.29199V3.29102L8.2959 3.29004C8.29682 3.28912 8.2978 3.28812 8.29883 3.28711C8.3012 3.28477 8.30471 3.28211 8.30762 3.2793C8.31342 3.27368 8.3202 3.26622 8.32812 3.25879C8.34396 3.24395 8.36438 3.22536 8.38867 3.2041C8.43761 3.16129 8.50429 3.10665 8.58789 3.04395C8.75534 2.91837 8.99332 2.76017 9.30273 2.60547C9.92502 2.29432 10.8272 2 12 2Z" fill="black"/>
<path d="M9 4C9 4 10 3 12 3C14 3 15 4 15 4" stroke="#FF00FF" stroke-width="2" stroke-linejoin="round"/>
</svg>
