<svg width="24" height="24" viewBox="0 0 24 24" fill="none" xmlns="http://www.w3.org/2000/svg">
<path d="M10.866 2.57C11.8477 2.45054 12.8421 2.48563 13.813 2.674L13.431 4.637C12.665 4.48833 11.8805 4.46066 11.106 4.555L10.765 4.603C8.80344 4.93093 7.05245 6.02451 5.89709 7.64326C4.74172 9.26201 4.2766 11.2734 4.60399 13.235L4.67699 13.615C5.09124 15.4915 6.21001 17.1375 7.80245 18.2132C9.39488 19.2889 11.3395 19.7123 13.235 19.396L13.615 19.323C15.4917 18.9087 17.1378 17.7898 18.2135 16.1972C19.2893 14.6045 19.7125 12.6597 19.396 10.764L20.383 10.6L21.369 10.435C22.206 15.448 18.953 20.199 14.045 21.276L13.565 21.369C8.55199 22.206 3.80099 18.953 2.72399 14.045L2.63099 13.565C1.76699 8.39 5.25999 3.494 10.435 2.63L10.866 2.568V2.57ZM22.414 3L21.707 3.707L20.57 4.843C21.247 4.922 21.95 5.178 22.625 5.719L21.375 7.281C20.553 6.624 19.638 6.731 18.738 7.155C18.1835 7.42122 17.673 7.77058 17.224 8.191L17.207 8.207L12 13.414L10.586 12L15.793 6.793V6.792L15.796 6.79L15.799 6.786L15.809 6.776L15.827 6.759L21 1.586L22.414 3Z" fill="#FF00FF"/>
</svg>
