<svg width="24" height="24" viewBox="0 0 24 24" fill="none" xmlns="http://www.w3.org/2000/svg">
<path d="M13.0645 3H10.0645M10.0645 3V8V11.5M10.0645 3H6.56445M6.56445 3V8M6.56445 3H5.06445C3.68374 3 2.56445 4.11929 2.56445 5.5C2.56445 6.88071 3.68374 8 5.06445 8H6.56445M6.56445 11.5V8" stroke="#FF00FF" stroke-width="2"/>
<path d="M6.56445 13.5V18.5M6.56445 18.5L11.3197 16.9549M6.56445 18.5L9.50338 22.5451M6.56445 18.5L3.62553 22.5451M6.56445 18.5L1.80917 16.9549" stroke="#FF00FF" stroke-width="2" stroke-linejoin="round"/>
<path d="M12.5645 20.5H21.5645" stroke="#FF00FF" stroke-width="2"/>
<path d="M19.2487 13.25C19.2487 14.7688 17.9762 16 16.4066 16C14.8369 16 13.5645 14.7688 13.5645 13.25C13.5645 11.7312 14.8369 10.5 16.4066 10.5C17.9762 10.5 19.1884 11.875 19.2487 13.25ZM19.2487 13.25C19.2487 10.5 17.8276 5 17.8276 5C17.8276 5 20.6697 5.91667 22.5645 5.91667" stroke="#FF00FF" stroke-width="2" stroke-linejoin="round"/>
</svg>
