<svg width="24" height="24" viewBox="0 0 24 24" fill="none" xmlns="http://www.w3.org/2000/svg">
<path d="M7.565 17.123L11.011 16.003L11.629 17.906L8.183 19.026L10.313 21.957L8.695 23.133L6.565 20.201L4.435 23.133L2.817 21.957L4.947 19.025L1.5 17.906L2.12 16.004L5.565 17.123V13.5H7.565V17.123ZM21 21.5H13V19.5H21V21.5Z" fill="black"/>
<path fill-rule="evenodd" clip-rule="evenodd" d="M17.6419 4.272C17.7729 4.14863 17.9348 4.06289 18.1104 4.02382C18.2861 3.98475 18.469 3.99379 18.6399 4.05L18.6609 4.057L18.7479 4.084L19.0799 4.183C19.3649 4.265 19.7649 4.376 20.2199 4.486C21.1539 4.712 22.2419 4.917 23.0649 4.917V6.917C21.9919 6.917 20.7109 6.663 19.7499 6.431L19.6939 6.416C19.7939 6.855 19.9069 7.356 20.0179 7.892C20.3719 9.605 20.7489 11.76 20.7489 13.25C20.7489 15.352 18.9969 17 16.9059 17C14.8159 17 13.0649 15.352 13.0649 13.25C13.0649 11.148 14.8149 9.5 16.9059 9.5C17.4229 9.5 17.9069 9.607 18.3459 9.794C18.257 9.29339 18.1614 8.79401 18.0589 8.296C17.8512 7.29572 17.6228 6.29984 17.3739 5.309L17.3639 5.264L17.3599 5.253V5.25C17.3151 5.07651 17.3176 4.89417 17.3672 4.72198C17.4168 4.5498 17.5117 4.39506 17.6419 4.272ZM16.9059 11.5C15.8579 11.5 15.0649 12.314 15.0649 13.25C15.0649 14.186 15.8569 15 16.9049 15C17.9449 15 18.7339 14.198 18.7459 13.271C18.6939 12.381 17.8759 11.5 16.9059 11.5ZM13.5649 4H11.0649V11.5H9.06494V4H7.56494V11.5H5.56494V9H5.06494C4.13668 9 3.24644 8.63125 2.59007 7.97487C1.93369 7.3185 1.56494 6.42826 1.56494 5.5C1.56494 4.57174 1.93369 3.6815 2.59007 3.02513C3.24644 2.36875 4.13668 2 5.06494 2H13.5649V4ZM5.06494 4C4.66712 4 4.28559 4.15804 4.00428 4.43934C3.72298 4.72064 3.56494 5.10218 3.56494 5.5C3.56494 5.89782 3.72298 6.27936 4.00428 6.56066C4.28559 6.84196 4.66712 7 5.06494 7H5.56494V4H5.06494Z" fill="black"/>
</svg>
