<svg width="24" height="24" viewBox="0 0 24 24" fill="none" xmlns="http://www.w3.org/2000/svg">
<path fill-rule="evenodd" clip-rule="evenodd" d="M14.6473 13.6182C14.7891 12.8021 15.5655 12.2558 16.3816 12.3975C17.1978 12.5394 17.7442 13.3157 17.6023 14.1319C17.0589 17.2595 15.5505 19.8841 13.5311 22.3301C13.0036 22.9686 12.0584 23.0586 11.4197 22.5313C10.7813 22.0038 10.6913 21.0587 11.2186 20.4199C13.0343 18.2206 14.2221 16.0651 14.6473 13.6182ZM10.6209 1.64553C11.788 1.44532 12.56 1.43758 13.7439 1.64748L13.7449 1.64651C16.4877 2.12631 18.9278 3.67651 20.5281 5.9551C22.0284 8.09145 22.6754 10.7048 22.3553 13.2832L22.2781 13.7989C21.9104 15.8952 21.3132 17.9456 20.4969 19.9112C20.1791 20.6761 19.301 21.0384 18.5359 20.7207C17.7715 20.4028 17.409 19.5255 17.7264 18.7608C18.4581 16.9987 18.9934 15.1606 19.3231 13.2813C19.6655 11.3221 19.2161 9.30635 18.0731 7.67873C16.9299 6.05137 15.1864 4.94423 13.2273 4.60159L13.2234 4.60061C12.3975 4.45397 11.9748 4.45744 11.1287 4.60256C10.3123 4.74256 9.53646 4.19429 9.39629 3.37795C9.25655 2.56175 9.80476 1.78573 10.6209 1.64553ZM10.6805 6.10061C11.8458 5.8422 13.0544 5.96864 14.1385 6.46584C15.2213 6.96264 16.1124 7.79836 16.7059 8.84084C17.1152 9.56061 16.8638 10.476 16.1443 10.8858C15.4244 11.2954 14.5082 11.0441 14.0984 10.3242C13.8023 9.80404 13.3749 9.416 12.8875 9.19241C12.4017 8.96972 11.8607 8.9116 11.3299 9.02932C10.7968 9.14765 10.2836 9.44158 9.86993 9.89455C9.45608 10.3477 9.1668 10.9323 9.0545 11.5723C8.61805 14.1012 7.58884 16.4907 6.05743 18.5108C5.55699 19.1708 4.616 19.3011 3.95586 18.8008C3.29617 18.3003 3.1667 17.3592 3.6668 16.6992C4.903 15.0686 5.74308 13.1279 6.09942 11.0635V11.0606C6.30695 9.87078 6.84561 8.75749 7.65508 7.87112C8.46534 6.98409 9.51717 6.35875 10.6805 6.10061ZM10.5223 12.1192C10.6636 11.3031 11.4395 10.7555 12.2557 10.8965C13.0719 11.0376 13.6194 11.8146 13.4783 12.6309C13.1722 14.4019 12.4789 15.6624 11.7371 17.0147C11.3387 17.741 10.4263 18.0069 9.7 17.6084C8.974 17.21 8.70814 16.2985 9.10625 15.5723C9.85768 14.2025 10.3113 13.34 10.5223 12.1192ZM5.94512 3.2344C6.64419 2.79022 7.57105 2.99648 8.01543 3.69534C8.45962 4.39443 8.25341 5.32128 7.5545 5.76565C6.78691 6.25339 6.46357 6.71073 5.76739 7.75979C5.19981 8.61511 4.6659 10.049 4.47735 11.1319C4.33529 11.9479 3.55899 12.4944 2.74297 12.3526C1.92704 12.2104 1.38046 11.4341 1.52227 10.6182C1.7698 9.19612 2.4341 7.35632 3.26739 6.10061C3.97194 5.03893 4.59278 4.09378 5.94512 3.2344Z" fill="#4E6F64"/>
</svg>
