<svg width="24" height="24" viewBox="0 0 24 24" fill="none" xmlns="http://www.w3.org/2000/svg">
<path d="M17.5 12.5C18.3284 12.5 19 13.1716 19 14V15.5H21C21.8284 15.5 22.5 16.1716 22.5 17C22.5 17.8284 21.8284 18.5 21 18.5H19V20C19 20.8284 18.3284 21.5 17.5 21.5C16.6716 21.5 16 20.8284 16 20V14C16 13.1716 16.6716 12.5 17.5 12.5ZM13 15.5C13.8284 15.5 14.5 16.1716 14.5 17C14.5 17.8284 13.8284 18.5 13 18.5H3C2.17157 18.5 1.5 17.8284 1.5 17C1.5 16.1716 2.17157 15.5 3 15.5H13ZM10 2.5C10.8284 2.5 11.5 3.17157 11.5 4V5.5H21C21.8284 5.5 22.5 6.17157 22.5 7C22.5 7.82843 21.8284 8.5 21 8.5H11.5V10C11.5 10.8284 10.8284 11.5 10 11.5C9.17157 11.5 8.5 10.8284 8.5 10V4C8.5 3.17157 9.17157 2.5 10 2.5ZM5.5 5.5C6.32843 5.5 7 6.17157 7 7C7 7.82843 6.32843 8.5 5.5 8.5H3C2.17157 8.5 1.5 7.82843 1.5 7C1.5 6.17157 2.17157 5.5 3 5.5H5.5Z" fill="#4E6F64"/>
</svg>
