<svg width="24" height="24" viewBox="0 0 24 24" fill="none" xmlns="http://www.w3.org/2000/svg">
<path fill-rule="evenodd" clip-rule="evenodd" d="M10.5772 0.991384C11.4828 0.588525 12.5173 0.588525 13.4229 0.991384L20.4649 4.1242C21.6733 4.66182 22.5262 5.86839 22.4913 7.27947C22.465 8.34071 22.3689 9.94828 22.0616 11.6525C21.7578 13.3373 21.2281 15.2282 20.2715 16.7853C18.5279 19.6235 15.2161 21.8308 13.6895 22.758C12.6476 23.3908 11.3525 23.3907 10.3106 22.758C8.78408 21.8308 5.47226 19.6235 3.72857 16.7853C2.77197 15.2282 2.24237 13.3373 1.93854 11.6525C1.63123 9.94827 1.53515 8.34071 1.50885 7.27947C1.4739 5.86835 2.32677 4.66181 3.53522 4.1242L10.5772 0.991384ZM12.2032 3.7326C12.0738 3.67504 11.9263 3.67504 11.7969 3.7326L4.75494 6.86541C4.57191 6.94684 4.50531 7.09266 4.50787 7.20428C4.53189 8.17366 4.61974 9.61773 4.89068 11.1203C5.16519 12.6424 5.60875 14.1154 6.28424 15.215C7.61782 17.3856 10.3619 19.2787 11.8682 20.1935C11.9533 20.2451 12.0469 20.2452 12.1319 20.1935C13.6383 19.2787 16.3823 17.3857 17.7159 15.215C18.3914 14.1154 18.8349 12.6424 19.1094 11.1203C19.3804 9.61772 19.4682 8.17366 19.4922 7.20428C19.4948 7.09268 19.4281 6.94685 19.2452 6.86541L12.2032 3.7326ZM12.0001 6.38787C12.0003 6.20626 12.1882 6.08515 12.3536 6.16033L17.3409 8.42791C17.4363 8.47132 17.4948 8.56771 17.4844 8.67205C17.4135 9.37799 17.0792 12.1031 16.0001 14.0002C15.0928 15.5951 13.1841 16.8225 12.3751 17.2922C12.2094 17.3882 12.0003 17.262 12.0001 17.0705V6.38787Z" fill="#4E6F64"/>
</svg>
