<svg width="24" height="24" viewBox="0 0 24 24" fill="none" xmlns="http://www.w3.org/2000/svg">
<path d="M12.5 3.5C15.4784 3.5 17.9482 5.67036 18.418 8.51562C21.5366 8.73026 24 11.3268 24 14.5C24 17.8137 21.3137 20.5 18 20.5H11.5C8.52127 20.5 6.05033 18.3292 5.58105 15.4834C2.46288 15.2683 2.22052e-06 12.6728 0 9.5C1.30687e-07 6.18629 2.68629 3.5 6 3.5H12.5ZM18.1553 11.5039C17.3303 13.8319 15.1107 15.5 12.5 15.5H8.67383C9.08594 16.6647 10.1942 17.5 11.5 17.5H18C19.6568 17.5 21 16.1568 21 14.5C21 12.8952 19.74 11.5847 18.1553 11.5039ZM11.5 11.5C10.6126 11.5 9.81781 11.8876 9.26855 12.5H12.5C13.3874 12.5 14.1822 12.1124 14.7314 11.5H11.5ZM6 6.5C4.34315 6.5 3 7.84315 3 9.5C3 11.1044 4.25955 12.4138 5.84375 12.4951C6.66885 10.1674 8.88946 8.50001 11.5 8.5H15.3262C14.9141 7.33532 13.8059 6.5 12.5 6.5H6Z" fill="#4E6F64"/>
</svg>
