<svg width="24" height="24" viewBox="0 0 24 24" fill="none" xmlns="http://www.w3.org/2000/svg">
<path d="M19 1.5C20.933 1.5 22.5 3.067 22.5 5V9.30469C22.5 14.9175 19.0269 19.9453 13.7773 21.9316L12.5312 22.4033C12.1892 22.5327 11.8108 22.5327 11.4688 22.4033L10.2227 21.9316C4.97309 19.9453 1.5 14.9175 1.5 9.30469V5C1.5 3.067 3.067 1.5 5 1.5H19ZM5 4.5C4.72386 4.5 4.5 4.72386 4.5 5V9.30469C4.5 13.6702 7.20122 17.5801 11.2842 19.125L12 19.3955L12.7158 19.125C16.7988 17.5801 19.5 13.6702 19.5 9.30469V5C19.5 4.72386 19.2761 4.5 19 4.5H5ZM12 7.5C13.3807 7.50001 14.5 8.61929 14.5 10C14.5 10.8179 14.1072 11.5439 13.5 12V13.5C13.5 14.3284 12.8284 15 12 15C11.1716 15 10.5 14.3284 10.5 13.5V12C9.89282 11.5439 9.5 10.8179 9.5 10C9.5 8.61929 10.6193 7.5 12 7.5Z" fill="#4E6F64"/>
</svg>
