<svg width="116" height="116" viewBox="0 0 116 116" fill="none" xmlns="http://www.w3.org/2000/svg">
<path d="M24.9166 68.611C24.4843 68.3291 23.9007 68.4074 23.569 68.7975L17.1442 76.3571C16.788 76.7763 16.8519 77.4006 17.3034 77.7214C20.4785 79.9532 24.0815 81.5997 27.7018 82.9538C34.9062 85.6481 45.6574 88.2134 60.4157 88.2136C75.1742 88.2134 85.9261 85.6482 93.1305 82.9538C96.7504 81.5998 100.355 79.9519 103.528 77.7214C103.979 77.4006 104.043 76.7762 103.687 76.3571L97.2623 68.7975C96.9307 68.4074 96.3471 68.3292 95.9147 68.611C93.7126 70.0473 91.2726 71.1201 88.817 72.0388C82.9971 74.2155 73.7074 76.522 60.4157 76.5222C47.124 76.522 37.8343 74.2155 32.0143 72.0388C29.5587 71.1202 27.1188 70.0472 24.9166 68.611ZM76.4762 28.8962C76.3383 28.8963 76.2264 29.0083 76.2262 29.1462V48.4196C76.2263 48.5576 76.3382 48.6695 76.4762 48.6696H87.8405C87.9782 48.6692 88.0904 48.5574 88.0905 48.4196V29.1462C88.0903 29.0085 87.9781 28.8966 87.8405 28.8962H76.4762ZM17.1647 28.8972C17.0268 28.8974 16.9147 29.0092 16.9147 29.1472V48.4196C16.9147 48.5575 17.0268 48.6694 17.1647 48.6696H28.5289C28.6668 48.6694 28.7789 48.5576 28.7789 48.4196V29.1472C28.7789 29.0092 28.6668 28.8974 28.5289 28.8972H17.1647Z" fill="black"/>
</svg>
