<svg width="24" height="24" fill="none" xmlns="http://www.w3.org/2000/svg"><path d="M6.6 11c.14 0 .21 0 .264.027a.252.252 0 0 1 .11.11C7 11.19 7 11.26 7 11.4v10.2c0 .14 0 .21-.027.263a.252.252 0 0 1-.11.11C6.81 22 6.74 22 6.6 22H4.4c-.14 0-.21 0-.264-.027a.251.251 0 0 1-.109-.11C4 21.81 4 21.74 4 21.6V11.4c0-.14 0-.21.027-.263a.251.251 0 0 1 .11-.11C4.19 11 4.26 11 4.4 11h2.2Zm6.5 0c.14 0 .21 0 .264.027a.252.252 0 0 1 .11.11c.026.053.026.123.026.263v10.2c0 .14 0 .21-.027.263a.252.252 0 0 1-.11.11C13.31 22 13.24 22 13.1 22h-2.2c-.14 0-.21 0-.264-.027a.25.25 0 0 1-.109-.11c-.027-.053-.027-.124-.027-.263V11.4c0-.14 0-.21.027-.263a.25.25 0 0 1 .11-.11C10.69 11 10.76 11 10.9 11h2.2Zm6.5 0c.14 0 .21 0 .264.027a.252.252 0 0 1 .11.11c.026.053.026.123.026.263v10.2c0 .14 0 .21-.027.263a.252.252 0 0 1-.11.11C19.81 22 19.74 22 19.6 22h-2.2c-.14 0-.21 0-.264-.027a.25.25 0 0 1-.109-.11C17 21.81 17 21.74 17 21.6V11.4c0-.14 0-.21.027-.263a.25.25 0 0 1 .11-.11C17.19 11 17.26 11 17.4 11h2.2Zm-8.323-8.814c.45-.248.996-.248 1.446 0l10.964 6.03c.123.067.184.102.218.151.03.044.044.096.043.149-.002.06-.036.12-.104.243l-1.06 1.928c-.068.122-.101.184-.15.217a.25.25 0 0 1-.149.043c-.06-.002-.122-.035-.244-.102L12.193 5.318c-.07-.038-.105-.058-.143-.066a.254.254 0 0 0-.1 0c-.037.008-.072.028-.143.066L1.76 10.845c-.122.067-.184.1-.244.102a.25.25 0 0 1-.148-.043c-.05-.033-.084-.095-.152-.217L.155 8.759c-.066-.122-.1-.184-.103-.243a.251.251 0 0 1 .043-.149c.034-.05.095-.084.218-.151l10.964-6.03Z" fill="#F0F"/></svg>