<svg width="24" height="24" fill="none" xmlns="http://www.w3.org/2000/svg"><path d="M12 12.25c2.518 0 4.91.836 6.694 2.192 1.776 1.35 3.056 3.31 3.056 5.558 0 .69-.56 1.25-1.25 1.25h-17c-.69 0-1.25-.56-1.25-1.25 0-2.248 1.28-4.208 3.056-5.558C7.09 13.086 9.482 12.25 12 12.25Zm0 2.5c-1.982 0-3.84.664-5.18 1.683-.9.684-1.52 1.487-1.833 2.317h14.026c-.313-.83-.932-1.633-1.832-2.317-1.34-1.02-3.199-1.683-5.181-1.683Zm0-12.5a4.25 4.25 0 1 1 0 8.5 4.25 4.25 0 0 1 0-8.5Zm0 2.5a1.75 1.75 0 1 0 0 3.5 1.75 1.75 0 0 0 0-3.5Z" fill="#F0F"/></svg>