<svg width="24" height="24" fill="none" xmlns="http://www.w3.org/2000/svg"><path d="M16.038 1c.23 0 .4.226.352.465l-.442 2.168c1.507.493 2.731 1.378 3.488 2.47a.381.381 0 0 1-.067.498l-1.857 1.62c-.164.143-.406.105-.54-.07-.938-1.227-2.411-1.92-4.006-1.92-1.735 0-2.893.82-2.893 2 0 .974.868 1.487 3.519 2.102h.002c3.374.77 4.917 2.257 4.917 4.77 0 3.15-2.412 5.475-6.176 5.721l-.368 1.871a.367.367 0 0 1-.353.305H8.698c-.232 0-.403-.232-.35-.473l.467-2.094c-1.877-.569-3.384-1.677-4.257-3.043a.383.383 0 0 1 .08-.495l2.037-1.687c.168-.139.411-.092.536.092 1.073 1.583 2.716 2.52 4.694 2.52 1.784 0 3.134-.922 3.134-2.255 0-1.026-.675-1.488-2.94-2-3.905-.872-5.448-2.412-5.448-4.924 0-2.916 2.303-5.118 5.778-5.404l.38-1.932A.366.366 0 0 1 13.163 1h2.876Z" fill="#F0F"/></svg>