<svg width="24" height="24" fill="none" xmlns="http://www.w3.org/2000/svg"><path fill-rule="evenodd" clip-rule="evenodd" d="M5.155 14.195a.214.214 0 0 0-.278.04l-1.33 1.563a.192.192 0 0 0 .033.282c.657.462 1.402.803 2.151 1.083 1.49.558 3.716 1.088 6.769 1.088s5.278-.53 6.768-1.088c.75-.28 1.495-.621 2.152-1.083a.192.192 0 0 0 .033-.282l-1.33-1.564a.215.215 0 0 0-.279-.039c-.455.297-.96.52-1.468.71-1.204.45-3.127.927-5.876.927-2.75 0-4.672-.477-5.876-.928-.508-.19-1.013-.412-1.469-.709ZM16.071 5.98a.3.3 0 0 0-.3.3v3.49a.3.3 0 0 0 .3.3h1.854a.3.3 0 0 0 .3-.3V6.28a.3.3 0 0 0-.3-.3h-1.854Zm-12.271 0a.3.3 0 0 0-.3.3v3.49a.3.3 0 0 0 .3.3h1.854a.3.3 0 0 0 .3-.3V6.28c0-.166-.135-.3-.3-.3H3.8Z" fill="#F0F"/></svg>