<svg width="24" height="24" fill="none" xmlns="http://www.w3.org/2000/svg"><path d="M9.5 12.5A1.5 1.5 0 0 1 11 14v6l-.008.153A1.5 1.5 0 0 1 9.5 21.5h-6A1.5 1.5 0 0 1 2 20v-6a1.5 1.5 0 0 1 1.5-1.5h6Zm12.25 2a.25.25 0 0 1 .25.25V20l-.008.153a1.5 1.5 0 0 1-1.339 1.34l-.153.007h-5.25a.25.25 0 0 1-.25-.25v-2a.25.25 0 0 1 .25-.25h4.25v-4.25a.25.25 0 0 1 .25-.25h2ZM4.5 19h4v-4h-4v4Zm11-6.5a1.5 1.5 0 1 1 0 3 1.5 1.5 0 0 1 0-3Zm-5-5a1.5 1.5 0 1 1 0 3 1.5 1.5 0 0 1 0-3Zm-1.75-5a.25.25 0 0 1 .25.25v2a.25.25 0 0 1-.25.25H4.5v4.25a.25.25 0 0 1-.25.25h-2A.25.25 0 0 1 2 9.25V4l.008-.153a1.5 1.5 0 0 1 1.339-1.34L3.5 2.5h5.25Zm11.75 0A1.5 1.5 0 0 1 22 4v4l-.008.153A1.5 1.5 0 0 1 20.5 9.5h-4A1.5 1.5 0 0 1 15 8V4a1.5 1.5 0 0 1 1.5-1.5h4Zm-3 4.5h2V5h-2v2Z" fill="#F0F"/></svg>