<svg width="23" height="22" viewBox="0 0 23 22" fill="none" xmlns="http://www.w3.org/2000/svg">
<path fill-rule="evenodd" clip-rule="evenodd" d="M0.589038 4.18437C0.559609 4.01139 0.692889 3.85352 0.868358 3.85352L21.7971 3.85352C21.9726 3.85352 22.1059 4.01139 22.0765 4.18437L20.0905 15.8577C20.0673 15.9939 19.9493 16.0935 19.8112 16.0935H2.85431C2.71616 16.0935 2.59816 15.9939 2.57499 15.8577L0.589038 4.18437Z" fill="#3F524C"/>
<path fill-rule="evenodd" clip-rule="evenodd" d="M1.13354 1.13354L2.42955 6.57354L1.13354 1.13354Z" fill="#3F524C"/>
<path d="M1.13354 1.13354L2.42955 6.57354" stroke="#3F524C" stroke-width="2.26667" stroke-linecap="round"/>
<path fill-rule="evenodd" clip-rule="evenodd" d="M5.7563 21.0535C6.75041 21.0535 7.5563 20.2207 7.5563 19.1935C7.5563 18.1662 6.75041 17.3335 5.7563 17.3335C4.76219 17.3335 3.9563 18.1662 3.9563 19.1935C3.9563 20.2207 4.76219 21.0535 5.7563 21.0535Z" fill="#3F524C"/>
<path fill-rule="evenodd" clip-rule="evenodd" d="M17.1564 21.0535C18.1506 21.0535 18.9564 20.2207 18.9564 19.1935C18.9564 18.1662 18.1506 17.3335 17.1564 17.3335C16.1623 17.3335 15.3564 18.1662 15.3564 19.1935C15.3564 20.2207 16.1623 21.0535 17.1564 21.0535Z" fill="#3F524C"/>
</svg>
