<svg width="24" height="24" viewBox="0 0 24 24" fill="none" xmlns="http://www.w3.org/2000/svg">
<path fill-rule="evenodd" clip-rule="evenodd" d="M11.9532 1.50003C12.1825 1.49987 12.5071 1.4995 12.8008 1.52347C13.1531 1.55225 13.7161 1.62968 14.3164 1.93558C15.069 2.31908 15.681 2.93199 16.0645 3.6846C16.3176 4.18164 16.412 4.65285 16.4541 5.00003H13.3623C13.2659 4.83376 13.1261 4.69705 12.9541 4.60941C12.7403 4.50044 12.4602 4.50003 11.9004 4.50003H6.09964C5.53989 4.50003 5.25979 4.50044 5.04593 4.60941C4.85798 4.70524 4.70524 4.85798 4.60941 5.04593C4.50044 5.25979 4.50003 5.53989 4.50003 6.09964V12.9004C4.50003 13.4603 4.50044 13.7403 4.60941 13.9541C4.70523 14.1421 4.85797 14.2948 5.04593 14.3907C5.24671 14.493 5.50589 14.4987 6.00003 14.4991V17.4991C5.77457 17.4991 5.47345 17.499 5.19925 17.4766C4.84708 17.4478 4.28476 17.3702 3.6846 17.0645C2.93199 16.681 2.31908 16.069 1.93558 15.3164C1.62968 14.7161 1.55225 14.1531 1.52347 13.8008C1.4995 13.5071 1.49987 13.1825 1.50003 12.9532V6.04691C1.49987 5.81749 1.49949 5.49293 1.52347 5.19925C1.55224 4.84709 1.62992 4.28475 1.93558 3.6846C2.31907 2.93195 2.93195 2.31907 3.6846 1.93558C4.28475 1.62992 4.84709 1.55224 5.19925 1.52347C5.49293 1.49949 5.81749 1.49987 6.04691 1.50003H11.9532Z" fill="#4E6F64"/>
<rect x="9" y="8" width="12" height="13" rx="2.5" stroke="#4E6F64" stroke-width="3" stroke-linecap="round" stroke-linejoin="round"/>
</svg>
