<svg width="24" height="24" viewBox="0 0 24 24" fill="none" xmlns="http://www.w3.org/2000/svg">
<g clip-path="url(#clip0_1_60567)">
<path d="M12 0C18.6274 0 24 5.37258 24 12C24 18.6274 18.6274 24 12 24C5.37258 24 0 18.6274 0 12C0 5.37258 5.37258 0 12 0ZM12 3C7.02944 3 3 7.02944 3 12C3 16.9706 7.02944 21 12 21C16.9706 21 21 16.9706 21 12C21 7.02944 16.9706 3 12 3ZM12 15C12.828 15 13.5 15.672 13.5 16.5C13.5 17.328 12.828 18 12 18C11.172 18 10.5 17.328 10.5 16.5C10.5 15.672 11.172 15 12 15ZM12 6C12.8284 6 13.5 6.67157 13.5 7.5V12C13.5 12.8284 12.8284 13.5 12 13.5C11.1716 13.5 10.5 12.8284 10.5 12V7.5C10.5 6.67157 11.1716 6 12 6Z" fill="#4E6F64"/>
</g>
<defs>
<clipPath id="clip0_1_60567">
<rect width="24" height="24" fill="white"/>
</clipPath>
</defs>
</svg>
