<svg width="25" height="25" viewBox="0 0 25 25" fill="none" xmlns="http://www.w3.org/2000/svg">
<circle cx="4.01758" cy="20.0177" r="1" stroke="#0294E7" stroke-width="0.05"/>
<circle cx="4.01758" cy="4.0177" r="1" stroke="#0294E7" stroke-width="0.05"/>
<circle cx="20.0176" cy="4.0177" r="1" stroke="#0294E7" stroke-width="0.05"/>
<circle cx="20.0176" cy="20.0177" r="1" stroke="#0294E7" stroke-width="0.05"/>
<path d="M13.0176 24.0177L13.0176 0.0177002" stroke="#0294E7" stroke-width="0.05"/>
<path d="M11.0176 24.0177L11.0176 0.0177002" stroke="#0294E7" stroke-width="0.05"/>
<path d="M24.0176 13.0177H0.0175781" stroke="#0294E7" stroke-width="0.05"/>
<path d="M24.0176 11.0177H0.0175781" stroke="#0294E7" stroke-width="0.05"/>
<circle cx="12.0176" cy="12.0177" r="9" stroke="#0294E7" stroke-width="0.05"/>
<circle cx="12.0176" cy="12.0177" r="11" stroke="#0294E7" stroke-width="0.05"/>
<circle cx="12.0176" cy="12.0177" r="7" stroke="#0294E7" stroke-width="0.05"/>
<circle cx="12.0176" cy="12.0177" r="5" stroke="#0294E7" stroke-width="0.05"/>
<path d="M3.01758 24.0177L3.01758 0.0177002" stroke="#0294E7" stroke-width="0.05"/>
<path d="M4.01758 24.0177L4.01758 0.0177002" stroke="#0294E7" stroke-width="0.05"/>
<path d="M20.0176 24.0177L20.0176 0.0177002" stroke="#0294E7" stroke-width="0.05"/>
<path d="M21.0176 24.0177L21.0176 0.0177002" stroke="#0294E7" stroke-width="0.05"/>
<path d="M24.0176 21.0177H0.0175781" stroke="#0294E7" stroke-width="0.05"/>
<path d="M24.0176 20.0177H0.0175781" stroke="#0294E7" stroke-width="0.05"/>
<path d="M24.0176 4.0177H0.0175781" stroke="#0294E7" stroke-width="0.05"/>
<path d="M24.0176 5.0177H0.0175781" stroke="#0294E7" stroke-width="0.05"/>
<path d="M12.0176 24.0177L12.0176 0.0177002" stroke="#0294E7" stroke-width="0.05"/>
<path d="M24.0176 12.0177H0.0175781" stroke="#0294E7" stroke-width="0.05"/>
<path d="M24.0176 19.0177H0.0175781" stroke="#0294E7" stroke-width="0.05"/>
<path d="M24.0176 3.0177H0.0175781" stroke="#0294E7" stroke-width="0.05"/>
<path d="M24.0176 24.0177L0.0175781 0.0177002" stroke="#0294E7" stroke-width="0.05"/>
<path d="M24.0176 0.0177002L0.0175781 24.0177" stroke="#0294E7" stroke-width="0.05"/>
<path d="M19.0176 24.0177L19.0176 0.0177002" stroke="#0294E7" stroke-width="0.05"/>
<path d="M5.01758 24.0177L5.01758 0.0177002" stroke="#0294E7" stroke-width="0.05"/>
<g style="mix-blend-mode:multiply">
<path d="M4.01758 15.0177C4.56986 15.0177 5.01758 15.4654 5.01758 16.0177V19.0177H8.01758C8.56986 19.0177 9.01758 19.4654 9.01758 20.0177C9.01758 20.57 8.56986 21.0177 8.01758 21.0177H4.01758C3.46529 21.0177 3.01758 20.57 3.01758 20.0177V16.0177C3.01758 15.4654 3.46529 15.0177 4.01758 15.0177ZM20.0176 15.0177C20.5699 15.0177 21.0176 15.4654 21.0176 16.0177V20.0177C21.0176 20.2829 20.9121 20.5372 20.7246 20.7247C20.5371 20.9123 20.2828 21.0177 20.0176 21.0177H16.0176C15.4653 21.0177 15.0176 20.57 15.0176 20.0177C15.0176 19.4654 15.4653 19.0177 16.0176 19.0177H19.0176V16.0177C19.0176 15.4654 19.4653 15.0177 20.0176 15.0177ZM14.6855 13.463C14.9919 13.0035 15.6127 12.8793 16.0723 13.1857C16.5318 13.492 16.656 14.1129 16.3496 14.5724C15.1607 16.3558 13.6276 17.0177 12.0176 17.0177C10.4076 17.0177 8.87447 16.3558 7.68555 14.5724C7.37919 14.1129 7.50336 13.492 7.96289 13.1857C8.42242 12.8793 9.04326 13.0035 9.34961 13.463C10.1607 14.6796 11.0637 15.0177 12.0176 15.0177C12.9714 15.0177 13.8745 14.6796 14.6855 13.463ZM8.01758 3.0177C8.56986 3.0177 9.01758 3.46542 9.01758 4.0177C9.01758 4.56998 8.56986 5.0177 8.01758 5.0177H5.01758V8.0177C5.01758 8.56998 4.56986 9.0177 4.01758 9.0177C3.46529 9.0177 3.01758 8.56998 3.01758 8.0177V4.0177C3.01758 3.75248 3.12301 3.49821 3.31055 3.31067C3.49808 3.12313 3.75236 3.0177 4.01758 3.0177H8.01758ZM20.0176 3.0177C20.5699 3.0177 21.0176 3.46542 21.0176 4.0177V8.0177C21.0176 8.56998 20.5699 9.0177 20.0176 9.0177C19.4653 9.0177 19.0176 8.56998 19.0176 8.0177V5.0177H16.0176C15.4653 5.0177 15.0176 4.56998 15.0176 4.0177C15.0176 3.46542 15.4653 3.0177 16.0176 3.0177H20.0176Z" fill="#3F524C"/>
</g>
</svg>
