<svg width="25" height="25" viewBox="0 0 25 25" fill="none" xmlns="http://www.w3.org/2000/svg">
<circle cx="22.0176" cy="4.0177" r="1" stroke="#0294E7" stroke-width="0.05"/>
<circle cx="2.01758" cy="4.0177" r="1" stroke="#0294E7" stroke-width="0.05"/>
<circle cx="22.0176" cy="20.0177" r="1" stroke="#0294E7" stroke-width="0.05"/>
<circle cx="2.01758" cy="20.0177" r="1" stroke="#0294E7" stroke-width="0.05"/>
<path d="M2.01758 21.0177V3.0177" stroke="#0294E7" stroke-width="0.05"/>
<path d="M22.0176 21.0177V3.0177" stroke="#0294E7" stroke-width="0.05"/>
<path d="M3.01758 24.0177L3.01758 0.0177002" stroke="#0294E7" stroke-width="0.05"/>
<path d="M4.01758 24.0177L4.01758 0.0177002" stroke="#0294E7" stroke-width="0.05"/>
<path d="M20.0176 24.0177L20.0176 0.0177002" stroke="#0294E7" stroke-width="0.05"/>
<path d="M21.0176 24.0177L21.0176 0.0177002" stroke="#0294E7" stroke-width="0.05"/>
<path d="M24.0176 21.0177H0.0175781" stroke="#0294E7" stroke-width="0.05"/>
<path d="M24.0176 20.0177H0.0175781" stroke="#0294E7" stroke-width="0.05"/>
<path d="M24.0176 4.0177H0.0175781" stroke="#0294E7" stroke-width="0.05"/>
<path d="M24.0176 5.0177H0.0175781" stroke="#0294E7" stroke-width="0.05"/>
<path d="M12.0176 24.0177L12.0176 0.0177002" stroke="#0294E7" stroke-width="0.05"/>
<path d="M24.0176 12.0177H0.0175781" stroke="#0294E7" stroke-width="0.05"/>
<path d="M24.0176 19.0177H0.0175781" stroke="#0294E7" stroke-width="0.05"/>
<path d="M24.0176 3.0177H0.0175781" stroke="#0294E7" stroke-width="0.05"/>
<path d="M24.0176 24.0177L0.0175781 0.0177002" stroke="#0294E7" stroke-width="0.05"/>
<path d="M24.0176 0.0177002L0.0175781 24.0177" stroke="#0294E7" stroke-width="0.05"/>
<path d="M19.0176 24.0177L19.0176 0.0177002" stroke="#0294E7" stroke-width="0.05"/>
<path d="M5.01758 24.0177L5.01758 0.0177002" stroke="#0294E7" stroke-width="0.05"/>
<g style="mix-blend-mode:multiply">
<path d="M2.01758 15.0177C2.56986 15.0177 3.01758 15.4654 3.01758 16.0177V19.0177H6.01758C6.56986 19.0177 7.01758 19.4654 7.01758 20.0177C7.01758 20.57 6.56986 21.0177 6.01758 21.0177H2.01758C1.46529 21.0177 1.01758 20.57 1.01758 20.0177V16.0177C1.01758 15.4654 1.46529 15.0177 2.01758 15.0177ZM22.0176 15.0177C22.5699 15.0177 23.0176 15.4654 23.0176 16.0177V20.0177C23.0176 20.57 22.5699 21.0177 22.0176 21.0177H18.0176C17.4653 21.0177 17.0176 20.57 17.0176 20.0177C17.0176 19.4654 17.4653 19.0177 18.0176 19.0177H21.0176V16.0177C21.0176 15.4654 21.4653 15.0177 22.0176 15.0177ZM18.0176 7.0177C18.5699 7.0177 19.0176 7.46542 19.0176 8.0177V16.0177C19.0176 16.57 18.5699 17.0177 18.0176 17.0177H6.01758C5.46529 17.0177 5.01758 16.57 5.01758 16.0177V8.0177C5.01758 7.46542 5.46529 7.0177 6.01758 7.0177H18.0176ZM8.01758 13.0177C7.46529 13.0177 7.01758 13.4654 7.01758 14.0177C7.01758 14.57 7.46529 15.0177 8.01758 15.0177H16.0176C16.5699 15.0177 17.0176 14.57 17.0176 14.0177C17.0176 13.4654 16.5699 13.0177 16.0176 13.0177H8.01758ZM8.01758 9.0177C7.46529 9.0177 7.01758 9.46542 7.01758 10.0177C7.01758 10.57 7.46529 11.0177 8.01758 11.0177H11.0176C11.5699 11.0177 12.0176 10.57 12.0176 10.0177C12.0176 9.46542 11.5699 9.0177 11.0176 9.0177H8.01758ZM6.01758 3.0177C6.56986 3.0177 7.01758 3.46542 7.01758 4.0177C7.01758 4.56998 6.56986 5.0177 6.01758 5.0177H3.01758V8.0177C3.01758 8.56998 2.56986 9.0177 2.01758 9.0177C1.46529 9.0177 1.01758 8.56998 1.01758 8.0177V4.0177C1.01758 3.75248 1.12301 3.49821 1.31055 3.31067C1.49808 3.12313 1.75236 3.0177 2.01758 3.0177H6.01758ZM22.0176 3.0177C22.5699 3.0177 23.0176 3.46542 23.0176 4.0177V8.0177C23.0176 8.56998 22.5699 9.0177 22.0176 9.0177C21.4653 9.0177 21.0176 8.56998 21.0176 8.0177V5.0177H18.0176C17.4653 5.0177 17.0176 4.56998 17.0176 4.0177C17.0176 3.46542 17.4653 3.0177 18.0176 3.0177H22.0176Z" fill="#3F524C"/>
</g>
</svg>
