<svg width="25" height="25" viewBox="0 0 25 25" fill="none" xmlns="http://www.w3.org/2000/svg">
<circle cx="4.01758" cy="20.0177" r="1" stroke="#0294E7" stroke-width="0.05"/>
<circle cx="4.01758" cy="4.0177" r="1" stroke="#0294E7" stroke-width="0.05"/>
<circle cx="20.0176" cy="4.0177" r="1" stroke="#0294E7" stroke-width="0.05"/>
<circle cx="20.0176" cy="20.0177" r="1" stroke="#0294E7" stroke-width="0.05"/>
<path d="M3.01758 24.0177L3.01758 0.0177002" stroke="#0294E7" stroke-width="0.05"/>
<path d="M4.01758 24.0177L4.01758 0.0177002" stroke="#0294E7" stroke-width="0.05"/>
<path d="M20.0176 24.0177L20.0176 0.0177002" stroke="#0294E7" stroke-width="0.05"/>
<path d="M21.0176 24.0177L21.0176 0.0177002" stroke="#0294E7" stroke-width="0.05"/>
<path d="M24.0176 21.0177H0.0175781" stroke="#0294E7" stroke-width="0.05"/>
<path d="M24.0176 20.0177H0.0175781" stroke="#0294E7" stroke-width="0.05"/>
<path d="M24.0176 4.0177H0.0175781" stroke="#0294E7" stroke-width="0.05"/>
<path d="M24.0176 5.0177H0.0175781" stroke="#0294E7" stroke-width="0.05"/>
<path d="M12.0176 24.0177L12.0176 0.0177002" stroke="#0294E7" stroke-width="0.05"/>
<path d="M24.0176 12.0177H0.0175781" stroke="#0294E7" stroke-width="0.05"/>
<path d="M24.0176 19.0177H0.0175781" stroke="#0294E7" stroke-width="0.05"/>
<path d="M24.0176 3.0177H0.0175781" stroke="#0294E7" stroke-width="0.05"/>
<path d="M24.0176 24.0177L0.0175781 0.0177002" stroke="#0294E7" stroke-width="0.05"/>
<path d="M24.0176 0.0177002L0.0175781 24.0177" stroke="#0294E7" stroke-width="0.05"/>
<path d="M19.0176 24.0177L19.0176 0.0177002" stroke="#0294E7" stroke-width="0.05"/>
<path d="M5.01758 24.0177L5.01758 0.0177002" stroke="#0294E7" stroke-width="0.05"/>
<g style="mix-blend-mode:multiply">
<path d="M11.0176 12.0177C11.5699 12.0177 12.0176 12.4654 12.0176 13.0177V20.0177C12.0176 20.2829 11.9121 20.5372 11.7246 20.7247C11.5371 20.9123 11.2828 21.0177 11.0176 21.0177H4.01758C3.75236 21.0177 3.49808 20.9123 3.31055 20.7247C3.12301 20.5372 3.01758 20.2829 3.01758 20.0177V13.0177C3.01758 12.7525 3.12301 12.4982 3.31055 12.3107C3.49808 12.1231 3.75236 12.0177 4.01758 12.0177H11.0176ZM20.0176 15.0177C20.5698 15.0177 21.0175 15.4654 21.0176 16.0177V20.0177C21.0176 20.57 20.5699 21.0177 20.0176 21.0177H16.0176C15.4653 21.0177 15.0176 20.57 15.0176 20.0177C15.0176 19.4654 15.4653 19.0177 16.0176 19.0177H19.0176V16.0177C19.0176 15.4654 19.4653 15.0177 20.0176 15.0177ZM5.01758 19.0177H10.0176V14.0177H5.01758V19.0177ZM15.5176 13.0177C16.346 13.0177 17.0176 13.6893 17.0176 14.5177C17.0176 15.3461 16.346 16.0177 15.5176 16.0177C14.6892 16.0177 14.0176 15.3461 14.0176 14.5177C14.0176 13.6893 14.6892 13.0177 15.5176 13.0177ZM9.51758 7.0177C10.346 7.0177 11.0176 7.68928 11.0176 8.5177C11.0176 9.34613 10.346 10.0177 9.51758 10.0177C8.68915 10.0177 8.01758 9.34613 8.01758 8.5177C8.01758 7.68927 8.68915 7.0177 9.51758 7.0177ZM20.0176 3.0177C20.5699 3.0177 21.0176 3.46542 21.0176 4.0177V9.0177C21.0176 9.56998 20.5699 10.0177 20.0176 10.0177H15.0176C14.7524 10.0177 14.4981 9.91227 14.3105 9.72473C14.123 9.5372 14.0176 9.28292 14.0176 9.0177V4.0177C14.0176 3.75249 14.123 3.4982 14.3105 3.31067C14.4981 3.12313 14.7524 3.0177 15.0176 3.0177H20.0176ZM8.01758 3.0177C8.56984 3.0177 9.01754 3.46545 9.01758 4.0177C9.01758 4.56998 8.56986 5.0177 8.01758 5.0177H5.01758V8.0177C5.01758 8.56998 4.56986 9.0177 4.01758 9.0177C3.46529 9.0177 3.01758 8.56998 3.01758 8.0177V4.0177C3.01761 3.46545 3.46532 3.0177 4.01758 3.0177H8.01758ZM16.0176 8.0177H19.0176V5.0177H16.0176V8.0177Z" fill="#3F524C"/>
</g>
</svg>
