<svg width="20" height="20" viewBox="0 0 20 20" fill="none" xmlns="http://www.w3.org/2000/svg">
<path fill-rule="evenodd" clip-rule="evenodd" d="M12 15.7357C12 15.1834 11.5523 14.7357 11 14.7357H9C8.44772 14.7357 8 15.1834 8 15.7357V18.8597C8 19.4119 7.55228 19.8597 7 19.8597H3C2.44772 19.8597 2 19.4119 2 18.8597L2 12.6093C2 12.3018 2.14147 12.0114 2.3836 11.8218L9.6918 6.10091C9.87283 5.9592 10.1272 5.9592 10.3082 6.10091L17.6164 11.8218C17.8585 12.0114 18 12.3018 18 12.6093V18.8597C18 19.4119 17.5523 19.8597 17 19.8597H13C12.4477 19.8597 12 19.4119 12 18.8597V15.7357Z" fill="#3F524C"/>
<path fill-rule="evenodd" clip-rule="evenodd" d="M0 8.34031C0 8.03653 0.13809 7.74922 0.375305 7.55944L9.68765 0.109566C9.87026 -0.0365219 10.1297 -0.0365218 10.3123 0.109566L19.6247 7.55944C19.8619 7.74922 20 8.03653 20 8.34031V10.3597C20 10.7717 19.5296 11.0069 19.2 10.7597L10.3 4.08469C10.1222 3.95135 9.87778 3.95135 9.7 4.08469L0.8 10.7597C0.470382 11.0069 0 10.7717 0 10.3597V8.34031Z" fill="#3F524C"/>
</svg>
