<svg width="24" height="24" viewBox="0 0 24 24" fill="none" xmlns="http://www.w3.org/2000/svg">
<path fill-rule="evenodd" clip-rule="evenodd" d="M20 12.9999C20.8284 12.9999 21.5 13.6715 21.5 14.4999V17.4999C21.5 20.5375 19.0376 22.9999 16 22.9999H8C4.96243 22.9999 2.5 20.5375 2.5 17.4999V14.4999C2.5 13.6715 3.17157 12.9999 4 12.9999C4.82843 12.9999 5.5 13.6715 5.5 14.4999V17.4999C5.5 18.8806 6.61929 19.9999 8 19.9999H16C17.3807 19.9999 18.5 18.8806 18.5 17.4999V14.4999C18.5 13.6715 19.1716 12.9999 20 12.9999ZM10.9395 1.43934C11.5252 0.853553 12.4748 0.853554 13.0605 1.43934L18.0605 6.43934C18.6463 7.02513 18.6463 7.97465 18.0605 8.56043C17.4748 9.14622 16.5252 9.14622 15.9395 8.56043L13.5 6.12098V15.4999C13.5 16.3283 12.8284 16.9999 12 16.9999C11.1716 16.9999 10.5 16.3283 10.5 15.4999V6.12098L8.06055 8.56043C7.47476 9.14622 6.52524 9.14622 5.93945 8.56043C5.35367 7.97465 5.35367 7.02512 5.93945 6.43934L10.9395 1.43934Z" fill="#4E6F64"/>
</svg>
