<svg width="24" height="24" viewBox="0 0 24 24" fill="none" xmlns="http://www.w3.org/2000/svg">
<path d="M12 20C12 14 12 8 12 2" stroke="#FF00FF" stroke-width="2" stroke-linejoin="round"/>
<path d="M11 20C9.66667 15.3333 8 10.3333 6 5" stroke="#FF00FF" stroke-width="2" stroke-linejoin="round"/>
<path d="M10 20C7.33333 17.3333 4.66667 14.3333 2 11" stroke="#FF00FF" stroke-width="2" stroke-linejoin="round"/>
<path d="M9 20C7 19.3333 5 18.3333 3 17" stroke="#FF00FF" stroke-width="2" stroke-linejoin="round"/>
<path d="M13 20C14.3333 15.3333 16 10.3333 18 5" stroke="#FF00FF" stroke-width="2" stroke-linejoin="round"/>
<path d="M14 20C16.6667 17.3333 19.3333 14.3333 22 11" stroke="#FF00FF" stroke-width="2" stroke-linejoin="round"/>
<path d="M15 20C17 19.3333 19 18.3333 21 17" stroke="#FF00FF" stroke-width="2" stroke-linejoin="round"/>
<path d="M5 20C9.66667 21.3333 14.3333 21.3333 19 20" stroke="#FF00FF" stroke-width="2" stroke-linejoin="round"/>
</svg>
