<svg width="24" height="24" viewBox="0 0 24 24" fill="none" xmlns="http://www.w3.org/2000/svg">
<path d="M3 9.5C3 5.5 7 3.5 12 3.5C17 3.5 21 5.5 21 9.5" stroke="#FF00FF" stroke-width="2" stroke-linejoin="round"/>
<path d="M3 11.5C4 12.5 5 10.5 6 11.5C7 12.5 8 12.5 9 11.5C10 10.5 11 10.5 12 11.5C13 12.5 14 12.5 15 11.5C16 10.5 17 10.5 18 11.5C19 12.5 20 12.5 21 11.5" stroke="#FF00FF" stroke-width="2" stroke-linejoin="round"/>
<path d="M3 15.5H21" stroke="#FF00FF" stroke-width="2" stroke-linejoin="round"/>
<path d="M3 18.5C8 20.5 16 20.5 21 18.5" stroke="#FF00FF" stroke-width="2" stroke-linejoin="round"/>
</svg>
