<svg width="24" height="24" viewBox="0 0 24 24" fill="none" xmlns="http://www.w3.org/2000/svg">
<path d="M3 3.5H21" stroke="#FF00FF" stroke-width="2" stroke-linejoin="round"/>
<path d="M12 3.5V4.5" stroke="#FF00FF" stroke-width="2" stroke-linejoin="round"/>
<path d="M10 4.5H14C14.2652 4.5 14.5196 4.60536 14.7071 4.79289C14.8946 4.98043 15 5.23478 15 5.5V6.5C15 6.76522 14.8946 7.01957 14.7071 7.20711C14.5196 7.39464 14.2652 7.5 14 7.5H10C9.73478 7.5 9.48043 7.39464 9.29289 7.20711C9.10536 7.01957 9 6.76522 9 6.5V5.5C9 5.23478 9.10536 4.98043 9.29289 4.79289C9.48043 4.60536 9.73478 4.5 10 4.5Z" stroke="#FF00FF" stroke-width="2" stroke-linejoin="round"/>
<path d="M9.99999 7.5C6.99999 9.5 5.99999 13.5 7.99999 16.5C8.99999 18.5 11 20.5 12 20.5C13 20.5 15 18.5 16 16.5C18 13.5 17 9.5 14 7.5H9.99999Z" stroke="#FF00FF" stroke-width="2" stroke-linejoin="round"/>
</svg>
