<svg width="24" height="24" viewBox="0 0 24 24" fill="none" xmlns="http://www.w3.org/2000/svg">
<path d="M4.99999 3.5C2.99999 10 6.49999 13.5 4.99999 20.5H19C20.5 13.5 17 10 19 3.5H4.99999Z" stroke="#FF00FF" stroke-width="2" stroke-linejoin="round"/>
<path d="M8 8H16M8 11H14" stroke="#FF00FF" stroke-width="2" stroke-linejoin="round"/>
<path d="M18 16C18 16.5304 17.7893 17.0391 17.4142 17.4142C17.0391 17.7893 16.5304 18 16 18C15.4696 18 14.9609 17.7893 14.5858 17.4142C14.2107 17.0391 14 16.5304 14 16C14 15.4696 14.2107 14.9609 14.5858 14.5858C14.9609 14.2107 15.4696 14 16 14C16.5304 14 17.0391 14.2107 17.4142 14.5858C17.7893 14.9609 18 15.4696 18 16Z" stroke="#FF00FF" stroke-width="2" stroke-linejoin="round"/>
</svg>
