<svg width="24" height="24" viewBox="0 0 24 24" fill="none" xmlns="http://www.w3.org/2000/svg">
<path d="M3 12.5C3 9.83333 4.33333 8.5 7 8.5C10.3333 7.16667 13.6667 7.16667 17 8.5C19.6667 8.5 21 9.83333 21 12.5V16.5C21 18.5 19.6667 19.5 17 19.5H7C4.33333 19.5 3 18.5 3 16.5V12.5Z" stroke="#FF00FF" stroke-width="2" stroke-linejoin="round"/>
<path d="M8 8.5V6.5C8 5.16667 9.33333 4.5 12 4.5C14.6667 4.5 16 5.16667 16 6.5V8.5" stroke="#FF00FF" stroke-width="2" stroke-linejoin="round"/>
<path d="M5 11.5C9.66667 10.8333 14.3333 10.8333 19 11.5" stroke="#FF00FF" stroke-width="2" stroke-linejoin="round"/>
<path d="M3 14.5H1M21 14.5H23" stroke="#FF00FF" stroke-width="2" stroke-linejoin="round"/>
</svg>
