<svg width="24" height="24" viewBox="0 0 24 24" fill="none" xmlns="http://www.w3.org/2000/svg">
<path d="M12 2C9.33333 4.66667 8 7.66667 8 11V15L5 18H9V20H15V18H19L16 15V11C16 7.66667 14.6667 4.66667 12 2Z" stroke="#FF00FF" stroke-width="2" stroke-linejoin="round"/>
<path d="M14 10C14 10.5304 13.7893 11.0391 13.4142 11.4142C13.0391 11.7893 12.5304 12 12 12C11.4696 12 10.9609 11.7893 10.5858 11.4142C10.2107 11.0391 10 10.5304 10 10C10 9.46957 10.2107 8.96086 10.5858 8.58579C10.9609 8.21071 11.4696 8 12 8C12.5304 8 13.0391 8.21071 13.4142 8.58579C13.7893 8.96086 14 9.46957 14 10Z" stroke="#FF00FF" stroke-width="2" stroke-linejoin="round"/>
<path d="M10 20C11.3333 22 12.6667 22 14 20" stroke="#FF00FF" stroke-width="2" stroke-linejoin="round"/>
</svg>
