<svg width="24" height="24" viewBox="0 0 24 24" fill="none" xmlns="http://www.w3.org/2000/svg">
<path d="M6.5 11.5H16.5C17.5609 11.5 18.5783 11.9214 19.3284 12.6716C20.0786 13.4217 20.5 14.4391 20.5 15.5C20.5 16.5609 20.0786 17.5783 19.3284 18.3284C18.5783 19.0786 17.5609 19.5 16.5 19.5H6.5C5.43913 19.5 4.42172 19.0786 3.67157 18.3284C2.92143 17.5783 2.5 16.5609 2.5 15.5C2.5 14.4391 2.92143 13.4217 3.67157 12.6716C4.42172 11.9214 5.43913 11.5 6.5 11.5Z" stroke="#FF00FF" stroke-width="2" stroke-linejoin="round"/>
<path d="M8.5 6.5H14.5C14.7652 6.5 15.0196 6.60536 15.2071 6.79289C15.3946 6.98043 15.5 7.23478 15.5 7.5V11.5H7.5V7.5C7.5 7.23478 7.60536 6.98043 7.79289 6.79289C7.98043 6.60536 8.23478 6.5 8.5 6.5Z" stroke="#FF00FF" stroke-width="2" stroke-linejoin="round"/>
<path d="M11.5 6.5V2.5H15.5" stroke="#FF00FF" stroke-width="2" stroke-linejoin="round"/>
<path d="M21.5 14.5V16.5" stroke="#FF00FF" stroke-width="2" stroke-linejoin="round"/>
<path d="M8.49999 15.5C8.23482 15.5001 7.98055 15.6056 7.79312 15.7932C7.60568 15.9807 7.50042 16.2351 7.50049 16.5002C7.50055 16.7654 7.60594 17.0197 7.79347 17.2072C7.981 17.3947 8.23531 17.5 8.50049 17.5C8.76566 17.5 9.01998 17.3947 9.20751 17.2072C9.39504 17.0197 9.50042 16.7654 9.50049 16.5002C9.50055 16.2351 9.39529 15.9807 9.20786 15.7932C9.02042 15.6056 8.76616 15.5001 8.50099 15.5H8.49999Z" fill="#FF00FF"/>
<path d="M11.5 15.5C11.2348 15.5001 10.9806 15.6056 10.7931 15.7932C10.6057 15.9807 10.5004 16.2351 10.5005 16.5002C10.5006 16.7654 10.6059 17.0197 10.7935 17.2072C10.981 17.3947 11.2353 17.5 11.5005 17.5C11.7657 17.5 12.02 17.3947 12.2075 17.2072C12.395 17.0197 12.5004 16.7654 12.5005 16.5002C12.5006 16.2351 12.3953 15.9807 12.2079 15.7932C12.0204 15.6056 11.7662 15.5001 11.501 15.5H11.5Z" fill="#FF00FF"/>
<path d="M14.5 15.5C14.2348 15.5001 13.9806 15.6056 13.7931 15.7932C13.6057 15.9807 13.5004 16.2351 13.5005 16.5002C13.5006 16.7654 13.6059 17.0197 13.7935 17.2072C13.981 17.3947 14.2353 17.5 14.5005 17.5C14.7657 17.5 15.02 17.3947 15.2075 17.2072C15.395 17.0197 15.5004 16.7654 15.5005 16.5002C15.5006 16.2351 15.3953 15.9807 15.2079 15.7932C15.0204 15.6056 14.7662 15.5001 14.501 15.5H14.5Z" fill="#FF00FF"/>
</svg>
