<svg width="24" height="24" viewBox="0 0 24 24" fill="none" xmlns="http://www.w3.org/2000/svg">
<path d="M4 20H20V15H18V11H16V7H8V11H6V15H4V20Z" stroke="#FF00FF" stroke-width="2" stroke-linejoin="round"/>
<path d="M8 11H16" stroke="#FF00FF" stroke-width="2" stroke-linejoin="round"/>
<path d="M6 15H18" stroke="#FF00FF" stroke-width="2" stroke-linejoin="round"/>
<path d="M11 4C11 4.26522 10.8946 4.51957 10.7071 4.70711C10.5196 4.89464 10.2652 5 10 5C9.73478 5 9.48043 4.89464 9.29289 4.70711C9.10536 4.51957 9 4.26522 9 4C9 3.73478 9.10536 3.48043 9.29289 3.29289C9.48043 3.10536 9.73478 3 10 3C10.2652 3 10.5196 3.10536 10.7071 3.29289C10.8946 3.48043 11 3.73478 11 4Z" stroke="#FF00FF" stroke-width="2" stroke-linejoin="round"/>
<path d="M15 4C15 4.26522 14.8946 4.51957 14.7071 4.70711C14.5196 4.89464 14.2652 5 14 5C13.7348 5 13.4804 4.89464 13.2929 4.70711C13.1054 4.51957 13 4.26522 13 4C13 3.73478 13.1054 3.48043 13.2929 3.29289C13.4804 3.10536 13.7348 3 14 3C14.2652 3 14.5196 3.10536 14.7071 3.29289C14.8946 3.48043 15 3.73478 15 4Z" stroke="#FF00FF" stroke-width="2" stroke-linejoin="round"/>
</svg>
