<svg width="24" height="24" viewBox="0 0 24 24" fill="none" xmlns="http://www.w3.org/2000/svg">
<path d="M3.74992 2.44999C3.93263 2.25643 4.16554 2.11746 4.42264 2.04859C4.67975 1.97973 4.95093 1.98367 5.20592 2.05999C5.64092 2.18999 6.00592 2.51999 6.17392 2.96999C9.61792 8.41999 14.9479 10.77 20.8239 9.92099L20.9729 9.90599C21.7119 9.85199 22.4009 10.194 22.7609 10.798C23.1489 11.451 23.0669 12.27 22.5029 12.863L22.3839 12.979C20.9129 14.293 18.7439 15.531 16.3059 16.034C17.0459 16.247 17.8389 16.432 18.6929 16.584L19.4529 16.711L19.5069 16.721C20.5799 16.947 21.1589 18.344 20.2669 19.212L20.1759 19.294C15.8819 22.909 9.09393 22.994 4.73493 18.984L4.31993 18.584C-0.00907493 14.174 0.0249248 7.03199 3.67192 2.53799L3.74992 2.44999ZM4.53793 4.76599C2.19893 8.52599 2.47392 13.848 5.74792 17.182L6.08792 17.512C9.36792 20.526 14.3659 20.742 17.9199 18.472C14.1419 17.739 11.2429 16.397 9.05392 14.142C6.85392 11.876 5.47092 8.78699 4.53793 4.76599ZM7.48092 7.70999C8.26092 9.81899 9.24193 11.464 10.4889 12.75C10.9289 13.203 11.4109 13.615 11.9339 13.993C15.0359 14.835 18.2979 13.623 20.4429 11.985C15.5589 12.513 11.0169 11.048 7.48092 7.70999Z" fill="#FF00FF"/>
</svg>
