<svg width="24" height="24" viewBox="0 0 24 24" fill="none" xmlns="http://www.w3.org/2000/svg">
<path d="M16.0001 3C16.3271 3 16.6331 3.16 16.8201 3.427L19.6951 7.534L21.8601 5.731L23.1401 7.27L20.4201 9.537L18.4841 20.18C18.442 20.4102 18.3204 20.6184 18.1406 20.7682C17.9608 20.9181 17.7342 21.0001 17.5001 21H6.50011C6.26608 20.9998 6.03954 20.9175 5.85993 20.7675C5.68031 20.6175 5.559 20.4092 5.51711 20.179L3.58211 9.537L0.860107 7.27L2.14011 5.73L4.30411 7.533L7.18011 3.426L7.25511 3.33C7.44511 3.121 7.71611 3 8.00011 3H16.0001ZM7.33411 19H16.6661L18.3031 10H5.69811L7.33411 19ZM6.42111 8H17.5801L15.4801 5H8.52111L6.42111 8Z" fill="#FF00FF"/>
</svg>
