<svg width="24" height="24" viewBox="0 0 24 24" fill="none" xmlns="http://www.w3.org/2000/svg">
<path d="M5 9.39503C5 9.49903 5.016 9.57503 5.034 9.62503C5.0411 9.65009 5.05413 9.67308 5.072 9.69203C5.423 10.002 6.182 10.5 7.5 10.5C8.819 10.5 9.577 10.002 9.928 9.69203L9.943 9.67403C9.95285 9.65867 9.96091 9.64223 9.967 9.62503C9.99087 9.55077 10.002 9.47301 10 9.39503V4.00003H12V9.39503C12 9.92403 11.856 10.586 11.355 11.093L11.251 11.193C10.721 11.659 9.824 12.228 8.5 12.427V21H6.5V12.427C5.176 12.227 4.278 11.659 3.749 11.192C3.163 10.676 3 9.96003 3 9.39503V4.00003H5V9.39503ZM18.51 2.12803C18.6623 2.04311 18.8341 1.9994 19.0084 2.00121C19.1828 2.00303 19.3536 2.0503 19.5041 2.13837C19.6546 2.22644 19.7795 2.35224 19.8665 2.50336C19.9534 2.65448 19.9995 2.82567 20 3.00003V21H18V17H15.003C14.7581 17 14.5217 16.9101 14.3386 16.7473C14.1556 16.5846 14.0387 16.3603 14.01 16.117L14.004 16.017L14.003 16.013V15.967L14 15.83C13.9958 15.1019 14.0048 14.3738 14.027 13.646C14.068 12.321 14.167 10.632 14.411 9.31703L14.51 8.82903C15.026 6.43903 15.928 4.81403 16.758 3.75803C17.198 3.19703 17.614 2.80203 17.931 2.54103C18.0943 2.40585 18.2656 2.28062 18.444 2.16603L18.485 2.14303L18.5 2.13303C18.502 2.13303 18.503 2.13103 18.505 2.13003L18.508 2.12903C18.509 2.12903 18.51 2.12803 18.999 3.00003L18.51 2.12803ZM18 5.45503C17.44 6.28903 16.84 7.51303 16.465 9.25403L16.379 9.68303C16.164 10.839 16.068 12.4 16.027 13.708C16.0141 14.1386 16.0061 14.5693 16.003 15H18V5.45503ZM8.5 9.00003H6.5V4.00003H8.5V9.00003Z" fill="#FF00FF"/>
</svg>
