<svg width="24" height="24" viewBox="0 0 24 24" fill="none" xmlns="http://www.w3.org/2000/svg">
<path d="M14.5121 3.60202C16.6701 2.77202 18.7451 2.71402 20.0161 3.98402C21.2061 5.17502 21.2311 7.07402 20.5461 9.08402L20.3991 9.48802C20.0931 10.283 19.6111 11.148 19.0641 12C19.6111 12.852 20.0931 13.717 20.3991 14.512L20.5451 14.916C21.2311 16.926 21.2071 18.825 20.0151 20.016C18.7451 21.286 16.6701 21.229 14.5121 20.398C13.6362 20.054 12.7945 19.6284 11.9981 19.127C11.2981 19.562 10.5851 19.941 9.8741 20.242L9.4891 20.398C7.3981 21.203 5.3851 21.282 4.1061 20.131L3.9851 20.016C2.7151 18.746 2.7721 16.67 3.6021 14.512L3.7721 14.094C4.0701 13.396 4.4421 12.694 4.8721 12C4.45297 11.3309 4.08525 10.6308 3.7721 9.90602L3.6021 9.48802C2.7721 7.33002 2.7141 5.25502 3.9851 3.98402L4.1051 3.86902C5.3851 2.71902 7.3981 2.79702 9.4891 3.60202L9.8741 3.75802C10.5851 4.05802 11.2971 4.43702 11.9981 4.87202C12.8311 4.35502 13.6771 3.92202 14.5121 3.60202ZM6.1351 13.802C5.9391 14.162 5.7651 14.52 5.6141 14.873L5.4691 15.23C4.7141 17.195 5.0071 18.21 5.3991 18.602L5.4791 18.674C5.9221 19.026 6.9291 19.239 8.7691 18.531L9.0951 18.401C9.4571 18.247 9.8251 18.066 10.1981 17.863C9.44259 17.271 8.72361 16.6339 8.0451 15.955C7.36559 15.2769 6.72776 14.5582 6.1351 13.803V13.802ZM18.6021 5.39802C18.2101 5.00602 17.1951 4.71402 15.2311 5.46802C13.3361 6.19802 11.2621 7.65602 9.4591 9.45902C8.6678 10.2478 7.93957 11.0974 7.2811 12C7.93957 12.9026 8.6678 13.7522 9.4591 14.541C11.2621 16.344 13.3361 17.803 15.2311 18.531C17.1951 19.287 18.2101 18.994 18.6011 18.601C18.9691 18.234 19.2511 17.318 18.6611 15.587L18.5311 15.23C18.3611 14.788 18.1121 14.298 17.8141 13.785C17.7671 13.847 17.7231 13.91 17.6761 13.971C16.6061 15.373 15.5091 16.6 14.9121 17.168L14.2221 16.444L13.5321 15.721C14.0291 15.247 15.0571 14.107 16.0861 12.758C16.2761 12.508 16.4621 12.254 16.6451 12C16.4625 11.7446 16.2761 11.4919 16.0861 11.242C15.0561 9.89302 14.0301 8.75202 13.5331 8.27902L14.2231 7.55602L14.9131 6.83202C15.5091 7.40002 16.6061 8.62702 17.6761 10.029L17.8141 10.214C18.1121 9.70102 18.3611 9.21202 18.5321 8.77002L18.6621 8.41302C19.2501 6.68202 18.9691 5.76602 18.6021 5.39802ZM8.7701 5.46802C6.9291 4.76102 5.9221 4.97402 5.4801 5.32602L5.3991 5.39802C5.0071 5.79002 4.7141 6.80602 5.4691 8.77002L5.6141 9.12702C5.7641 9.47902 5.9391 9.83702 6.1351 10.197C6.72776 9.4418 7.36559 8.72316 8.0451 8.04502C8.7251 7.36502 9.4491 6.72202 10.1981 6.13502C9.83939 5.93877 9.47128 5.76022 9.0951 5.60002L8.7701 5.46802Z" fill="#FF00FF"/>
</svg>
