<svg width="24" height="24" viewBox="0 0 24 24" fill="none" xmlns="http://www.w3.org/2000/svg">
<path d="M15.532 5.207C15.58 5.207 15.55 5.197 15.416 5.257C15.2642 5.3304 15.119 5.41671 14.982 5.515C14.6737 5.73203 14.3849 5.97563 14.119 6.243L12.746 7.646C12.6527 7.74088 12.5414 7.81623 12.4186 7.86767C12.2959 7.9191 12.1641 7.94559 12.031 7.94559C11.8979 7.94559 11.7662 7.9191 11.6434 7.86767C11.5206 7.81623 11.4094 7.74088 11.316 7.646L9.94501 6.243C9.62779 5.91512 9.24786 5.65439 8.82783 5.47632C8.40779 5.29826 7.95623 5.2065 7.50001 5.2065C7.04379 5.2065 6.59224 5.29826 6.1722 5.47632C5.75217 5.65439 5.37224 5.91512 5.05501 6.243C4.07501 7.245 3.87501 8.211 4.06701 9.172C4.27601 10.214 4.97101 11.352 6.00301 12.532C7.02301 13.698 8.29101 14.818 9.51901 15.834C10.406 16.568 11.309 17.278 12.033 17.884C12.6139 17.4137 13.203 16.9536 13.8 16.504C14.753 15.776 15.778 14.989 16.726 14.15C17.677 13.31 18.516 12.448 19.109 11.587C19.704 10.723 19.999 9.933 19.993 9.217L21.993 9.197C22.005 10.48 21.478 11.673 20.756 12.722C20.032 13.774 19.058 14.76 18.051 15.649C17.042 16.542 15.963 17.369 15.014 18.094C14.044 18.834 13.244 19.442 12.716 19.936C12.336 20.293 11.743 20.298 11.358 19.946C10.63 19.282 9.54101 18.448 8.26201 17.391L5.44701 20.207H8.03301V22.207H3.03301C2.7678 22.207 2.51344 22.1016 2.32591 21.9141C2.13837 21.7266 2.03301 21.4722 2.03301 21.207V16.207H4.03301V18.793L6.74101 16.084C5.94914 15.3847 5.20012 14.6384 4.49801 13.849C3.38201 12.572 2.41701 11.116 2.10601 9.565C1.77901 7.933 2.20001 6.303 3.62601 4.845C4.1294 4.32681 4.73163 3.91488 5.39706 3.63359C6.06248 3.3523 6.77758 3.20737 7.50001 3.20737C8.22245 3.20737 8.93755 3.3523 9.60297 3.63359C10.2684 3.91488 10.8706 4.32681 11.374 4.845L12.032 5.517L12.69 4.845C13.0442 4.48662 13.4297 4.16065 13.842 3.871C14.069 3.714 14.324 3.557 14.587 3.438C14.837 3.324 15.171 3.208 15.533 3.207V5.207H15.532Z" fill="#7B61FF"/>
<path d="M23.739 2.414L20.945 5.207H23.031V7.207H18.94L15.532 10.555L14.13 9.128L17.53 5.788V1.706H19.53V3.791L22.326 1L23.739 2.414Z" fill="#7B61FF"/>
</svg>
