<svg width="24" height="24" viewBox="0 0 24 24" fill="none" xmlns="http://www.w3.org/2000/svg">
<path d="M6.7998 12.625C7.33717 12.625 7.8231 12.6243 8.22559 12.6572C8.6441 12.6914 9.09219 12.769 9.53223 12.9932C10.1672 13.3167 10.6833 13.8328 11.0068 14.4678C11.231 14.9078 11.3086 15.3559 11.3428 15.7744C11.3757 16.1769 11.375 16.6628 11.375 17.2002V17.7998C11.375 18.3372 11.3757 18.8231 11.3428 19.2256C11.3086 19.6441 11.231 20.0922 11.0068 20.5322C10.6833 21.1672 10.1672 21.6833 9.53223 22.0068C9.09219 22.231 8.64411 22.3086 8.22559 22.3428C7.8231 22.3757 7.33717 22.375 6.7998 22.375H6.2002C5.66283 22.375 5.1769 22.3757 4.77441 22.3428C4.3559 22.3086 3.90781 22.231 3.46777 22.0068C2.83283 21.6833 2.31672 21.1672 1.99316 20.5322C1.76896 20.0922 1.69142 19.6441 1.65723 19.2256C1.62434 18.8231 1.625 18.3372 1.625 17.7998V17.2002C1.625 16.6628 1.62434 16.1769 1.65723 15.7744C1.69142 15.3559 1.76896 14.9078 1.99316 14.4678C2.31672 13.8328 2.83283 13.3167 3.46777 12.9932C3.90781 12.769 4.3559 12.6914 4.77441 12.6572C5.1769 12.6243 5.66283 12.625 6.2002 12.625H6.7998ZM15 18C16.1046 18 17 18.8954 17 20C17 21.1046 16.1046 22 15 22C13.8954 22 13 21.1046 13 20C13 18.8954 13.8954 18 15 18ZM20 18C21.1046 18 22 18.8954 22 20C22 21.1046 21.1046 22 20 22C18.8954 22 18 21.1046 18 20C18 18.8954 18.8954 18 20 18ZM6.2002 15.375C5.61746 15.375 5.26257 15.3758 4.99805 15.3975C4.75306 15.4175 4.70526 15.4486 4.71582 15.4434C4.59857 15.5032 4.50322 15.5986 4.44336 15.7158C4.44856 15.7053 4.4175 15.7531 4.39746 15.998C4.37585 16.2626 4.375 16.6175 4.375 17.2002V17.7998C4.375 18.3825 4.37585 18.7374 4.39746 19.002C4.4175 19.247 4.44856 19.2947 4.44336 19.2842C4.50322 19.4014 4.59857 19.4968 4.71582 19.5566C4.70527 19.5515 4.75308 19.5825 4.99805 19.6025C5.26257 19.6242 5.61746 19.625 6.2002 19.625H6.7998C7.38254 19.625 7.73743 19.6242 8.00195 19.6025C8.24696 19.5825 8.29475 19.5514 8.28418 19.5566C8.40143 19.4968 8.49678 19.4014 8.55664 19.2842C8.55144 19.2947 8.5825 19.247 8.60254 19.002C8.62415 18.7374 8.625 18.3825 8.625 17.7998V17.2002C8.625 16.6175 8.62415 16.2626 8.60254 15.998C8.5825 15.7531 8.55145 15.7053 8.55664 15.7158C8.49678 15.5986 8.40143 15.5032 8.28418 15.4434C8.29475 15.4486 8.24696 15.4175 8.00195 15.3975C7.73743 15.3758 7.38254 15.375 6.7998 15.375H6.2002ZM15 13C16.1046 13 17 13.8954 17 15C17 16.1046 16.1046 17 15 17C13.8954 17 13 16.1046 13 15C13 13.8954 13.8954 13 15 13ZM20 13C21.1046 13 22 13.8954 22 15C22 16.1046 21.1046 17 20 17C18.8954 17 18 16.1046 18 15C18 13.8954 18.8954 13 20 13ZM6.7998 1.625C7.33717 1.625 7.8231 1.62434 8.22559 1.65723C8.6441 1.69142 9.09219 1.76896 9.53223 1.99316C10.1672 2.31672 10.6833 2.83283 11.0068 3.46777C11.231 3.90781 11.3086 4.3559 11.3428 4.77441C11.3757 5.1769 11.375 5.66283 11.375 6.2002V6.7998C11.375 7.33717 11.3757 7.8231 11.3428 8.22559C11.3086 8.6441 11.231 9.09219 11.0068 9.53223C10.6833 10.1672 10.1672 10.6833 9.53223 11.0068C9.09219 11.231 8.64411 11.3086 8.22559 11.3428C7.8231 11.3757 7.33717 11.375 6.7998 11.375H6.2002C5.66283 11.375 5.1769 11.3757 4.77441 11.3428C4.3559 11.3086 3.90781 11.231 3.46777 11.0068C2.83283 10.6833 2.31672 10.1672 1.99316 9.53223C1.76896 9.09219 1.69142 8.6441 1.65723 8.22559C1.62434 7.8231 1.625 7.33717 1.625 6.7998V6.2002C1.625 5.66283 1.62434 5.1769 1.65723 4.77441C1.69142 4.3559 1.76896 3.90781 1.99316 3.46777C2.31672 2.83283 2.83283 2.31672 3.46777 1.99316C3.90781 1.76896 4.3559 1.69142 4.77441 1.65723C5.1769 1.62434 5.66283 1.625 6.2002 1.625H6.7998ZM17.7998 1.625C18.3372 1.625 18.8231 1.62434 19.2256 1.65723C19.6441 1.69142 20.0922 1.76896 20.5322 1.99316C21.1672 2.31672 21.6833 2.83283 22.0068 3.46777C22.231 3.90781 22.3086 4.3559 22.3428 4.77441C22.3757 5.1769 22.375 5.66283 22.375 6.2002V6.7998C22.375 7.33717 22.3757 7.8231 22.3428 8.22559C22.3086 8.6441 22.231 9.09219 22.0068 9.53223C21.6833 10.1672 21.1672 10.6833 20.5322 11.0068C20.0922 11.231 19.6441 11.3086 19.2256 11.3428C18.8231 11.3757 18.3372 11.375 17.7998 11.375H17.2002C16.6628 11.375 16.1769 11.3757 15.7744 11.3428C15.3559 11.3086 14.9078 11.231 14.4678 11.0068C13.8328 10.6833 13.3167 10.1672 12.9932 9.53223C12.769 9.09219 12.6914 8.6441 12.6572 8.22559C12.6243 7.8231 12.625 7.33717 12.625 6.7998V6.2002C12.625 5.66283 12.6243 5.1769 12.6572 4.77441C12.6914 4.3559 12.769 3.90781 12.9932 3.46777C13.3167 2.83283 13.8328 2.31672 14.4678 1.99316C14.9078 1.76896 15.3559 1.69142 15.7744 1.65723C16.1769 1.62434 16.6628 1.625 17.2002 1.625H17.7998ZM6.2002 4.375C5.61746 4.375 5.26257 4.37585 4.99805 4.39746C4.75306 4.4175 4.70526 4.44856 4.71582 4.44336C4.59857 4.50322 4.50322 4.59857 4.44336 4.71582C4.44856 4.70526 4.4175 4.75306 4.39746 4.99805C4.37585 5.26257 4.375 5.61746 4.375 6.2002V6.7998C4.375 7.38254 4.37585 7.73743 4.39746 8.00195C4.4175 8.24696 4.44856 8.29475 4.44336 8.28418C4.50322 8.40143 4.59857 8.49678 4.71582 8.55664C4.70527 8.55145 4.75308 8.5825 4.99805 8.60254C5.26257 8.62415 5.61746 8.625 6.2002 8.625H6.7998C7.38254 8.625 7.73743 8.62415 8.00195 8.60254C8.24696 8.5825 8.29475 8.55144 8.28418 8.55664C8.40143 8.49678 8.49678 8.40143 8.55664 8.28418C8.55144 8.29475 8.5825 8.24696 8.60254 8.00195C8.62415 7.73743 8.625 7.38254 8.625 6.7998V6.2002C8.625 5.61746 8.62415 5.26257 8.60254 4.99805C8.5825 4.75308 8.55145 4.70527 8.55664 4.71582C8.49678 4.59857 8.40143 4.50322 8.28418 4.44336C8.29475 4.44856 8.24696 4.4175 8.00195 4.39746C7.73743 4.37585 7.38254 4.375 6.7998 4.375H6.2002ZM17.2002 4.375C16.6175 4.375 16.2626 4.37585 15.998 4.39746C15.7531 4.4175 15.7053 4.44856 15.7158 4.44336C15.5986 4.50322 15.5032 4.59857 15.4434 4.71582C15.4486 4.70526 15.4175 4.75306 15.3975 4.99805C15.3758 5.26257 15.375 5.61746 15.375 6.2002V6.7998C15.375 7.38254 15.3758 7.73743 15.3975 8.00195C15.4175 8.24696 15.4486 8.29475 15.4434 8.28418C15.5032 8.40143 15.5986 8.49678 15.7158 8.55664C15.7053 8.55145 15.7531 8.5825 15.998 8.60254C16.2626 8.62415 16.6175 8.625 17.2002 8.625H17.7998C18.3825 8.625 18.7374 8.62415 19.002 8.60254C19.247 8.5825 19.2947 8.55144 19.2842 8.55664C19.4014 8.49678 19.4968 8.40143 19.5566 8.28418C19.5514 8.29475 19.5825 8.24696 19.6025 8.00195C19.6242 7.73743 19.625 7.38254 19.625 6.7998V6.2002C19.625 5.61746 19.6242 5.26257 19.6025 4.99805C19.5825 4.75308 19.5515 4.70527 19.5566 4.71582C19.4968 4.59857 19.4014 4.50322 19.2842 4.44336C19.2947 4.44856 19.247 4.4175 19.002 4.39746C18.7374 4.37585 18.3825 4.375 17.7998 4.375H17.2002Z" fill="#4E6F64"/>
</svg>
