<svg width="96" height="24" viewBox="0 0 96 24" fill="none" xmlns="http://www.w3.org/2000/svg">
<path d="M2.92781 6.51202V13.136L6.15981 9.60002H8.51181L5.34381 12.864L8.76781 18H6.54381L4.03181 14.208L2.92781 15.328V18H1.00781V6.51202H2.92781Z" fill="black"/>
<path d="M10.7022 8.59202C10.0462 8.59202 9.58219 8.14402 9.58219 7.48802C9.58219 6.83202 10.0462 6.38402 10.7022 6.38402C11.3582 6.38402 11.8222 6.83202 11.8222 7.48802C11.8222 8.14402 11.3582 8.59202 10.7022 8.59202ZM9.74219 18.288V9.60002H11.6622V18.656C11.6622 20.208 10.5582 20.928 9.07019 20.928C8.65419 20.928 8.41419 20.912 8.14219 20.88V19.248C8.30219 19.264 8.44619 19.28 8.70219 19.28C9.42219 19.28 9.74219 19.024 9.74219 18.288Z" fill="black"/>
<path d="M15.8077 13.552V18H13.7597V6.51202H18.3517C20.9117 6.51202 22.5117 7.71202 22.5117 10.032C22.5117 11.84 21.5197 12.992 19.8397 13.392L22.7997 18H20.4637L17.6637 13.552H15.8077ZM15.8077 11.792H18.2397C19.7117 11.792 20.4957 11.152 20.4957 10.032C20.4957 8.89602 19.7117 8.27202 18.2397 8.27202H15.8077V11.792Z" fill="black"/>
<path d="M28.3907 18.176C27.3027 18.176 26.5027 17.744 25.9747 17.12V18H24.0547V6.51202H25.9747V10.496C26.5027 9.87202 27.3027 9.44002 28.3907 9.44002C30.7427 9.44002 32.0867 11.424 32.0867 13.808C32.0867 16.192 30.7427 18.176 28.3907 18.176ZM25.9267 13.568V14.064C25.9267 15.616 26.8227 16.496 28.0067 16.496C29.3987 16.496 30.1507 15.408 30.1507 13.808C30.1507 12.208 29.3987 11.12 28.0067 11.12C26.8227 11.12 25.9267 11.984 25.9267 13.568Z" fill="black"/>
<path d="M35.1543 12.88C35.1543 10.368 34.0983 7.95202 32.5623 6.19202H34.5623C36.0023 7.72802 37.3463 10.032 37.3463 12.88C37.3463 15.728 36.0023 18.032 34.5623 19.568H32.5623C34.0983 17.84 35.1543 15.392 35.1543 12.88Z" fill="black"/>
<path d="M38.6797 18V6.51202H40.5997V10.496C41.0797 9.93602 41.8317 9.44002 42.9197 9.44002C44.6797 9.44002 45.7357 10.656 45.7357 12.464V18H43.8157V13.024C43.8157 11.984 43.3997 11.232 42.3437 11.232C41.4797 11.232 40.5997 11.872 40.5997 13.072V18H38.6797Z" fill="black"/>
<path d="M51.2652 18.784C50.7852 20.064 50.0492 20.944 48.3052 20.944C47.9052 20.944 47.7932 20.928 47.5212 20.896V19.28C47.7772 19.312 47.9212 19.328 48.1612 19.328C48.8012 19.328 49.1052 19.152 49.3772 18.48L49.6972 17.696L46.6412 9.60002H48.6572L50.7212 15.488L52.7372 9.60002H54.7212L51.2652 18.784Z" fill="black"/>
<path d="M55.2458 12.256C55.2458 8.76802 57.4858 6.33602 60.5898 6.33602C63.6938 6.33602 65.9338 8.76802 65.9338 12.256C65.9338 14.4 65.0858 16.144 63.7098 17.184C64.1738 17.792 64.9578 18.256 65.8698 18.48L64.6858 19.936C63.6298 19.632 62.5578 18.848 62.0778 17.968C61.6138 18.112 61.1178 18.176 60.5898 18.176C57.4858 18.176 55.2458 15.744 55.2458 12.256ZM63.8858 12.256C63.8858 9.76002 62.5258 8.14402 60.5898 8.14402C58.6538 8.14402 57.2938 9.76002 57.2938 12.256C57.2938 14.752 58.6538 16.368 60.5898 16.368C62.5258 16.368 63.8858 14.752 63.8858 12.256Z" fill="black"/>
<path d="M66.4373 15.808L67.9413 14.528C68.5973 15.632 69.4293 16.24 70.5333 16.416V12.896C68.7893 12.56 67.0133 12.032 67.0133 9.77602C67.0133 7.87202 68.5173 6.60802 70.5333 6.38402V4.84802H72.0533V6.38402C73.6693 6.59202 74.9973 7.36002 75.6213 8.44802L74.2293 9.76002C73.7173 8.88002 72.9813 8.28802 72.0533 8.08002V11.344C73.8133 11.68 75.6533 12.208 75.6533 14.576C75.6533 16.56 74.0853 17.856 72.0533 18.128V19.696H70.5333V18.144C68.7253 17.952 67.2213 17.104 66.4373 15.808ZM68.8693 9.63202C68.8693 10.48 69.5733 10.816 70.5333 11.056V8.03202C69.5413 8.20802 68.8693 8.75202 68.8693 9.63202ZM73.7813 14.72C73.7813 13.808 73.0453 13.44 72.0533 13.2V16.4C73.0453 16.24 73.7813 15.728 73.7813 14.72Z" fill="black"/>
<path d="M77.6984 12.576C76.9304 12.576 76.3704 12.032 76.3704 11.264C76.3704 10.496 76.9304 9.93602 77.6984 9.93602C78.4664 9.93602 79.0104 10.496 79.0104 11.264C79.0104 12.032 78.4664 12.576 77.6984 12.576ZM76.5304 20.288V19.216C77.2184 19.104 77.6184 18.624 77.6184 18.032C76.8984 18 76.3704 17.472 76.3704 16.784C76.3704 16.048 76.8824 15.52 77.5704 15.52C78.4344 15.52 79.0264 16.208 79.0264 17.312C79.0264 18.928 78.1144 20.112 76.5304 20.288Z" fill="black"/>
<path d="M83.6282 8.08002C82.3642 8.08002 81.6122 8.96002 81.4522 10.256L79.4842 9.95202C79.7402 7.93602 81.2922 6.33602 83.7402 6.33602C85.9962 6.33602 87.5802 7.72802 87.5802 9.79202C87.5802 11.712 86.1562 12.864 84.6682 13.12V14.528H82.7802V11.824C84.4602 11.824 85.5322 11.216 85.5322 9.90402C85.5322 8.80002 84.7802 8.08002 83.6282 8.08002ZM83.7402 18.16C82.9722 18.16 82.4122 17.616 82.4122 16.848C82.4122 16.08 82.9722 15.52 83.7402 15.52C84.5082 15.52 85.0522 16.08 85.0522 16.848C85.0522 17.616 84.5082 18.16 83.7402 18.16Z" fill="black"/>
<path d="M93.7662 18L91.7822 15.088L89.8142 18H87.7342L90.6942 13.648L87.9422 9.60002H90.1182L91.8462 12.224L93.6062 9.60002H95.7022L92.9502 13.648L95.9262 18H93.7662Z" fill="black"/>
</svg>
