<svg width="24" height="24" viewBox="0 0 24 24" fill="none" xmlns="http://www.w3.org/2000/svg">
<path d="M16 3C19.866 3 23 6.13401 23 10V17C23 19.2091 21.2091 21 19 21H18.9092C16.7502 21 15 19.2498 15 17.0908C15 17.0407 14.9593 17 14.9092 17H9.09082C9.04068 17 9.00005 17.0407 9 17.0908C9 19.2498 7.24975 21 5.09082 21H5C2.79086 21 1 19.2091 1 17V10C1 6.13401 4.13401 3 8 3H16ZM8 5C5.23858 5 3 7.23858 3 10V17C3 18.1046 3.89543 19 5 19H5.09082C6.14518 19 7 18.1452 7 17.0908C7.00005 15.9361 7.93611 15 9.09082 15H14.9092C16.0639 15 17 15.9361 17 17.0908C17 18.1452 17.8548 19 18.9092 19H19C20.1046 19 21 18.1046 21 17V10C21 7.23858 18.7614 5 16 5H8ZM17.5 10.5C18.3284 10.5 19 11.1716 19 12C19 12.8284 18.3284 13.5 17.5 13.5C16.6716 13.5 16 12.8284 16 12C16 11.1716 16.6716 10.5 17.5 10.5ZM8 7C8.55228 7 9 7.44772 9 8V9H10C10.5523 9 11 9.44772 11 10C11 10.5523 10.5523 11 10 11H9V12C9 12.5523 8.55228 13 8 13C7.44772 13 7 12.5523 7 12V11H6C5.44772 11 5 10.5523 5 10C5 9.44772 5.44772 9 6 9H7V8C7 7.44772 7.44772 7 8 7ZM14.5 7C15.3284 7 16 7.67157 16 8.5C16 9.32843 15.3284 10 14.5 10C13.6716 10 13 9.32843 13 8.5C13 7.67157 13.6716 7 14.5 7Z" fill="#101010"/>
</svg>
