<svg width="24" height="24" viewBox="0 0 24 24" fill="none" xmlns="http://www.w3.org/2000/svg">
<path d="M8.99976 3C9.55204 3 9.99976 3.44772 9.99976 4C9.99976 4.55228 9.55204 5 8.99976 5H8.1228C6.74633 5.00014 5.5465 5.93706 5.21265 7.27246L4.073 11.8262C4.83512 11.3051 5.75672 11 6.74976 11C9.11786 11 11.0805 12.7331 11.4402 15H12.5593C12.9189 12.7331 14.8818 11.0001 17.2498 11C18.2423 11 19.1636 11.3046 19.9255 11.8252L18.7869 7.27246C18.453 5.93701 17.2533 5.00003 15.8767 5H14.9998C14.4476 4.99986 13.9998 4.5522 13.9998 4C13.9998 3.4478 14.4476 3.00014 14.9998 3H15.8767C18.1709 3.00003 20.1707 4.56144 20.7273 6.78711L22.9695 15.7578C22.9703 15.761 22.9707 15.7644 22.9714 15.7676C22.9846 15.8227 22.9923 15.8793 22.9958 15.9375C22.9967 15.9502 22.9975 15.9629 22.9978 15.9756C22.998 15.9837 22.9998 15.9918 22.9998 16C22.9998 16.0121 22.9982 16.0241 22.9978 16.0361C22.9974 16.0476 22.9966 16.0589 22.9958 16.0703C22.9944 16.0907 22.9926 16.1108 22.99 16.1309C22.9877 16.1483 22.9844 16.1654 22.9812 16.1826C22.9789 16.195 22.9771 16.2075 22.9744 16.2197C22.9706 16.2365 22.9663 16.253 22.9617 16.2695C22.9384 16.3527 22.9048 16.431 22.8621 16.5039C22.8576 16.5115 22.853 16.5189 22.8484 16.5264C22.8209 16.5705 22.7904 16.6122 22.7566 16.6514C22.7464 16.6633 22.7361 16.6751 22.7253 16.6865C22.7146 16.6979 22.7034 16.7089 22.6921 16.7197C22.6819 16.7296 22.6716 16.7395 22.6609 16.749C22.6216 16.7837 22.5793 16.8145 22.5349 16.8428C22.5221 16.8509 22.5091 16.8586 22.4958 16.8662C22.4802 16.8752 22.4642 16.8834 22.448 16.8916C22.4395 16.8958 22.4312 16.9003 22.4226 16.9043C22.3674 16.9301 22.3099 16.9513 22.2498 16.9668C22.2472 16.9675 22.2446 16.9691 22.2419 16.9697C22.2394 16.9704 22.2367 16.9701 22.2341 16.9707C22.2059 16.9775 22.1773 16.983 22.1482 16.9873C22.1443 16.9879 22.1404 16.9887 22.1365 16.9893C22.1117 16.9926 22.0866 16.9946 22.0613 16.9961C22.0485 16.9969 22.0359 16.9977 22.0232 16.998C22.0155 16.9982 22.0075 17 21.9998 17H21.9402C21.5805 19.2669 19.6179 21 17.2498 21C14.8818 20.9999 12.9189 19.2669 12.5593 17H11.4402C11.0805 19.2669 9.11786 21 6.74976 21C4.38175 20.9999 2.41895 19.2669 2.05933 17H1.99976C1.99158 17 1.98347 16.9982 1.97534 16.998C1.96233 16.9977 1.94935 16.9969 1.93628 16.9961C1.91224 16.9946 1.88854 16.9924 1.86499 16.9893C1.85879 16.9884 1.85264 16.9873 1.84644 16.9863C1.82004 16.9823 1.79399 16.9778 1.76831 16.9717C1.76486 16.9709 1.76102 16.9706 1.75757 16.9697C1.75288 16.9686 1.74855 16.9661 1.7439 16.9648C1.68676 16.9497 1.6315 16.9308 1.57886 16.9062C1.56826 16.9013 1.55797 16.8959 1.54761 16.8906C1.53302 16.8832 1.5188 16.8753 1.50464 16.8672C1.48911 16.8583 1.47368 16.8495 1.45874 16.8398C1.44437 16.8306 1.4306 16.8205 1.41675 16.8105C1.40615 16.8029 1.39575 16.7951 1.3855 16.7871C1.3698 16.7748 1.35452 16.7622 1.3396 16.749C1.33042 16.7409 1.32111 16.733 1.31226 16.7246C1.29922 16.7122 1.28652 16.6996 1.27417 16.6865C1.26324 16.6749 1.25229 16.6634 1.24194 16.6514C1.18522 16.5854 1.1375 16.5119 1.09937 16.4326C1.09671 16.4271 1.0941 16.4216 1.09155 16.416C1.08257 16.3964 1.07389 16.3767 1.06616 16.3564C1.06281 16.3477 1.0595 16.3389 1.0564 16.3301C1.04789 16.3058 1.04057 16.281 1.03394 16.2559C1.03256 16.2507 1.03133 16.2454 1.03003 16.2402C1.02424 16.2168 1.01948 16.193 1.01538 16.1689C1.01326 16.1566 1.01118 16.1443 1.00952 16.1318C1.00726 16.1147 1.00504 16.0975 1.00366 16.0801C1.00231 16.0632 1.00122 16.0463 1.00073 16.0293C1.00045 16.0196 0.999756 16.0098 0.999756 16C0.999756 15.9928 1.00058 15.9857 1.00073 15.9785C1.00115 15.96 1.0022 15.9415 1.00366 15.9229C1.00486 15.9071 1.00662 15.8915 1.00854 15.876C1.01015 15.8633 1.0123 15.8506 1.0144 15.8379C1.01827 15.8142 1.02161 15.7906 1.0271 15.7676C1.02789 15.7643 1.02921 15.7611 1.03003 15.7578L3.27222 6.78711C3.82873 4.56149 5.82867 3.00014 8.1228 3H8.99976ZM6.74976 13C5.23109 13.0001 3.99976 14.2313 3.99976 15.75V16.25C3.99976 17.7687 5.23108 18.9999 6.74976 19C8.26854 19 9.49976 17.7688 9.49976 16.25V15.75C9.49975 14.2312 8.26854 13 6.74976 13ZM17.2498 13C15.7311 13.0001 14.4998 14.2313 14.4998 15.75V16.25C14.4998 17.7687 15.7311 18.9999 17.2498 19C18.7685 19 19.9998 17.7688 19.9998 16.25V15.75C19.9998 14.2312 18.7685 13 17.2498 13Z" fill="#101010"/>
</svg>
