<svg width="24" height="24" viewBox="0 0 24 24" fill="none" xmlns="http://www.w3.org/2000/svg">
<path fill-rule="evenodd" clip-rule="evenodd" d="M13.5527 1.10547C14.0466 0.858574 14.6475 1.05891 14.8945 1.55273C15.1415 2.04668 14.9412 2.64751 14.4473 2.89453L13 3.61816V4.57226C15.9873 5.00562 18.4088 7.33288 18.9053 10H19C19.5522 10 19.9999 10.4478 20 11C20 11.5523 19.5523 12 19 12H18.873L17.6084 21.2705C17.4731 22.2613 16.627 23 15.627 23H8.37305C7.37302 23 6.52688 22.2613 6.3916 21.2705L5.12695 12H5C4.44772 12 4 11.5523 4 11C4.00012 10.4478 4.44779 10 5 10H5.09473C5.59121 7.33288 8.01273 5.00562 11 4.57226V3L11.0098 2.85937C11.0555 2.53727 11.2565 2.25359 11.5527 2.10547L13.5527 1.10547ZM8.37305 21H15.627L16.8545 12H13V18C13 18.5523 12.5523 19 12 19C11.4477 19 11 18.5523 11 18V12H7.14551L8.37305 21ZM13 10H16.8496C16.389 8.43933 14.9085 6.98737 13 6.60058V10ZM11 6.60058C9.09154 6.98737 7.61097 8.43933 7.15039 10H11V6.60058Z" fill="#101010"/>
</svg>
