<svg width="24" height="24" viewBox="0 0 24 24" fill="none" xmlns="http://www.w3.org/2000/svg">
<path fill-rule="evenodd" clip-rule="evenodd" d="M7.39746 4.20072C7.64782 4.01196 7.9729 3.95165 8.27441 4.03764L22.2744 8.03764C22.7036 8.16026 22.9999 8.55321 23 8.99955V19.9996C23 20.5518 22.5523 20.9996 22 20.9996H2C1.44772 20.9996 1 20.5518 1 19.9996V13.9996C1.00011 13.6653 1.16721 13.3529 1.44531 13.1675L7 9.4644V4.99955C7.0001 4.68588 7.14704 4.38962 7.39746 4.20072ZM3 14.5347V18.9996H7V11.8677L3 14.5347ZM9 18.9996H12V14.9996C12.0002 14.4474 12.4478 13.9996 13 13.9996H17C17.5522 13.9996 17.9998 14.4474 18 14.9996V18.9996H21V9.75346L9 6.32475V18.9996ZM14 18.9996H16V15.9996H14V18.9996Z" fill="#101010"/>
</svg>
