<svg width="24" height="24" viewBox="0 0 24 24" fill="none" xmlns="http://www.w3.org/2000/svg">
<path fill-rule="evenodd" clip-rule="evenodd" d="M17.0735 4C18.0201 4.00011 18.8853 4.53518 19.3088 5.38184L21.2942 9.35254C21.6581 9.28829 21.9478 9.22993 22.1672 9.18066C22.3621 9.13689 22.5018 9.10071 22.5891 9.07715C22.6323 9.06549 22.663 9.05701 22.6809 9.05176C22.6894 9.04925 22.6957 9.0477 22.6985 9.04688H22.6994C23.225 8.88098 23.7861 9.17178 23.9533 9.69727C24.11 10.1904 23.8643 10.7153 23.3996 10.917L23.303 10.9531H23.302L23.3 10.9541C23.2989 10.9544 23.2974 10.9547 23.2961 10.9551C23.2928 10.9561 23.2882 10.9575 23.2834 10.959C23.2737 10.962 23.2602 10.966 23.2444 10.9707C23.2124 10.9801 23.1678 10.9933 23.1106 11.0088C22.9953 11.0399 22.8278 11.082 22.6057 11.1318C22.4343 11.1703 22.2297 11.2112 21.9914 11.2568C21.9966 11.3282 22.0002 11.3998 22.0002 11.4717V20C22.0002 20.5523 21.5525 21 21.0002 21H17.0002C16.4481 20.9999 16.0002 20.5522 16.0002 20V18.5H8.00022V20C8.00022 20.5523 7.5525 21 7.00022 21H3.00022C2.44806 20.9999 2.00022 20.5522 2.00022 20V11.4717C2.00023 11.3999 2.0029 11.3282 2.00803 11.2568C1.77027 11.2113 1.56588 11.1703 1.39475 11.1318C1.17263 11.0819 1.0051 11.0399 0.889868 11.0088C0.832583 10.9933 0.788035 10.9801 0.756079 10.9707C0.740173 10.966 0.726719 10.962 0.717016 10.959C0.712246 10.9575 0.707587 10.9561 0.704321 10.9551C0.702987 10.9547 0.701481 10.9544 0.700414 10.9541L0.698461 10.9531H0.697485C0.171539 10.7856 -0.119949 10.2233 0.0470942 9.69727C0.214189 9.17211 0.774715 8.88174 1.30002 9.04688H1.30198C1.30201 9.04689 1.3023 9.04673 1.30198 9.04785C1.30472 9.04869 1.31116 9.04932 1.31956 9.05176C1.3374 9.057 1.36809 9.06547 1.41135 9.07715C1.49857 9.1007 1.63829 9.13688 1.83323 9.18066C2.05234 9.22988 2.34187 9.28836 2.7053 9.35254L4.69163 5.38184C5.11507 4.5352 5.98037 4.00021 6.92698 4H17.0735ZM4.00022 19H6.00022V17.5C6.00022 16.9478 6.44806 16.5001 7.00022 16.5H17.0002C17.5525 16.5 18.0002 16.9477 18.0002 17.5V19H20.0002V11.5674C18.186 11.7952 15.5662 12 12.0002 12C8.434 12 5.81444 11.7942 4.00022 11.5664V19ZM14.0002 13.5C14.5525 13.5 15.0002 13.9477 15.0002 14.5C15.0002 15.0523 14.5525 15.5 14.0002 15.5H10.0002C9.44806 15.4999 9.00022 15.0522 9.00022 14.5C9.00022 13.9478 9.44806 13.5001 10.0002 13.5H14.0002ZM6.92698 6C6.73781 6.00021 6.56432 6.10714 6.47971 6.27637L4.79416 9.64648C6.49334 9.83657 8.86057 9.99999 12.0002 10C15.1391 10 17.5062 9.8365 19.2053 9.64648L17.5207 6.27637C17.4361 6.10712 17.2627 6.00011 17.0735 6H6.92698Z" fill="#101010"/>
</svg>
