<svg width="24" height="24" viewBox="0 0 24 24" fill="none" xmlns="http://www.w3.org/2000/svg">
<path fill-rule="evenodd" clip-rule="evenodd" d="M1.38477 3.21236C1.62741 3.02293 1.94354 2.95613 2.24219 3.03072L22.2422 8.03072C22.6873 8.14204 23 8.54161 23 9.00045V20.0004C22.9998 20.5525 22.5522 21.0004 22 21.0004C21.4478 21.0004 21.0002 20.5525 21 20.0004V9.78072L3 5.28072V20.0004C2.99978 20.5525 2.55215 21.0004 2 21.0004C1.44785 21.0004 1.00022 20.5525 1 20.0004V4.00045C1 3.69259 1.14217 3.40187 1.38477 3.21236ZM15.0732 11.0004C16.02 11.0006 16.8851 11.5356 17.3086 12.3823L18.2314 14.227C18.2468 14.2217 18.2622 14.2184 18.2764 14.2133C18.3897 14.1733 18.4683 14.1418 18.5137 14.1225C18.5319 14.1148 18.545 14.1094 18.5527 14.1059H18.5537L18.5596 14.103C19.0523 13.8611 19.6486 14.0614 19.8945 14.5532C20.1413 15.0471 19.9411 15.648 19.4473 15.895L19 15.0004C19.4164 15.8332 19.4447 15.8909 19.4463 15.895L19.4453 15.896L19.4434 15.8969C19.442 15.8976 19.4401 15.8981 19.4385 15.8989C19.4353 15.9005 19.4318 15.9028 19.4277 15.9047C19.4192 15.9089 19.408 15.9136 19.3955 15.9194C19.3702 15.9311 19.3366 15.9466 19.2949 15.9643C19.2173 15.9973 19.1103 16.0384 18.9736 16.0874C18.9901 16.2145 19 16.3432 19 16.4721V20.0004C18.9998 20.5525 18.5522 21.0004 18 21.0004C17.4478 21.0004 17.0002 20.5525 17 20.0004V16.5952C15.8182 16.8141 14.1766 17.0004 12 17.0004C9.82338 17.0004 8.18179 16.8141 7 16.5952V20.0004C6.99978 20.5525 6.55215 21.0004 6 21.0004C5.44785 21.0004 5.00022 20.5525 5 20.0004V16.4721C5.00002 16.3432 5.00895 16.2145 5.02539 16.0874C4.8891 16.0386 4.78257 15.9972 4.70508 15.9643C4.66338 15.9466 4.62979 15.9311 4.60449 15.9194C4.592 15.9136 4.58083 15.9089 4.57227 15.9047C4.56821 15.9028 4.56468 15.9005 4.56152 15.8989C4.55994 15.8981 4.55802 15.8976 4.55664 15.8969L4.55469 15.896L4.55371 15.895C4.55525 15.8908 4.58361 15.8332 5 15.0004L4.55273 15.895C4.05886 15.648 3.85873 15.0471 4.10547 14.5532C4.35135 14.0614 4.94772 13.8611 5.44043 14.103L5.44238 14.104C5.44888 14.1069 5.46386 14.113 5.48633 14.1225C5.53169 14.1418 5.6103 14.1733 5.72363 14.2133C5.73758 14.2183 5.75257 14.2218 5.76758 14.227L6.69141 12.3823C7.11489 11.5356 7.98004 11.0006 8.92676 11.0004H15.0732ZM14 18.5004C14.5523 18.5004 15 18.9482 15 19.5004C14.9998 20.0525 14.5522 20.5004 14 20.5004H10C9.44785 20.5004 9.00022 20.0525 9 19.5004C9 18.9482 9.44771 18.5004 10 18.5004H14ZM8.92676 13.0004C8.73749 13.0006 8.56414 13.1075 8.47949 13.2768L7.76855 14.6987C8.79448 14.864 10.1873 15.0004 12 15.0004C13.8121 15.0004 15.2046 14.8639 16.2305 14.6987L15.5205 13.2768C15.4359 13.1075 15.2625 13.0006 15.0732 13.0004H8.92676ZM18.5596 14.103L18.5576 14.104L18.5586 14.103L18.5605 14.102L18.5596 14.103Z" fill="#101010"/>
</svg>
