<svg width="24" height="24" viewBox="0 0 24 24" fill="none" xmlns="http://www.w3.org/2000/svg">
<path fill-rule="evenodd" clip-rule="evenodd" d="M14.0859 3.60531C14.468 3.12224 15.1998 2.92998 15.793 3.32796L18.5381 5.16976L18.5771 5.1971C20.8635 6.89546 21.9999 9.4185 22 11.9998V19.9998C22 20.5521 21.5523 20.9998 21 20.9998C20.4477 20.9998 20 20.5521 20 19.9998V11.9998C19.9999 10.021 19.1391 8.11082 17.3926 6.80941L15.2588 5.37679C14.661 6.08188 13.5838 6.99984 12 6.99984C10.4147 6.99984 9.33575 6.08123 8.73828 5.37581L6.58203 6.81331C4.85848 8.11469 4.00006 10.0236 4 11.9998V19.9998C4 20.5521 3.55228 20.9998 3 20.9998C2.44772 20.9998 2 20.5521 2 19.9998V11.9998C2.00006 9.41941 3.13605 6.89828 5.40039 5.20003L5.44531 5.16781L8.20996 3.32503L8.33008 3.25374C8.8987 2.9567 9.55827 3.15471 9.91406 3.60531L9.98535 3.70492L10.1191 3.90023C10.473 4.3798 11.1138 4.99984 12 4.99984C13.0124 4.99984 13.7045 4.19056 14.0146 3.70589L14.0859 3.60531ZM17 12.9998C17.5522 12.9998 17.9999 13.4477 18 13.9998V19.9998C18 20.5521 17.5523 20.9998 17 20.9998H7C6.44772 20.9998 6 20.5521 6 19.9998V13.9998C6.00012 13.4477 6.44779 12.9998 7 12.9998C7.55221 12.9998 7.99988 13.4477 8 13.9998V18.9998H16V13.9998C16.0001 13.4477 16.4478 12.9998 17 12.9998ZM15 8.99984C15.5522 8.99984 15.9999 9.44766 16 9.99984C16 10.5521 15.5523 10.9998 15 10.9998H13C12.4477 10.9998 12 10.5521 12 9.99984C12.0001 9.44766 12.4478 8.99984 13 8.99984H15Z" fill="#101010"/>
</svg>
