<svg width="24" height="24" viewBox="0 0 24 24" fill="none" xmlns="http://www.w3.org/2000/svg">
<path fill-rule="evenodd" clip-rule="evenodd" d="M10.4169 3.00385C10.9673 2.95799 11.4502 3.36656 11.496 3.91694L11.9199 8.99213C11.99 9.83344 11.6819 10.9211 10.6279 11.3984C10.1109 11.6325 9.40923 11.8518 8.49995 11.9482V20.9999C8.49995 21.5522 8.05223 21.9999 7.49995 21.9999C6.94767 21.9999 6.49995 21.5522 6.49995 20.9999V11.9482C5.59066 11.8518 4.88904 11.6325 4.37202 11.3984C3.31801 10.9211 3.00992 9.83344 3.08003 8.99213L3.50386 3.91694C3.54972 3.36656 4.03258 2.95799 4.58296 3.00385C5.13333 3.04972 5.54191 3.53258 5.49605 4.08295L5.07319 9.15815C5.06082 9.30659 5.08679 9.42066 5.11812 9.48823C5.14461 9.5452 5.17031 9.56429 5.19624 9.57612C5.62606 9.77074 6.36905 9.99994 7.49995 9.99994C8.63086 9.99994 9.37384 9.77074 9.80366 9.57612C9.82959 9.56429 9.8553 9.54519 9.88179 9.48823C9.91312 9.42066 9.93908 9.30659 9.92671 9.15815L9.50386 4.08295C9.45799 3.53258 9.86657 3.04972 10.4169 3.00385ZM18.5107 2.12787C18.8203 1.95436 19.1995 1.95724 19.5058 2.13666C19.8121 2.31612 19.9999 2.64498 20 2.99994V20.9999C20 21.5522 19.5522 21.9999 19 21.9999C18.4477 21.9999 18 21.5522 18 20.9999V16.9999H15.0029C14.4573 16.9997 14.0129 16.5621 14.0039 16.0165V16.0156C14.0038 16.015 14.0029 16.0137 14.0029 16.0126V15.9667C14.0025 15.9352 14.0014 15.889 14.0009 15.83C14 15.7121 13.9995 15.5417 14 15.33C14.0009 14.9066 14.0075 14.3151 14.0283 13.6455C14.0693 12.3212 14.1681 10.6323 14.4121 9.31733C14.9052 6.65892 15.874 4.88479 16.7587 3.75776C17.1993 3.19669 17.6151 2.80181 17.9316 2.54096C18.0896 2.41073 18.2226 2.31346 18.3222 2.24604C18.372 2.21233 18.4135 2.18553 18.4453 2.16596C18.4611 2.1562 18.4753 2.14896 18.4863 2.14252C18.4915 2.13944 18.4959 2.13608 18.5 2.13373C18.502 2.13257 18.5041 2.13082 18.5058 2.12983L18.5087 2.12885L18.5097 2.12787C18.5103 2.12756 18.5111 2.1276 19 2.99994L18.5107 2.12787ZM18 5.45502C17.3951 6.35596 16.7444 7.71205 16.3789 9.68256C16.1643 10.8393 16.0678 12.4004 16.0273 13.708C16.0123 14.1934 16.0059 14.6362 16.0029 14.9999H18V5.45502ZM7.49995 2.99994C8.05223 2.99995 8.49995 3.44766 8.49995 3.99994V7.99994C8.49995 8.55223 8.05223 8.99994 7.49995 8.99994C6.94767 8.99994 6.49995 8.55223 6.49995 7.99994V3.99994C6.49995 3.44766 6.94767 2.99994 7.49995 2.99994Z" fill="#101010"/>
</svg>
