<svg width="24" height="24" viewBox="0 0 24 24" fill="none" xmlns="http://www.w3.org/2000/svg">
<path d="M17.5 2.5C17.9 2.5 18.2614 2.73876 18.4189 3.10645L19.6592 6H20C20.5523 6 21 6.44772 21 7C21 7.55228 20.5523 8 20 8H19.8633L17.9893 20.6465C17.9166 21.1368 17.4957 21.5 17 21.5H7C6.50432 21.5 6.08338 21.1368 6.01074 20.6465L4.13672 8H4C3.44772 8 3 7.55228 3 7C3 6.44772 3.44772 6 4 6H4.34082L5.58105 3.10645L5.64941 2.97461C5.82965 2.68266 6.14998 2.5 6.5 2.5H17.5ZM7.86328 19.5H16.1367L17.0996 13H6.90039L7.86328 19.5ZM6.60352 11H17.3965L17.8408 8H6.15918L6.60352 11ZM6.5166 6H17.4834L16.8408 4.5H7.15918L6.5166 6Z" fill="#101010"/>
</svg>
