<svg width="24" height="24" viewBox="0 0 24 24" fill="none" xmlns="http://www.w3.org/2000/svg">
<path d="M16.2869 3C18.2115 3.00012 19.9218 3.97677 20.8494 5.47266C21.1403 5.9419 20.9961 6.55849 20.5271 6.84961C20.0579 7.14043 19.4412 6.99635 19.1501 6.52734C18.5954 5.63254 17.535 5.00012 16.2869 5C14.4054 5.00007 12.9998 6.40727 12.9998 8V9C13.8354 8.37222 14.8741 8.00003 15.9998 8C18.7612 8 20.9998 10.2386 20.9998 13C20.9998 13.5523 20.552 14 19.9998 14C19.4475 13.9999 18.9998 13.5522 18.9998 13C18.9998 11.3431 17.6566 10 15.9998 10C14.343 10.0001 12.9998 11.3432 12.9998 13V19H17.9998C18.552 19 18.9998 19.4477 18.9998 20C18.9998 20.5523 18.552 21 17.9998 21H5.99976C5.44753 20.9999 4.99976 20.5522 4.99976 20C4.99976 19.4478 5.44753 19.0001 5.99976 19H10.9998V13C10.9998 11.3431 9.65661 10 7.99976 10C6.34296 10.0001 4.99976 11.3432 4.99976 13C4.99976 13.5523 4.55204 14 3.99976 14C3.44753 13.9999 2.99976 13.5522 2.99976 13C2.99976 10.2386 5.2384 8.00007 7.99976 8C9.12519 8 10.1642 8.37151 10.9998 8.99902V8C10.9998 6.40723 9.5942 5 7.71265 5C6.4645 5.00017 5.40409 5.63254 4.84937 6.52734C4.55823 6.99633 3.94164 7.1405 3.47241 6.84961C3.00348 6.55848 2.85931 5.94186 3.15015 5.47266C4.07773 3.97677 5.78801 3.00017 7.71265 3C9.44825 3 11.0281 3.80515 11.9998 5.07129C12.9714 3.80514 14.5513 3.00004 16.2869 3Z" fill="#101010"/>
</svg>
