<svg width="24" height="24" viewBox="0 0 24 24" fill="none" xmlns="http://www.w3.org/2000/svg">
<path fill-rule="evenodd" clip-rule="evenodd" d="M0.346515 2.243C0.764587 1.88219 1.39582 1.9285 1.75667 2.34652L2.92073 3.69515H8.6971C9.12284 3.69515 9.50264 3.9649 9.64241 4.36702L10.5535 6.99202C10.8645 7.88709 11.5807 8.58346 12.4842 8.86898L15.911 9.95199L18.5194 10.7059C20.7699 11.3564 22.3492 13.3531 22.4881 15.6678C22.8051 16.0217 22.9998 16.4874 22.9998 16.9998V18.9998C22.9998 20.1044 22.1044 20.9998 20.9998 20.9998H2.99984C1.89527 20.9998 0.999835 20.1044 0.999835 18.9998V16.9998C0.999839 16.5127 1.17426 16.0665 1.4637 15.7196V5.06722L0.242999 3.65316C-0.117802 3.23508 -0.0715087 2.60385 0.346515 2.243ZM2.99984 18.9998H20.9998V16.9998H2.99984V18.9998ZM3.4637 14.9998H14.3026C14.2178 14.6119 14.1463 14.1676 14.1463 13.7391C14.1463 13.1284 14.289 12.3313 14.411 11.7489C14.4226 11.6934 14.4356 11.6388 14.4471 11.5858L11.8817 10.7762C10.376 10.3004 9.18316 9.14081 8.66487 7.64925L7.98616 5.69515H3.4637V14.9998ZM16.367 12.1659C16.2458 12.7459 16.1463 13.3583 16.1463 13.7391C16.1463 14.0996 16.2398 14.5614 16.3543 14.9754C16.3566 14.9837 16.3599 14.9917 16.3621 14.9998H20.3514C20.017 13.8757 19.1343 12.9661 17.9647 12.6278L16.367 12.1659Z" fill="#101010"/>
</svg>
